<svg width="146" height="126" viewBox="0 0 146 126" fill="none" xmlns="http://www.w3.org/2000/svg">
<path d="M134.53 1.62024H11.359C6.86598 1.62024 3.22363 5.25283 3.22363 9.73387V88.2771C3.22363 92.7581 6.86598 96.3907 11.359 96.3907H134.53C139.023 96.3907 142.665 92.7581 142.665 88.2771V9.73387C142.665 5.25283 139.023 1.62024 134.53 1.62024Z" fill="#2375EF"/>
<path d="M134.537 97.1263H11.3589C9.00301 97.1243 6.74426 96.1896 5.07908 94.5275C3.41389 92.8653 2.47851 90.6119 2.47852 88.2622V9.72645C2.48246 7.37874 3.41933 5.12829 5.08388 3.4682C6.74842 1.80811 9.0049 0.873741 11.3589 0.869812H134.537C136.891 0.873746 139.146 1.80835 140.81 3.46866C142.473 5.12896 143.408 7.37942 143.41 9.72645V88.2622C143.411 89.4253 143.182 90.5772 142.737 91.6521C142.292 92.727 141.638 93.7039 140.814 94.527C139.99 95.3501 139.012 96.0033 137.935 96.4493C136.858 96.8953 135.703 97.1253 134.537 97.1263ZM11.3589 2.35583C9.39947 2.35779 7.52084 3.13497 6.1353 4.5168C4.74976 5.89864 3.97049 7.77225 3.96852 9.72645V88.2622C3.97246 90.2152 4.75259 92.0869 6.13792 93.4671C7.52325 94.8473 9.40076 95.6235 11.3589 95.6255H134.537C136.494 95.6215 138.37 94.8445 139.753 93.4645C141.137 92.0845 141.916 90.2139 141.92 88.2622V9.72645C141.918 7.77353 141.14 5.90105 139.756 4.51943C138.372 3.13781 136.495 2.35976 134.537 2.35583H11.3589Z" fill="#093F68"/>
<path d="M95.2309 116.764H50.665L55.3138 96.3833H90.5747L95.2309 116.764Z" fill="#2375EF"/>
<path d="M95.231 117.507H50.6502C50.5383 117.506 50.428 117.481 50.3274 117.432C50.2268 117.383 50.1385 117.312 50.0691 117.225C50.0004 117.138 49.952 117.037 49.9275 116.929C49.903 116.821 49.9031 116.708 49.9276 116.601L54.5764 96.2199C54.6142 96.0522 54.7092 95.9029 54.845 95.7972C54.9808 95.6916 55.1492 95.6361 55.3214 95.6403H90.5822C90.7545 95.6361 90.9228 95.6916 91.0586 95.7972C91.1945 95.9029 91.2894 96.0522 91.3272 96.2199L95.976 116.601C96.0005 116.708 96.0006 116.821 95.9761 116.929C95.9516 117.037 95.9032 117.138 95.8345 117.225C95.7628 117.315 95.6709 117.388 95.5662 117.437C95.4614 117.486 95.3467 117.51 95.231 117.507ZM51.5964 116.021H94.2923L89.9862 97.1263H55.9099L51.5964 116.021Z" fill="#093F68"/>
<path d="M133.166 9.51099H12.7295V79.844H133.166V9.51099Z" fill="white"/>
<path d="M133.166 80.5944H12.7294C12.5318 80.5944 12.3423 80.5161 12.2026 80.3768C12.0629 80.2375 11.9844 80.0485 11.9844 79.8514V9.50357C11.9844 9.30651 12.0629 9.11752 12.2026 8.97818C12.3423 8.83884 12.5318 8.76056 12.7294 8.76056H133.166C133.364 8.76056 133.553 8.83884 133.693 8.97818C133.833 9.11752 133.911 9.30651 133.911 9.50357V79.844C133.912 79.9422 133.894 80.0396 133.857 80.1306C133.82 80.2216 133.765 80.3044 133.696 80.3742C133.626 80.444 133.544 80.4994 133.453 80.5372C133.362 80.575 133.265 80.5944 133.166 80.5944ZM13.4744 79.1084H132.421V10.2466H13.4744V79.1084Z" fill="#093F68"/>
<path d="M100.699 116.764H45.2042C43.0934 116.764 41.3823 118.471 41.3823 120.576C41.3823 122.681 43.0934 124.387 45.2042 124.387H100.699C102.81 124.387 104.521 122.681 104.521 120.576C104.521 118.471 102.81 116.764 100.699 116.764Z" fill="#2375EF"/>
<path d="M100.692 125.13H45.1967C43.9855 125.13 42.8239 124.65 41.9675 123.796C41.111 122.942 40.6299 121.784 40.6299 120.576C40.6299 119.368 41.111 118.209 41.9675 117.355C42.8239 116.501 43.9855 116.021 45.1967 116.021H100.692C101.903 116.021 103.065 116.501 103.921 117.355C104.777 118.209 105.259 119.368 105.259 120.576C105.259 121.784 104.777 122.942 103.921 123.796C103.065 124.65 101.903 125.13 100.692 125.13ZM45.1967 117.507C44.3807 117.507 43.5981 117.83 43.0211 118.406C42.444 118.981 42.1199 119.762 42.1199 120.576C42.1199 121.389 42.444 122.17 43.0211 122.745C43.5981 123.321 44.3807 123.644 45.1967 123.644H100.692C101.508 123.644 102.29 123.321 102.867 122.745C103.444 122.17 103.769 121.389 103.769 120.576C103.769 119.762 103.444 118.981 102.867 118.406C102.29 117.83 101.508 117.507 100.692 117.507H45.1967Z" fill="#093F68"/>
<path d="M99.2464 31.7937C99.2464 53.8685 77.9916 71.7675 72.9479 71.7675C67.9043 71.7675 46.6494 53.8685 46.6494 31.7937C46.6494 31.7937 58.4204 23.2269 72.9479 23.2269C87.4754 23.2269 99.2464 31.7937 99.2464 31.7937Z" fill="#70CC40"/>
<path d="M72.9478 72.4733C67.6434 72.4733 45.9043 54.1805 45.9043 31.7566C45.904 31.6394 45.9315 31.5237 45.9846 31.4191C46.0377 31.3145 46.1148 31.2239 46.2097 31.1548C46.7014 30.8055 58.3458 22.4467 72.9478 22.4467C87.5498 22.4467 99.1941 30.8055 99.6858 31.1548C99.7808 31.2239 99.8579 31.3145 99.911 31.4191C99.9641 31.5237 99.9916 31.6394 99.9913 31.7566C99.9913 54.1805 78.2149 72.4733 72.9478 72.4733ZM47.3943 32.143C47.6476 53.1032 68.1276 70.9873 72.9478 70.9873C77.7679 70.9873 98.2778 53.1032 98.4938 32.143C96.5568 30.8278 85.7692 23.9699 72.9478 23.9699C60.1263 23.9699 49.3313 30.8278 47.3943 32.143Z" fill="#093F68"/>
<path d="M68.277 56.4096L60.5216 48.6674C60.2855 48.432 60.1528 48.1126 60.1528 47.7795C60.1528 47.4465 60.2855 47.1271 60.5216 46.8917L62.9652 44.4694C63.2013 44.234 63.5216 44.1017 63.8555 44.1017C64.1894 44.1017 64.5096 44.234 64.7457 44.4694L68.6421 48.3628C68.7168 48.4376 68.8057 48.497 68.9035 48.5375C69.0013 48.578 69.1061 48.5988 69.212 48.5988C69.3179 48.5988 69.4228 48.578 69.5206 48.5375C69.6184 48.497 69.7072 48.4376 69.7819 48.3628L82.5363 35.6722C82.7059 35.5026 82.9074 35.3681 83.1292 35.2762C83.351 35.1844 83.5888 35.1371 83.8289 35.1371C84.0691 35.1371 84.3069 35.1844 84.5287 35.2762C84.7505 35.3681 84.9519 35.5026 85.1215 35.6722L86.7456 37.292C86.9168 37.4612 87.0527 37.6626 87.1454 37.8845C87.2381 38.1064 87.2859 38.3444 87.2859 38.5848C87.2859 38.8252 87.2381 39.0633 87.1454 39.2851C87.0527 39.507 86.9168 39.7084 86.7456 39.8777L70.1842 56.4021C69.9295 56.6501 69.5881 56.7895 69.2321 56.7909C68.8762 56.7922 68.5337 56.6555 68.277 56.4096Z" fill="white"/>
<path d="M67.9044 81.6718C67.7633 81.6697 67.6231 81.6497 67.4872 81.6123L56.3792 78.3505C55.9998 78.2392 55.6804 77.9821 55.491 77.6358C55.3017 77.2896 55.2581 76.8825 55.3697 76.5042C55.4814 76.1258 55.7391 75.8072 56.0863 75.6184C56.4335 75.4296 56.8417 75.386 57.2211 75.4974L68.329 78.7592C68.674 78.8595 68.9709 79.0808 69.1652 79.3822C69.3595 79.6836 69.4381 80.045 69.3864 80.3996C69.3347 80.7542 69.1562 81.0783 68.8839 81.312C68.6115 81.5458 68.2637 81.6736 67.9044 81.6718Z" fill="#093F68"/>
<path d="M55.4924 82.5188C54.8711 82.5196 54.2532 82.4269 53.6597 82.2439L46.5822 80.0149C45.0278 79.5306 43.7293 78.4517 42.971 77.0145C42.2128 75.5773 42.0566 73.8989 42.5368 72.347L42.7156 71.7749C43.1994 70.2236 44.281 68.9272 45.7226 68.1707C47.1642 67.4142 48.848 67.2594 50.404 67.7404L57.4815 69.9323C58.2523 70.1703 58.9684 70.5576 59.589 71.072C60.2096 71.5863 60.7224 72.2176 61.0981 72.9298C61.4738 73.6419 61.7051 74.421 61.7787 75.2224C61.8522 76.0237 61.7667 76.8317 61.5269 77.6001L61.3481 78.1722C60.9583 79.4182 60.1804 80.5078 59.1274 81.2827C58.0744 82.0577 56.801 82.4777 55.4924 82.4816V82.5188ZM48.5862 70.4747C47.9091 70.4738 47.2496 70.69 46.705 71.0913C46.1604 71.4926 45.7595 72.0579 45.5615 72.7037L45.3827 73.2832C45.1355 74.0813 45.2154 74.9446 45.605 75.684C45.9946 76.4235 46.662 76.9788 47.4613 77.2286L54.5462 79.4576C55.3474 79.7038 56.2139 79.6231 56.9555 79.2331C57.6971 78.8431 58.2533 78.1757 58.5022 77.3772L58.681 76.8051C58.9279 76.006 58.8469 75.1419 58.4558 74.4023C58.0648 73.6627 57.3956 73.1079 56.595 72.8597L49.5175 70.6678C49.2187 70.5567 48.9047 70.4916 48.5862 70.4747Z" fill="#093F68"/>
<path d="M46.6493 74.1451C46.4192 74.1449 46.1922 74.0914 45.9863 73.9891L35.6308 68.8326C35.4494 68.7495 35.2867 68.631 35.1522 68.484C35.0177 68.337 34.9141 68.1646 34.8477 67.977C34.7813 67.7893 34.7533 67.5903 34.7655 67.3916C34.7776 67.193 34.8297 66.9988 34.9185 66.8206C35.0073 66.6424 35.1312 66.4839 35.2826 66.3543C35.4341 66.2247 35.6101 66.1268 35.8002 66.0664C35.9903 66.006 36.1906 65.9842 36.3893 66.0025C36.588 66.0207 36.781 66.0786 36.9569 66.1726L47.3124 71.3291C47.6128 71.4784 47.8539 71.7246 47.9965 72.0276C48.1392 72.3307 48.175 72.6729 48.0983 72.9988C48.0215 73.3247 47.8367 73.6152 47.5737 73.8233C47.3107 74.0314 46.985 74.1447 46.6493 74.1451Z" fill="#093F68"/>
<path d="M34.2601 73.9817C33.2653 73.9837 32.2853 73.7412 31.4067 73.2758L24.8507 69.8283C23.4099 69.07 22.3298 67.7723 21.8479 66.2203C21.3659 64.6682 21.5215 62.9889 22.2805 61.5512L22.5636 61.0236C23.3253 59.5881 24.6265 58.5122 26.1822 58.0317C27.7378 57.5513 29.421 57.7053 30.8629 58.4603L37.4189 61.9078C38.8597 62.666 39.9398 63.9638 40.4218 65.5158C40.9037 67.0679 40.7481 68.7472 39.9891 70.1849L39.706 70.7199C39.1809 71.7056 38.3965 72.5301 37.4371 73.1047C36.4776 73.6794 35.3793 73.9826 34.2601 73.9817ZM32.7701 70.6456C33.5114 71.0338 34.3767 71.1135 35.1768 70.867C35.9768 70.6205 36.6463 70.0681 37.0389 69.3305L37.322 68.7955C37.5155 68.4292 37.6347 68.0284 37.6728 67.6161C37.7109 67.2038 37.6671 66.788 37.5439 66.3926C37.4207 65.9972 37.2206 65.6299 36.955 65.3117C36.6894 64.9934 36.3635 64.7306 35.9959 64.5381L29.4399 61.0905C28.6986 60.7022 27.8333 60.6226 27.0333 60.8691C26.2332 61.1155 25.5637 61.668 25.1711 62.4056L24.888 62.9406C24.4987 63.6799 24.4188 64.5429 24.666 65.3408C24.9131 66.1387 25.4671 66.8065 26.2066 67.198L32.7701 70.6456Z" fill="#093F68"/>
<path d="M27.6669 65.9052C27.4368 65.905 27.2098 65.8516 27.0038 65.7492L16.6483 60.6076C16.467 60.5245 16.3043 60.406 16.1698 60.259C16.0352 60.112 15.9317 59.9396 15.8653 59.7519C15.7988 59.5643 15.7709 59.3652 15.783 59.1666C15.7952 58.968 15.8473 58.7738 15.9361 58.5956C16.0249 58.4174 16.1487 58.2588 16.3002 58.1293C16.4516 57.9997 16.6276 57.9018 16.8178 57.8414C17.0079 57.7809 17.2082 57.7592 17.4069 57.7774C17.6056 57.7957 17.7986 57.8536 17.9744 57.9476L28.3299 63.0892C28.6835 63.2647 28.9527 63.5731 29.0784 63.9464C29.2042 64.3198 29.1761 64.7277 29.0004 65.0805C28.8771 65.328 28.6869 65.5364 28.4513 65.6821C28.2158 65.8278 27.9441 65.9051 27.6669 65.9052Z" fill="#093F68"/>
<path d="M16.5069 65.1027C15.207 65.1034 13.9409 64.6894 12.8937 63.9214L6.93367 59.5674C5.61978 58.6079 4.74139 57.1676 4.49136 55.5628C4.24133 53.958 4.6401 52.3198 5.60011 51.0079L5.95772 50.5175C6.43278 49.8681 7.03155 49.3185 7.7198 48.9002C8.40804 48.4818 9.17225 48.2029 9.96869 48.0793C10.7651 47.9558 11.5782 47.9901 12.3613 48.1803C13.1444 48.3704 13.8823 48.7127 14.5327 49.1876L20.4927 53.5416C21.8061 54.5012 22.6846 55.9407 22.936 57.545C23.1873 59.1493 22.791 60.7876 21.8337 62.101L21.4761 62.5914C20.905 63.3711 20.1572 64.0051 19.2936 64.4416C18.43 64.878 17.4751 65.1046 16.5069 65.1027ZM14.6519 61.514C15.3291 62.0064 16.1743 62.2109 17.0024 62.0827C17.8305 61.9546 18.5739 61.5043 19.0697 60.8305L19.4273 60.3401C19.9202 59.6638 20.124 58.8202 19.9942 57.9942C19.8643 57.1683 19.4113 56.4274 18.7345 55.9341L12.7745 51.58C12.0985 51.0881 11.2544 50.8838 10.4275 51.012C9.6006 51.1401 8.85848 51.5903 8.36406 52.2636L8.00647 52.754C7.51282 53.4294 7.30776 54.2724 7.43624 55.0982C7.56471 55.9241 8.01624 56.6656 8.69187 57.16L14.6519 61.514Z" fill="#093F68"/>
<path d="M10.9714 56.0232C10.6092 56.0227 10.2596 55.8906 9.98801 55.6517L0.735113 47.6123C0.57185 47.4892 0.435791 47.3338 0.335421 47.1558C0.235051 46.9779 0.172522 46.7812 0.15174 46.5781C0.130958 46.375 0.152369 46.1698 0.214632 45.9753C0.276896 45.7808 0.378676 45.6012 0.513628 45.4476C0.64858 45.2941 0.813807 45.17 0.998999 45.0829C1.18419 44.9959 1.38538 44.9479 1.59001 44.9419C1.79463 44.9358 1.99831 44.9719 2.18833 45.0479C2.37836 45.1238 2.55065 45.238 2.69446 45.3833L11.925 53.4227C12.2221 53.6819 12.4039 54.0482 12.4305 54.4411C12.457 54.8339 12.3261 55.2212 12.0666 55.5179C11.9294 55.6737 11.7612 55.7991 11.5726 55.8861C11.384 55.9731 11.1792 56.0198 10.9714 56.0232Z" fill="#093F68"/>
<path d="M77.9841 81.6718C77.6255 81.6718 77.2788 81.5427 77.0079 81.3084C76.7369 81.074 76.5598 80.75 76.5091 80.3959C76.4584 80.0418 76.5375 79.6813 76.7318 79.3807C76.9261 79.08 77.2226 78.8593 77.5669 78.7592L88.6674 75.4974C88.8553 75.4422 89.0522 75.4246 89.2469 75.4453C89.4416 75.4661 89.6303 75.5249 89.8022 75.6184C89.9741 75.7118 90.1259 75.8382 90.2488 75.9902C90.3718 76.1422 90.4635 76.3168 90.5188 76.5041C90.574 76.6915 90.5918 76.8878 90.571 77.082C90.5502 77.2762 90.4912 77.4644 90.3975 77.6358C90.3037 77.8073 90.177 77.9587 90.0246 78.0813C89.8723 78.2039 89.6971 78.2954 89.5093 78.3505L78.4088 81.6123C78.2704 81.6503 78.1277 81.6702 77.9841 81.6718Z" fill="#093F68"/>
<path d="M90.4032 82.5188C89.0939 82.5171 87.8195 82.098 86.766 81.3227C85.7125 80.5474 84.9352 79.4565 84.5475 78.2093L84.3687 77.6372C84.1289 76.8688 84.0433 76.0609 84.1169 75.2595C84.1905 74.4581 84.4217 73.6791 84.7974 72.9669C85.1732 72.2547 85.686 71.6234 86.3065 71.1091C86.9271 70.5947 87.6432 70.2075 88.414 69.9694L95.4915 67.7775C96.2619 67.5373 97.0723 67.4512 97.8761 67.5242C98.68 67.5971 99.4615 67.8276 100.176 68.2024C100.89 68.5772 101.523 69.0891 102.039 69.7085C102.554 70.3279 102.942 71.0428 103.18 71.812L103.359 72.3842C103.602 73.1549 103.69 73.9661 103.619 74.771C103.547 75.5759 103.317 76.3588 102.941 77.0747C102.565 77.7906 102.051 78.4254 101.429 78.9427C100.806 79.46 100.087 79.8496 99.3134 80.0891L92.2359 82.3182C91.6384 82.4756 91.0207 82.5432 90.4032 82.5188ZM97.3093 70.4746C96.9935 70.4742 96.6795 70.5218 96.3781 70.6158L89.2931 72.8077C88.4939 73.0574 87.8264 73.6128 87.4369 74.3522C87.0473 75.0917 86.9674 75.9549 87.2146 76.753L87.3934 77.3252C87.6422 78.1236 88.1985 78.791 88.9401 79.181C89.6817 79.5711 90.5481 79.6518 91.3493 79.4056L98.4268 77.1766C99.2274 76.9284 99.8966 76.3736 100.288 75.634C100.679 74.8944 100.76 74.0303 100.513 73.2312L100.334 72.6516C100.126 72.0162 99.7208 71.463 99.1772 71.0718C98.6337 70.6805 97.9796 70.4715 97.3093 70.4746Z" fill="#093F68"/>
<path d="M99.2464 74.1451C98.9101 74.1465 98.5832 74.0343 98.3189 73.8268C98.0546 73.6193 97.8685 73.3288 97.7908 73.0025C97.7131 72.6761 97.7484 72.3331 97.8909 72.0293C98.0335 71.7255 98.2749 71.4788 98.5759 71.3291L108.931 66.1727C109.285 65.9963 109.694 65.9673 110.07 66.092C110.445 66.2167 110.755 66.4849 110.932 66.8377C111.109 67.1904 111.138 67.5987 111.013 67.9729C110.888 68.347 110.619 68.6563 110.265 68.8326L99.9094 73.9891C99.7035 74.0915 99.4765 74.1449 99.2464 74.1451Z" fill="#093F68"/>
<path d="M111.613 73.9817C110.495 73.982 109.398 73.6786 108.44 73.1039C107.482 72.5292 106.699 71.705 106.175 70.7199L105.892 70.1849C105.133 68.7472 104.977 67.0679 105.459 65.5158C105.941 63.9638 107.021 62.666 108.462 61.9078L115.018 58.4603C116.46 57.7053 118.143 57.5513 119.699 58.0317C121.254 58.5122 122.556 59.5881 123.317 61.0236L123.6 61.5512C124.359 62.9889 124.515 64.6682 124.033 66.2203C123.551 67.7723 122.471 69.07 121.03 69.8283L114.474 73.2758C113.593 73.7413 112.611 73.9837 111.613 73.9817ZM117.879 60.7264C117.36 60.7232 116.848 60.8483 116.389 61.0905L109.825 64.5381C109.086 64.9296 108.532 65.5974 108.285 66.3952C108.038 67.1931 108.117 68.0562 108.507 68.7955L108.79 69.3305C109.182 70.0681 109.852 70.6205 110.652 70.867C111.452 71.1135 112.317 71.0338 113.059 70.6456L119.615 67.198C119.982 67.0055 120.308 66.7426 120.574 66.4244C120.839 66.1062 121.04 65.7389 121.163 65.3435C121.286 64.9481 121.33 64.5323 121.292 64.12C121.253 63.7077 121.134 63.3069 120.941 62.9406L120.658 62.4056C120.39 61.9015 119.99 61.4791 119.501 61.1834C119.011 60.8878 118.451 60.7298 117.879 60.7264Z" fill="#093F68"/>
<path d="M118.229 65.9052C117.952 65.9051 117.68 65.8278 117.445 65.6821C117.209 65.5364 117.019 65.328 116.896 65.0805C116.72 64.7286 116.69 64.3214 116.815 63.9482C116.939 63.5749 117.207 63.266 117.559 63.0892L127.922 57.9476C128.098 57.8536 128.291 57.7957 128.489 57.7774C128.688 57.7592 128.888 57.7809 129.078 57.8414C129.269 57.9018 129.445 57.9997 129.596 58.1293C129.747 58.2588 129.871 58.4174 129.96 58.5956C130.049 58.7738 130.101 58.968 130.113 59.1666C130.125 59.3652 130.097 59.5643 130.031 59.7519C129.965 59.9396 129.861 60.112 129.726 60.259C129.592 60.406 129.429 60.5245 129.248 60.6076L118.892 65.7492C118.686 65.8516 118.459 65.905 118.229 65.9052Z" fill="#093F68"/>
<path d="M129.389 65.1027C128.421 65.1052 127.466 64.8789 126.602 64.4424C125.738 64.0059 124.991 63.3715 124.42 62.5914L124.062 62.101C123.105 60.7875 122.709 59.1493 122.96 57.545C123.211 55.9407 124.09 54.5011 125.403 53.5415L131.363 49.1875C132.014 48.7125 132.753 48.3701 133.536 48.1798C134.32 47.9895 135.134 47.9552 135.931 48.0787C136.728 48.2022 137.493 48.4812 138.182 48.8996C138.871 49.3181 139.47 49.8679 139.946 50.5175L140.303 51.0079C141.261 52.3213 141.657 53.9596 141.406 55.5639C141.154 57.1682 140.276 58.6078 138.962 59.5673L133.002 63.9214C131.954 64.6875 130.689 65.1013 129.389 65.1027ZM135.006 50.9782C134.337 50.9797 133.684 51.193 133.144 51.5874L127.184 55.9415C126.507 56.4348 126.054 57.1757 125.924 58.0016C125.794 58.8276 125.998 59.6712 126.491 60.3475L126.849 60.8379C127.344 61.5117 128.088 61.962 128.916 62.0901C129.744 62.2183 130.589 62.0138 131.266 61.5214L137.226 57.1674C137.563 56.9244 137.848 56.6173 138.066 56.2639C138.283 55.9105 138.428 55.5177 138.492 55.1082C138.557 54.6987 138.539 54.2805 138.441 53.8777C138.343 53.4749 138.165 53.0956 137.919 52.7614L137.562 52.271C137.268 51.8703 136.883 51.5444 136.439 51.3198C135.995 51.0952 135.504 50.9781 135.006 50.9782Z" fill="#093F68"/>
<path d="M134.924 56.0232C134.688 56.0221 134.455 55.9649 134.245 55.8564C134.036 55.7479 133.855 55.5911 133.718 55.3991C133.495 55.0763 133.41 54.679 133.479 54.2936C133.549 53.9082 133.769 53.5658 134.09 53.3409L143.432 46.6539C143.754 46.4351 144.148 46.3504 144.532 46.418C144.915 46.4856 145.256 46.7001 145.483 47.0155C145.71 47.331 145.804 47.7224 145.745 48.1061C145.686 48.4898 145.479 48.8352 145.168 49.0687L135.833 55.7557C135.568 55.9411 135.248 56.0351 134.924 56.0232Z" fill="#093F68"/>
<path d="M79.7052 90.7885C79.31 90.7885 78.931 90.6319 78.6516 90.3532C78.3722 90.0745 78.2152 89.6966 78.2152 89.3024V82.556C78.2419 81.848 78.1251 81.142 77.8718 80.4801C77.6186 79.8182 77.2341 79.214 76.7413 78.7038C76.2485 78.1935 75.6576 77.7876 75.0039 77.5104C74.3502 77.2331 73.6472 77.0902 72.9368 77.0902C72.2265 77.0902 71.5235 77.2331 70.8698 77.5104C70.2161 77.7876 69.6252 78.1935 69.1324 78.7038C68.6396 79.214 68.2551 79.8182 68.0019 80.4801C67.7486 81.142 67.6319 81.848 67.6585 82.556V89.3024C67.6585 89.6966 67.5015 90.0745 67.2221 90.3532C66.9427 90.6319 66.5637 90.7885 66.1685 90.7885C65.7734 90.7885 65.3944 90.6319 65.1149 90.3532C64.8355 90.0745 64.6785 89.6966 64.6785 89.3024V82.556C64.6453 81.4535 64.8344 80.3557 65.2344 79.3275C65.6345 78.2993 66.2375 77.3617 67.0076 76.5702C67.7778 75.7787 68.6994 75.1494 69.7179 74.7197C70.7364 74.29 71.831 74.0686 72.9368 74.0686C74.0427 74.0686 75.1373 74.29 76.1558 74.7197C77.1743 75.1494 78.0959 75.7787 78.8661 76.5702C79.6362 77.3617 80.2392 78.2993 80.6393 79.3275C81.0393 80.3557 81.2284 81.4535 81.1952 82.556V89.3024C81.1952 89.6966 81.0382 90.0745 80.7588 90.3532C80.4793 90.6319 80.1004 90.7885 79.7052 90.7885Z" fill="#093F68"/>
<path d="M81.5603 89.3024H64.3284C62.3535 89.3024 60.7524 90.8992 60.7524 92.8689V108.1C60.7524 110.07 62.3535 111.667 64.3284 111.667H81.5603C83.5353 111.667 85.1363 110.07 85.1363 108.1V92.8689C85.1363 90.8992 83.5353 89.3024 81.5603 89.3024Z" fill="#F56132"/>
<path d="M81.5602 112.41H64.3358C63.1891 112.41 62.0893 111.956 61.2777 111.148C60.4662 110.34 60.0093 109.244 60.0073 108.101V92.8689C60.0093 91.7253 60.4662 90.6292 61.2777 89.8212C62.0893 89.0132 63.1891 88.5594 64.3358 88.5594H81.5602C82.7062 88.5594 83.8052 89.0135 84.6156 89.8217C85.4259 90.6298 85.8812 91.726 85.8812 92.8689V108.101C85.8812 109.243 85.4259 110.34 84.6156 111.148C83.8052 111.956 82.7062 112.41 81.5602 112.41ZM64.3358 90.0455C63.5843 90.0455 62.8634 90.3427 62.3313 90.872C61.7992 91.4013 61.4993 92.1194 61.4973 92.8689V108.101C61.4993 108.85 61.7992 109.568 62.3313 110.097C62.8634 110.627 63.5843 110.924 64.3358 110.924H81.5602C82.311 110.924 83.0311 110.626 83.562 110.097C84.0929 109.567 84.3912 108.849 84.3912 108.101V92.8689C84.3912 92.1201 84.0929 91.4019 83.562 90.8724C83.0311 90.3429 82.311 90.0455 81.5602 90.0455H64.3358Z" fill="#093F68"/>
<path d="M75.9801 96.8291C75.9717 96.2936 75.8184 95.7704 75.5363 95.3146C75.2543 94.8589 74.854 94.4877 74.3778 94.2402C73.9016 93.9926 73.3672 93.878 72.8311 93.9085C72.295 93.9389 71.7771 94.1133 71.3321 94.4131C70.8872 94.713 70.5318 95.1271 70.3034 95.6118C70.075 96.0965 69.9822 96.6338 70.0348 97.1667C70.0874 97.6997 70.2834 98.2086 70.6021 98.6396C70.9208 99.0707 71.3504 99.4078 71.8454 99.6154V106.184H74.0804V99.6154C74.6426 99.3973 75.1252 99.0142 75.4644 98.5167C75.8036 98.0192 75.9835 97.4307 75.9801 96.8291Z" fill="#093F68"/>
<path d="M74.073 106.927H71.838C71.6404 106.927 71.4509 106.848 71.3112 106.709C71.1715 106.57 71.093 106.381 71.093 106.184V100.076C70.3828 99.6671 69.8278 99.0359 69.514 98.2804C69.2002 97.5248 69.1452 96.6871 69.3574 95.8972C69.5696 95.1072 70.0373 94.4092 70.6878 93.9114C71.3384 93.4135 72.1355 93.1437 72.9555 93.1437C73.7755 93.1437 74.5726 93.4135 75.2231 93.9114C75.8737 94.4092 76.3413 95.1072 76.5535 95.8972C76.7658 96.6871 76.7107 97.5248 76.3969 98.2804C76.0831 99.0359 75.5281 99.6671 74.818 100.076V106.184C74.818 106.381 74.7395 106.57 74.5998 106.709C74.4601 106.848 74.2706 106.927 74.073 106.927ZM72.583 105.441H73.328V99.6154C73.3272 99.4674 73.3708 99.3226 73.4531 99.1995C73.5354 99.0764 73.6526 98.9806 73.7899 98.9244C74.2694 98.7289 74.6659 98.3734 74.9117 97.9187C75.1575 97.464 75.2372 96.9382 75.1374 96.4313C75.0375 95.9244 74.7642 95.4678 74.3642 95.1396C73.9642 94.8114 73.4623 94.632 72.9443 94.632C72.4263 94.632 71.9244 94.8114 71.5244 95.1396C71.1244 95.4678 70.8511 95.9244 70.7512 96.4313C70.6514 96.9382 70.7311 97.464 70.9769 97.9187C71.2227 98.3734 71.6192 98.7289 72.0987 98.9244C72.2373 98.9794 72.3562 99.0747 72.4399 99.1979C72.5236 99.3211 72.5682 99.4666 72.5681 99.6154L72.583 105.441Z" fill="#093F68"/>
<path d="M132.6 19.0215H13.2885C13.0909 19.0215 12.9014 18.9432 12.7617 18.8039C12.6219 18.6645 12.5435 18.4755 12.5435 18.2785C12.5435 18.0814 12.6219 17.8924 12.7617 17.7531C12.9014 17.6137 13.0909 17.5355 13.2885 17.5355H132.6C132.798 17.5355 132.987 17.6137 133.127 17.7531C133.267 17.8924 133.345 18.0814 133.345 18.2785C133.345 18.4755 133.267 18.6645 133.127 18.8039C132.987 18.9432 132.798 19.0215 132.6 19.0215Z" fill="#093F68"/>
<path d="M19.2333 15.8191C20.2537 15.8191 21.0809 14.9941 21.0809 13.9764C21.0809 12.9588 20.2537 12.1338 19.2333 12.1338C18.2129 12.1338 17.3857 12.9588 17.3857 13.9764C17.3857 14.9941 18.2129 15.8191 19.2333 15.8191Z" fill="#FFBC0E"/>
<path d="M26.4155 15.8191C27.4359 15.8191 28.2631 14.9941 28.2631 13.9764C28.2631 12.9588 27.4359 12.1338 26.4155 12.1338C25.3951 12.1338 24.5679 12.9588 24.5679 13.9764C24.5679 14.9941 25.3951 15.8191 26.4155 15.8191Z" fill="#093F68"/>
<path d="M33.5971 15.8191C34.6175 15.8191 35.4447 14.9941 35.4447 13.9764C35.4447 12.9588 34.6175 12.1338 33.5971 12.1338C32.5767 12.1338 31.7495 12.9588 31.7495 13.9764C31.7495 14.9941 32.5767 15.8191 33.5971 15.8191Z" fill="#093F68"/>
</svg>
