<svg width="200" height="124" viewBox="0 0 200 124" fill="none" xmlns="http://www.w3.org/2000/svg">
<path d="M194.558 114.243H1.14451C1.06008 114.243 0.979109 114.206 0.91941 114.141C0.85971 114.075 0.826172 113.987 0.826172 113.894C0.826172 113.802 0.85971 113.713 0.91941 113.648C0.979109 113.583 1.06008 113.546 1.14451 113.546H194.558C194.643 113.546 194.724 113.583 194.783 113.648C194.843 113.713 194.877 113.802 194.877 113.894C194.877 113.987 194.843 114.075 194.783 114.141C194.724 114.206 194.643 114.243 194.558 114.243Z" fill="#D1D3D4"/>
<path d="M124.62 0.367554H9.78424C4.63296 0.367554 0.457031 4.93636 0.457031 10.5723V90.8448C0.457031 96.4808 4.63296 101.05 9.78424 101.05H124.62C129.772 101.05 133.948 96.4808 133.948 90.8448V10.5723C133.948 4.93636 129.772 0.367554 124.62 0.367554Z" fill="white"/>
<path d="M124.62 101.398H9.78421C7.22709 101.394 4.77567 100.281 2.96751 98.3029C1.15935 96.3246 0.142041 93.6426 0.138672 90.8449V10.5654C0.138671 7.76588 1.15469 5.08096 2.9634 3.10078C4.77211 1.1206 7.22547 0.00721771 9.78421 0.00537109H124.62C127.179 0.00721771 129.632 1.1206 131.441 3.10078C133.25 5.08096 134.266 7.76588 134.266 10.5654V90.8449C134.262 93.6426 133.245 96.3246 131.437 98.3029C129.629 100.281 127.177 101.394 124.62 101.398ZM9.78421 0.70194C7.39433 0.703786 5.1029 1.74378 3.41359 3.59333C1.72428 5.44288 0.775341 7.95062 0.775341 10.5654V90.8449C0.77871 93.4578 1.72894 95.9627 3.4177 97.8104C5.10646 99.658 7.39595 100.698 9.78421 100.701H124.62C127.009 100.698 129.298 99.658 130.987 97.8104C132.676 95.9627 133.626 93.4578 133.629 90.8449V10.5654C133.629 7.95062 132.68 5.44288 130.991 3.59333C129.302 1.74378 127.01 0.703786 124.62 0.70194H9.78421Z" fill="#231F20"/>
<path d="M134.177 82.6741H0.871069C0.786642 82.6741 0.705672 82.6374 0.645972 82.5721C0.586273 82.5068 0.552734 82.4182 0.552734 82.3258C0.552734 82.2335 0.586273 82.1449 0.645972 82.0796C0.705672 82.0142 0.786642 81.9775 0.871069 81.9775H134.177C134.261 81.9775 134.342 82.0142 134.402 82.0796C134.462 82.1449 134.495 82.2335 134.495 82.3258C134.495 82.4182 134.462 82.5068 134.402 82.5721C134.342 82.6374 134.261 82.6741 134.177 82.6741Z" fill="#231F20"/>
<path d="M67.2244 94.6621C66.5275 94.6634 65.8459 94.4385 65.266 94.0158C64.686 93.593 64.2338 92.9915 63.9665 92.2874C63.6992 91.5832 63.629 90.8081 63.7646 90.0603C63.9003 89.3124 64.2357 88.6254 64.7285 88.0862C65.2213 87.5471 65.8492 87.1801 66.5327 87.0317C67.2163 86.8833 67.9247 86.9601 68.5683 87.2526C69.2119 87.545 69.7617 88.0398 70.1481 88.6743C70.5345 89.3088 70.7401 90.0545 70.7388 90.817C70.7371 91.8362 70.3663 92.8131 69.7076 93.5338C69.0489 94.2545 68.156 94.6602 67.2244 94.6621ZM67.2244 87.6964C66.6537 87.695 66.0955 87.8789 65.6203 88.2248C65.1452 88.5707 64.7746 89.063 64.5553 89.6394C64.336 90.2159 64.278 90.8506 64.3886 91.4631C64.4991 92.0757 64.7733 92.6386 65.1764 93.0806C65.5795 93.5226 66.0934 93.8238 66.653 93.9461C67.2127 94.0684 67.7929 94.0064 68.3203 93.7677C68.8476 93.5291 69.2985 93.1247 69.6157 92.6056C69.9328 92.0866 70.1022 91.4762 70.1022 90.8518C70.1064 90.4351 70.0351 90.0216 69.8924 89.6352C69.7498 89.2488 69.5386 88.8971 69.271 88.6005C69.0034 88.3039 68.6848 88.0682 68.3336 87.907C67.9823 87.7459 67.6053 87.6624 67.2244 87.6615V87.6964Z" fill="#D1D3D4"/>
<path d="M91.3732 117.37H43.0309C41.5611 117.37 40.3696 118.674 40.3696 120.282V120.721C40.3696 122.329 41.5611 123.632 43.0309 123.632H91.3732C92.843 123.632 94.0345 122.329 94.0345 120.721V120.282C94.0345 118.674 92.843 117.37 91.3732 117.37Z" fill="white"/>
<path d="M91.3732 123.995H43.0309C42.2417 123.995 41.4848 123.652 40.9262 123.042C40.3676 122.432 40.053 121.605 40.0513 120.742V120.296C40.0513 119.431 40.365 118.601 40.9236 117.988C41.4822 117.376 42.2401 117.031 43.0309 117.029H91.3732C92.1629 117.031 92.9198 117.375 93.4783 117.986C94.0367 118.597 94.3511 119.425 94.3528 120.289V120.735C94.3528 121.599 94.0389 122.428 93.4801 123.04C92.9213 123.651 92.1634 123.995 91.3732 123.995ZM43.0309 117.725C42.4095 117.725 41.8136 117.996 41.3742 118.476C40.9348 118.957 40.6879 119.609 40.6879 120.289V120.735C40.6879 121.415 40.9348 122.067 41.3742 122.547C41.8136 123.028 42.4095 123.298 43.0309 123.298H91.3732C91.9935 123.298 92.5885 123.029 93.0277 122.55C93.4669 122.07 93.7145 121.42 93.7162 120.742V120.296C93.7162 119.616 93.4693 118.964 93.0299 118.483C92.5905 118.003 91.9946 117.732 91.3732 117.732L43.0309 117.725Z" fill="#231F20"/>
<path d="M85.5035 117.475H48.9014L51.4162 101.05H82.9887L85.5035 117.475Z" fill="white"/>
<path d="M85.5035 117.823H48.9014C48.8548 117.825 48.8086 117.814 48.7665 117.792C48.7245 117.77 48.6877 117.738 48.6594 117.698C48.6298 117.66 48.6082 117.615 48.5961 117.567C48.584 117.519 48.5817 117.468 48.5894 117.419L51.1361 100.994C51.1481 100.913 51.186 100.839 51.2431 100.785C51.3002 100.732 51.3728 100.702 51.448 100.701H83.0205C83.0957 100.702 83.1683 100.732 83.2254 100.785C83.2825 100.839 83.3204 100.913 83.3325 100.994L85.8791 117.419C85.8856 117.468 85.8827 117.518 85.8706 117.566C85.8586 117.614 85.8376 117.659 85.8091 117.698C85.7732 117.747 85.7259 117.784 85.6721 117.806C85.6183 117.828 85.56 117.834 85.5035 117.823ZM49.277 117.126H85.1279L82.7212 101.398H51.69L49.277 117.126Z" fill="#231F20"/>
<path d="M50.1616 109.262L83.4913 104.31L82.9883 101.05H51.4159L50.1616 109.262Z" fill="#231F20"/>
<path d="M50.1619 109.61C50.0759 109.61 49.9934 109.573 49.9327 109.506C49.8985 109.467 49.8732 109.419 49.8588 109.367C49.8445 109.315 49.8414 109.26 49.8499 109.206L51.1233 100.994C51.1353 100.913 51.1732 100.839 51.2303 100.785C51.2874 100.732 51.36 100.702 51.4352 100.701H83.0077C83.0829 100.702 83.1555 100.732 83.2126 100.785C83.2697 100.839 83.3076 100.913 83.3196 100.994L83.8226 104.254C83.8357 104.347 83.8151 104.442 83.7653 104.518C83.7394 104.556 83.7069 104.586 83.6696 104.609C83.6324 104.632 83.5913 104.646 83.5489 104.651L50.2192 109.603L50.1619 109.61ZM51.6835 101.398L50.5439 108.858L83.1223 103.982L82.7212 101.363L51.6835 101.398Z" fill="#231F20"/>
<path d="M77.8822 21.5432H56.5283C54.3728 21.5432 52.6255 23.4549 52.6255 25.8132V37.62C52.6255 39.9783 54.3728 41.89 56.5283 41.89H77.8822C80.0376 41.89 81.785 39.9783 81.785 37.62V25.8132C81.785 23.4549 80.0376 21.5432 77.8822 21.5432Z" fill="#2375EF"/>
<path d="M74.4889 26.5655H59.9155C59.6154 26.5655 59.3182 26.5008 59.0409 26.3751C58.7635 26.2494 58.5116 26.0652 58.2993 25.833C58.0871 25.6008 57.9187 25.3252 57.8039 25.0218C57.689 24.7184 57.6299 24.3932 57.6299 24.0648V17.733C57.6299 14.9545 58.6387 12.2898 60.4345 10.3251C62.2302 8.36035 64.6658 7.25659 67.2054 7.25659C69.745 7.25659 72.1806 8.36035 73.9763 10.3251C75.7721 12.2898 76.7809 14.9545 76.7809 17.733V24.0648C76.7792 24.7287 76.537 25.3647 76.1073 25.8335C75.6777 26.3022 75.0957 26.5655 74.4889 26.5655ZM62.2075 21.5571H72.1969V17.733C72.2208 16.9989 72.1094 16.2672 71.8692 15.5813C71.629 14.8954 71.2649 14.2695 70.7987 13.741C70.3326 13.2124 69.7739 12.792 69.1559 12.5049C68.538 12.2178 67.8736 12.0698 67.2022 12.0698C66.5309 12.0698 65.8664 12.2178 65.2485 12.5049C64.6306 12.792 64.0719 13.2124 63.6057 13.741C63.1395 14.2695 62.7755 14.8954 62.5353 15.5813C62.295 16.2672 62.1836 16.9989 62.2075 17.733V21.5571Z" fill="#2375EF"/>
<path d="M67.2056 31.6087C68.7492 31.6087 70.0006 30.2396 70.0006 28.5507C70.0006 26.8619 68.7492 25.4928 67.2056 25.4928C65.662 25.4928 64.4106 26.8619 64.4106 28.5507C64.4106 30.2396 65.662 31.6087 67.2056 31.6087Z" fill="#231F20"/>
<path d="M67.9822 29.1359H66.4224V36.2478H67.9822V29.1359Z" fill="#231F20"/>
<path d="M112.224 71.954H22.1867C19.3161 71.954 16.5632 70.7064 14.5334 68.4856C12.5036 66.2649 11.3633 63.2529 11.3633 60.1123C11.3633 56.9717 12.5036 53.9597 14.5334 51.739C16.5632 49.5182 19.3161 48.2706 22.1867 48.2706H112.224C115.095 48.2706 117.848 49.5182 119.878 51.739C121.908 53.9597 123.048 56.9717 123.048 60.1123C123.048 63.2529 121.908 66.2649 119.878 68.4856C117.848 70.7064 115.095 71.954 112.224 71.954ZM22.1867 48.9672C19.485 48.9672 16.8939 50.1414 14.9836 52.2315C13.0732 54.3216 12 57.1564 12 60.1123C12 63.0682 13.0732 65.903 14.9836 67.9931C16.8939 70.0832 19.485 71.2574 22.1867 71.2574H112.224C114.926 71.2574 117.517 70.0832 119.428 67.9931C121.338 65.903 122.411 63.0682 122.411 60.1123C122.411 57.1564 121.338 54.3216 119.428 52.2315C117.517 50.1414 114.926 48.9672 112.224 48.9672H22.1867Z" fill="#D1D3D4"/>
<path d="M48.7611 61.0108L50.1363 62.996L48.6083 64.1593L47.2394 62.1393L45.8961 64.0896L44.4062 62.9194L45.7815 60.9899L43.5913 60.1958L44.1834 58.336L46.3417 59.151V56.7408H48.2008V59.151L50.3591 58.4126L50.9321 60.2655L48.7611 61.0108Z" fill="black"/>
<path d="M58.7186 61.0108L60.0938 62.996L58.5658 64.1593L57.1906 62.1393L55.8536 64.0896L54.3638 62.9194L55.7326 60.9899L53.5488 60.1958L54.1409 58.336L56.2929 59.151V56.7408H58.1583V59.151L60.3103 58.4126L60.8896 60.2655L58.7186 61.0108Z" fill="black"/>
<path d="M68.7079 61.0108L70.0767 62.996L68.5551 64.1593L67.1799 62.1393L65.8365 64.0896L64.3467 62.9194L65.7219 60.9899L63.5317 60.1958L64.1238 58.336L66.2822 59.151V56.7408H68.1476V59.151L70.2995 58.4126L70.8725 60.2655L68.7079 61.0108Z" fill="black"/>
<path d="M78.6844 61.0108L80.0596 62.996L78.5316 64.1593L77.1564 62.1393L75.8194 64.0896L74.3296 62.9194L75.6984 60.9899L73.5146 60.1958L74.1067 58.336L76.2587 59.151V56.7408H78.1241V59.151L80.2761 58.4126L80.8554 60.2655L78.6844 61.0108Z" fill="black"/>
<path d="M88.6805 61.0108L90.0494 62.996L88.5277 64.1593L87.1525 62.1393L85.8091 64.0896L84.3193 62.9194L85.6945 60.9899L83.5044 60.1958L84.0965 58.336L86.2548 59.151V56.7408H88.1202V59.151L90.2722 58.4126L90.8452 60.2655L88.6805 61.0108Z" fill="black"/>
<path d="M186.919 109.917L193.795 75.0328L196.087 57.6882C196.087 57.6882 179.323 38.3166 174.555 32.0475C169.786 25.7784 164.476 16.723 161.891 17.2872C159.306 17.8514 158.708 21.0139 160.261 25.0122C160.898 26.6561 161.885 28.495 162.305 30.1807C162.649 31.5739 162.401 35.391 161.165 36.3105C159.682 37.4111 158.485 31.7689 156.62 32.6884C155.639 33.176 154.595 35.8438 155.346 38.7833C155.798 40.1956 156.376 41.5557 157.072 42.8443C158.498 45.554 158.453 47.2188 159.325 50.1653C160.198 53.1117 160.102 49.1413 159.083 51.851C157.855 55.1388 156.142 58.9699 155.957 62.5781C155.665 68.3457 161.687 77.9444 164.183 82.6045C166.679 87.2645 161.274 100.095 161.274 100.095L186.919 109.917Z" fill="white"/>
<path d="M186.918 110.265C186.885 110.273 186.85 110.273 186.817 110.265L161.121 100.409C161.079 100.392 161.041 100.366 161.009 100.333C160.978 100.299 160.953 100.259 160.936 100.214C160.917 100.17 160.907 100.123 160.907 100.074C160.907 100.026 160.917 99.9787 160.936 99.9351C160.993 99.8098 166.22 87.2158 163.865 82.7647C163.457 81.9985 162.954 81.0999 162.407 80.1108C159.593 75.0816 155.346 67.475 155.601 62.5503C155.753 59.4366 157.027 56.1558 158.147 53.265C158.351 52.7357 158.555 52.2132 158.746 51.7047C158.85 51.3974 158.991 51.1069 159.166 50.841C159.102 50.6738 159.045 50.4788 158.975 50.2559C158.682 49.2528 158.491 48.41 158.338 47.6019C158.043 45.9892 157.516 44.4376 156.778 43.0046C156.073 41.6756 155.484 40.2761 155.021 38.8252C154.245 35.6836 155.371 32.8765 156.492 32.3262C157.612 31.7759 158.587 33.1621 159.37 34.4159C159.646 34.9182 159.973 35.3855 160.344 35.809C160.688 36.1573 160.86 36.0737 160.98 35.9762C162.044 35.1891 162.317 31.553 161.986 30.2365C161.655 29.08 161.229 27.9586 160.713 26.886C160.452 26.2939 160.185 25.6879 159.962 25.1097C158.956 22.5046 158.809 20.2338 159.561 18.6804C159.789 18.2151 160.111 17.8128 160.503 17.5039C160.895 17.1949 161.345 16.9875 161.821 16.8972C163.947 16.4444 167.29 21.202 171.154 26.7188C172.358 28.4324 173.599 30.2017 174.796 31.7829C179.501 38.052 196.163 57.2424 196.328 57.4375C196.362 57.4758 196.388 57.522 196.403 57.5726C196.419 57.6233 196.424 57.6771 196.418 57.73L194.119 75.0746L187.243 109.98C187.234 110.028 187.214 110.074 187.187 110.114C187.159 110.154 187.124 110.186 187.084 110.21C187.036 110.249 186.978 110.268 186.918 110.265ZM161.662 99.8585L186.683 109.457L193.482 74.9631L195.768 57.8206C194.329 56.1628 178.833 38.247 174.312 32.2565C173.109 30.6614 171.861 28.8851 170.658 27.1716C167.233 22.2956 163.686 17.2455 161.955 17.6147C161.572 17.6747 161.207 17.8319 160.89 18.0738C160.572 18.3158 160.311 18.6356 160.127 19.0078C159.491 20.3452 159.637 22.4906 160.554 24.8381C160.77 25.3953 161.025 25.9735 161.292 26.5795C161.827 27.6945 162.268 28.8602 162.61 30.0623C162.961 31.4555 162.75 35.5234 161.337 36.5683C161.115 36.7334 160.845 36.8014 160.58 36.7588C160.314 36.7163 160.073 36.5662 159.905 36.3384C159.495 35.8827 159.134 35.378 158.829 34.8338C158.026 33.5452 157.409 32.6466 156.74 32.981C155.951 33.371 154.919 35.8299 155.626 38.665C156.068 40.0491 156.636 41.3815 157.32 42.6424C158.085 44.133 158.633 45.7453 158.943 47.4208C159.121 48.2219 159.306 49.0508 159.58 50.026C159.637 50.2141 159.688 50.3673 159.726 50.4857H159.777C159.907 50.5366 160.017 50.632 160.093 50.7575C160.169 50.8831 160.205 51.0321 160.197 51.1823C160.205 51.2904 160.175 51.3977 160.114 51.4829C160.053 51.5681 159.964 51.6249 159.866 51.642C159.809 51.6549 159.751 51.6535 159.694 51.6378C159.638 51.6221 159.586 51.5926 159.542 51.5515C159.473 51.6907 159.413 51.835 159.363 51.9833C159.166 52.4918 158.962 53.0143 158.758 53.5506C157.657 56.3926 156.409 59.6108 156.256 62.606C156.021 67.3218 160.204 74.8099 162.973 79.7695C163.527 80.7656 164.03 81.6641 164.438 82.4373C166.749 86.77 162.54 97.72 161.681 99.8585H161.662Z" fill="#231F20"/>
<path d="M149.921 69.9234L176.363 80.0658C177.431 80.4756 178.601 79.8602 178.976 78.6912L198.801 16.8222C199.175 15.6532 198.613 14.3733 197.545 13.9635L171.103 3.82115C170.034 3.41132 168.864 4.02674 168.49 5.19573L148.664 67.0647C148.29 68.2337 148.852 69.5136 149.921 69.9234Z" fill="white"/>
<path d="M177.05 80.5287C176.783 80.5282 176.519 80.4788 176.267 80.3824L149.82 70.2334C149.228 70.0045 148.744 69.5288 148.472 68.9101C148.2 68.2915 148.162 67.5802 148.368 66.9317L168.2 5.06242C168.412 4.41775 168.848 3.89065 169.413 3.59583C169.978 3.30101 170.627 3.26232 171.218 3.48817L197.666 13.6372C197.959 13.7481 198.23 13.9217 198.462 14.1478C198.694 14.374 198.882 14.6482 199.017 14.9546C199.151 15.261 199.229 15.5935 199.245 15.933C199.261 16.2724 199.215 16.6119 199.111 16.932L179.278 78.7942C179.176 79.1154 179.016 79.4112 178.808 79.6646C178.601 79.918 178.349 80.1241 178.069 80.2709C177.751 80.4373 177.403 80.5253 177.05 80.5287ZM150.03 69.5786L176.477 79.7206C176.691 79.8043 176.918 79.8407 177.145 79.8277C177.372 79.8148 177.594 79.7527 177.799 79.6452C178.004 79.5377 178.187 79.3868 178.338 79.2013C178.49 79.0157 178.606 78.7993 178.68 78.5643L198.512 16.723C198.663 16.25 198.637 15.7309 198.439 15.2792C198.241 14.8276 197.887 14.4801 197.455 14.3129L171.002 4.12902C170.569 3.96431 170.094 3.99429 169.681 4.21236C169.268 4.43043 168.951 4.8188 168.799 5.29228L148.973 67.1685C148.822 67.6415 148.849 68.1606 149.047 68.6122C149.245 69.0639 149.598 69.4114 150.03 69.5786Z" fill="#231F20"/>
<path d="M179.616 71.2574C179.58 71.264 179.543 71.264 179.507 71.2574L152.379 60.8507C152.3 60.8192 152.235 60.7546 152.199 60.671C152.163 60.5874 152.159 60.4917 152.188 60.4049L168.493 9.55536C168.505 9.51154 168.526 9.47099 168.553 9.43624C168.581 9.40149 168.614 9.37327 168.652 9.35335C168.732 9.32199 168.82 9.32199 168.9 9.35335L196.023 19.7601C196.102 19.7917 196.167 19.8559 196.204 19.9391C196.241 20.0224 196.247 20.1181 196.22 20.2059L179.915 71.0554C179.888 71.1428 179.831 71.2152 179.756 71.2574C179.709 71.267 179.662 71.267 179.616 71.2574ZM152.875 60.2864L179.399 70.4633L195.513 20.2477L168.99 10.0708L152.875 60.2864Z" fill="#D1D3D4"/>
<path d="M166.475 74.2526C166.3 74.2537 166.126 74.2231 165.96 74.162L160.815 72.1768C160.422 72.0252 160.099 71.7093 159.918 71.2981C159.736 70.887 159.711 70.414 159.848 69.9826L160.541 67.8232C160.68 67.391 160.97 67.0366 161.347 66.8381C161.724 66.6395 162.158 66.6131 162.553 66.7644L167.71 68.7427C168.105 68.8943 168.429 69.2113 168.611 69.6241C168.792 70.0368 168.816 70.5116 168.678 70.9439L167.984 73.1032C167.875 73.4444 167.671 73.7392 167.4 73.9456C167.129 74.152 166.805 74.2595 166.475 74.2526ZM162.019 67.3635C161.822 67.3645 161.631 67.4321 161.472 67.5568C161.312 67.6816 161.192 67.8574 161.127 68.0601L160.44 70.2194C160.398 70.3466 160.38 70.4814 160.387 70.6161C160.393 70.7508 160.424 70.8828 160.477 71.0045C160.531 71.1262 160.605 71.2352 160.697 71.3252C160.789 71.4152 160.896 71.4845 161.013 71.529L166.176 73.5072C166.411 73.5966 166.668 73.5808 166.892 73.4634C167.117 73.346 167.289 73.1364 167.373 72.8803L168.067 70.721C168.148 70.4623 168.133 70.1788 168.025 69.9323C167.916 69.6857 167.723 69.496 167.488 69.4044L162.331 67.4262C162.228 67.3876 162.121 67.3665 162.012 67.3635H162.019Z" fill="#D1D3D4"/>
<path d="M188.829 14.285C188.795 14.2916 188.76 14.2916 188.727 14.285L180.998 11.3246C180.918 11.2931 180.854 11.2285 180.818 11.1449C180.782 11.0613 180.778 10.9656 180.807 10.8788C180.834 10.7923 180.892 10.7212 180.967 10.6808C181.042 10.6404 181.128 10.6339 181.208 10.6628L188.937 13.6302C189.021 13.6459 189.096 13.6977 189.146 13.7741C189.196 13.8505 189.215 13.9453 189.201 14.0377C189.187 14.1301 189.139 14.2124 189.07 14.2666C189 14.3208 188.913 14.3425 188.829 14.3268V14.285Z" fill="#D1D3D4"/>
<path d="M180.074 10.8022H179.966L178.935 10.4051C178.892 10.3932 178.852 10.3716 178.817 10.3418C178.782 10.312 178.754 10.2746 178.733 10.232C178.712 10.1895 178.7 10.1426 178.696 10.0945C178.693 10.0463 178.699 9.99796 178.713 9.9524C178.728 9.90685 178.751 9.86511 178.781 9.82985C178.811 9.79459 178.848 9.76658 178.888 9.74758C178.929 9.72858 178.973 9.71902 179.017 9.7195C179.061 9.71998 179.105 9.73049 179.145 9.75037L180.182 10.1474C180.224 10.1552 180.264 10.1719 180.3 10.1966C180.336 10.2213 180.367 10.2535 180.392 10.2913C180.416 10.3291 180.434 10.3719 180.443 10.4171C180.453 10.4624 180.454 10.5092 180.447 10.5549C180.44 10.6006 180.424 10.6444 180.402 10.6837C180.379 10.723 180.35 10.757 180.315 10.7838C180.281 10.8107 180.242 10.8298 180.2 10.8401C180.159 10.8505 180.116 10.8518 180.074 10.844V10.8022Z" fill="#D1D3D4"/>
<path d="M173.861 52.7774C179.314 52.7774 183.735 47.9403 183.735 41.9736C183.735 36.0068 179.314 31.1698 173.861 31.1698C168.407 31.1698 163.986 36.0068 163.986 41.9736C163.986 47.9403 168.407 52.7774 173.861 52.7774Z" fill="#2375EF"/>
<path d="M163.884 38.7346C163.72 39.325 163.396 39.847 162.955 40.2314C162.513 40.6158 161.976 40.8444 161.413 40.887C160.014 41.0161 158.621 40.5662 157.51 39.6262C156.87 39.0996 156.331 38.439 155.925 37.6828C155.579 37.1239 155.361 36.4816 155.292 35.8107C155.222 35.1399 155.302 34.4605 155.524 33.8308C156.339 32.0406 158.943 31.7411 161.139 32.8834C163.196 33.9701 164.285 37.0489 163.884 38.7346Z" fill="white"/>
<path d="M160.891 41.2701C159.596 41.2318 158.345 40.7439 157.32 39.877C156.646 39.3217 156.077 38.6286 155.645 37.836C155.27 37.2289 155.037 36.5301 154.967 35.8012C154.897 35.0723 154.992 34.3358 155.244 33.6566C156.11 31.748 158.816 31.2535 161.28 32.5491C163.444 33.6915 164.641 36.9026 164.196 38.8182C164.016 39.4781 163.658 40.0628 163.168 40.4946C162.678 40.9263 162.079 41.1846 161.452 41.2353C161.266 41.2575 161.079 41.2691 160.891 41.2701ZM158.504 32.5491C157.281 32.5491 156.237 33.0506 155.811 33.984C155.607 34.5616 155.537 35.1848 155.604 35.7992C155.672 36.4136 155.876 37.0005 156.199 37.5087C156.584 38.2245 157.094 38.8495 157.702 39.3476C158.746 40.2366 160.057 40.6642 161.375 40.5457C161.875 40.5078 162.352 40.3061 162.745 39.9668C163.138 39.6276 163.428 39.1666 163.578 38.6441C163.922 37.1813 162.999 34.2487 161.031 33.1969C160.244 32.7762 159.38 32.5548 158.504 32.5491Z" fill="#231F20"/>
<path d="M160.815 46.9332C160.923 47.3534 160.942 47.7948 160.871 48.2242C160.801 48.6537 160.642 49.0601 160.407 49.413C160.086 49.8082 159.685 50.1158 159.236 50.3116C158.646 50.6378 157.997 50.8164 157.337 50.8345C156.676 50.8526 156.02 50.7096 155.416 50.4161C154.715 49.953 154.117 49.3248 153.665 48.5771C152.837 47.3372 152.118 45.8884 152.207 44.349C152.328 42.1339 154.614 39.6889 156.664 40.8174C158.37 41.7438 160.388 44.9619 160.815 46.9332Z" fill="white"/>
<path d="M157.09 51.1961C156.453 51.2039 155.824 51.0413 155.257 50.7225C154.509 50.2393 153.873 49.5743 153.398 48.7791C152.283 47.1143 151.8 45.7002 151.876 44.328C151.949 43.5797 152.18 42.8601 152.55 42.2257C152.92 41.5912 153.419 41.0591 154.009 40.671C154.424 40.3846 154.899 40.2189 155.39 40.1896C155.88 40.1604 156.369 40.2685 156.81 40.5038C158.599 41.479 160.681 44.8086 161.133 46.8496C161.253 47.3226 161.273 47.8194 161.192 48.3022C161.11 48.785 160.929 49.2411 160.662 49.6358C160.313 50.072 159.877 50.4151 159.389 50.6389C158.667 51 157.884 51.1899 157.09 51.1961ZM155.581 40.88C155.132 40.8841 154.692 41.0213 154.308 41.277C153.806 41.6014 153.38 42.0502 153.065 42.5873C152.75 43.1245 152.554 43.7349 152.494 44.3698C152.423 45.5748 152.869 46.8426 153.888 48.3681C154.313 49.0723 154.874 49.6666 155.53 50.1095C156.094 50.3837 156.706 50.5155 157.322 50.495C157.938 50.4745 158.543 50.3023 159.089 49.9911C159.497 49.8208 159.862 49.5462 160.153 49.19C160.356 48.8796 160.492 48.5226 160.551 48.146C160.609 47.7694 160.588 47.3832 160.49 47.0167C160.083 45.1499 158.122 42.0084 156.511 41.1307C156.223 40.9697 155.905 40.8839 155.581 40.88Z" fill="#231F20"/>
<path d="M157.67 53.0073C157.985 53.4873 158.202 54.0361 158.306 54.6163C158.384 55.2757 158.287 55.9455 158.027 56.5466C157.768 57.1477 157.356 57.655 156.842 58.0086C156.323 58.35 155.748 58.575 155.149 58.6707C154.55 58.7663 153.939 58.7307 153.353 58.5659C152.654 58.3978 151.994 58.0702 151.418 57.6045C150.842 57.1388 150.363 56.5455 150.01 55.8632C149.671 55.1726 149.501 54.3973 149.518 53.6134C149.535 52.8295 149.737 52.0638 150.106 51.3912C152.162 47.9153 156.059 50.4578 157.67 53.0073Z" fill="white"/>
<path d="M154.531 59.0674C154.113 59.0653 153.697 59.0115 153.29 58.9072C152.545 58.7265 151.844 58.3764 151.232 57.8795C150.62 57.3826 150.111 56.7502 149.737 56.0234C149.368 55.2798 149.184 54.4433 149.203 53.5974C149.221 52.7515 149.443 51.9259 149.845 51.2031C150.136 50.652 150.552 50.1922 151.053 49.8677C151.554 49.5432 152.122 49.365 152.704 49.3502C154.665 49.2876 156.829 51.0638 157.931 52.8331C158.279 53.3515 158.516 53.9491 158.625 54.5815C158.713 55.3067 158.609 56.0443 158.324 56.7064C158.04 57.3685 157.587 57.927 157.02 58.3151C156.275 58.8254 155.41 59.0868 154.531 59.0674ZM152.767 50.012H152.717C152.239 50.022 151.772 50.1688 151.362 50.4377C150.952 50.7065 150.613 51.0881 150.38 51.5444C150.042 52.1644 149.858 52.8694 149.843 53.5909C149.828 54.3123 149.985 55.0255 150.297 55.6612C150.627 56.3 151.077 56.8553 151.617 57.291C152.157 57.7268 152.774 58.033 153.43 58.1897C153.974 58.3475 154.542 58.3838 155.1 58.2964C155.658 58.209 156.194 57.9998 156.677 57.6812C157.135 57.3615 157.502 56.9072 157.737 56.3703C157.971 55.8334 158.062 55.2353 158.001 54.6442C157.903 54.1133 157.701 53.6119 157.409 53.1744C156.409 51.628 154.499 50.0399 152.767 50.0399V50.012Z" fill="#231F20"/>
<path d="M193.495 76.015C193.495 76.015 198.99 58.2176 198.226 53.9825C197.462 49.7474 196.239 32.6745 194.667 31.957C193.094 31.2395 189.745 35.9483 189.637 41.2423C189.57 44.3646 189.941 47.4798 190.739 50.4788C190.739 50.4788 185.352 52.8262 184.289 67.0571" fill="white"/>
<path d="M193.495 76.3632H193.394C193.314 76.3316 193.249 76.2674 193.212 76.1841C193.175 76.1009 193.17 76.0052 193.196 75.9174C193.253 75.7432 198.652 58.1618 197.914 54.059C197.678 52.7425 197.398 50.2418 197.08 47.3372C196.513 42.2313 195.463 32.7092 194.533 32.2913C194.359 32.2486 194.178 32.251 194.004 32.2981C193.831 32.3453 193.67 32.4359 193.534 32.5629C192.082 33.5939 190.032 37.1882 189.949 41.2631C189.878 44.3435 190.234 47.4179 191.006 50.3812C191.03 50.4654 191.024 50.5562 190.99 50.636C190.956 50.7158 190.896 50.7789 190.821 50.813C190.77 50.813 185.594 53.3068 184.569 67.0988C184.563 67.1912 184.523 67.2768 184.458 67.3369C184.394 67.397 184.31 67.4266 184.226 67.4192C184.141 67.4118 184.063 67.3681 184.008 67.2975C183.953 67.227 183.926 67.1355 183.933 67.0431C184.875 54.3934 189.185 51.022 190.299 50.3254C189.565 47.3761 189.227 44.3259 189.293 41.27C189.376 37.1881 191.369 33.2734 193.171 31.9987C193.388 31.7989 193.648 31.6639 193.927 31.6065C194.206 31.5491 194.494 31.5715 194.762 31.6713C195.838 32.1589 196.539 36.8817 197.685 47.2745C198.003 50.1652 198.283 52.6589 198.512 53.9476C199.283 58.2315 193.998 75.4298 193.776 76.1612C193.751 76.22 193.711 76.2701 193.662 76.3058C193.612 76.3415 193.555 76.3614 193.495 76.3632Z" fill="#231F20"/>
<path d="M168.78 46.2436C168.593 46.2464 168.408 46.2044 168.238 46.1205C168.068 46.0366 167.917 45.9128 167.796 45.758C167.674 45.6032 167.586 45.4211 167.535 45.2246C167.485 45.028 167.475 44.8219 167.506 44.6206L168.442 38.449C168.46 38.2603 168.514 38.0777 168.599 37.9123C168.684 37.747 168.799 37.6024 168.937 37.4874C169.075 37.3724 169.233 37.2895 169.401 37.2437C169.569 37.1979 169.745 37.1902 169.916 37.2211C170.087 37.252 170.25 37.3208 170.396 37.4233C170.542 37.5258 170.668 37.6599 170.764 37.8173C170.861 37.9746 170.928 38.152 170.96 38.3385C170.992 38.525 170.989 38.7167 170.951 38.9018L170.352 42.8723L179.164 39.9676C179.487 39.8586 179.837 39.8946 180.136 40.0677C180.435 40.2407 180.659 40.5367 180.759 40.8905C180.858 41.2443 180.825 41.6269 180.667 41.9541C180.509 42.2814 180.238 42.5264 179.915 42.6354L169.142 46.181C169.025 46.2209 168.903 46.2421 168.78 46.2436Z" fill="white"/>
<path d="M186.167 123.632L191.28 95.4005L163.018 86.8884L152.252 123.632H186.167Z" fill="#231F20"/>
<path d="M186.167 123.995H152.246C152.196 123.994 152.148 123.981 152.104 123.957C152.059 123.933 152.021 123.898 151.991 123.855C151.962 123.81 151.943 123.758 151.936 123.704C151.928 123.65 151.932 123.594 151.946 123.542L162.725 86.7839C162.751 86.6991 162.806 86.6283 162.878 86.5856C162.95 86.543 163.034 86.5317 163.113 86.554L191.375 95.0661C191.453 95.0891 191.52 95.1437 191.563 95.2187C191.605 95.2937 191.62 95.3835 191.604 95.4701L186.511 123.702C186.497 123.789 186.454 123.867 186.391 123.921C186.327 123.975 186.248 124.001 186.167 123.995ZM152.685 123.298H185.906L190.91 95.6582L163.228 87.2994L152.685 123.298Z" fill="#231F20"/>
<path d="M112.638 28.8921C112.638 28.8921 126.008 14.2641 141.995 17.538L140.932 22.7553L150.806 18.8127L143.803 7.75818L143.198 12.467C143.198 12.467 129.262 6.55312 107.602 16.8972L112.638 28.8921Z" fill="#231F20"/>
<path d="M112.638 29.2612H112.581C112.53 29.2531 112.481 29.231 112.44 29.1969C112.399 29.1628 112.366 29.1178 112.345 29.0662L107.335 17.0225C107.318 16.9809 107.309 16.9358 107.309 16.8901C107.309 16.8445 107.318 16.7994 107.335 16.7578C107.348 16.714 107.369 16.6738 107.398 16.6401C107.426 16.6064 107.461 16.58 107.5 16.5627C127.091 7.20783 140.607 11.1504 142.963 11.9863L143.517 7.68847C143.526 7.61991 143.554 7.55592 143.596 7.50468C143.639 7.45345 143.695 7.41728 143.756 7.40083C143.818 7.38438 143.882 7.38838 143.942 7.41231C144.001 7.43625 144.053 7.47905 144.09 7.53522L151.093 18.5898C151.121 18.634 151.139 18.6847 151.146 18.738C151.152 18.7913 151.147 18.8455 151.131 18.8963C151.118 18.9466 151.094 18.9926 151.06 19.0302C151.027 19.0679 150.986 19.096 150.94 19.1122L141.078 23.0826C141.024 23.1033 140.966 23.1078 140.91 23.0955C140.854 23.0833 140.802 23.0548 140.76 23.013C140.717 22.9727 140.684 22.9202 140.666 22.8613C140.649 22.8024 140.646 22.7392 140.658 22.6786L141.645 17.8026C126.18 14.884 112.995 28.9826 112.893 29.1289C112.862 29.1701 112.823 29.2033 112.779 29.2262C112.735 29.249 112.687 29.261 112.638 29.2612ZM108.022 17.0782L112.74 28.3348C114.905 26.1475 127.492 14.2571 142.027 17.1897C142.112 17.2091 142.188 17.264 142.237 17.3429C142.283 17.4213 142.299 17.5164 142.282 17.6076L141.346 22.205L150.259 18.6107L143.956 8.6567L143.459 12.4878C143.454 12.5398 143.437 12.5896 143.41 12.6331C143.384 12.6767 143.348 12.7128 143.307 12.7386C143.264 12.7609 143.217 12.7724 143.17 12.7724C143.122 12.7724 143.076 12.7609 143.033 12.7386C142.944 12.7177 129.128 7.08942 108.022 17.0573V17.0782Z" fill="#231F20"/>
</svg>
