<svg width="1440" height="6166" viewBox="0 0 1440 6166" fill="none" xmlns="http://www.w3.org/2000/svg">
<g clip-path="url(#clip0_139_1107)">
<circle cx="967.314" cy="3458.71" r="8" transform="rotate(-45 967.314 3458.71)" fill="#D3E3FC"/>
<circle cx="995.598" cy="3430.43" r="8" transform="rotate(-45 995.598 3430.43)" fill="#D3E3FC"/>
<circle cx="1023.88" cy="3402.15" r="8" transform="rotate(-45 1023.88 3402.15)" fill="#D3E3FC"/>
<circle cx="1052.17" cy="3373.86" r="8" transform="rotate(-45 1052.17 3373.86)" fill="#D3E3FC"/>
<circle cx="1080.45" cy="3345.58" r="8" transform="rotate(-45 1080.45 3345.58)" fill="#D3E3FC"/>
<circle cx="1108.74" cy="3317.29" r="8" transform="rotate(-45 1108.74 3317.29)" fill="#D3E3FC"/>
<circle cx="1137.02" cy="3289.01" r="8" transform="rotate(-45 1137.02 3289.01)" fill="#D3E3FC"/>
<circle cx="1165.3" cy="3260.73" r="8" transform="rotate(-45 1165.3 3260.73)" fill="#D3E3FC"/>
<circle cx="1193.59" cy="3232.44" r="8" transform="rotate(-45 1193.59 3232.44)" fill="#D3E3FC"/>
<circle cx="1221.87" cy="3204.16" r="8" transform="rotate(-45 1221.87 3204.16)" fill="#D3E3FC"/>
<circle cx="995.598" cy="3487" r="8" transform="rotate(-45 995.598 3487)" fill="#D3E3FC"/>
<circle cx="1023.88" cy="3458.71" r="8" transform="rotate(-45 1023.88 3458.71)" fill="#D3E3FC"/>
<circle cx="1052.17" cy="3430.43" r="8" transform="rotate(-45 1052.17 3430.43)" fill="#D3E3FC"/>
<circle cx="1080.45" cy="3402.15" r="8" transform="rotate(-45 1080.45 3402.15)" fill="#D3E3FC"/>
<circle cx="1108.73" cy="3373.86" r="8" transform="rotate(-45 1108.73 3373.86)" fill="#D3E3FC"/>
<circle cx="1137.02" cy="3345.58" r="8" transform="rotate(-45 1137.02 3345.58)" fill="#D3E3FC"/>
<circle cx="1165.3" cy="3317.29" r="8" transform="rotate(-45 1165.3 3317.29)" fill="#D3E3FC"/>
<circle cx="1193.59" cy="3289.01" r="8" transform="rotate(-45 1193.59 3289.01)" fill="#D3E3FC"/>
<circle cx="1221.87" cy="3260.73" r="8" transform="rotate(-45 1221.87 3260.73)" fill="#D3E3FC"/>
<circle cx="1250.16" cy="3232.44" r="8" transform="rotate(-45 1250.16 3232.44)" fill="#D3E3FC"/>
<circle cx="1023.88" cy="3515.28" r="8" transform="rotate(-45 1023.88 3515.28)" fill="#D3E3FC"/>
<circle cx="1052.17" cy="3487" r="8" transform="rotate(-45 1052.17 3487)" fill="#D3E3FC"/>
<circle cx="1080.45" cy="3458.71" r="8" transform="rotate(-45 1080.45 3458.71)" fill="#D3E3FC"/>
<circle cx="1108.74" cy="3430.43" r="8" transform="rotate(-45 1108.74 3430.43)" fill="#D3E3FC"/>
<circle cx="1137.02" cy="3402.15" r="8" transform="rotate(-45 1137.02 3402.15)" fill="#D3E3FC"/>
<circle cx="1165.3" cy="3373.86" r="8" transform="rotate(-45 1165.3 3373.86)" fill="#D3E3FC"/>
<circle cx="1193.59" cy="3345.58" r="8" transform="rotate(-45 1193.59 3345.58)" fill="#D3E3FC"/>
<circle cx="1221.87" cy="3317.29" r="8" transform="rotate(-45 1221.87 3317.29)" fill="#D3E3FC"/>
<circle cx="1250.16" cy="3289.01" r="8" transform="rotate(-45 1250.16 3289.01)" fill="#D3E3FC"/>
<circle cx="1278.44" cy="3260.73" r="8" transform="rotate(-45 1278.44 3260.73)" fill="#D3E3FC"/>
<circle cx="1052.17" cy="3543.57" r="8" transform="rotate(-45 1052.17 3543.57)" fill="#D3E3FC"/>
<circle cx="1080.45" cy="3515.28" r="8" transform="rotate(-45 1080.45 3515.28)" fill="#D3E3FC"/>
<circle cx="1108.73" cy="3487" r="8" transform="rotate(-45 1108.73 3487)" fill="#D3E3FC"/>
<circle cx="1137.02" cy="3458.71" r="8" transform="rotate(-45 1137.02 3458.71)" fill="#D3E3FC"/>
<circle cx="1165.3" cy="3430.43" r="8" transform="rotate(-45 1165.3 3430.43)" fill="#D3E3FC"/>
<circle cx="1193.59" cy="3402.15" r="8" transform="rotate(-45 1193.59 3402.15)" fill="#D3E3FC"/>
<circle cx="1221.87" cy="3373.86" r="8" transform="rotate(-45 1221.87 3373.86)" fill="#D3E3FC"/>
<circle cx="1250.16" cy="3345.58" r="8" transform="rotate(-45 1250.16 3345.58)" fill="#D3E3FC"/>
<circle cx="1278.44" cy="3317.29" r="8" transform="rotate(-45 1278.44 3317.29)" fill="#D3E3FC"/>
<circle cx="1306.72" cy="3289.01" r="8" transform="rotate(-45 1306.72 3289.01)" fill="#D3E3FC"/>
<circle cx="1080.45" cy="3571.85" r="8" transform="rotate(-45 1080.45 3571.85)" fill="#D3E3FC"/>
<circle cx="1108.73" cy="3543.57" r="8" transform="rotate(-45 1108.73 3543.57)" fill="#D3E3FC"/>
<circle cx="1137.02" cy="3515.28" r="8" transform="rotate(-45 1137.02 3515.28)" fill="#D3E3FC"/>
<circle cx="1165.3" cy="3487" r="8" transform="rotate(-45 1165.3 3487)" fill="#D3E3FC"/>
<circle cx="1193.59" cy="3458.71" r="8" transform="rotate(-45 1193.59 3458.71)" fill="#D3E3FC"/>
<circle cx="1221.87" cy="3430.43" r="8" transform="rotate(-45 1221.87 3430.43)" fill="#D3E3FC"/>
<circle cx="1250.16" cy="3402.15" r="8" transform="rotate(-45 1250.16 3402.15)" fill="#D3E3FC"/>
<circle cx="1278.44" cy="3373.86" r="8" transform="rotate(-45 1278.44 3373.86)" fill="#D3E3FC"/>
<circle cx="1306.72" cy="3345.58" r="8" transform="rotate(-45 1306.72 3345.58)" fill="#D3E3FC"/>
<circle cx="1335.01" cy="3317.29" r="8" transform="rotate(-45 1335.01 3317.29)" fill="#D3E3FC"/>
<circle cx="1108.74" cy="3600.14" r="8" transform="rotate(-45 1108.74 3600.14)" fill="#D3E3FC"/>
<circle cx="1137.02" cy="3571.85" r="8" transform="rotate(-45 1137.02 3571.85)" fill="#D3E3FC"/>
<circle cx="1165.3" cy="3543.57" r="8" transform="rotate(-45 1165.3 3543.57)" fill="#D3E3FC"/>
<circle cx="1193.59" cy="3515.28" r="8" transform="rotate(-45 1193.59 3515.28)" fill="#D3E3FC"/>
<circle cx="1221.87" cy="3487" r="8" transform="rotate(-45 1221.87 3487)" fill="#D3E3FC"/>
<circle cx="1250.16" cy="3458.71" r="8" transform="rotate(-45 1250.16 3458.71)" fill="#D3E3FC"/>
<circle cx="1278.44" cy="3430.43" r="8" transform="rotate(-45 1278.44 3430.43)" fill="#D3E3FC"/>
<circle cx="1306.72" cy="3402.15" r="8" transform="rotate(-45 1306.72 3402.15)" fill="#D3E3FC"/>
<circle cx="1335.01" cy="3373.86" r="8" transform="rotate(-45 1335.01 3373.86)" fill="#D3E3FC"/>
<circle cx="1363.29" cy="3345.58" r="8" transform="rotate(-45 1363.29 3345.58)" fill="#D3E3FC"/>
<circle cx="1137.02" cy="3628.42" r="8" transform="rotate(-45 1137.02 3628.42)" fill="#D3E3FC"/>
<circle cx="1165.3" cy="3600.14" r="8" transform="rotate(-45 1165.3 3600.14)" fill="#D3E3FC"/>
<circle cx="1193.59" cy="3571.85" r="8" transform="rotate(-45 1193.59 3571.85)" fill="#D3E3FC"/>
<circle cx="1221.87" cy="3543.57" r="8" transform="rotate(-45 1221.87 3543.57)" fill="#D3E3FC"/>
<circle cx="1250.16" cy="3515.28" r="8" transform="rotate(-45 1250.16 3515.28)" fill="#D3E3FC"/>
<circle cx="1278.44" cy="3487" r="8" transform="rotate(-45 1278.44 3487)" fill="#D3E3FC"/>
<circle cx="1306.72" cy="3458.71" r="8" transform="rotate(-45 1306.72 3458.71)" fill="#D3E3FC"/>
<circle cx="1335.01" cy="3430.43" r="8" transform="rotate(-45 1335.01 3430.43)" fill="#D3E3FC"/>
<circle cx="1363.29" cy="3402.15" r="8" transform="rotate(-45 1363.29 3402.15)" fill="#D3E3FC"/>
<circle cx="1391.58" cy="3373.86" r="8" transform="rotate(-45 1391.58 3373.86)" fill="#D3E3FC"/>
<circle cx="1165.3" cy="3656.7" r="8" transform="rotate(-45 1165.3 3656.7)" fill="#D3E3FC"/>
<circle cx="1193.59" cy="3628.42" r="8" transform="rotate(-45 1193.59 3628.42)" fill="#D3E3FC"/>
<circle cx="1221.87" cy="3600.14" r="8" transform="rotate(-45 1221.87 3600.14)" fill="#D3E3FC"/>
<circle cx="1250.16" cy="3571.85" r="8" transform="rotate(-45 1250.16 3571.85)" fill="#D3E3FC"/>
<circle cx="1278.44" cy="3543.57" r="8" transform="rotate(-45 1278.44 3543.57)" fill="#D3E3FC"/>
<circle cx="1306.72" cy="3515.28" r="8" transform="rotate(-45 1306.72 3515.28)" fill="#D3E3FC"/>
<circle cx="1335.01" cy="3487" r="8" transform="rotate(-45 1335.01 3487)" fill="#D3E3FC"/>
<circle cx="1363.29" cy="3458.71" r="8" transform="rotate(-45 1363.29 3458.71)" fill="#D3E3FC"/>
<circle cx="1391.58" cy="3430.43" r="8" transform="rotate(-45 1391.58 3430.43)" fill="#D3E3FC"/>
<circle cx="1419.86" cy="3402.15" r="8" transform="rotate(-45 1419.86 3402.15)" fill="#D3E3FC"/>
<circle cx="1193.59" cy="3684.99" r="8" transform="rotate(-45 1193.59 3684.99)" fill="#D3E3FC"/>
<circle cx="1221.87" cy="3656.7" r="8" transform="rotate(-45 1221.87 3656.7)" fill="#D3E3FC"/>
<circle cx="1250.16" cy="3628.42" r="8" transform="rotate(-45 1250.16 3628.42)" fill="#D3E3FC"/>
<circle cx="1278.44" cy="3600.14" r="8" transform="rotate(-45 1278.44 3600.14)" fill="#D3E3FC"/>
<circle cx="1306.72" cy="3571.85" r="8" transform="rotate(-45 1306.72 3571.85)" fill="#D3E3FC"/>
<circle cx="1335.01" cy="3543.57" r="8" transform="rotate(-45 1335.01 3543.57)" fill="#D3E3FC"/>
<circle cx="1363.29" cy="3515.28" r="8" transform="rotate(-45 1363.29 3515.28)" fill="#D3E3FC"/>
<circle cx="1391.58" cy="3487" r="8" transform="rotate(-45 1391.58 3487)" fill="#D3E3FC"/>
<circle cx="1419.86" cy="3458.71" r="8" transform="rotate(-45 1419.86 3458.71)" fill="#D3E3FC"/>
<circle cx="1448.15" cy="3430.43" r="8" transform="rotate(-45 1448.15 3430.43)" fill="#D3E3FC"/>
<circle cx="1221.87" cy="3713.27" r="8" transform="rotate(-45 1221.87 3713.27)" fill="#D3E3FC"/>
<circle cx="1250.16" cy="3684.99" r="8" transform="rotate(-45 1250.16 3684.99)" fill="#D3E3FC"/>
<circle cx="1278.44" cy="3656.7" r="8" transform="rotate(-45 1278.44 3656.7)" fill="#D3E3FC"/>
<circle cx="1306.72" cy="3628.42" r="8" transform="rotate(-45 1306.72 3628.42)" fill="#D3E3FC"/>
<circle cx="1335.01" cy="3600.14" r="8" transform="rotate(-45 1335.01 3600.14)" fill="#D3E3FC"/>
<circle cx="1363.29" cy="3571.85" r="8" transform="rotate(-45 1363.29 3571.85)" fill="#D3E3FC"/>
<circle cx="1391.58" cy="3543.57" r="8" transform="rotate(-45 1391.58 3543.57)" fill="#D3E3FC"/>
<circle cx="1419.86" cy="3515.28" r="8" transform="rotate(-45 1419.86 3515.28)" fill="#D3E3FC"/>
<circle cx="1448.15" cy="3487" r="8" transform="rotate(-45 1448.15 3487)" fill="#D3E3FC"/>
<circle cx="1250.16" cy="3175.87" r="8" transform="rotate(-45 1250.16 3175.87)" fill="#D3E3FC"/>
<circle cx="1278.44" cy="3147.59" r="8" transform="rotate(-45 1278.44 3147.59)" fill="#D3E3FC"/>
<circle cx="1306.72" cy="3119.3" r="8" transform="rotate(-45 1306.72 3119.3)" fill="#D3E3FC"/>
<circle cx="1335.01" cy="3091.02" r="8" transform="rotate(-45 1335.01 3091.02)" fill="#D3E3FC"/>
<circle cx="1363.29" cy="3062.74" r="8" transform="rotate(-45 1363.29 3062.74)" fill="#D3E3FC"/>
<circle cx="1391.58" cy="3034.45" r="8" transform="rotate(-45 1391.58 3034.45)" fill="#D3E3FC"/>
<circle cx="1419.86" cy="3006.17" r="8" transform="rotate(-45 1419.86 3006.17)" fill="#D3E3FC"/>
<circle cx="1448.15" cy="2977.88" r="8" transform="rotate(-45 1448.15 2977.88)" fill="#D3E3FC"/>
<circle cx="1278.44" cy="3204.16" r="8" transform="rotate(-45 1278.44 3204.16)" fill="#D3E3FC"/>
<circle cx="1306.72" cy="3175.87" r="8" transform="rotate(-45 1306.72 3175.87)" fill="#D3E3FC"/>
<circle cx="1335.01" cy="3147.59" r="8" transform="rotate(-45 1335.01 3147.59)" fill="#D3E3FC"/>
<circle cx="1363.29" cy="3119.3" r="8" transform="rotate(-45 1363.29 3119.3)" fill="#D3E3FC"/>
<circle cx="1391.58" cy="3091.02" r="8" transform="rotate(-45 1391.58 3091.02)" fill="#D3E3FC"/>
<circle cx="1419.86" cy="3062.74" r="8" transform="rotate(-45 1419.86 3062.74)" fill="#D3E3FC"/>
<circle cx="1448.15" cy="3034.45" r="8" transform="rotate(-45 1448.15 3034.45)" fill="#D3E3FC"/>
<circle cx="1306.72" cy="3232.44" r="8" transform="rotate(-45 1306.72 3232.44)" fill="#D3E3FC"/>
<circle cx="1335.01" cy="3204.16" r="8" transform="rotate(-45 1335.01 3204.16)" fill="#D3E3FC"/>
<circle cx="1363.29" cy="3175.87" r="8" transform="rotate(-45 1363.29 3175.87)" fill="#D3E3FC"/>
<circle cx="1391.58" cy="3147.59" r="8" transform="rotate(-45 1391.58 3147.59)" fill="#D3E3FC"/>
<circle cx="1419.86" cy="3119.3" r="8" transform="rotate(-45 1419.86 3119.3)" fill="#D3E3FC"/>
<circle cx="1448.15" cy="3091.02" r="8" transform="rotate(-45 1448.15 3091.02)" fill="#D3E3FC"/>
<circle cx="1335.01" cy="3260.73" r="8" transform="rotate(-45 1335.01 3260.73)" fill="#D3E3FC"/>
<circle cx="1363.29" cy="3232.44" r="8" transform="rotate(-45 1363.29 3232.44)" fill="#D3E3FC"/>
<circle cx="1391.58" cy="3204.16" r="8" transform="rotate(-45 1391.58 3204.16)" fill="#D3E3FC"/>
<circle cx="1419.86" cy="3175.87" r="8" transform="rotate(-45 1419.86 3175.87)" fill="#D3E3FC"/>
<circle cx="1448.15" cy="3147.59" r="8" transform="rotate(-45 1448.15 3147.59)" fill="#D3E3FC"/>
<circle cx="1363.29" cy="3289.01" r="8" transform="rotate(-45 1363.29 3289.01)" fill="#D3E3FC"/>
<circle cx="1391.58" cy="3260.73" r="8" transform="rotate(-45 1391.58 3260.73)" fill="#D3E3FC"/>
<circle cx="1419.86" cy="3232.44" r="8" transform="rotate(-45 1419.86 3232.44)" fill="#D3E3FC"/>
<circle cx="1448.15" cy="3204.16" r="8" transform="rotate(-45 1448.15 3204.16)" fill="#D3E3FC"/>
<circle cx="1391.58" cy="3317.29" r="8" transform="rotate(-45 1391.58 3317.29)" fill="#D3E3FC"/>
<circle cx="1419.86" cy="3289.01" r="8" transform="rotate(-45 1419.86 3289.01)" fill="#D3E3FC"/>
<circle cx="1448.15" cy="3260.73" r="8" transform="rotate(-45 1448.15 3260.73)" fill="#D3E3FC"/>
<circle cx="1419.86" cy="3345.58" r="8" transform="rotate(-45 1419.86 3345.58)" fill="#D3E3FC"/>
<circle cx="1448.15" cy="3317.29" r="8" transform="rotate(-45 1448.15 3317.29)" fill="#D3E3FC"/>
<circle cx="1448.15" cy="3373.86" r="8" transform="rotate(-45 1448.15 3373.86)" fill="#D3E3FC"/>
<circle cx="1308" cy="4761" r="553" stroke="#D3E3FC" stroke-width="2"/>
<circle cx="1308" cy="4761" r="392" stroke="#D3E3FC" stroke-width="2"/>
<circle cx="1308" cy="4761" r="194" stroke="#D3E3FC" stroke-width="2"/>
<circle cx="174" cy="3445" r="553" stroke="#D3E3FC" stroke-width="2"/>
<circle cx="174" cy="3445" r="392" stroke="#D3E3FC" stroke-width="2"/>
<circle cx="174" cy="3445" r="194" stroke="#D3E3FC" stroke-width="2"/>
<circle cx="16.4407" cy="5682.72" r="8" transform="rotate(-45 16.4407 5682.72)" fill="#D3E3FC"/>
<circle cx="16.4407" cy="5739.29" r="8" transform="rotate(-45 16.4407 5739.29)" fill="#D3E3FC"/>
<circle cx="44.7248" cy="5711.01" r="8" transform="rotate(-45 44.7248 5711.01)" fill="#D3E3FC"/>
<circle cx="16.4407" cy="5795.86" r="8" transform="rotate(-45 16.4407 5795.86)" fill="#D3E3FC"/>
<circle cx="44.7248" cy="5767.58" r="8" transform="rotate(-45 44.7248 5767.58)" fill="#D3E3FC"/>
<circle cx="73.009" cy="5739.29" r="8" transform="rotate(-45 73.009 5739.29)" fill="#D3E3FC"/>
<circle cx="16.4407" cy="5852.43" r="8" transform="rotate(-45 16.4407 5852.43)" fill="#D3E3FC"/>
<circle cx="44.7251" cy="5824.15" r="8" transform="rotate(-45 44.7251 5824.15)" fill="#D3E3FC"/>
<circle cx="73.0093" cy="5795.86" r="8" transform="rotate(-45 73.0093 5795.86)" fill="#D3E3FC"/>
<circle cx="101.293" cy="5767.58" r="8" transform="rotate(-45 101.293 5767.58)" fill="#D3E3FC"/>
<circle cx="16.4407" cy="5909" r="8" transform="rotate(-45 16.4407 5909)" fill="#D3E3FC"/>
<circle cx="44.7248" cy="5880.71" r="8" transform="rotate(-45 44.7248 5880.71)" fill="#D3E3FC"/>
<circle cx="73.0093" cy="5852.43" r="8" transform="rotate(-45 73.0093 5852.43)" fill="#D3E3FC"/>
<circle cx="101.293" cy="5824.15" r="8" transform="rotate(-45 101.293 5824.15)" fill="#D3E3FC"/>
<circle cx="129.578" cy="5795.86" r="8" transform="rotate(-45 129.578 5795.86)" fill="#D3E3FC"/>
<circle cx="16.4407" cy="5965.57" r="8" transform="rotate(-45 16.4407 5965.57)" fill="#D3E3FC"/>
<circle cx="44.7251" cy="5937.28" r="8" transform="rotate(-45 44.7251 5937.28)" fill="#D3E3FC"/>
<circle cx="73.0093" cy="5909" r="8" transform="rotate(-45 73.0093 5909)" fill="#D3E3FC"/>
<circle cx="101.294" cy="5880.71" r="8" transform="rotate(-45 101.294 5880.71)" fill="#D3E3FC"/>
<circle cx="129.578" cy="5852.43" r="8" transform="rotate(-45 129.578 5852.43)" fill="#D3E3FC"/>
<circle cx="157.862" cy="5824.15" r="8" transform="rotate(-45 157.862 5824.15)" fill="#D3E3FC"/>
<circle cx="16.4407" cy="6022.14" r="8" transform="rotate(-45 16.4407 6022.14)" fill="#D3E3FC"/>
<circle cx="44.7248" cy="5993.85" r="8" transform="rotate(-45 44.7248 5993.85)" fill="#D3E3FC"/>
<circle cx="73.0093" cy="5965.57" r="8" transform="rotate(-45 73.0093 5965.57)" fill="#D3E3FC"/>
<circle cx="101.293" cy="5937.28" r="8" transform="rotate(-45 101.293 5937.28)" fill="#D3E3FC"/>
<circle cx="129.578" cy="5909" r="8" transform="rotate(-45 129.578 5909)" fill="#D3E3FC"/>
<circle cx="157.862" cy="5880.71" r="8" transform="rotate(-45 157.862 5880.71)" fill="#D3E3FC"/>
<circle cx="186.146" cy="5852.43" r="8" transform="rotate(-45 186.146 5852.43)" fill="#D3E3FC"/>
<circle cx="16.4407" cy="6078.71" r="8" transform="rotate(-45 16.4407 6078.71)" fill="#D3E3FC"/>
<circle cx="44.7248" cy="6050.42" r="8" transform="rotate(-45 44.7248 6050.42)" fill="#D3E3FC"/>
<circle cx="73.009" cy="6022.14" r="8" transform="rotate(-45 73.009 6022.14)" fill="#D3E3FC"/>
<circle cx="101.293" cy="5993.85" r="8" transform="rotate(-45 101.293 5993.85)" fill="#D3E3FC"/>
<circle cx="129.578" cy="5965.57" r="8" transform="rotate(-45 129.578 5965.57)" fill="#D3E3FC"/>
<circle cx="157.862" cy="5937.28" r="8" transform="rotate(-45 157.862 5937.28)" fill="#D3E3FC"/>
<circle cx="186.146" cy="5909" r="8" transform="rotate(-45 186.146 5909)" fill="#D3E3FC"/>
<circle cx="214.43" cy="5880.71" r="8" transform="rotate(-45 214.43 5880.71)" fill="#D3E3FC"/>
<circle cx="16.4407" cy="5569.59" r="8" transform="rotate(-45 16.4407 5569.59)" fill="#D3E3FC"/>
<circle cx="44.7251" cy="5541.3" r="8" transform="rotate(-45 44.7251 5541.3)" fill="#D3E3FC"/>
<circle cx="73.0093" cy="5513.02" r="8" transform="rotate(-45 73.0093 5513.02)" fill="#D3E3FC"/>
<circle cx="101.293" cy="5484.74" r="8" transform="rotate(-45 101.293 5484.74)" fill="#D3E3FC"/>
<circle cx="129.578" cy="5456.45" r="8" transform="rotate(-45 129.578 5456.45)" fill="#D3E3FC"/>
<circle cx="157.862" cy="5428.17" r="8" transform="rotate(-45 157.862 5428.17)" fill="#D3E3FC"/>
<circle cx="186.146" cy="5399.88" r="8" transform="rotate(-45 186.146 5399.88)" fill="#D3E3FC"/>
<circle cx="214.431" cy="5371.6" r="8" transform="rotate(-45 214.431 5371.6)" fill="#D3E3FC"/>
<circle cx="242.715" cy="5343.31" r="8" transform="rotate(-45 242.715 5343.31)" fill="#D3E3FC"/>
<circle cx="16.4407" cy="5626.16" r="8" transform="rotate(-45 16.4407 5626.16)" fill="#D3E3FC"/>
<circle cx="44.7248" cy="5597.87" r="8" transform="rotate(-45 44.7248 5597.87)" fill="#D3E3FC"/>
<circle cx="73.0093" cy="5569.59" r="8" transform="rotate(-45 73.0093 5569.59)" fill="#D3E3FC"/>
<circle cx="101.293" cy="5541.3" r="8" transform="rotate(-45 101.293 5541.3)" fill="#D3E3FC"/>
<circle cx="129.578" cy="5513.02" r="8" transform="rotate(-45 129.578 5513.02)" fill="#D3E3FC"/>
<circle cx="157.862" cy="5484.74" r="8" transform="rotate(-45 157.862 5484.74)" fill="#D3E3FC"/>
<circle cx="186.146" cy="5456.45" r="8" transform="rotate(-45 186.146 5456.45)" fill="#D3E3FC"/>
<circle cx="214.431" cy="5428.17" r="8" transform="rotate(-45 214.431 5428.17)" fill="#D3E3FC"/>
<circle cx="242.715" cy="5399.88" r="8" transform="rotate(-45 242.715 5399.88)" fill="#D3E3FC"/>
<circle cx="270.999" cy="5371.6" r="8" transform="rotate(-45 270.999 5371.6)" fill="#D3E3FC"/>
<circle cx="44.7251" cy="5654.44" r="8" transform="rotate(-45 44.7251 5654.44)" fill="#D3E3FC"/>
<circle cx="73.0093" cy="5626.16" r="8" transform="rotate(-45 73.0093 5626.16)" fill="#D3E3FC"/>
<circle cx="101.294" cy="5597.87" r="8" transform="rotate(-45 101.294 5597.87)" fill="#D3E3FC"/>
<circle cx="129.578" cy="5569.59" r="8" transform="rotate(-45 129.578 5569.59)" fill="#D3E3FC"/>
<circle cx="157.862" cy="5541.3" r="8" transform="rotate(-45 157.862 5541.3)" fill="#D3E3FC"/>
<circle cx="186.146" cy="5513.02" r="8" transform="rotate(-45 186.146 5513.02)" fill="#D3E3FC"/>
<circle cx="214.431" cy="5484.73" r="8" transform="rotate(-45 214.431 5484.73)" fill="#D3E3FC"/>
<circle cx="242.715" cy="5456.45" r="8" transform="rotate(-45 242.715 5456.45)" fill="#D3E3FC"/>
<circle cx="270.999" cy="5428.17" r="8" transform="rotate(-45 270.999 5428.17)" fill="#D3E3FC"/>
<circle cx="299.283" cy="5399.88" r="8" transform="rotate(-45 299.283 5399.88)" fill="#D3E3FC"/>
<circle cx="73.0093" cy="5682.73" r="8" transform="rotate(-45 73.0093 5682.73)" fill="#D3E3FC"/>
<circle cx="101.293" cy="5654.44" r="8" transform="rotate(-45 101.293 5654.44)" fill="#D3E3FC"/>
<circle cx="129.578" cy="5626.16" r="8" transform="rotate(-45 129.578 5626.16)" fill="#D3E3FC"/>
<circle cx="157.862" cy="5597.87" r="8" transform="rotate(-45 157.862 5597.87)" fill="#D3E3FC"/>
<circle cx="186.146" cy="5569.59" r="8" transform="rotate(-45 186.146 5569.59)" fill="#D3E3FC"/>
<circle cx="214.431" cy="5541.3" r="8" transform="rotate(-45 214.431 5541.3)" fill="#D3E3FC"/>
<circle cx="242.715" cy="5513.02" r="8" transform="rotate(-45 242.715 5513.02)" fill="#D3E3FC"/>
<circle cx="270.999" cy="5484.74" r="8" transform="rotate(-45 270.999 5484.74)" fill="#D3E3FC"/>
<circle cx="299.283" cy="5456.45" r="8" transform="rotate(-45 299.283 5456.45)" fill="#D3E3FC"/>
<circle cx="327.568" cy="5428.17" r="8" transform="rotate(-45 327.568 5428.17)" fill="#D3E3FC"/>
<circle cx="101.293" cy="5711.01" r="8" transform="rotate(-45 101.293 5711.01)" fill="#D3E3FC"/>
<circle cx="129.578" cy="5682.73" r="8" transform="rotate(-45 129.578 5682.73)" fill="#D3E3FC"/>
<circle cx="157.862" cy="5654.44" r="8" transform="rotate(-45 157.862 5654.44)" fill="#D3E3FC"/>
<circle cx="186.146" cy="5626.16" r="8" transform="rotate(-45 186.146 5626.16)" fill="#D3E3FC"/>
<circle cx="214.43" cy="5597.87" r="8" transform="rotate(-45 214.43 5597.87)" fill="#D3E3FC"/>
<circle cx="242.715" cy="5569.59" r="8" transform="rotate(-45 242.715 5569.59)" fill="#D3E3FC"/>
<circle cx="270.999" cy="5541.3" r="8" transform="rotate(-45 270.999 5541.3)" fill="#D3E3FC"/>
<circle cx="299.283" cy="5513.02" r="8" transform="rotate(-45 299.283 5513.02)" fill="#D3E3FC"/>
<circle cx="327.568" cy="5484.74" r="8" transform="rotate(-45 327.568 5484.74)" fill="#D3E3FC"/>
<circle cx="355.852" cy="5456.45" r="8" transform="rotate(-45 355.852 5456.45)" fill="#D3E3FC"/>
<circle cx="129.578" cy="5739.29" r="8" transform="rotate(-45 129.578 5739.29)" fill="#D3E3FC"/>
<circle cx="157.862" cy="5711.01" r="8" transform="rotate(-45 157.862 5711.01)" fill="#D3E3FC"/>
<circle cx="186.146" cy="5682.73" r="8" transform="rotate(-45 186.146 5682.73)" fill="#D3E3FC"/>
<circle cx="214.431" cy="5654.44" r="8" transform="rotate(-45 214.431 5654.44)" fill="#D3E3FC"/>
<circle cx="242.715" cy="5626.16" r="8" transform="rotate(-45 242.715 5626.16)" fill="#D3E3FC"/>
<circle cx="270.999" cy="5597.87" r="8" transform="rotate(-45 270.999 5597.87)" fill="#D3E3FC"/>
<circle cx="299.283" cy="5569.59" r="8" transform="rotate(-45 299.283 5569.59)" fill="#D3E3FC"/>
<circle cx="327.568" cy="5541.3" r="8" transform="rotate(-45 327.568 5541.3)" fill="#D3E3FC"/>
<circle cx="355.852" cy="5513.02" r="8" transform="rotate(-45 355.852 5513.02)" fill="#D3E3FC"/>
<circle cx="384.136" cy="5484.74" r="8" transform="rotate(-45 384.136 5484.74)" fill="#D3E3FC"/>
<circle cx="157.862" cy="5767.58" r="8" transform="rotate(-45 157.862 5767.58)" fill="#D3E3FC"/>
<circle cx="186.146" cy="5739.29" r="8" transform="rotate(-45 186.146 5739.29)" fill="#D3E3FC"/>
<circle cx="214.431" cy="5711.01" r="8" transform="rotate(-45 214.431 5711.01)" fill="#D3E3FC"/>
<circle cx="242.715" cy="5682.73" r="8" transform="rotate(-45 242.715 5682.73)" fill="#D3E3FC"/>
<circle cx="270.999" cy="5654.44" r="8" transform="rotate(-45 270.999 5654.44)" fill="#D3E3FC"/>
<circle cx="299.283" cy="5626.16" r="8" transform="rotate(-45 299.283 5626.16)" fill="#D3E3FC"/>
<circle cx="327.568" cy="5597.87" r="8" transform="rotate(-45 327.568 5597.87)" fill="#D3E3FC"/>
<circle cx="355.852" cy="5569.59" r="8" transform="rotate(-45 355.852 5569.59)" fill="#D3E3FC"/>
<circle cx="384.136" cy="5541.3" r="8" transform="rotate(-45 384.136 5541.3)" fill="#D3E3FC"/>
<circle cx="412.42" cy="5513.02" r="8" transform="rotate(-45 412.42 5513.02)" fill="#D3E3FC"/>
<circle cx="186.146" cy="5795.86" r="8" transform="rotate(-45 186.146 5795.86)" fill="#D3E3FC"/>
<circle cx="214.431" cy="5767.58" r="8" transform="rotate(-45 214.431 5767.58)" fill="#D3E3FC"/>
<circle cx="242.715" cy="5739.29" r="8" transform="rotate(-45 242.715 5739.29)" fill="#D3E3FC"/>
<circle cx="270.999" cy="5711.01" r="8" transform="rotate(-45 270.999 5711.01)" fill="#D3E3FC"/>
<circle cx="299.283" cy="5682.73" r="8" transform="rotate(-45 299.283 5682.73)" fill="#D3E3FC"/>
<circle cx="327.568" cy="5654.44" r="8" transform="rotate(-45 327.568 5654.44)" fill="#D3E3FC"/>
<circle cx="355.852" cy="5626.16" r="8" transform="rotate(-45 355.852 5626.16)" fill="#D3E3FC"/>
<circle cx="384.136" cy="5597.87" r="8" transform="rotate(-45 384.136 5597.87)" fill="#D3E3FC"/>
<circle cx="412.421" cy="5569.59" r="8" transform="rotate(-45 412.421 5569.59)" fill="#D3E3FC"/>
<circle cx="440.705" cy="5541.3" r="8" transform="rotate(-45 440.705 5541.3)" fill="#D3E3FC"/>
<circle cx="214.431" cy="5824.15" r="8" transform="rotate(-45 214.431 5824.15)" fill="#D3E3FC"/>
<circle cx="242.715" cy="5795.86" r="8" transform="rotate(-45 242.715 5795.86)" fill="#D3E3FC"/>
<circle cx="270.999" cy="5767.58" r="8" transform="rotate(-45 270.999 5767.58)" fill="#D3E3FC"/>
<circle cx="299.283" cy="5739.29" r="8" transform="rotate(-45 299.283 5739.29)" fill="#D3E3FC"/>
<circle cx="327.568" cy="5711.01" r="8" transform="rotate(-45 327.568 5711.01)" fill="#D3E3FC"/>
<circle cx="355.852" cy="5682.73" r="8" transform="rotate(-45 355.852 5682.73)" fill="#D3E3FC"/>
<circle cx="384.136" cy="5654.44" r="8" transform="rotate(-45 384.136 5654.44)" fill="#D3E3FC"/>
<circle cx="412.421" cy="5626.16" r="8" transform="rotate(-45 412.421 5626.16)" fill="#D3E3FC"/>
<circle cx="440.705" cy="5597.87" r="8" transform="rotate(-45 440.705 5597.87)" fill="#D3E3FC"/>
<circle cx="468.989" cy="5569.59" r="8" transform="rotate(-45 468.989 5569.59)" fill="#D3E3FC"/>
<circle cx="242.715" cy="5852.43" r="8" transform="rotate(-45 242.715 5852.43)" fill="#D3E3FC"/>
<circle cx="270.999" cy="5824.15" r="8" transform="rotate(-45 270.999 5824.15)" fill="#D3E3FC"/>
<circle cx="299.283" cy="5795.86" r="8" transform="rotate(-45 299.283 5795.86)" fill="#D3E3FC"/>
<circle cx="327.568" cy="5767.58" r="8" transform="rotate(-45 327.568 5767.58)" fill="#D3E3FC"/>
<circle cx="355.852" cy="5739.29" r="8" transform="rotate(-45 355.852 5739.29)" fill="#D3E3FC"/>
<circle cx="384.136" cy="5711.01" r="8" transform="rotate(-45 384.136 5711.01)" fill="#D3E3FC"/>
<circle cx="412.42" cy="5682.73" r="8" transform="rotate(-45 412.42 5682.73)" fill="#D3E3FC"/>
<circle cx="440.705" cy="5654.44" r="8" transform="rotate(-45 440.705 5654.44)" fill="#D3E3FC"/>
<circle cx="468.989" cy="5626.16" r="8" transform="rotate(-45 468.989 5626.16)" fill="#D3E3FC"/>
<circle cx="497.273" cy="5597.87" r="8" transform="rotate(-45 497.273 5597.87)" fill="#D3E3FC"/>
<path d="M1495 5704H1010C987.909 5704 970 5721.91 970 5744V6203C970 6225.09 987.909 6243 1010 6243H1255C1277.09 6243 1295 6260.91 1295 6283V6478C1295 6500.09 1312.91 6518 1335 6518H1495" stroke="#D3E3FC" stroke-width="2"/>
<path d="M1559 5640H1074C1051.91 5640 1034 5657.91 1034 5680V6139C1034 6161.09 1051.91 6179 1074 6179H1319C1341.09 6179 1359 6196.91 1359 6219V6414C1359 6436.09 1376.91 6454 1399 6454H1559" stroke="#D3E3FC" stroke-width="2"/>
<path d="M1623 5576H1138C1115.91 5576 1098 5593.91 1098 5616V6075C1098 6097.09 1115.91 6115 1138 6115H1383C1405.09 6115 1423 6132.91 1423 6155V6350C1423 6372.09 1440.91 6390 1463 6390H1623" stroke="#D3E3FC" stroke-width="2"/>
<circle cx="967.314" cy="1102.71" r="8" transform="rotate(-45 967.314 1102.71)" fill="#D3E3FC"/>
<circle cx="995.598" cy="1074.43" r="8" transform="rotate(-45 995.598 1074.43)" fill="#D3E3FC"/>
<circle cx="1023.88" cy="1046.15" r="8" transform="rotate(-45 1023.88 1046.15)" fill="#D3E3FC"/>
<circle cx="1052.17" cy="1017.86" r="8" transform="rotate(-45 1052.17 1017.86)" fill="#D3E3FC"/>
<circle cx="1080.45" cy="989.578" r="8" transform="rotate(-45 1080.45 989.578)" fill="#D3E3FC"/>
<circle cx="1108.74" cy="961.293" r="8" transform="rotate(-45 1108.74 961.293)" fill="#D3E3FC"/>
<circle cx="1137.02" cy="933.009" r="8" transform="rotate(-45 1137.02 933.009)" fill="#D3E3FC"/>
<circle cx="1165.3" cy="904.725" r="8" transform="rotate(-45 1165.3 904.725)" fill="#D3E3FC"/>
<circle cx="1193.59" cy="876.441" r="8" transform="rotate(-45 1193.59 876.441)" fill="#D3E3FC"/>
<circle cx="1221.87" cy="848.156" r="8" transform="rotate(-45 1221.87 848.156)" fill="#D3E3FC"/>
<circle cx="995.598" cy="1131" r="8" transform="rotate(-45 995.598 1131)" fill="#D3E3FC"/>
<circle cx="1023.88" cy="1102.71" r="8" transform="rotate(-45 1023.88 1102.71)" fill="#D3E3FC"/>
<circle cx="1052.17" cy="1074.43" r="8" transform="rotate(-45 1052.17 1074.43)" fill="#D3E3FC"/>
<circle cx="1080.45" cy="1046.15" r="8" transform="rotate(-45 1080.45 1046.15)" fill="#D3E3FC"/>
<circle cx="1108.73" cy="1017.86" r="8" transform="rotate(-45 1108.73 1017.86)" fill="#D3E3FC"/>
<circle cx="1137.02" cy="989.578" r="8" transform="rotate(-45 1137.02 989.578)" fill="#D3E3FC"/>
<circle cx="1165.3" cy="961.293" r="8" transform="rotate(-45 1165.3 961.293)" fill="#D3E3FC"/>
<circle cx="1193.59" cy="933.009" r="8" transform="rotate(-45 1193.59 933.009)" fill="#D3E3FC"/>
<circle cx="1221.87" cy="904.725" r="8" transform="rotate(-45 1221.87 904.725)" fill="#D3E3FC"/>
<circle cx="1250.16" cy="876.441" r="8" transform="rotate(-45 1250.16 876.441)" fill="#D3E3FC"/>
<circle cx="1023.88" cy="1159.28" r="8" transform="rotate(-45 1023.88 1159.28)" fill="#D3E3FC"/>
<circle cx="1052.17" cy="1131" r="8" transform="rotate(-45 1052.17 1131)" fill="#D3E3FC"/>
<circle cx="1080.45" cy="1102.71" r="8" transform="rotate(-45 1080.45 1102.71)" fill="#D3E3FC"/>
<circle cx="1108.74" cy="1074.43" r="8" transform="rotate(-45 1108.74 1074.43)" fill="#D3E3FC"/>
<circle cx="1137.02" cy="1046.15" r="8" transform="rotate(-45 1137.02 1046.15)" fill="#D3E3FC"/>
<circle cx="1165.3" cy="1017.86" r="8" transform="rotate(-45 1165.3 1017.86)" fill="#D3E3FC"/>
<circle cx="1193.59" cy="989.578" r="8" transform="rotate(-45 1193.59 989.578)" fill="#D3E3FC"/>
<circle cx="1221.87" cy="961.293" r="8" transform="rotate(-45 1221.87 961.293)" fill="#D3E3FC"/>
<circle cx="1250.16" cy="933.009" r="8" transform="rotate(-45 1250.16 933.009)" fill="#D3E3FC"/>
<circle cx="1278.44" cy="904.725" r="8" transform="rotate(-45 1278.44 904.725)" fill="#D3E3FC"/>
<circle cx="1052.17" cy="1187.57" r="8" transform="rotate(-45 1052.17 1187.57)" fill="#D3E3FC"/>
<circle cx="1080.45" cy="1159.28" r="8" transform="rotate(-45 1080.45 1159.28)" fill="#D3E3FC"/>
<circle cx="1108.73" cy="1131" r="8" transform="rotate(-45 1108.73 1131)" fill="#D3E3FC"/>
<circle cx="1137.02" cy="1102.71" r="8" transform="rotate(-45 1137.02 1102.71)" fill="#D3E3FC"/>
<circle cx="1165.3" cy="1074.43" r="8" transform="rotate(-45 1165.3 1074.43)" fill="#D3E3FC"/>
<circle cx="1193.59" cy="1046.15" r="8" transform="rotate(-45 1193.59 1046.15)" fill="#D3E3FC"/>
<circle cx="1221.87" cy="1017.86" r="8" transform="rotate(-45 1221.87 1017.86)" fill="#D3E3FC"/>
<circle cx="1250.16" cy="989.578" r="8" transform="rotate(-45 1250.16 989.578)" fill="#D3E3FC"/>
<circle cx="1278.44" cy="961.293" r="8" transform="rotate(-45 1278.44 961.293)" fill="#D3E3FC"/>
<circle cx="1306.72" cy="933.009" r="8" transform="rotate(-45 1306.72 933.009)" fill="#D3E3FC"/>
<circle cx="1080.45" cy="1215.85" r="8" transform="rotate(-45 1080.45 1215.85)" fill="#D3E3FC"/>
<circle cx="1108.73" cy="1187.57" r="8" transform="rotate(-45 1108.73 1187.57)" fill="#D3E3FC"/>
<circle cx="1137.02" cy="1159.28" r="8" transform="rotate(-45 1137.02 1159.28)" fill="#D3E3FC"/>
<circle cx="1165.3" cy="1131" r="8" transform="rotate(-45 1165.3 1131)" fill="#D3E3FC"/>
<circle cx="1193.59" cy="1102.71" r="8" transform="rotate(-45 1193.59 1102.71)" fill="#D3E3FC"/>
<circle cx="1221.87" cy="1074.43" r="8" transform="rotate(-45 1221.87 1074.43)" fill="#D3E3FC"/>
<circle cx="1250.16" cy="1046.15" r="8" transform="rotate(-45 1250.16 1046.15)" fill="#D3E3FC"/>
<circle cx="1278.44" cy="1017.86" r="8" transform="rotate(-45 1278.44 1017.86)" fill="#D3E3FC"/>
<circle cx="1306.72" cy="989.578" r="8" transform="rotate(-45 1306.72 989.578)" fill="#D3E3FC"/>
<circle cx="1335.01" cy="961.293" r="8" transform="rotate(-45 1335.01 961.293)" fill="#D3E3FC"/>
<circle cx="1108.74" cy="1244.14" r="8" transform="rotate(-45 1108.74 1244.14)" fill="#D3E3FC"/>
<circle cx="1137.02" cy="1215.85" r="8" transform="rotate(-45 1137.02 1215.85)" fill="#D3E3FC"/>
<circle cx="1165.3" cy="1187.57" r="8" transform="rotate(-45 1165.3 1187.57)" fill="#D3E3FC"/>
<circle cx="1193.59" cy="1159.28" r="8" transform="rotate(-45 1193.59 1159.28)" fill="#D3E3FC"/>
<circle cx="1221.87" cy="1131" r="8" transform="rotate(-45 1221.87 1131)" fill="#D3E3FC"/>
<circle cx="1250.16" cy="1102.71" r="8" transform="rotate(-45 1250.16 1102.71)" fill="#D3E3FC"/>
<circle cx="1278.44" cy="1074.43" r="8" transform="rotate(-45 1278.44 1074.43)" fill="#D3E3FC"/>
<circle cx="1306.72" cy="1046.15" r="8" transform="rotate(-45 1306.72 1046.15)" fill="#D3E3FC"/>
<circle cx="1335.01" cy="1017.86" r="8" transform="rotate(-45 1335.01 1017.86)" fill="#D3E3FC"/>
<circle cx="1363.29" cy="989.578" r="8" transform="rotate(-45 1363.29 989.578)" fill="#D3E3FC"/>
<circle cx="1137.02" cy="1272.42" r="8" transform="rotate(-45 1137.02 1272.42)" fill="#D3E3FC"/>
<circle cx="1165.3" cy="1244.14" r="8" transform="rotate(-45 1165.3 1244.14)" fill="#D3E3FC"/>
<circle cx="1193.59" cy="1215.85" r="8" transform="rotate(-45 1193.59 1215.85)" fill="#D3E3FC"/>
<circle cx="1221.87" cy="1187.57" r="8" transform="rotate(-45 1221.87 1187.57)" fill="#D3E3FC"/>
<circle cx="1250.16" cy="1159.28" r="8" transform="rotate(-45 1250.16 1159.28)" fill="#D3E3FC"/>
<circle cx="1278.44" cy="1131" r="8" transform="rotate(-45 1278.44 1131)" fill="#D3E3FC"/>
<circle cx="1306.72" cy="1102.71" r="8" transform="rotate(-45 1306.72 1102.71)" fill="#D3E3FC"/>
<circle cx="1335.01" cy="1074.43" r="8" transform="rotate(-45 1335.01 1074.43)" fill="#D3E3FC"/>
<circle cx="1363.29" cy="1046.15" r="8" transform="rotate(-45 1363.29 1046.15)" fill="#D3E3FC"/>
<circle cx="1391.58" cy="1017.86" r="8" transform="rotate(-45 1391.58 1017.86)" fill="#D3E3FC"/>
<circle cx="1165.3" cy="1300.7" r="8" transform="rotate(-45 1165.3 1300.7)" fill="#D3E3FC"/>
<circle cx="1193.59" cy="1272.42" r="8" transform="rotate(-45 1193.59 1272.42)" fill="#D3E3FC"/>
<circle cx="1221.87" cy="1244.14" r="8" transform="rotate(-45 1221.87 1244.14)" fill="#D3E3FC"/>
<circle cx="1250.16" cy="1215.85" r="8" transform="rotate(-45 1250.16 1215.85)" fill="#D3E3FC"/>
<circle cx="1278.44" cy="1187.57" r="8" transform="rotate(-45 1278.44 1187.57)" fill="#D3E3FC"/>
<circle cx="1306.72" cy="1159.28" r="8" transform="rotate(-45 1306.72 1159.28)" fill="#D3E3FC"/>
<circle cx="1335.01" cy="1131" r="8" transform="rotate(-45 1335.01 1131)" fill="#D3E3FC"/>
<circle cx="1363.29" cy="1102.71" r="8" transform="rotate(-45 1363.29 1102.71)" fill="#D3E3FC"/>
<circle cx="1391.58" cy="1074.43" r="8" transform="rotate(-45 1391.58 1074.43)" fill="#D3E3FC"/>
<circle cx="1419.86" cy="1046.15" r="8" transform="rotate(-45 1419.86 1046.15)" fill="#D3E3FC"/>
<circle cx="1193.59" cy="1328.99" r="8" transform="rotate(-45 1193.59 1328.99)" fill="#D3E3FC"/>
<circle cx="1221.87" cy="1300.7" r="8" transform="rotate(-45 1221.87 1300.7)" fill="#D3E3FC"/>
<circle cx="1250.16" cy="1272.42" r="8" transform="rotate(-45 1250.16 1272.42)" fill="#D3E3FC"/>
<circle cx="1278.44" cy="1244.14" r="8" transform="rotate(-45 1278.44 1244.14)" fill="#D3E3FC"/>
<circle cx="1306.72" cy="1215.85" r="8" transform="rotate(-45 1306.72 1215.85)" fill="#D3E3FC"/>
<circle cx="1335.01" cy="1187.57" r="8" transform="rotate(-45 1335.01 1187.57)" fill="#D3E3FC"/>
<circle cx="1363.29" cy="1159.28" r="8" transform="rotate(-45 1363.29 1159.28)" fill="#D3E3FC"/>
<circle cx="1391.58" cy="1131" r="8" transform="rotate(-45 1391.58 1131)" fill="#D3E3FC"/>
<circle cx="1419.86" cy="1102.71" r="8" transform="rotate(-45 1419.86 1102.71)" fill="#D3E3FC"/>
<circle cx="1448.15" cy="1074.43" r="8" transform="rotate(-45 1448.15 1074.43)" fill="#D3E3FC"/>
<circle cx="1221.87" cy="1357.27" r="8" transform="rotate(-45 1221.87 1357.27)" fill="#D3E3FC"/>
<circle cx="1250.16" cy="1328.99" r="8" transform="rotate(-45 1250.16 1328.99)" fill="#D3E3FC"/>
<circle cx="1278.44" cy="1300.7" r="8" transform="rotate(-45 1278.44 1300.7)" fill="#D3E3FC"/>
<circle cx="1306.72" cy="1272.42" r="8" transform="rotate(-45 1306.72 1272.42)" fill="#D3E3FC"/>
<circle cx="1335.01" cy="1244.14" r="8" transform="rotate(-45 1335.01 1244.14)" fill="#D3E3FC"/>
<circle cx="1363.29" cy="1215.85" r="8" transform="rotate(-45 1363.29 1215.85)" fill="#D3E3FC"/>
<circle cx="1391.58" cy="1187.57" r="8" transform="rotate(-45 1391.58 1187.57)" fill="#D3E3FC"/>
<circle cx="1419.86" cy="1159.28" r="8" transform="rotate(-45 1419.86 1159.28)" fill="#D3E3FC"/>
<circle cx="1448.15" cy="1131" r="8" transform="rotate(-45 1448.15 1131)" fill="#D3E3FC"/>
<circle cx="1250.16" cy="819.872" r="8" transform="rotate(-45 1250.16 819.872)" fill="#D3E3FC"/>
<circle cx="1278.44" cy="791.588" r="8" transform="rotate(-45 1278.44 791.588)" fill="#D3E3FC"/>
<circle cx="1306.72" cy="763.303" r="8" transform="rotate(-45 1306.72 763.303)" fill="#D3E3FC"/>
<circle cx="1335.01" cy="735.019" r="8" transform="rotate(-45 1335.01 735.019)" fill="#D3E3FC"/>
<circle cx="1363.29" cy="706.735" r="8" transform="rotate(-45 1363.29 706.735)" fill="#D3E3FC"/>
<circle cx="1391.58" cy="678.451" r="8" transform="rotate(-45 1391.58 678.451)" fill="#D3E3FC"/>
<circle cx="1419.86" cy="650.167" r="8" transform="rotate(-45 1419.86 650.167)" fill="#D3E3FC"/>
<circle cx="1448.15" cy="621.882" r="8" transform="rotate(-45 1448.15 621.882)" fill="#D3E3FC"/>
<circle cx="1278.44" cy="848.156" r="8" transform="rotate(-45 1278.44 848.156)" fill="#D3E3FC"/>
<circle cx="1306.72" cy="819.872" r="8" transform="rotate(-45 1306.72 819.872)" fill="#D3E3FC"/>
<circle cx="1335.01" cy="791.588" r="8" transform="rotate(-45 1335.01 791.588)" fill="#D3E3FC"/>
<circle cx="1363.29" cy="763.303" r="8" transform="rotate(-45 1363.29 763.303)" fill="#D3E3FC"/>
<circle cx="1391.58" cy="735.019" r="8" transform="rotate(-45 1391.58 735.019)" fill="#D3E3FC"/>
<circle cx="1419.86" cy="706.735" r="8" transform="rotate(-45 1419.86 706.735)" fill="#D3E3FC"/>
<circle cx="1448.15" cy="678.451" r="8" transform="rotate(-45 1448.15 678.451)" fill="#D3E3FC"/>
<circle cx="1306.72" cy="876.441" r="8" transform="rotate(-45 1306.72 876.441)" fill="#D3E3FC"/>
<circle cx="1335.01" cy="848.156" r="8" transform="rotate(-45 1335.01 848.156)" fill="#D3E3FC"/>
<circle cx="1363.29" cy="819.872" r="8" transform="rotate(-45 1363.29 819.872)" fill="#D3E3FC"/>
<circle cx="1391.58" cy="791.588" r="8" transform="rotate(-45 1391.58 791.588)" fill="#D3E3FC"/>
<circle cx="1419.86" cy="763.304" r="8" transform="rotate(-45 1419.86 763.304)" fill="#D3E3FC"/>
<circle cx="1448.15" cy="735.019" r="8" transform="rotate(-45 1448.15 735.019)" fill="#D3E3FC"/>
<circle cx="1335.01" cy="904.725" r="8" transform="rotate(-45 1335.01 904.725)" fill="#D3E3FC"/>
<circle cx="1363.29" cy="876.441" r="8" transform="rotate(-45 1363.29 876.441)" fill="#D3E3FC"/>
<circle cx="1391.58" cy="848.156" r="8" transform="rotate(-45 1391.58 848.156)" fill="#D3E3FC"/>
<circle cx="1419.86" cy="819.872" r="8" transform="rotate(-45 1419.86 819.872)" fill="#D3E3FC"/>
<circle cx="1448.15" cy="791.588" r="8" transform="rotate(-45 1448.15 791.588)" fill="#D3E3FC"/>
<circle cx="1363.29" cy="933.009" r="8" transform="rotate(-45 1363.29 933.009)" fill="#D3E3FC"/>
<circle cx="1391.58" cy="904.725" r="8" transform="rotate(-45 1391.58 904.725)" fill="#D3E3FC"/>
<circle cx="1419.86" cy="876.44" r="8" transform="rotate(-45 1419.86 876.44)" fill="#D3E3FC"/>
<circle cx="1448.15" cy="848.156" r="8" transform="rotate(-45 1448.15 848.156)" fill="#D3E3FC"/>
<circle cx="1391.58" cy="961.293" r="8" transform="rotate(-45 1391.58 961.293)" fill="#D3E3FC"/>
<circle cx="1419.86" cy="933.009" r="8" transform="rotate(-45 1419.86 933.009)" fill="#D3E3FC"/>
<circle cx="1448.15" cy="904.725" r="8" transform="rotate(-45 1448.15 904.725)" fill="#D3E3FC"/>
<circle cx="1419.86" cy="989.578" r="8" transform="rotate(-45 1419.86 989.578)" fill="#D3E3FC"/>
<circle cx="1448.15" cy="961.293" r="8" transform="rotate(-45 1448.15 961.293)" fill="#D3E3FC"/>
<circle cx="1448.15" cy="1017.86" r="8" transform="rotate(-45 1448.15 1017.86)" fill="#D3E3FC"/>
<circle cx="220" cy="4516" r="553" stroke="#D3E3FC" stroke-width="2"/>
<circle cx="220" cy="4516" r="392" stroke="#D3E3FC" stroke-width="2"/>
<circle cx="220" cy="4516" r="194" stroke="#D3E3FC" stroke-width="2"/>
<circle cx="1308" cy="2405" r="553" stroke="#D3E3FC" stroke-width="2"/>
<circle cx="1308" cy="2405" r="392" stroke="#D3E3FC" stroke-width="2"/>
<circle cx="1308" cy="2405" r="194" stroke="#D3E3FC" stroke-width="2"/>
<circle cx="174" cy="1089" r="553" stroke="#D3E3FC" stroke-width="2"/>
<circle cx="174" cy="1089" r="392" stroke="#D3E3FC" stroke-width="2"/>
<circle cx="174" cy="1089" r="194" stroke="#D3E3FC" stroke-width="2"/>
<circle cx="16.4407" cy="3326.72" r="8" transform="rotate(-45 16.4407 3326.72)" fill="#D3E3FC"/>
<circle cx="16.4407" cy="3383.29" r="8" transform="rotate(-45 16.4407 3383.29)" fill="#D3E3FC"/>
<circle cx="44.7248" cy="3355.01" r="8" transform="rotate(-45 44.7248 3355.01)" fill="#D3E3FC"/>
<circle cx="16.4407" cy="3439.86" r="8" transform="rotate(-45 16.4407 3439.86)" fill="#D3E3FC"/>
<circle cx="44.7248" cy="3411.58" r="8" transform="rotate(-45 44.7248 3411.58)" fill="#D3E3FC"/>
<circle cx="73.009" cy="3383.29" r="8" transform="rotate(-45 73.009 3383.29)" fill="#D3E3FC"/>
<circle cx="16.4407" cy="3496.43" r="8" transform="rotate(-45 16.4407 3496.43)" fill="#D3E3FC"/>
<circle cx="44.7251" cy="3468.15" r="8" transform="rotate(-45 44.7251 3468.15)" fill="#D3E3FC"/>
<circle cx="73.0093" cy="3439.86" r="8" transform="rotate(-45 73.0093 3439.86)" fill="#D3E3FC"/>
<circle cx="101.293" cy="3411.58" r="8" transform="rotate(-45 101.293 3411.58)" fill="#D3E3FC"/>
<circle cx="16.4407" cy="3553" r="8" transform="rotate(-45 16.4407 3553)" fill="#D3E3FC"/>
<circle cx="44.7248" cy="3524.71" r="8" transform="rotate(-45 44.7248 3524.71)" fill="#D3E3FC"/>
<circle cx="73.0093" cy="3496.43" r="8" transform="rotate(-45 73.0093 3496.43)" fill="#D3E3FC"/>
<circle cx="101.293" cy="3468.15" r="8" transform="rotate(-45 101.293 3468.15)" fill="#D3E3FC"/>
<circle cx="129.578" cy="3439.86" r="8" transform="rotate(-45 129.578 3439.86)" fill="#D3E3FC"/>
<circle cx="16.4407" cy="3609.57" r="8" transform="rotate(-45 16.4407 3609.57)" fill="#D3E3FC"/>
<circle cx="44.7251" cy="3581.28" r="8" transform="rotate(-45 44.7251 3581.28)" fill="#D3E3FC"/>
<circle cx="73.0093" cy="3553" r="8" transform="rotate(-45 73.0093 3553)" fill="#D3E3FC"/>
<circle cx="101.294" cy="3524.71" r="8" transform="rotate(-45 101.294 3524.71)" fill="#D3E3FC"/>
<circle cx="129.578" cy="3496.43" r="8" transform="rotate(-45 129.578 3496.43)" fill="#D3E3FC"/>
<circle cx="157.862" cy="3468.15" r="8" transform="rotate(-45 157.862 3468.15)" fill="#D3E3FC"/>
<circle cx="16.4407" cy="3666.14" r="8" transform="rotate(-45 16.4407 3666.14)" fill="#D3E3FC"/>
<circle cx="44.7248" cy="3637.85" r="8" transform="rotate(-45 44.7248 3637.85)" fill="#D3E3FC"/>
<circle cx="73.0093" cy="3609.57" r="8" transform="rotate(-45 73.0093 3609.57)" fill="#D3E3FC"/>
<circle cx="101.293" cy="3581.28" r="8" transform="rotate(-45 101.293 3581.28)" fill="#D3E3FC"/>
<circle cx="129.578" cy="3553" r="8" transform="rotate(-45 129.578 3553)" fill="#D3E3FC"/>
<circle cx="157.862" cy="3524.71" r="8" transform="rotate(-45 157.862 3524.71)" fill="#D3E3FC"/>
<circle cx="186.146" cy="3496.43" r="8" transform="rotate(-45 186.146 3496.43)" fill="#D3E3FC"/>
<circle cx="16.4407" cy="3722.7" r="8" transform="rotate(-45 16.4407 3722.7)" fill="#D3E3FC"/>
<circle cx="44.7248" cy="3694.42" r="8" transform="rotate(-45 44.7248 3694.42)" fill="#D3E3FC"/>
<circle cx="73.009" cy="3666.14" r="8" transform="rotate(-45 73.009 3666.14)" fill="#D3E3FC"/>
<circle cx="101.293" cy="3637.85" r="8" transform="rotate(-45 101.293 3637.85)" fill="#D3E3FC"/>
<circle cx="129.578" cy="3609.57" r="8" transform="rotate(-45 129.578 3609.57)" fill="#D3E3FC"/>
<circle cx="157.862" cy="3581.28" r="8" transform="rotate(-45 157.862 3581.28)" fill="#D3E3FC"/>
<circle cx="186.146" cy="3553" r="8" transform="rotate(-45 186.146 3553)" fill="#D3E3FC"/>
<circle cx="214.43" cy="3524.71" r="8" transform="rotate(-45 214.43 3524.71)" fill="#D3E3FC"/>
<circle cx="16.4407" cy="3213.59" r="8" transform="rotate(-45 16.4407 3213.59)" fill="#D3E3FC"/>
<circle cx="44.7251" cy="3185.3" r="8" transform="rotate(-45 44.7251 3185.3)" fill="#D3E3FC"/>
<circle cx="73.0093" cy="3157.02" r="8" transform="rotate(-45 73.0093 3157.02)" fill="#D3E3FC"/>
<circle cx="101.293" cy="3128.73" r="8" transform="rotate(-45 101.293 3128.73)" fill="#D3E3FC"/>
<circle cx="129.578" cy="3100.45" r="8" transform="rotate(-45 129.578 3100.45)" fill="#D3E3FC"/>
<circle cx="157.862" cy="3072.17" r="8" transform="rotate(-45 157.862 3072.17)" fill="#D3E3FC"/>
<circle cx="186.146" cy="3043.88" r="8" transform="rotate(-45 186.146 3043.88)" fill="#D3E3FC"/>
<circle cx="214.431" cy="3015.6" r="8" transform="rotate(-45 214.431 3015.6)" fill="#D3E3FC"/>
<circle cx="242.715" cy="2987.31" r="8" transform="rotate(-45 242.715 2987.31)" fill="#D3E3FC"/>
<circle cx="16.4407" cy="3270.16" r="8" transform="rotate(-45 16.4407 3270.16)" fill="#D3E3FC"/>
<circle cx="44.7248" cy="3241.87" r="8" transform="rotate(-45 44.7248 3241.87)" fill="#D3E3FC"/>
<circle cx="73.0093" cy="3213.59" r="8" transform="rotate(-45 73.0093 3213.59)" fill="#D3E3FC"/>
<circle cx="101.293" cy="3185.3" r="8" transform="rotate(-45 101.293 3185.3)" fill="#D3E3FC"/>
<circle cx="129.578" cy="3157.02" r="8" transform="rotate(-45 129.578 3157.02)" fill="#D3E3FC"/>
<circle cx="157.862" cy="3128.73" r="8" transform="rotate(-45 157.862 3128.73)" fill="#D3E3FC"/>
<circle cx="186.146" cy="3100.45" r="8" transform="rotate(-45 186.146 3100.45)" fill="#D3E3FC"/>
<circle cx="214.431" cy="3072.17" r="8" transform="rotate(-45 214.431 3072.17)" fill="#D3E3FC"/>
<circle cx="242.715" cy="3043.88" r="8" transform="rotate(-45 242.715 3043.88)" fill="#D3E3FC"/>
<circle cx="270.999" cy="3015.6" r="8" transform="rotate(-45 270.999 3015.6)" fill="#D3E3FC"/>
<circle cx="44.7251" cy="3298.44" r="8" transform="rotate(-45 44.7251 3298.44)" fill="#D3E3FC"/>
<circle cx="73.0093" cy="3270.16" r="8" transform="rotate(-45 73.0093 3270.16)" fill="#D3E3FC"/>
<circle cx="101.294" cy="3241.87" r="8" transform="rotate(-45 101.294 3241.87)" fill="#D3E3FC"/>
<circle cx="129.578" cy="3213.59" r="8" transform="rotate(-45 129.578 3213.59)" fill="#D3E3FC"/>
<circle cx="157.862" cy="3185.3" r="8" transform="rotate(-45 157.862 3185.3)" fill="#D3E3FC"/>
<circle cx="186.146" cy="3157.02" r="8" transform="rotate(-45 186.146 3157.02)" fill="#D3E3FC"/>
<circle cx="214.431" cy="3128.73" r="8" transform="rotate(-45 214.431 3128.73)" fill="#D3E3FC"/>
<circle cx="242.715" cy="3100.45" r="8" transform="rotate(-45 242.715 3100.45)" fill="#D3E3FC"/>
<circle cx="270.999" cy="3072.17" r="8" transform="rotate(-45 270.999 3072.17)" fill="#D3E3FC"/>
<circle cx="299.283" cy="3043.88" r="8" transform="rotate(-45 299.283 3043.88)" fill="#D3E3FC"/>
<circle cx="73.0093" cy="3326.72" r="8" transform="rotate(-45 73.0093 3326.72)" fill="#D3E3FC"/>
<circle cx="101.293" cy="3298.44" r="8" transform="rotate(-45 101.293 3298.44)" fill="#D3E3FC"/>
<circle cx="129.578" cy="3270.16" r="8" transform="rotate(-45 129.578 3270.16)" fill="#D3E3FC"/>
<circle cx="157.862" cy="3241.87" r="8" transform="rotate(-45 157.862 3241.87)" fill="#D3E3FC"/>
<circle cx="186.146" cy="3213.59" r="8" transform="rotate(-45 186.146 3213.59)" fill="#D3E3FC"/>
<circle cx="214.431" cy="3185.3" r="8" transform="rotate(-45 214.431 3185.3)" fill="#D3E3FC"/>
<circle cx="242.715" cy="3157.02" r="8" transform="rotate(-45 242.715 3157.02)" fill="#D3E3FC"/>
<circle cx="270.999" cy="3128.73" r="8" transform="rotate(-45 270.999 3128.73)" fill="#D3E3FC"/>
<circle cx="299.283" cy="3100.45" r="8" transform="rotate(-45 299.283 3100.45)" fill="#D3E3FC"/>
<circle cx="327.568" cy="3072.17" r="8" transform="rotate(-45 327.568 3072.17)" fill="#D3E3FC"/>
<circle cx="101.293" cy="3355.01" r="8" transform="rotate(-45 101.293 3355.01)" fill="#D3E3FC"/>
<circle cx="129.578" cy="3326.72" r="8" transform="rotate(-45 129.578 3326.72)" fill="#D3E3FC"/>
<circle cx="157.862" cy="3298.44" r="8" transform="rotate(-45 157.862 3298.44)" fill="#D3E3FC"/>
<circle cx="186.146" cy="3270.16" r="8" transform="rotate(-45 186.146 3270.16)" fill="#D3E3FC"/>
<circle cx="214.43" cy="3241.87" r="8" transform="rotate(-45 214.43 3241.87)" fill="#D3E3FC"/>
<circle cx="242.715" cy="3213.59" r="8" transform="rotate(-45 242.715 3213.59)" fill="#D3E3FC"/>
<circle cx="270.999" cy="3185.3" r="8" transform="rotate(-45 270.999 3185.3)" fill="#D3E3FC"/>
<circle cx="299.283" cy="3157.02" r="8" transform="rotate(-45 299.283 3157.02)" fill="#D3E3FC"/>
<circle cx="327.568" cy="3128.73" r="8" transform="rotate(-45 327.568 3128.73)" fill="#D3E3FC"/>
<circle cx="355.852" cy="3100.45" r="8" transform="rotate(-45 355.852 3100.45)" fill="#D3E3FC"/>
<circle cx="129.578" cy="3383.29" r="8" transform="rotate(-45 129.578 3383.29)" fill="#D3E3FC"/>
<circle cx="157.862" cy="3355.01" r="8" transform="rotate(-45 157.862 3355.01)" fill="#D3E3FC"/>
<circle cx="186.146" cy="3326.72" r="8" transform="rotate(-45 186.146 3326.72)" fill="#D3E3FC"/>
<circle cx="214.431" cy="3298.44" r="8" transform="rotate(-45 214.431 3298.44)" fill="#D3E3FC"/>
<circle cx="242.715" cy="3270.16" r="8" transform="rotate(-45 242.715 3270.16)" fill="#D3E3FC"/>
<circle cx="270.999" cy="3241.87" r="8" transform="rotate(-45 270.999 3241.87)" fill="#D3E3FC"/>
<circle cx="299.283" cy="3213.59" r="8" transform="rotate(-45 299.283 3213.59)" fill="#D3E3FC"/>
<circle cx="327.568" cy="3185.3" r="8" transform="rotate(-45 327.568 3185.3)" fill="#D3E3FC"/>
<circle cx="355.852" cy="3157.02" r="8" transform="rotate(-45 355.852 3157.02)" fill="#D3E3FC"/>
<circle cx="384.136" cy="3128.73" r="8" transform="rotate(-45 384.136 3128.73)" fill="#D3E3FC"/>
<circle cx="157.862" cy="3411.58" r="8" transform="rotate(-45 157.862 3411.58)" fill="#D3E3FC"/>
<circle cx="186.146" cy="3383.29" r="8" transform="rotate(-45 186.146 3383.29)" fill="#D3E3FC"/>
<circle cx="214.431" cy="3355.01" r="8" transform="rotate(-45 214.431 3355.01)" fill="#D3E3FC"/>
<circle cx="242.715" cy="3326.72" r="8" transform="rotate(-45 242.715 3326.72)" fill="#D3E3FC"/>
<circle cx="270.999" cy="3298.44" r="8" transform="rotate(-45 270.999 3298.44)" fill="#D3E3FC"/>
<circle cx="299.283" cy="3270.16" r="8" transform="rotate(-45 299.283 3270.16)" fill="#D3E3FC"/>
<circle cx="327.568" cy="3241.87" r="8" transform="rotate(-45 327.568 3241.87)" fill="#D3E3FC"/>
<circle cx="355.852" cy="3213.59" r="8" transform="rotate(-45 355.852 3213.59)" fill="#D3E3FC"/>
<circle cx="384.136" cy="3185.3" r="8" transform="rotate(-45 384.136 3185.3)" fill="#D3E3FC"/>
<circle cx="412.42" cy="3157.02" r="8" transform="rotate(-45 412.42 3157.02)" fill="#D3E3FC"/>
<circle cx="186.146" cy="3439.86" r="8" transform="rotate(-45 186.146 3439.86)" fill="#D3E3FC"/>
<circle cx="214.431" cy="3411.58" r="8" transform="rotate(-45 214.431 3411.58)" fill="#D3E3FC"/>
<circle cx="242.715" cy="3383.29" r="8" transform="rotate(-45 242.715 3383.29)" fill="#D3E3FC"/>
<circle cx="270.999" cy="3355.01" r="8" transform="rotate(-45 270.999 3355.01)" fill="#D3E3FC"/>
<circle cx="299.283" cy="3326.72" r="8" transform="rotate(-45 299.283 3326.72)" fill="#D3E3FC"/>
<circle cx="327.568" cy="3298.44" r="8" transform="rotate(-45 327.568 3298.44)" fill="#D3E3FC"/>
<circle cx="355.852" cy="3270.16" r="8" transform="rotate(-45 355.852 3270.16)" fill="#D3E3FC"/>
<circle cx="384.136" cy="3241.87" r="8" transform="rotate(-45 384.136 3241.87)" fill="#D3E3FC"/>
<circle cx="412.421" cy="3213.59" r="8" transform="rotate(-45 412.421 3213.59)" fill="#D3E3FC"/>
<circle cx="440.705" cy="3185.3" r="8" transform="rotate(-45 440.705 3185.3)" fill="#D3E3FC"/>
<circle cx="214.431" cy="3468.15" r="8" transform="rotate(-45 214.431 3468.15)" fill="#D3E3FC"/>
<circle cx="242.715" cy="3439.86" r="8" transform="rotate(-45 242.715 3439.86)" fill="#D3E3FC"/>
<circle cx="270.999" cy="3411.58" r="8" transform="rotate(-45 270.999 3411.58)" fill="#D3E3FC"/>
<circle cx="299.283" cy="3383.29" r="8" transform="rotate(-45 299.283 3383.29)" fill="#D3E3FC"/>
<circle cx="327.568" cy="3355.01" r="8" transform="rotate(-45 327.568 3355.01)" fill="#D3E3FC"/>
<circle cx="355.852" cy="3326.72" r="8" transform="rotate(-45 355.852 3326.72)" fill="#D3E3FC"/>
<circle cx="384.136" cy="3298.44" r="8" transform="rotate(-45 384.136 3298.44)" fill="#D3E3FC"/>
<circle cx="412.421" cy="3270.16" r="8" transform="rotate(-45 412.421 3270.16)" fill="#D3E3FC"/>
<circle cx="440.705" cy="3241.87" r="8" transform="rotate(-45 440.705 3241.87)" fill="#D3E3FC"/>
<circle cx="468.989" cy="3213.59" r="8" transform="rotate(-45 468.989 3213.59)" fill="#D3E3FC"/>
<circle cx="242.715" cy="3496.43" r="8" transform="rotate(-45 242.715 3496.43)" fill="#D3E3FC"/>
<circle cx="270.999" cy="3468.15" r="8" transform="rotate(-45 270.999 3468.15)" fill="#D3E3FC"/>
<circle cx="299.283" cy="3439.86" r="8" transform="rotate(-45 299.283 3439.86)" fill="#D3E3FC"/>
<circle cx="327.568" cy="3411.58" r="8" transform="rotate(-45 327.568 3411.58)" fill="#D3E3FC"/>
<circle cx="355.852" cy="3383.29" r="8" transform="rotate(-45 355.852 3383.29)" fill="#D3E3FC"/>
<circle cx="384.136" cy="3355.01" r="8" transform="rotate(-45 384.136 3355.01)" fill="#D3E3FC"/>
<circle cx="412.42" cy="3326.72" r="8" transform="rotate(-45 412.42 3326.72)" fill="#D3E3FC"/>
<circle cx="440.705" cy="3298.44" r="8" transform="rotate(-45 440.705 3298.44)" fill="#D3E3FC"/>
<circle cx="468.989" cy="3270.16" r="8" transform="rotate(-45 468.989 3270.16)" fill="#D3E3FC"/>
<circle cx="497.273" cy="3241.87" r="8" transform="rotate(-45 497.273 3241.87)" fill="#D3E3FC"/>
<circle cx="917.314" cy="4695.71" r="8" transform="rotate(-45 917.314 4695.71)" fill="#D3E3FC"/>
<circle cx="945.598" cy="4667.43" r="8" transform="rotate(-45 945.598 4667.43)" fill="#D3E3FC"/>
<circle cx="973.882" cy="4639.15" r="8" transform="rotate(-45 973.882 4639.15)" fill="#D3E3FC"/>
<circle cx="1002.17" cy="4610.86" r="8" transform="rotate(-45 1002.17 4610.86)" fill="#D3E3FC"/>
<circle cx="1030.45" cy="4582.58" r="8" transform="rotate(-45 1030.45 4582.58)" fill="#D3E3FC"/>
<circle cx="1058.74" cy="4554.29" r="8" transform="rotate(-45 1058.74 4554.29)" fill="#D3E3FC"/>
<circle cx="1087.02" cy="4526.01" r="8" transform="rotate(-45 1087.02 4526.01)" fill="#D3E3FC"/>
<circle cx="1115.3" cy="4497.73" r="8" transform="rotate(-45 1115.3 4497.73)" fill="#D3E3FC"/>
<circle cx="1143.59" cy="4469.44" r="8" transform="rotate(-45 1143.59 4469.44)" fill="#D3E3FC"/>
<circle cx="1171.87" cy="4441.16" r="8" transform="rotate(-45 1171.87 4441.16)" fill="#D3E3FC"/>
<circle cx="945.598" cy="4724" r="8" transform="rotate(-45 945.598 4724)" fill="#D3E3FC"/>
<circle cx="973.882" cy="4695.71" r="8" transform="rotate(-45 973.882 4695.71)" fill="#D3E3FC"/>
<circle cx="1002.17" cy="4667.43" r="8" transform="rotate(-45 1002.17 4667.43)" fill="#D3E3FC"/>
<circle cx="1030.45" cy="4639.15" r="8" transform="rotate(-45 1030.45 4639.15)" fill="#D3E3FC"/>
<circle cx="1058.73" cy="4610.86" r="8" transform="rotate(-45 1058.73 4610.86)" fill="#D3E3FC"/>
<circle cx="1087.02" cy="4582.58" r="8" transform="rotate(-45 1087.02 4582.58)" fill="#D3E3FC"/>
<circle cx="1115.3" cy="4554.29" r="8" transform="rotate(-45 1115.3 4554.29)" fill="#D3E3FC"/>
<circle cx="1143.59" cy="4526.01" r="8" transform="rotate(-45 1143.59 4526.01)" fill="#D3E3FC"/>
<circle cx="1171.87" cy="4497.73" r="8" transform="rotate(-45 1171.87 4497.73)" fill="#D3E3FC"/>
<circle cx="1200.16" cy="4469.44" r="8" transform="rotate(-45 1200.16 4469.44)" fill="#D3E3FC"/>
<circle cx="973.882" cy="4752.28" r="8" transform="rotate(-45 973.882 4752.28)" fill="#D3E3FC"/>
<circle cx="1002.17" cy="4724" r="8" transform="rotate(-45 1002.17 4724)" fill="#D3E3FC"/>
<circle cx="1030.45" cy="4695.71" r="8" transform="rotate(-45 1030.45 4695.71)" fill="#D3E3FC"/>
<circle cx="1058.74" cy="4667.43" r="8" transform="rotate(-45 1058.74 4667.43)" fill="#D3E3FC"/>
<circle cx="1087.02" cy="4639.15" r="8" transform="rotate(-45 1087.02 4639.15)" fill="#D3E3FC"/>
<circle cx="1115.3" cy="4610.86" r="8" transform="rotate(-45 1115.3 4610.86)" fill="#D3E3FC"/>
<circle cx="1143.59" cy="4582.58" r="8" transform="rotate(-45 1143.59 4582.58)" fill="#D3E3FC"/>
<circle cx="1171.87" cy="4554.29" r="8" transform="rotate(-45 1171.87 4554.29)" fill="#D3E3FC"/>
<circle cx="1200.16" cy="4526.01" r="8" transform="rotate(-45 1200.16 4526.01)" fill="#D3E3FC"/>
<circle cx="1228.44" cy="4497.73" r="8" transform="rotate(-45 1228.44 4497.73)" fill="#D3E3FC"/>
<circle cx="1002.17" cy="4780.57" r="8" transform="rotate(-45 1002.17 4780.57)" fill="#D3E3FC"/>
<circle cx="1030.45" cy="4752.28" r="8" transform="rotate(-45 1030.45 4752.28)" fill="#D3E3FC"/>
<circle cx="1058.74" cy="4724" r="8" transform="rotate(-45 1058.74 4724)" fill="#D3E3FC"/>
<circle cx="1087.02" cy="4695.71" r="8" transform="rotate(-45 1087.02 4695.71)" fill="#D3E3FC"/>
<circle cx="1115.3" cy="4667.43" r="8" transform="rotate(-45 1115.3 4667.43)" fill="#D3E3FC"/>
<circle cx="1143.59" cy="4639.15" r="8" transform="rotate(-45 1143.59 4639.15)" fill="#D3E3FC"/>
<circle cx="1171.87" cy="4610.86" r="8" transform="rotate(-45 1171.87 4610.86)" fill="#D3E3FC"/>
<circle cx="1200.16" cy="4582.58" r="8" transform="rotate(-45 1200.16 4582.58)" fill="#D3E3FC"/>
<circle cx="1228.44" cy="4554.29" r="8" transform="rotate(-45 1228.44 4554.29)" fill="#D3E3FC"/>
<circle cx="1256.72" cy="4526.01" r="8" transform="rotate(-45 1256.72 4526.01)" fill="#D3E3FC"/>
<circle cx="1030.45" cy="4808.85" r="8" transform="rotate(-45 1030.45 4808.85)" fill="#D3E3FC"/>
<circle cx="1058.73" cy="4780.57" r="8" transform="rotate(-45 1058.73 4780.57)" fill="#D3E3FC"/>
<circle cx="1087.02" cy="4752.28" r="8" transform="rotate(-45 1087.02 4752.28)" fill="#D3E3FC"/>
<circle cx="1115.3" cy="4724" r="8" transform="rotate(-45 1115.3 4724)" fill="#D3E3FC"/>
<circle cx="1143.59" cy="4695.71" r="8" transform="rotate(-45 1143.59 4695.71)" fill="#D3E3FC"/>
<circle cx="1171.87" cy="4667.43" r="8" transform="rotate(-45 1171.87 4667.43)" fill="#D3E3FC"/>
<circle cx="1200.16" cy="4639.15" r="8" transform="rotate(-45 1200.16 4639.15)" fill="#D3E3FC"/>
<circle cx="1228.44" cy="4610.86" r="8" transform="rotate(-45 1228.44 4610.86)" fill="#D3E3FC"/>
<circle cx="1256.72" cy="4582.58" r="8" transform="rotate(-45 1256.72 4582.58)" fill="#D3E3FC"/>
<circle cx="1285.01" cy="4554.29" r="8" transform="rotate(-45 1285.01 4554.29)" fill="#D3E3FC"/>
<circle cx="1058.74" cy="4837.14" r="8" transform="rotate(-45 1058.74 4837.14)" fill="#D3E3FC"/>
<circle cx="1087.02" cy="4808.85" r="8" transform="rotate(-45 1087.02 4808.85)" fill="#D3E3FC"/>
<circle cx="1115.3" cy="4780.57" r="8" transform="rotate(-45 1115.3 4780.57)" fill="#D3E3FC"/>
<circle cx="1143.59" cy="4752.28" r="8" transform="rotate(-45 1143.59 4752.28)" fill="#D3E3FC"/>
<circle cx="1171.87" cy="4724" r="8" transform="rotate(-45 1171.87 4724)" fill="#D3E3FC"/>
<circle cx="1200.16" cy="4695.71" r="8" transform="rotate(-45 1200.16 4695.71)" fill="#D3E3FC"/>
<circle cx="1228.44" cy="4667.43" r="8" transform="rotate(-45 1228.44 4667.43)" fill="#D3E3FC"/>
<circle cx="1256.72" cy="4639.15" r="8" transform="rotate(-45 1256.72 4639.15)" fill="#D3E3FC"/>
<circle cx="1285.01" cy="4610.86" r="8" transform="rotate(-45 1285.01 4610.86)" fill="#D3E3FC"/>
<circle cx="1313.29" cy="4582.58" r="8" transform="rotate(-45 1313.29 4582.58)" fill="#D3E3FC"/>
<circle cx="1087.02" cy="4865.42" r="8" transform="rotate(-45 1087.02 4865.42)" fill="#D3E3FC"/>
<circle cx="1115.3" cy="4837.14" r="8" transform="rotate(-45 1115.3 4837.14)" fill="#D3E3FC"/>
<circle cx="1143.59" cy="4808.85" r="8" transform="rotate(-45 1143.59 4808.85)" fill="#D3E3FC"/>
<circle cx="1171.87" cy="4780.57" r="8" transform="rotate(-45 1171.87 4780.57)" fill="#D3E3FC"/>
<circle cx="1200.16" cy="4752.28" r="8" transform="rotate(-45 1200.16 4752.28)" fill="#D3E3FC"/>
<circle cx="1228.44" cy="4724" r="8" transform="rotate(-45 1228.44 4724)" fill="#D3E3FC"/>
<circle cx="1256.72" cy="4695.71" r="8" transform="rotate(-45 1256.72 4695.71)" fill="#D3E3FC"/>
<circle cx="1285.01" cy="4667.43" r="8" transform="rotate(-45 1285.01 4667.43)" fill="#D3E3FC"/>
<circle cx="1313.29" cy="4639.15" r="8" transform="rotate(-45 1313.29 4639.15)" fill="#D3E3FC"/>
<circle cx="1341.58" cy="4610.86" r="8" transform="rotate(-45 1341.58 4610.86)" fill="#D3E3FC"/>
<circle cx="1115.3" cy="4893.7" r="8" transform="rotate(-45 1115.3 4893.7)" fill="#D3E3FC"/>
<circle cx="1143.59" cy="4865.42" r="8" transform="rotate(-45 1143.59 4865.42)" fill="#D3E3FC"/>
<circle cx="1171.87" cy="4837.14" r="8" transform="rotate(-45 1171.87 4837.14)" fill="#D3E3FC"/>
<circle cx="1200.16" cy="4808.85" r="8" transform="rotate(-45 1200.16 4808.85)" fill="#D3E3FC"/>
<circle cx="1228.44" cy="4780.57" r="8" transform="rotate(-45 1228.44 4780.57)" fill="#D3E3FC"/>
<circle cx="1256.72" cy="4752.28" r="8" transform="rotate(-45 1256.72 4752.28)" fill="#D3E3FC"/>
<circle cx="1285.01" cy="4724" r="8" transform="rotate(-45 1285.01 4724)" fill="#D3E3FC"/>
<circle cx="1313.29" cy="4695.71" r="8" transform="rotate(-45 1313.29 4695.71)" fill="#D3E3FC"/>
<circle cx="1341.58" cy="4667.43" r="8" transform="rotate(-45 1341.58 4667.43)" fill="#D3E3FC"/>
<circle cx="1369.86" cy="4639.15" r="8" transform="rotate(-45 1369.86 4639.15)" fill="#D3E3FC"/>
<circle cx="1143.59" cy="4921.99" r="8" transform="rotate(-45 1143.59 4921.99)" fill="#D3E3FC"/>
<circle cx="1171.87" cy="4893.7" r="8" transform="rotate(-45 1171.87 4893.7)" fill="#D3E3FC"/>
<circle cx="1200.16" cy="4865.42" r="8" transform="rotate(-45 1200.16 4865.42)" fill="#D3E3FC"/>
<circle cx="1228.44" cy="4837.14" r="8" transform="rotate(-45 1228.44 4837.14)" fill="#D3E3FC"/>
<circle cx="1256.72" cy="4808.85" r="8" transform="rotate(-45 1256.72 4808.85)" fill="#D3E3FC"/>
<circle cx="1285.01" cy="4780.57" r="8" transform="rotate(-45 1285.01 4780.57)" fill="#D3E3FC"/>
<circle cx="1313.29" cy="4752.28" r="8" transform="rotate(-45 1313.29 4752.28)" fill="#D3E3FC"/>
<circle cx="1341.58" cy="4724" r="8" transform="rotate(-45 1341.58 4724)" fill="#D3E3FC"/>
<circle cx="1369.86" cy="4695.71" r="8" transform="rotate(-45 1369.86 4695.71)" fill="#D3E3FC"/>
<circle cx="1398.15" cy="4667.43" r="8" transform="rotate(-45 1398.15 4667.43)" fill="#D3E3FC"/>
<circle cx="1171.87" cy="4950.27" r="8" transform="rotate(-45 1171.87 4950.27)" fill="#D3E3FC"/>
<circle cx="1200.16" cy="4921.99" r="8" transform="rotate(-45 1200.16 4921.99)" fill="#D3E3FC"/>
<circle cx="1228.44" cy="4893.7" r="8" transform="rotate(-45 1228.44 4893.7)" fill="#D3E3FC"/>
<circle cx="1256.72" cy="4865.42" r="8" transform="rotate(-45 1256.72 4865.42)" fill="#D3E3FC"/>
<circle cx="1285.01" cy="4837.14" r="8" transform="rotate(-45 1285.01 4837.14)" fill="#D3E3FC"/>
<circle cx="1313.29" cy="4808.85" r="8" transform="rotate(-45 1313.29 4808.85)" fill="#D3E3FC"/>
<circle cx="1341.58" cy="4780.57" r="8" transform="rotate(-45 1341.58 4780.57)" fill="#D3E3FC"/>
<circle cx="1369.86" cy="4752.28" r="8" transform="rotate(-45 1369.86 4752.28)" fill="#D3E3FC"/>
<circle cx="1398.15" cy="4724" r="8" transform="rotate(-45 1398.15 4724)" fill="#D3E3FC"/>
<circle cx="1426.43" cy="4695.71" r="8" transform="rotate(-45 1426.43 4695.71)" fill="#D3E3FC"/>
<circle cx="1200.16" cy="4412.87" r="8" transform="rotate(-45 1200.16 4412.87)" fill="#D3E3FC"/>
<circle cx="1228.44" cy="4384.59" r="8" transform="rotate(-45 1228.44 4384.59)" fill="#D3E3FC"/>
<circle cx="1256.72" cy="4356.3" r="8" transform="rotate(-45 1256.72 4356.3)" fill="#D3E3FC"/>
<circle cx="1285.01" cy="4328.02" r="8" transform="rotate(-45 1285.01 4328.02)" fill="#D3E3FC"/>
<circle cx="1313.29" cy="4299.73" r="8" transform="rotate(-45 1313.29 4299.73)" fill="#D3E3FC"/>
<circle cx="1341.58" cy="4271.45" r="8" transform="rotate(-45 1341.58 4271.45)" fill="#D3E3FC"/>
<circle cx="1369.86" cy="4243.17" r="8" transform="rotate(-45 1369.86 4243.17)" fill="#D3E3FC"/>
<circle cx="1398.15" cy="4214.88" r="8" transform="rotate(-45 1398.15 4214.88)" fill="#D3E3FC"/>
<circle cx="1426.43" cy="4186.6" r="8" transform="rotate(-45 1426.43 4186.6)" fill="#D3E3FC"/>
<circle cx="1228.44" cy="4441.16" r="8" transform="rotate(-45 1228.44 4441.16)" fill="#D3E3FC"/>
<circle cx="1256.72" cy="4412.87" r="8" transform="rotate(-45 1256.72 4412.87)" fill="#D3E3FC"/>
<circle cx="1285.01" cy="4384.59" r="8" transform="rotate(-45 1285.01 4384.59)" fill="#D3E3FC"/>
<circle cx="1313.29" cy="4356.3" r="8" transform="rotate(-45 1313.29 4356.3)" fill="#D3E3FC"/>
<circle cx="1341.58" cy="4328.02" r="8" transform="rotate(-45 1341.58 4328.02)" fill="#D3E3FC"/>
<circle cx="1369.86" cy="4299.73" r="8" transform="rotate(-45 1369.86 4299.73)" fill="#D3E3FC"/>
<circle cx="1398.15" cy="4271.45" r="8" transform="rotate(-45 1398.15 4271.45)" fill="#D3E3FC"/>
<circle cx="1426.43" cy="4243.17" r="8" transform="rotate(-45 1426.43 4243.17)" fill="#D3E3FC"/>
<circle cx="1256.72" cy="4469.44" r="8" transform="rotate(-45 1256.72 4469.44)" fill="#D3E3FC"/>
<circle cx="1285.01" cy="4441.16" r="8" transform="rotate(-45 1285.01 4441.16)" fill="#D3E3FC"/>
<circle cx="1313.29" cy="4412.87" r="8" transform="rotate(-45 1313.29 4412.87)" fill="#D3E3FC"/>
<circle cx="1341.58" cy="4384.59" r="8" transform="rotate(-45 1341.58 4384.59)" fill="#D3E3FC"/>
<circle cx="1369.86" cy="4356.3" r="8" transform="rotate(-45 1369.86 4356.3)" fill="#D3E3FC"/>
<circle cx="1398.15" cy="4328.02" r="8" transform="rotate(-45 1398.15 4328.02)" fill="#D3E3FC"/>
<circle cx="1426.43" cy="4299.73" r="8" transform="rotate(-45 1426.43 4299.73)" fill="#D3E3FC"/>
<circle cx="1285.01" cy="4497.73" r="8" transform="rotate(-45 1285.01 4497.73)" fill="#D3E3FC"/>
<circle cx="1313.29" cy="4469.44" r="8" transform="rotate(-45 1313.29 4469.44)" fill="#D3E3FC"/>
<circle cx="1341.58" cy="4441.16" r="8" transform="rotate(-45 1341.58 4441.16)" fill="#D3E3FC"/>
<circle cx="1369.86" cy="4412.87" r="8" transform="rotate(-45 1369.86 4412.87)" fill="#D3E3FC"/>
<circle cx="1398.15" cy="4384.59" r="8" transform="rotate(-45 1398.15 4384.59)" fill="#D3E3FC"/>
<circle cx="1426.43" cy="4356.3" r="8" transform="rotate(-45 1426.43 4356.3)" fill="#D3E3FC"/>
<circle cx="1313.29" cy="4526.01" r="8" transform="rotate(-45 1313.29 4526.01)" fill="#D3E3FC"/>
<circle cx="1341.58" cy="4497.73" r="8" transform="rotate(-45 1341.58 4497.73)" fill="#D3E3FC"/>
<circle cx="1369.86" cy="4469.44" r="8" transform="rotate(-45 1369.86 4469.44)" fill="#D3E3FC"/>
<circle cx="1398.15" cy="4441.16" r="8" transform="rotate(-45 1398.15 4441.16)" fill="#D3E3FC"/>
<circle cx="1426.43" cy="4412.87" r="8" transform="rotate(-45 1426.43 4412.87)" fill="#D3E3FC"/>
<circle cx="1341.58" cy="4554.29" r="8" transform="rotate(-45 1341.58 4554.29)" fill="#D3E3FC"/>
<circle cx="1369.86" cy="4526.01" r="8" transform="rotate(-45 1369.86 4526.01)" fill="#D3E3FC"/>
<circle cx="1398.15" cy="4497.73" r="8" transform="rotate(-45 1398.15 4497.73)" fill="#D3E3FC"/>
<circle cx="1426.43" cy="4469.44" r="8" transform="rotate(-45 1426.43 4469.44)" fill="#D3E3FC"/>
<circle cx="1369.86" cy="4582.58" r="8" transform="rotate(-45 1369.86 4582.58)" fill="#D3E3FC"/>
<circle cx="1398.15" cy="4554.29" r="8" transform="rotate(-45 1398.15 4554.29)" fill="#D3E3FC"/>
<circle cx="1426.43" cy="4526.01" r="8" transform="rotate(-45 1426.43 4526.01)" fill="#D3E3FC"/>
<circle cx="1398.15" cy="4610.86" r="8" transform="rotate(-45 1398.15 4610.86)" fill="#D3E3FC"/>
<circle cx="1426.43" cy="4582.58" r="8" transform="rotate(-45 1426.43 4582.58)" fill="#D3E3FC"/>
<circle cx="1426.43" cy="4639.15" r="8" transform="rotate(-45 1426.43 4639.15)" fill="#D3E3FC"/>
<path d="M1495 3348H1010C987.909 3348 970 3365.91 970 3388V3847C970 3869.09 987.909 3887 1010 3887H1255C1277.09 3887 1295 3904.91 1295 3927V4122C1295 4144.09 1312.91 4162 1335 4162H1495" stroke="#D3E3FC" stroke-width="2"/>
<path d="M1559 3284H1074C1051.91 3284 1034 3301.91 1034 3324V3783C1034 3805.09 1051.91 3823 1074 3823H1319C1341.09 3823 1359 3840.91 1359 3863V4058C1359 4080.09 1376.91 4098 1399 4098H1559" stroke="#D3E3FC" stroke-width="2"/>
<path d="M1623 3220H1138C1115.91 3220 1098 3237.91 1098 3260V3719C1098 3741.09 1115.91 3759 1138 3759H1383C1405.09 3759 1423 3776.91 1423 3799V3994C1423 4016.09 1440.91 4034 1463 4034H1623" stroke="#D3E3FC" stroke-width="2"/>
<circle cx="-6.98073" cy="2363.01" r="8" transform="rotate(-45 -6.98073 2363.01)" fill="#D3E3FC"/>
<circle cx="21.3037" cy="2334.72" r="8" transform="rotate(-45 21.3037 2334.72)" fill="#D3E3FC"/>
<circle cx="49.5879" cy="2306.44" r="8" transform="rotate(-45 49.5879 2306.44)" fill="#D3E3FC"/>
<circle cx="77.8721" cy="2278.16" r="8" transform="rotate(-45 77.8721 2278.16)" fill="#D3E3FC"/>
<circle cx="-6.98073" cy="2419.58" r="8" transform="rotate(-45 -6.98073 2419.58)" fill="#D3E3FC"/>
<circle cx="21.3035" cy="2391.29" r="8" transform="rotate(-45 21.3035 2391.29)" fill="#D3E3FC"/>
<circle cx="49.5879" cy="2363.01" r="8" transform="rotate(-45 49.5879 2363.01)" fill="#D3E3FC"/>
<circle cx="77.8721" cy="2334.73" r="8" transform="rotate(-45 77.8721 2334.73)" fill="#D3E3FC"/>
<circle cx="106.156" cy="2306.44" r="8" transform="rotate(-45 106.156 2306.44)" fill="#D3E3FC"/>
<circle cx="-6.98073" cy="2476.15" r="8" transform="rotate(-45 -6.98073 2476.15)" fill="#D3E3FC"/>
<circle cx="21.3037" cy="2447.86" r="8" transform="rotate(-45 21.3037 2447.86)" fill="#D3E3FC"/>
<circle cx="49.5879" cy="2419.58" r="8" transform="rotate(-45 49.5879 2419.58)" fill="#D3E3FC"/>
<circle cx="77.8723" cy="2391.29" r="8" transform="rotate(-45 77.8723 2391.29)" fill="#D3E3FC"/>
<circle cx="106.156" cy="2363.01" r="8" transform="rotate(-45 106.156 2363.01)" fill="#D3E3FC"/>
<circle cx="134.441" cy="2334.72" r="8" transform="rotate(-45 134.441 2334.72)" fill="#D3E3FC"/>
<circle cx="-6.98073" cy="2532.71" r="8" transform="rotate(-45 -6.98073 2532.71)" fill="#D3E3FC"/>
<circle cx="21.3035" cy="2504.43" r="8" transform="rotate(-45 21.3035 2504.43)" fill="#D3E3FC"/>
<circle cx="49.5879" cy="2476.15" r="8" transform="rotate(-45 49.5879 2476.15)" fill="#D3E3FC"/>
<circle cx="77.8721" cy="2447.86" r="8" transform="rotate(-45 77.8721 2447.86)" fill="#D3E3FC"/>
<circle cx="106.156" cy="2419.58" r="8" transform="rotate(-45 106.156 2419.58)" fill="#D3E3FC"/>
<circle cx="134.441" cy="2391.29" r="8" transform="rotate(-45 134.441 2391.29)" fill="#D3E3FC"/>
<circle cx="162.725" cy="2363.01" r="8" transform="rotate(-45 162.725 2363.01)" fill="#D3E3FC"/>
<circle cx="-6.98073" cy="2589.28" r="8" transform="rotate(-45 -6.98073 2589.28)" fill="#D3E3FC"/>
<circle cx="21.3035" cy="2561" r="8" transform="rotate(-45 21.3035 2561)" fill="#D3E3FC"/>
<circle cx="49.5876" cy="2532.71" r="8" transform="rotate(-45 49.5876 2532.71)" fill="#D3E3FC"/>
<circle cx="77.8721" cy="2504.43" r="8" transform="rotate(-45 77.8721 2504.43)" fill="#D3E3FC"/>
<circle cx="106.156" cy="2476.15" r="8" transform="rotate(-45 106.156 2476.15)" fill="#D3E3FC"/>
<circle cx="134.441" cy="2447.86" r="8" transform="rotate(-45 134.441 2447.86)" fill="#D3E3FC"/>
<circle cx="162.725" cy="2419.58" r="8" transform="rotate(-45 162.725 2419.58)" fill="#D3E3FC"/>
<circle cx="191.009" cy="2391.29" r="8" transform="rotate(-45 191.009 2391.29)" fill="#D3E3FC"/>
<circle cx="-6.98073" cy="2645.85" r="8" transform="rotate(-45 -6.98073 2645.85)" fill="#D3E3FC"/>
<circle cx="21.3037" cy="2617.57" r="8" transform="rotate(-45 21.3037 2617.57)" fill="#D3E3FC"/>
<circle cx="49.5879" cy="2589.28" r="8" transform="rotate(-45 49.5879 2589.28)" fill="#D3E3FC"/>
<circle cx="77.8721" cy="2561" r="8" transform="rotate(-45 77.8721 2561)" fill="#D3E3FC"/>
<circle cx="106.156" cy="2532.71" r="8" transform="rotate(-45 106.156 2532.71)" fill="#D3E3FC"/>
<circle cx="134.441" cy="2504.43" r="8" transform="rotate(-45 134.441 2504.43)" fill="#D3E3FC"/>
<circle cx="162.725" cy="2476.15" r="8" transform="rotate(-45 162.725 2476.15)" fill="#D3E3FC"/>
<circle cx="191.009" cy="2447.86" r="8" transform="rotate(-45 191.009 2447.86)" fill="#D3E3FC"/>
<circle cx="219.293" cy="2419.58" r="8" transform="rotate(-45 219.293 2419.58)" fill="#D3E3FC"/>
<circle cx="-6.98073" cy="2702.42" r="8" transform="rotate(-45 -6.98073 2702.42)" fill="#D3E3FC"/>
<circle cx="21.3035" cy="2674.14" r="8" transform="rotate(-45 21.3035 2674.14)" fill="#D3E3FC"/>
<circle cx="49.5879" cy="2645.85" r="8" transform="rotate(-45 49.5879 2645.85)" fill="#D3E3FC"/>
<circle cx="77.8721" cy="2617.57" r="8" transform="rotate(-45 77.8721 2617.57)" fill="#D3E3FC"/>
<circle cx="106.156" cy="2589.28" r="8" transform="rotate(-45 106.156 2589.28)" fill="#D3E3FC"/>
<circle cx="134.441" cy="2561" r="8" transform="rotate(-45 134.441 2561)" fill="#D3E3FC"/>
<circle cx="162.725" cy="2532.71" r="8" transform="rotate(-45 162.725 2532.71)" fill="#D3E3FC"/>
<circle cx="191.009" cy="2504.43" r="8" transform="rotate(-45 191.009 2504.43)" fill="#D3E3FC"/>
<circle cx="219.293" cy="2476.15" r="8" transform="rotate(-45 219.293 2476.15)" fill="#D3E3FC"/>
<circle cx="247.578" cy="2447.86" r="8" transform="rotate(-45 247.578 2447.86)" fill="#D3E3FC"/>
<circle cx="21.3037" cy="2730.7" r="8" transform="rotate(-45 21.3037 2730.7)" fill="#D3E3FC"/>
<circle cx="49.5879" cy="2702.42" r="8" transform="rotate(-45 49.5879 2702.42)" fill="#D3E3FC"/>
<circle cx="77.8723" cy="2674.14" r="8" transform="rotate(-45 77.8723 2674.14)" fill="#D3E3FC"/>
<circle cx="106.156" cy="2645.85" r="8" transform="rotate(-45 106.156 2645.85)" fill="#D3E3FC"/>
<circle cx="134.441" cy="2617.57" r="8" transform="rotate(-45 134.441 2617.57)" fill="#D3E3FC"/>
<circle cx="162.725" cy="2589.28" r="8" transform="rotate(-45 162.725 2589.28)" fill="#D3E3FC"/>
<circle cx="191.009" cy="2561" r="8" transform="rotate(-45 191.009 2561)" fill="#D3E3FC"/>
<circle cx="219.294" cy="2532.71" r="8" transform="rotate(-45 219.294 2532.71)" fill="#D3E3FC"/>
<circle cx="247.578" cy="2504.43" r="8" transform="rotate(-45 247.578 2504.43)" fill="#D3E3FC"/>
<circle cx="275.862" cy="2476.15" r="8" transform="rotate(-45 275.862 2476.15)" fill="#D3E3FC"/>
<circle cx="49.5879" cy="2758.99" r="8" transform="rotate(-45 49.5879 2758.99)" fill="#D3E3FC"/>
<circle cx="77.8721" cy="2730.7" r="8" transform="rotate(-45 77.8721 2730.7)" fill="#D3E3FC"/>
<circle cx="106.156" cy="2702.42" r="8" transform="rotate(-45 106.156 2702.42)" fill="#D3E3FC"/>
<circle cx="134.441" cy="2674.14" r="8" transform="rotate(-45 134.441 2674.14)" fill="#D3E3FC"/>
<circle cx="162.725" cy="2645.85" r="8" transform="rotate(-45 162.725 2645.85)" fill="#D3E3FC"/>
<circle cx="191.009" cy="2617.57" r="8" transform="rotate(-45 191.009 2617.57)" fill="#D3E3FC"/>
<circle cx="219.293" cy="2589.28" r="8" transform="rotate(-45 219.293 2589.28)" fill="#D3E3FC"/>
<circle cx="247.578" cy="2561" r="8" transform="rotate(-45 247.578 2561)" fill="#D3E3FC"/>
<circle cx="275.862" cy="2532.71" r="8" transform="rotate(-45 275.862 2532.71)" fill="#D3E3FC"/>
<circle cx="304.146" cy="2504.43" r="8" transform="rotate(-45 304.146 2504.43)" fill="#D3E3FC"/>
<circle cx="77.8721" cy="2787.27" r="8" transform="rotate(-45 77.8721 2787.27)" fill="#D3E3FC"/>
<circle cx="106.156" cy="2758.99" r="8" transform="rotate(-45 106.156 2758.99)" fill="#D3E3FC"/>
<circle cx="134.441" cy="2730.7" r="8" transform="rotate(-45 134.441 2730.7)" fill="#D3E3FC"/>
<circle cx="162.725" cy="2702.42" r="8" transform="rotate(-45 162.725 2702.42)" fill="#D3E3FC"/>
<circle cx="191.009" cy="2674.14" r="8" transform="rotate(-45 191.009 2674.14)" fill="#D3E3FC"/>
<circle cx="219.293" cy="2645.85" r="8" transform="rotate(-45 219.293 2645.85)" fill="#D3E3FC"/>
<circle cx="247.578" cy="2617.57" r="8" transform="rotate(-45 247.578 2617.57)" fill="#D3E3FC"/>
<circle cx="275.862" cy="2589.28" r="8" transform="rotate(-45 275.862 2589.28)" fill="#D3E3FC"/>
<circle cx="304.146" cy="2561" r="8" transform="rotate(-45 304.146 2561)" fill="#D3E3FC"/>
<circle cx="332.43" cy="2532.71" r="8" transform="rotate(-45 332.43 2532.71)" fill="#D3E3FC"/>
<circle cx="106.156" cy="2249.87" r="8" transform="rotate(-45 106.156 2249.87)" fill="#D3E3FC"/>
<circle cx="134.441" cy="2221.59" r="8" transform="rotate(-45 134.441 2221.59)" fill="#D3E3FC"/>
<circle cx="162.725" cy="2193.3" r="8" transform="rotate(-45 162.725 2193.3)" fill="#D3E3FC"/>
<circle cx="191.009" cy="2165.02" r="8" transform="rotate(-45 191.009 2165.02)" fill="#D3E3FC"/>
<circle cx="219.293" cy="2136.74" r="8" transform="rotate(-45 219.293 2136.74)" fill="#D3E3FC"/>
<circle cx="247.578" cy="2108.45" r="8" transform="rotate(-45 247.578 2108.45)" fill="#D3E3FC"/>
<circle cx="275.862" cy="2080.17" r="8" transform="rotate(-45 275.862 2080.17)" fill="#D3E3FC"/>
<circle cx="304.146" cy="2051.88" r="8" transform="rotate(-45 304.146 2051.88)" fill="#D3E3FC"/>
<circle cx="332.431" cy="2023.6" r="8" transform="rotate(-45 332.431 2023.6)" fill="#D3E3FC"/>
<circle cx="360.715" cy="1995.31" r="8" transform="rotate(-45 360.715 1995.31)" fill="#D3E3FC"/>
<circle cx="134.441" cy="2278.16" r="8" transform="rotate(-45 134.441 2278.16)" fill="#D3E3FC"/>
<circle cx="162.725" cy="2249.87" r="8" transform="rotate(-45 162.725 2249.87)" fill="#D3E3FC"/>
<circle cx="191.009" cy="2221.59" r="8" transform="rotate(-45 191.009 2221.59)" fill="#D3E3FC"/>
<circle cx="219.293" cy="2193.3" r="8" transform="rotate(-45 219.293 2193.3)" fill="#D3E3FC"/>
<circle cx="247.578" cy="2165.02" r="8" transform="rotate(-45 247.578 2165.02)" fill="#D3E3FC"/>
<circle cx="275.862" cy="2136.73" r="8" transform="rotate(-45 275.862 2136.73)" fill="#D3E3FC"/>
<circle cx="304.146" cy="2108.45" r="8" transform="rotate(-45 304.146 2108.45)" fill="#D3E3FC"/>
<circle cx="332.431" cy="2080.17" r="8" transform="rotate(-45 332.431 2080.17)" fill="#D3E3FC"/>
<circle cx="360.715" cy="2051.88" r="8" transform="rotate(-45 360.715 2051.88)" fill="#D3E3FC"/>
<circle cx="388.999" cy="2023.6" r="8" transform="rotate(-45 388.999 2023.6)" fill="#D3E3FC"/>
<circle cx="162.725" cy="2306.44" r="8" transform="rotate(-45 162.725 2306.44)" fill="#D3E3FC"/>
<circle cx="191.009" cy="2278.16" r="8" transform="rotate(-45 191.009 2278.16)" fill="#D3E3FC"/>
<circle cx="219.294" cy="2249.87" r="8" transform="rotate(-45 219.294 2249.87)" fill="#D3E3FC"/>
<circle cx="247.578" cy="2221.59" r="8" transform="rotate(-45 247.578 2221.59)" fill="#D3E3FC"/>
<circle cx="275.862" cy="2193.3" r="8" transform="rotate(-45 275.862 2193.3)" fill="#D3E3FC"/>
<circle cx="304.146" cy="2165.02" r="8" transform="rotate(-45 304.146 2165.02)" fill="#D3E3FC"/>
<circle cx="332.431" cy="2136.74" r="8" transform="rotate(-45 332.431 2136.74)" fill="#D3E3FC"/>
<circle cx="360.715" cy="2108.45" r="8" transform="rotate(-45 360.715 2108.45)" fill="#D3E3FC"/>
<circle cx="388.999" cy="2080.17" r="8" transform="rotate(-45 388.999 2080.17)" fill="#D3E3FC"/>
<circle cx="417.283" cy="2051.88" r="8" transform="rotate(-45 417.283 2051.88)" fill="#D3E3FC"/>
<circle cx="191.009" cy="2334.72" r="8" transform="rotate(-45 191.009 2334.72)" fill="#D3E3FC"/>
<circle cx="219.293" cy="2306.44" r="8" transform="rotate(-45 219.293 2306.44)" fill="#D3E3FC"/>
<circle cx="247.578" cy="2278.16" r="8" transform="rotate(-45 247.578 2278.16)" fill="#D3E3FC"/>
<circle cx="275.862" cy="2249.87" r="8" transform="rotate(-45 275.862 2249.87)" fill="#D3E3FC"/>
<circle cx="304.146" cy="2221.59" r="8" transform="rotate(-45 304.146 2221.59)" fill="#D3E3FC"/>
<circle cx="332.431" cy="2193.3" r="8" transform="rotate(-45 332.431 2193.3)" fill="#D3E3FC"/>
<circle cx="360.715" cy="2165.02" r="8" transform="rotate(-45 360.715 2165.02)" fill="#D3E3FC"/>
<circle cx="388.999" cy="2136.73" r="8" transform="rotate(-45 388.999 2136.73)" fill="#D3E3FC"/>
<circle cx="417.283" cy="2108.45" r="8" transform="rotate(-45 417.283 2108.45)" fill="#D3E3FC"/>
<circle cx="445.568" cy="2080.17" r="8" transform="rotate(-45 445.568 2080.17)" fill="#D3E3FC"/>
<circle cx="219.293" cy="2363.01" r="8" transform="rotate(-45 219.293 2363.01)" fill="#D3E3FC"/>
<circle cx="247.578" cy="2334.72" r="8" transform="rotate(-45 247.578 2334.72)" fill="#D3E3FC"/>
<circle cx="275.862" cy="2306.44" r="8" transform="rotate(-45 275.862 2306.44)" fill="#D3E3FC"/>
<circle cx="304.146" cy="2278.16" r="8" transform="rotate(-45 304.146 2278.16)" fill="#D3E3FC"/>
<circle cx="332.43" cy="2249.87" r="8" transform="rotate(-45 332.43 2249.87)" fill="#D3E3FC"/>
<circle cx="360.715" cy="2221.59" r="8" transform="rotate(-45 360.715 2221.59)" fill="#D3E3FC"/>
<circle cx="388.999" cy="2193.3" r="8" transform="rotate(-45 388.999 2193.3)" fill="#D3E3FC"/>
<circle cx="417.283" cy="2165.02" r="8" transform="rotate(-45 417.283 2165.02)" fill="#D3E3FC"/>
<circle cx="445.568" cy="2136.73" r="8" transform="rotate(-45 445.568 2136.73)" fill="#D3E3FC"/>
<circle cx="473.852" cy="2108.45" r="8" transform="rotate(-45 473.852 2108.45)" fill="#D3E3FC"/>
<circle cx="247.578" cy="2391.29" r="8" transform="rotate(-45 247.578 2391.29)" fill="#D3E3FC"/>
<circle cx="275.862" cy="2363.01" r="8" transform="rotate(-45 275.862 2363.01)" fill="#D3E3FC"/>
<circle cx="304.146" cy="2334.72" r="8" transform="rotate(-45 304.146 2334.72)" fill="#D3E3FC"/>
<circle cx="332.431" cy="2306.44" r="8" transform="rotate(-45 332.431 2306.44)" fill="#D3E3FC"/>
<circle cx="360.715" cy="2278.16" r="8" transform="rotate(-45 360.715 2278.16)" fill="#D3E3FC"/>
<circle cx="388.999" cy="2249.87" r="8" transform="rotate(-45 388.999 2249.87)" fill="#D3E3FC"/>
<circle cx="417.283" cy="2221.59" r="8" transform="rotate(-45 417.283 2221.59)" fill="#D3E3FC"/>
<circle cx="445.568" cy="2193.3" r="8" transform="rotate(-45 445.568 2193.3)" fill="#D3E3FC"/>
<circle cx="473.852" cy="2165.02" r="8" transform="rotate(-45 473.852 2165.02)" fill="#D3E3FC"/>
<circle cx="502.136" cy="2136.74" r="8" transform="rotate(-45 502.136 2136.74)" fill="#D3E3FC"/>
<circle cx="275.862" cy="2419.58" r="8" transform="rotate(-45 275.862 2419.58)" fill="#D3E3FC"/>
<circle cx="304.146" cy="2391.29" r="8" transform="rotate(-45 304.146 2391.29)" fill="#D3E3FC"/>
<circle cx="332.431" cy="2363.01" r="8" transform="rotate(-45 332.431 2363.01)" fill="#D3E3FC"/>
<circle cx="360.715" cy="2334.72" r="8" transform="rotate(-45 360.715 2334.72)" fill="#D3E3FC"/>
<circle cx="388.999" cy="2306.44" r="8" transform="rotate(-45 388.999 2306.44)" fill="#D3E3FC"/>
<circle cx="417.283" cy="2278.16" r="8" transform="rotate(-45 417.283 2278.16)" fill="#D3E3FC"/>
<circle cx="445.568" cy="2249.87" r="8" transform="rotate(-45 445.568 2249.87)" fill="#D3E3FC"/>
<circle cx="473.852" cy="2221.59" r="8" transform="rotate(-45 473.852 2221.59)" fill="#D3E3FC"/>
<circle cx="502.136" cy="2193.3" r="8" transform="rotate(-45 502.136 2193.3)" fill="#D3E3FC"/>
<circle cx="530.42" cy="2165.02" r="8" transform="rotate(-45 530.42 2165.02)" fill="#D3E3FC"/>
<circle cx="304.146" cy="2447.86" r="8" transform="rotate(-45 304.146 2447.86)" fill="#D3E3FC"/>
<circle cx="332.431" cy="2419.58" r="8" transform="rotate(-45 332.431 2419.58)" fill="#D3E3FC"/>
<circle cx="360.715" cy="2391.29" r="8" transform="rotate(-45 360.715 2391.29)" fill="#D3E3FC"/>
<circle cx="388.999" cy="2363.01" r="8" transform="rotate(-45 388.999 2363.01)" fill="#D3E3FC"/>
<circle cx="417.283" cy="2334.73" r="8" transform="rotate(-45 417.283 2334.73)" fill="#D3E3FC"/>
<circle cx="445.568" cy="2306.44" r="8" transform="rotate(-45 445.568 2306.44)" fill="#D3E3FC"/>
<circle cx="473.852" cy="2278.16" r="8" transform="rotate(-45 473.852 2278.16)" fill="#D3E3FC"/>
<circle cx="502.136" cy="2249.87" r="8" transform="rotate(-45 502.136 2249.87)" fill="#D3E3FC"/>
<circle cx="530.421" cy="2221.59" r="8" transform="rotate(-45 530.421 2221.59)" fill="#D3E3FC"/>
<circle cx="558.705" cy="2193.3" r="8" transform="rotate(-45 558.705 2193.3)" fill="#D3E3FC"/>
<circle cx="332.431" cy="2476.15" r="8" transform="rotate(-45 332.431 2476.15)" fill="#D3E3FC"/>
<circle cx="360.715" cy="2447.86" r="8" transform="rotate(-45 360.715 2447.86)" fill="#D3E3FC"/>
<circle cx="388.999" cy="2419.58" r="8" transform="rotate(-45 388.999 2419.58)" fill="#D3E3FC"/>
<circle cx="417.283" cy="2391.29" r="8" transform="rotate(-45 417.283 2391.29)" fill="#D3E3FC"/>
<circle cx="445.568" cy="2363.01" r="8" transform="rotate(-45 445.568 2363.01)" fill="#D3E3FC"/>
<circle cx="473.852" cy="2334.72" r="8" transform="rotate(-45 473.852 2334.72)" fill="#D3E3FC"/>
<circle cx="502.136" cy="2306.44" r="8" transform="rotate(-45 502.136 2306.44)" fill="#D3E3FC"/>
<circle cx="530.421" cy="2278.16" r="8" transform="rotate(-45 530.421 2278.16)" fill="#D3E3FC"/>
<circle cx="558.705" cy="2249.87" r="8" transform="rotate(-45 558.705 2249.87)" fill="#D3E3FC"/>
<circle cx="586.989" cy="2221.59" r="8" transform="rotate(-45 586.989 2221.59)" fill="#D3E3FC"/>
<circle cx="360.715" cy="2504.43" r="8" transform="rotate(-45 360.715 2504.43)" fill="#D3E3FC"/>
<circle cx="388.999" cy="2476.15" r="8" transform="rotate(-45 388.999 2476.15)" fill="#D3E3FC"/>
<circle cx="417.283" cy="2447.86" r="8" transform="rotate(-45 417.283 2447.86)" fill="#D3E3FC"/>
<circle cx="445.568" cy="2419.58" r="8" transform="rotate(-45 445.568 2419.58)" fill="#D3E3FC"/>
<circle cx="473.852" cy="2391.29" r="8" transform="rotate(-45 473.852 2391.29)" fill="#D3E3FC"/>
<circle cx="502.136" cy="2363.01" r="8" transform="rotate(-45 502.136 2363.01)" fill="#D3E3FC"/>
<circle cx="530.42" cy="2334.72" r="8" transform="rotate(-45 530.42 2334.72)" fill="#D3E3FC"/>
<circle cx="558.705" cy="2306.44" r="8" transform="rotate(-45 558.705 2306.44)" fill="#D3E3FC"/>
<circle cx="586.989" cy="2278.16" r="8" transform="rotate(-45 586.989 2278.16)" fill="#D3E3FC"/>
<circle cx="615.273" cy="2249.87" r="8" transform="rotate(-45 615.273 2249.87)" fill="#D3E3FC"/>
</g>
<defs>
<clipPath id="clip0_139_1107">
<rect width="1440" height="6166" fill="white"/>
</clipPath>
</defs>
</svg>
