<svg width="734" height="1024" viewBox="0 0 734 1024" fill="none" xmlns="http://www.w3.org/2000/svg">
<path d="M566 169H81C58.9086 169 41 186.909 41 209V668C41 690.091 58.9086 708 81 708H326C348.091 708 366 725.909 366 748V943C366 965.091 383.909 983 406 983H566" stroke="#D3E3FC" stroke-width="2"/>
<path d="M630 105H145C122.909 105 105 122.909 105 145V604C105 626.091 122.909 644 145 644H390C412.091 644 430 661.909 430 684V879C430 901.091 447.909 919 470 919H630" stroke="#D3E3FC" stroke-width="2"/>
<path d="M694 41H209C186.909 41 169 58.9086 169 81V540C169 562.091 186.909 580 209 580H454C476.091 580 494 597.909 494 620V815C494 837.091 511.909 855 534 855H694" stroke="#D3E3FC" stroke-width="2"/>
</svg>
