<svg width="815" height="815" viewBox="0 0 815 815" fill="none" xmlns="http://www.w3.org/2000/svg">
<circle cx="11.3137" cy="548.715" r="8" transform="rotate(-45 11.3137 548.715)" fill="#D3E3FC"/>
<circle cx="39.5979" cy="520.431" r="8" transform="rotate(-45 39.5979 520.431)" fill="#D3E3FC"/>
<circle cx="67.8821" cy="492.146" r="8" transform="rotate(-45 67.8821 492.146)" fill="#D3E3FC"/>
<circle cx="96.1662" cy="463.862" r="8" transform="rotate(-45 96.1662 463.862)" fill="#D3E3FC"/>
<circle cx="124.45" cy="435.578" r="8" transform="rotate(-45 124.45 435.578)" fill="#D3E3FC"/>
<circle cx="152.735" cy="407.293" r="8" transform="rotate(-45 152.735 407.293)" fill="#D3E3FC"/>
<circle cx="181.019" cy="379.009" r="8" transform="rotate(-45 181.019 379.009)" fill="#D3E3FC"/>
<circle cx="209.303" cy="350.725" r="8" transform="rotate(-45 209.303 350.725)" fill="#D3E3FC"/>
<circle cx="237.588" cy="322.441" r="8" transform="rotate(-45 237.588 322.441)" fill="#D3E3FC"/>
<circle cx="265.872" cy="294.156" r="8" transform="rotate(-45 265.872 294.156)" fill="#D3E3FC"/>
<circle cx="39.5979" cy="576.999" r="8" transform="rotate(-45 39.5979 576.999)" fill="#D3E3FC"/>
<circle cx="67.8821" cy="548.715" r="8" transform="rotate(-45 67.8821 548.715)" fill="#D3E3FC"/>
<circle cx="96.1662" cy="520.431" r="8" transform="rotate(-45 96.1662 520.431)" fill="#D3E3FC"/>
<circle cx="124.45" cy="492.146" r="8" transform="rotate(-45 124.45 492.146)" fill="#D3E3FC"/>
<circle cx="152.735" cy="463.862" r="8" transform="rotate(-45 152.735 463.862)" fill="#D3E3FC"/>
<circle cx="181.019" cy="435.578" r="8" transform="rotate(-45 181.019 435.578)" fill="#D3E3FC"/>
<circle cx="209.303" cy="407.293" r="8" transform="rotate(-45 209.303 407.293)" fill="#D3E3FC"/>
<circle cx="237.588" cy="379.009" r="8" transform="rotate(-45 237.588 379.009)" fill="#D3E3FC"/>
<circle cx="265.872" cy="350.725" r="8" transform="rotate(-45 265.872 350.725)" fill="#D3E3FC"/>
<circle cx="294.156" cy="322.441" r="8" transform="rotate(-45 294.156 322.441)" fill="#D3E3FC"/>
<circle cx="67.8821" cy="605.283" r="8" transform="rotate(-45 67.8821 605.283)" fill="#D3E3FC"/>
<circle cx="96.1662" cy="576.999" r="8" transform="rotate(-45 96.1662 576.999)" fill="#D3E3FC"/>
<circle cx="124.45" cy="548.715" r="8" transform="rotate(-45 124.45 548.715)" fill="#D3E3FC"/>
<circle cx="152.735" cy="520.431" r="8" transform="rotate(-45 152.735 520.431)" fill="#D3E3FC"/>
<circle cx="181.019" cy="492.146" r="8" transform="rotate(-45 181.019 492.146)" fill="#D3E3FC"/>
<circle cx="209.303" cy="463.862" r="8" transform="rotate(-45 209.303 463.862)" fill="#D3E3FC"/>
<circle cx="237.588" cy="435.578" r="8" transform="rotate(-45 237.588 435.578)" fill="#D3E3FC"/>
<circle cx="265.872" cy="407.293" r="8" transform="rotate(-45 265.872 407.293)" fill="#D3E3FC"/>
<circle cx="294.156" cy="379.009" r="8" transform="rotate(-45 294.156 379.009)" fill="#D3E3FC"/>
<circle cx="322.441" cy="350.725" r="8" transform="rotate(-45 322.441 350.725)" fill="#D3E3FC"/>
<circle cx="96.1662" cy="633.568" r="8" transform="rotate(-45 96.1662 633.568)" fill="#D3E3FC"/>
<circle cx="124.45" cy="605.283" r="8" transform="rotate(-45 124.45 605.283)" fill="#D3E3FC"/>
<circle cx="152.735" cy="576.999" r="8" transform="rotate(-45 152.735 576.999)" fill="#D3E3FC"/>
<circle cx="181.019" cy="548.715" r="8" transform="rotate(-45 181.019 548.715)" fill="#D3E3FC"/>
<circle cx="209.303" cy="520.431" r="8" transform="rotate(-45 209.303 520.431)" fill="#D3E3FC"/>
<circle cx="237.588" cy="492.146" r="8" transform="rotate(-45 237.588 492.146)" fill="#D3E3FC"/>
<circle cx="265.872" cy="463.862" r="8" transform="rotate(-45 265.872 463.862)" fill="#D3E3FC"/>
<circle cx="294.156" cy="435.578" r="8" transform="rotate(-45 294.156 435.578)" fill="#D3E3FC"/>
<circle cx="322.44" cy="407.293" r="8" transform="rotate(-45 322.44 407.293)" fill="#D3E3FC"/>
<circle cx="350.725" cy="379.009" r="8" transform="rotate(-45 350.725 379.009)" fill="#D3E3FC"/>
<circle cx="124.45" cy="661.852" r="8" transform="rotate(-45 124.45 661.852)" fill="#D3E3FC"/>
<circle cx="152.735" cy="633.568" r="8" transform="rotate(-45 152.735 633.568)" fill="#D3E3FC"/>
<circle cx="181.019" cy="605.283" r="8" transform="rotate(-45 181.019 605.283)" fill="#D3E3FC"/>
<circle cx="209.303" cy="576.999" r="8" transform="rotate(-45 209.303 576.999)" fill="#D3E3FC"/>
<circle cx="237.588" cy="548.715" r="8" transform="rotate(-45 237.588 548.715)" fill="#D3E3FC"/>
<circle cx="265.872" cy="520.431" r="8" transform="rotate(-45 265.872 520.431)" fill="#D3E3FC"/>
<circle cx="294.156" cy="492.146" r="8" transform="rotate(-45 294.156 492.146)" fill="#D3E3FC"/>
<circle cx="322.44" cy="463.862" r="8" transform="rotate(-45 322.44 463.862)" fill="#D3E3FC"/>
<circle cx="350.724" cy="435.578" r="8" transform="rotate(-45 350.724 435.578)" fill="#D3E3FC"/>
<circle cx="379.009" cy="407.293" r="8" transform="rotate(-45 379.009 407.293)" fill="#D3E3FC"/>
<circle cx="152.735" cy="690.136" r="8" transform="rotate(-45 152.735 690.136)" fill="#D3E3FC"/>
<circle cx="181.019" cy="661.852" r="8" transform="rotate(-45 181.019 661.852)" fill="#D3E3FC"/>
<circle cx="209.303" cy="633.568" r="8" transform="rotate(-45 209.303 633.568)" fill="#D3E3FC"/>
<circle cx="237.588" cy="605.283" r="8" transform="rotate(-45 237.588 605.283)" fill="#D3E3FC"/>
<circle cx="265.872" cy="576.999" r="8" transform="rotate(-45 265.872 576.999)" fill="#D3E3FC"/>
<circle cx="294.156" cy="548.715" r="8" transform="rotate(-45 294.156 548.715)" fill="#D3E3FC"/>
<circle cx="322.44" cy="520.431" r="8" transform="rotate(-45 322.44 520.431)" fill="#D3E3FC"/>
<circle cx="350.724" cy="492.146" r="8" transform="rotate(-45 350.724 492.146)" fill="#D3E3FC"/>
<circle cx="379.009" cy="463.862" r="8" transform="rotate(-45 379.009 463.862)" fill="#D3E3FC"/>
<circle cx="407.293" cy="435.578" r="8" transform="rotate(-45 407.293 435.578)" fill="#D3E3FC"/>
<circle cx="181.019" cy="718.42" r="8" transform="rotate(-45 181.019 718.42)" fill="#D3E3FC"/>
<circle cx="209.303" cy="690.136" r="8" transform="rotate(-45 209.303 690.136)" fill="#D3E3FC"/>
<circle cx="237.588" cy="661.852" r="8" transform="rotate(-45 237.588 661.852)" fill="#D3E3FC"/>
<circle cx="265.872" cy="633.568" r="8" transform="rotate(-45 265.872 633.568)" fill="#D3E3FC"/>
<circle cx="294.156" cy="605.283" r="8" transform="rotate(-45 294.156 605.283)" fill="#D3E3FC"/>
<circle cx="322.441" cy="576.999" r="8" transform="rotate(-45 322.441 576.999)" fill="#D3E3FC"/>
<circle cx="350.725" cy="548.715" r="8" transform="rotate(-45 350.725 548.715)" fill="#D3E3FC"/>
<circle cx="379.009" cy="520.431" r="8" transform="rotate(-45 379.009 520.431)" fill="#D3E3FC"/>
<circle cx="407.293" cy="492.146" r="8" transform="rotate(-45 407.293 492.146)" fill="#D3E3FC"/>
<circle cx="435.578" cy="463.862" r="8" transform="rotate(-45 435.578 463.862)" fill="#D3E3FC"/>
<circle cx="209.303" cy="746.705" r="8" transform="rotate(-45 209.303 746.705)" fill="#D3E3FC"/>
<circle cx="237.588" cy="718.42" r="8" transform="rotate(-45 237.588 718.42)" fill="#D3E3FC"/>
<circle cx="265.872" cy="690.136" r="8" transform="rotate(-45 265.872 690.136)" fill="#D3E3FC"/>
<circle cx="294.156" cy="661.852" r="8" transform="rotate(-45 294.156 661.852)" fill="#D3E3FC"/>
<circle cx="322.441" cy="633.568" r="8" transform="rotate(-45 322.441 633.568)" fill="#D3E3FC"/>
<circle cx="350.725" cy="605.283" r="8" transform="rotate(-45 350.725 605.283)" fill="#D3E3FC"/>
<circle cx="379.009" cy="576.999" r="8" transform="rotate(-45 379.009 576.999)" fill="#D3E3FC"/>
<circle cx="407.293" cy="548.715" r="8" transform="rotate(-45 407.293 548.715)" fill="#D3E3FC"/>
<circle cx="435.577" cy="520.431" r="8" transform="rotate(-45 435.577 520.431)" fill="#D3E3FC"/>
<circle cx="463.862" cy="492.146" r="8" transform="rotate(-45 463.862 492.146)" fill="#D3E3FC"/>
<circle cx="237.588" cy="774.989" r="8" transform="rotate(-45 237.588 774.989)" fill="#D3E3FC"/>
<circle cx="265.872" cy="746.705" r="8" transform="rotate(-45 265.872 746.705)" fill="#D3E3FC"/>
<circle cx="294.156" cy="718.42" r="8" transform="rotate(-45 294.156 718.42)" fill="#D3E3FC"/>
<circle cx="322.441" cy="690.136" r="8" transform="rotate(-45 322.441 690.136)" fill="#D3E3FC"/>
<circle cx="350.725" cy="661.852" r="8" transform="rotate(-45 350.725 661.852)" fill="#D3E3FC"/>
<circle cx="379.009" cy="633.568" r="8" transform="rotate(-45 379.009 633.568)" fill="#D3E3FC"/>
<circle cx="407.293" cy="605.283" r="8" transform="rotate(-45 407.293 605.283)" fill="#D3E3FC"/>
<circle cx="435.577" cy="576.999" r="8" transform="rotate(-45 435.577 576.999)" fill="#D3E3FC"/>
<circle cx="463.862" cy="548.715" r="8" transform="rotate(-45 463.862 548.715)" fill="#D3E3FC"/>
<circle cx="492.146" cy="520.431" r="8" transform="rotate(-45 492.146 520.431)" fill="#D3E3FC"/>
<circle cx="265.872" cy="803.273" r="8" transform="rotate(-45 265.872 803.273)" fill="#D3E3FC"/>
<circle cx="294.156" cy="774.989" r="8" transform="rotate(-45 294.156 774.989)" fill="#D3E3FC"/>
<circle cx="322.441" cy="746.705" r="8" transform="rotate(-45 322.441 746.705)" fill="#D3E3FC"/>
<circle cx="350.725" cy="718.42" r="8" transform="rotate(-45 350.725 718.42)" fill="#D3E3FC"/>
<circle cx="379.01" cy="690.136" r="8" transform="rotate(-45 379.01 690.136)" fill="#D3E3FC"/>
<circle cx="407.294" cy="661.852" r="8" transform="rotate(-45 407.294 661.852)" fill="#D3E3FC"/>
<circle cx="435.578" cy="633.568" r="8" transform="rotate(-45 435.578 633.568)" fill="#D3E3FC"/>
<circle cx="463.862" cy="605.283" r="8" transform="rotate(-45 463.862 605.283)" fill="#D3E3FC"/>
<circle cx="492.146" cy="576.999" r="8" transform="rotate(-45 492.146 576.999)" fill="#D3E3FC"/>
<circle cx="520.431" cy="548.715" r="8" transform="rotate(-45 520.431 548.715)" fill="#D3E3FC"/>
<circle cx="294.156" cy="265.872" r="8" transform="rotate(-45 294.156 265.872)" fill="#D3E3FC"/>
<circle cx="322.441" cy="237.588" r="8" transform="rotate(-45 322.441 237.588)" fill="#D3E3FC"/>
<circle cx="350.725" cy="209.304" r="8" transform="rotate(-45 350.725 209.304)" fill="#D3E3FC"/>
<circle cx="379.01" cy="181.019" r="8" transform="rotate(-45 379.01 181.019)" fill="#D3E3FC"/>
<circle cx="407.294" cy="152.735" r="8" transform="rotate(-45 407.294 152.735)" fill="#D3E3FC"/>
<circle cx="435.578" cy="124.451" r="8" transform="rotate(-45 435.578 124.451)" fill="#D3E3FC"/>
<circle cx="463.862" cy="96.1665" r="8" transform="rotate(-45 463.862 96.1665)" fill="#D3E3FC"/>
<circle cx="492.146" cy="67.8822" r="8" transform="rotate(-45 492.146 67.8822)" fill="#D3E3FC"/>
<circle cx="520.43" cy="39.598" r="8" transform="rotate(-45 520.43 39.598)" fill="#D3E3FC"/>
<circle cx="548.715" cy="11.3137" r="8" transform="rotate(-45 548.715 11.3137)" fill="#D3E3FC"/>
<circle cx="322.441" cy="294.156" r="8" transform="rotate(-45 322.441 294.156)" fill="#D3E3FC"/>
<circle cx="350.725" cy="265.872" r="8" transform="rotate(-45 350.725 265.872)" fill="#D3E3FC"/>
<circle cx="379.009" cy="237.588" r="8" transform="rotate(-45 379.009 237.588)" fill="#D3E3FC"/>
<circle cx="407.294" cy="209.304" r="8" transform="rotate(-45 407.294 209.304)" fill="#D3E3FC"/>
<circle cx="435.578" cy="181.019" r="8" transform="rotate(-45 435.578 181.019)" fill="#D3E3FC"/>
<circle cx="463.862" cy="152.735" r="8" transform="rotate(-45 463.862 152.735)" fill="#D3E3FC"/>
<circle cx="492.146" cy="124.451" r="8" transform="rotate(-45 492.146 124.451)" fill="#D3E3FC"/>
<circle cx="520.43" cy="96.1665" r="8" transform="rotate(-45 520.43 96.1665)" fill="#D3E3FC"/>
<circle cx="548.715" cy="67.8822" r="8" transform="rotate(-45 548.715 67.8822)" fill="#D3E3FC"/>
<circle cx="576.999" cy="39.598" r="8" transform="rotate(-45 576.999 39.598)" fill="#D3E3FC"/>
<circle cx="350.725" cy="322.441" r="8" transform="rotate(-45 350.725 322.441)" fill="#D3E3FC"/>
<circle cx="379.009" cy="294.156" r="8" transform="rotate(-45 379.009 294.156)" fill="#D3E3FC"/>
<circle cx="407.293" cy="265.872" r="8" transform="rotate(-45 407.293 265.872)" fill="#D3E3FC"/>
<circle cx="435.578" cy="237.588" r="8" transform="rotate(-45 435.578 237.588)" fill="#D3E3FC"/>
<circle cx="463.862" cy="209.304" r="8" transform="rotate(-45 463.862 209.304)" fill="#D3E3FC"/>
<circle cx="492.146" cy="181.019" r="8" transform="rotate(-45 492.146 181.019)" fill="#D3E3FC"/>
<circle cx="520.43" cy="152.735" r="8" transform="rotate(-45 520.43 152.735)" fill="#D3E3FC"/>
<circle cx="548.715" cy="124.451" r="8" transform="rotate(-45 548.715 124.451)" fill="#D3E3FC"/>
<circle cx="576.999" cy="96.1665" r="8" transform="rotate(-45 576.999 96.1665)" fill="#D3E3FC"/>
<circle cx="605.283" cy="67.8822" r="8" transform="rotate(-45 605.283 67.8822)" fill="#D3E3FC"/>
<circle cx="379.01" cy="350.725" r="8" transform="rotate(-45 379.01 350.725)" fill="#D3E3FC"/>
<circle cx="407.294" cy="322.441" r="8" transform="rotate(-45 407.294 322.441)" fill="#D3E3FC"/>
<circle cx="435.578" cy="294.156" r="8" transform="rotate(-45 435.578 294.156)" fill="#D3E3FC"/>
<circle cx="463.863" cy="265.872" r="8" transform="rotate(-45 463.863 265.872)" fill="#D3E3FC"/>
<circle cx="492.147" cy="237.588" r="8" transform="rotate(-45 492.147 237.588)" fill="#D3E3FC"/>
<circle cx="520.431" cy="209.304" r="8" transform="rotate(-45 520.431 209.304)" fill="#D3E3FC"/>
<circle cx="548.715" cy="181.019" r="8" transform="rotate(-45 548.715 181.019)" fill="#D3E3FC"/>
<circle cx="576.999" cy="152.735" r="8" transform="rotate(-45 576.999 152.735)" fill="#D3E3FC"/>
<circle cx="605.283" cy="124.451" r="8" transform="rotate(-45 605.283 124.451)" fill="#D3E3FC"/>
<circle cx="633.568" cy="96.1665" r="8" transform="rotate(-45 633.568 96.1665)" fill="#D3E3FC"/>
<circle cx="407.294" cy="379.009" r="8" transform="rotate(-45 407.294 379.009)" fill="#D3E3FC"/>
<circle cx="435.578" cy="350.725" r="8" transform="rotate(-45 435.578 350.725)" fill="#D3E3FC"/>
<circle cx="463.862" cy="322.441" r="8" transform="rotate(-45 463.862 322.441)" fill="#D3E3FC"/>
<circle cx="492.147" cy="294.156" r="8" transform="rotate(-45 492.147 294.156)" fill="#D3E3FC"/>
<circle cx="520.431" cy="265.872" r="8" transform="rotate(-45 520.431 265.872)" fill="#D3E3FC"/>
<circle cx="548.715" cy="237.588" r="8" transform="rotate(-45 548.715 237.588)" fill="#D3E3FC"/>
<circle cx="576.999" cy="209.304" r="8" transform="rotate(-45 576.999 209.304)" fill="#D3E3FC"/>
<circle cx="605.283" cy="181.019" r="8" transform="rotate(-45 605.283 181.019)" fill="#D3E3FC"/>
<circle cx="633.568" cy="152.735" r="8" transform="rotate(-45 633.568 152.735)" fill="#D3E3FC"/>
<circle cx="661.852" cy="124.451" r="8" transform="rotate(-45 661.852 124.451)" fill="#D3E3FC"/>
<circle cx="435.578" cy="407.293" r="8" transform="rotate(-45 435.578 407.293)" fill="#D3E3FC"/>
<circle cx="463.862" cy="379.009" r="8" transform="rotate(-45 463.862 379.009)" fill="#D3E3FC"/>
<circle cx="492.146" cy="350.725" r="8" transform="rotate(-45 492.146 350.725)" fill="#D3E3FC"/>
<circle cx="520.431" cy="322.441" r="8" transform="rotate(-45 520.431 322.441)" fill="#D3E3FC"/>
<circle cx="548.715" cy="294.156" r="8" transform="rotate(-45 548.715 294.156)" fill="#D3E3FC"/>
<circle cx="576.999" cy="265.872" r="8" transform="rotate(-45 576.999 265.872)" fill="#D3E3FC"/>
<circle cx="605.283" cy="237.588" r="8" transform="rotate(-45 605.283 237.588)" fill="#D3E3FC"/>
<circle cx="633.568" cy="209.304" r="8" transform="rotate(-45 633.568 209.304)" fill="#D3E3FC"/>
<circle cx="661.852" cy="181.019" r="8" transform="rotate(-45 661.852 181.019)" fill="#D3E3FC"/>
<circle cx="690.136" cy="152.735" r="8" transform="rotate(-45 690.136 152.735)" fill="#D3E3FC"/>
<circle cx="463.862" cy="435.578" r="8" transform="rotate(-45 463.862 435.578)" fill="#D3E3FC"/>
<circle cx="492.146" cy="407.293" r="8" transform="rotate(-45 492.146 407.293)" fill="#D3E3FC"/>
<circle cx="520.43" cy="379.009" r="8" transform="rotate(-45 520.43 379.009)" fill="#D3E3FC"/>
<circle cx="548.715" cy="350.725" r="8" transform="rotate(-45 548.715 350.725)" fill="#D3E3FC"/>
<circle cx="576.999" cy="322.441" r="8" transform="rotate(-45 576.999 322.441)" fill="#D3E3FC"/>
<circle cx="605.283" cy="294.156" r="8" transform="rotate(-45 605.283 294.156)" fill="#D3E3FC"/>
<circle cx="633.568" cy="265.872" r="8" transform="rotate(-45 633.568 265.872)" fill="#D3E3FC"/>
<circle cx="661.852" cy="237.588" r="8" transform="rotate(-45 661.852 237.588)" fill="#D3E3FC"/>
<circle cx="690.136" cy="209.304" r="8" transform="rotate(-45 690.136 209.304)" fill="#D3E3FC"/>
<circle cx="718.421" cy="181.019" r="8" transform="rotate(-45 718.421 181.019)" fill="#D3E3FC"/>
<circle cx="492.146" cy="463.862" r="8" transform="rotate(-45 492.146 463.862)" fill="#D3E3FC"/>
<circle cx="520.43" cy="435.578" r="8" transform="rotate(-45 520.43 435.578)" fill="#D3E3FC"/>
<circle cx="548.715" cy="407.293" r="8" transform="rotate(-45 548.715 407.293)" fill="#D3E3FC"/>
<circle cx="576.999" cy="379.009" r="8" transform="rotate(-45 576.999 379.009)" fill="#D3E3FC"/>
<circle cx="605.283" cy="350.725" r="8" transform="rotate(-45 605.283 350.725)" fill="#D3E3FC"/>
<circle cx="633.568" cy="322.441" r="8" transform="rotate(-45 633.568 322.441)" fill="#D3E3FC"/>
<circle cx="661.852" cy="294.156" r="8" transform="rotate(-45 661.852 294.156)" fill="#D3E3FC"/>
<circle cx="690.136" cy="265.872" r="8" transform="rotate(-45 690.136 265.872)" fill="#D3E3FC"/>
<circle cx="718.42" cy="237.588" r="8" transform="rotate(-45 718.42 237.588)" fill="#D3E3FC"/>
<circle cx="746.705" cy="209.304" r="8" transform="rotate(-45 746.705 209.304)" fill="#D3E3FC"/>
<circle cx="520.43" cy="492.146" r="8" transform="rotate(-45 520.43 492.146)" fill="#D3E3FC"/>
<circle cx="548.715" cy="463.862" r="8" transform="rotate(-45 548.715 463.862)" fill="#D3E3FC"/>
<circle cx="576.999" cy="435.578" r="8" transform="rotate(-45 576.999 435.578)" fill="#D3E3FC"/>
<circle cx="605.283" cy="407.293" r="8" transform="rotate(-45 605.283 407.293)" fill="#D3E3FC"/>
<circle cx="633.568" cy="379.009" r="8" transform="rotate(-45 633.568 379.009)" fill="#D3E3FC"/>
<circle cx="661.852" cy="350.725" r="8" transform="rotate(-45 661.852 350.725)" fill="#D3E3FC"/>
<circle cx="690.136" cy="322.441" r="8" transform="rotate(-45 690.136 322.441)" fill="#D3E3FC"/>
<circle cx="718.42" cy="294.156" r="8" transform="rotate(-45 718.42 294.156)" fill="#D3E3FC"/>
<circle cx="746.704" cy="265.872" r="8" transform="rotate(-45 746.704 265.872)" fill="#D3E3FC"/>
<circle cx="774.989" cy="237.588" r="8" transform="rotate(-45 774.989 237.588)" fill="#D3E3FC"/>
<circle cx="548.715" cy="520.431" r="8" transform="rotate(-45 548.715 520.431)" fill="#D3E3FC"/>
<circle cx="576.999" cy="492.146" r="8" transform="rotate(-45 576.999 492.146)" fill="#D3E3FC"/>
<circle cx="605.283" cy="463.862" r="8" transform="rotate(-45 605.283 463.862)" fill="#D3E3FC"/>
<circle cx="633.568" cy="435.578" r="8" transform="rotate(-45 633.568 435.578)" fill="#D3E3FC"/>
<circle cx="661.852" cy="407.293" r="8" transform="rotate(-45 661.852 407.293)" fill="#D3E3FC"/>
<circle cx="690.136" cy="379.009" r="8" transform="rotate(-45 690.136 379.009)" fill="#D3E3FC"/>
<circle cx="718.421" cy="350.725" r="8" transform="rotate(-45 718.421 350.725)" fill="#D3E3FC"/>
<circle cx="746.705" cy="322.441" r="8" transform="rotate(-45 746.705 322.441)" fill="#D3E3FC"/>
<circle cx="774.989" cy="294.156" r="8" transform="rotate(-45 774.989 294.156)" fill="#D3E3FC"/>
<circle cx="803.274" cy="265.872" r="8" transform="rotate(-45 803.274 265.872)" fill="#D3E3FC"/>
</svg>
