<svg width="46" height="46" viewBox="0 0 46 46" fill="none" xmlns="http://www.w3.org/2000/svg">
<g clip-path="url(#clip0_1_5768)">
<path d="M1.97999 23C1.97999 13.0258 10.1177 4.91165 20.1201 4.91165H37.3043C33.3822 1.83816 28.4405 0 23.0661 0H23.058C10.3255 0.0046 0.00461322 10.296 0 22.992C0 22.9945 0 22.9972 0 23C0 35.2691 9.63494 45.2921 21.7714 45.9618C22.2002 45.9848 22.6315 46 23.0661 46C28.4405 46 33.3819 44.1618 37.3036 41.0886H20.1194C10.1177 41.0886 1.97999 32.9742 1.97999 23Z" fill="#6F3EFC"/>
<path d="M9.81938 22.9984C9.81938 17.3347 14.4402 12.7273 20.12 12.7273H43.7037C42.814 10.9545 41.6985 9.30366 40.3849 7.81567H23.0662C14.6702 7.81544 7.83984 14.6264 7.83984 22.9984C7.83984 31.3704 14.6702 38.1814 23.0662 38.1814H40.3849C41.6985 36.6934 42.8139 35.0425 43.7037 33.2698H20.12C14.4395 33.27 9.81938 28.6624 9.81938 22.9984Z" fill="#6F3EFC"/>
<path d="M17.6617 22.9998C17.6624 22.3491 17.9219 21.7253 18.3833 21.2652C18.8447 20.8051 19.4703 20.5464 20.1229 20.5457H46C45.8209 18.8737 45.4574 17.2265 44.9159 15.634H23.0661C18.9929 15.634 15.6792 18.9382 15.6792 22.9998C15.6792 27.0614 18.9929 30.3655 23.0661 30.3655H44.9166C45.4581 28.7731 45.8217 27.1259 46.0007 25.4539H20.1229C19.4703 25.4532 18.8447 25.1944 18.3833 24.7344C17.9219 24.2743 17.6624 23.6504 17.6617 22.9998Z" fill="#6F3EFC"/>
</g>
<defs>
<clipPath id="clip0_1_5768">
<rect width="46" height="46" fill="white"/>
</clipPath>
</defs>
</svg>
