<svg width="23" height="20" viewBox="0 0 23 20" fill="none" xmlns="http://www.w3.org/2000/svg">
<path d="M21.5 7H1.5M13.5 15.5L16 13L13.5 10.5M9.5 10.5L7 13L9.5 15.5M1.5 5.8L1.5 14.2C1.5 15.8802 1.5 16.7202 1.82698 17.362C2.1146 17.9265 2.57354 18.3854 3.13803 18.673C3.77976 19 4.61984 19 6.3 19H16.7C18.3802 19 19.2202 19 19.862 18.673C20.4265 18.3854 20.8854 17.9265 21.173 17.362C21.5 16.7202 21.5 15.8802 21.5 14.2V5.8C21.5 4.11984 21.5 3.27977 21.173 2.63803C20.8854 2.07354 20.4265 1.6146 19.862 1.32698C19.2202 1 18.3802 1 16.7 1L6.3 1C4.61984 1 3.77976 1 3.13803 1.32698C2.57354 1.6146 2.1146 2.07354 1.82698 2.63803C1.5 3.27976 1.5 4.11984 1.5 5.8Z" stroke="#2375EF" stroke-width="2" stroke-linecap="round" stroke-linejoin="round"/>
</svg>
