<svg width="235" height="72" viewBox="0 0 235 72" fill="none" xmlns="http://www.w3.org/2000/svg">
<g clip-path="url(#clip0_186_2007)">
<path d="M2.944 58V50.576H8.832V20.624H2.944V13.2H21.376C27.392 13.2 31.9573 14.736 35.072 17.808C38.2293 20.8373 39.808 25.36 39.808 31.376V39.824C39.808 45.84 38.2293 50.384 35.072 53.456C31.9573 56.4853 27.392 58 21.376 58H2.944ZM17.28 50.32H21.504C24.9173 50.32 27.4133 49.424 28.992 47.632C30.5707 45.84 31.36 43.3227 31.36 40.08V31.12C31.36 27.8347 30.5707 25.3173 28.992 23.568C27.4133 21.776 24.9173 20.88 21.504 20.88H17.28V50.32ZM47.105 58V26.256H55.169V58H47.105ZM51.137 22.544C49.6863 22.544 48.449 22.0747 47.425 21.136C46.4437 20.1973 45.953 18.96 45.953 17.424C45.953 15.888 46.4437 14.6507 47.425 13.712C48.449 12.7733 49.6863 12.304 51.137 12.304C52.6303 12.304 53.8677 12.7733 54.849 13.712C55.8303 14.6507 56.321 15.888 56.321 17.424C56.321 18.96 55.8303 20.1973 54.849 21.136C53.8677 22.0747 52.6303 22.544 51.137 22.544ZM77.289 58.896C73.1503 58.896 69.7583 58 67.113 56.208C64.4677 54.416 62.8677 51.856 62.313 48.528L69.737 46.608C70.0357 48.1013 70.5263 49.2747 71.209 50.128C71.9343 50.9813 72.809 51.6 73.833 51.984C74.8997 52.3253 76.0517 52.496 77.289 52.496C79.1663 52.496 80.553 52.176 81.449 51.536C82.345 50.8533 82.793 50.0213 82.793 49.04C82.793 48.0587 82.3663 47.312 81.513 46.8C80.6597 46.2453 79.2943 45.7973 77.417 45.456L75.625 45.136C73.4063 44.7093 71.3797 44.1333 69.545 43.408C67.7103 42.64 66.2383 41.5947 65.129 40.272C64.0197 38.9493 63.465 37.2427 63.465 35.152C63.465 31.9947 64.617 29.584 66.921 27.92C69.225 26.2133 72.2543 25.36 76.009 25.36C79.5503 25.36 82.4943 26.1493 84.841 27.728C87.1877 29.3067 88.7237 31.376 89.449 33.936L81.961 36.24C81.6197 34.6187 80.9157 33.4667 79.849 32.784C78.825 32.1013 77.545 31.76 76.009 31.76C74.473 31.76 73.2997 32.0373 72.489 32.592C71.6783 33.104 71.273 33.8293 71.273 34.768C71.273 35.792 71.6997 36.56 72.553 37.072C73.4063 37.5413 74.5583 37.904 76.009 38.16L77.801 38.48C80.1903 38.9067 82.345 39.4827 84.265 40.208C86.2277 40.8907 87.7637 41.8933 88.873 43.216C90.025 44.496 90.601 46.2453 90.601 48.464C90.601 51.792 89.385 54.3733 86.953 56.208C84.5637 58 81.3423 58.896 77.289 58.896ZM112.58 58.896C109.508 58.896 106.713 58.256 104.196 56.976C101.721 55.696 99.7582 53.84 98.3075 51.408C96.8568 48.976 96.1315 46.032 96.1315 42.576V41.68C96.1315 38.224 96.8568 35.28 98.3075 32.848C99.7582 30.416 101.721 28.56 104.196 27.28C106.713 26 109.508 25.36 112.58 25.36C115.609 25.36 118.212 25.8933 120.388 26.96C122.564 28.0267 124.313 29.4987 125.636 31.376C127.001 33.2107 127.897 35.3013 128.324 37.648L120.516 39.312C120.345 38.032 119.961 36.88 119.364 35.856C118.766 34.832 117.913 34.0213 116.804 33.424C115.737 32.8267 114.393 32.528 112.772 32.528C111.15 32.528 109.678 32.8907 108.356 33.616C107.076 34.2987 106.052 35.344 105.284 36.752C104.558 38.1173 104.196 39.8027 104.196 41.808V42.448C104.196 44.4533 104.558 46.16 105.284 47.568C106.052 48.9333 107.076 49.9787 108.356 50.704C109.678 51.3867 111.15 51.728 112.772 51.728C115.204 51.728 117.038 51.1093 118.276 49.872C119.556 48.592 120.366 46.928 120.708 44.88L128.516 46.736C127.961 48.9973 127.001 51.0667 125.636 52.944C124.313 54.7787 122.564 56.2293 120.388 57.296C118.212 58.3627 115.609 58.896 112.58 58.896ZM150.272 58.896C147.114 58.896 144.277 58.256 141.76 56.976C139.242 55.696 137.258 53.84 135.808 51.408C134.357 48.976 133.632 46.0533 133.632 42.64V41.616C133.632 38.2027 134.357 35.28 135.808 32.848C137.258 30.416 139.242 28.56 141.76 27.28C144.277 26 147.114 25.36 150.272 25.36C153.429 25.36 156.266 26 158.784 27.28C161.301 28.56 163.285 30.416 164.736 32.848C166.186 35.28 166.912 38.2027 166.912 41.616V42.64C166.912 46.0533 166.186 48.976 164.736 51.408C163.285 53.84 161.301 55.696 158.784 56.976C156.266 58.256 153.429 58.896 150.272 58.896ZM150.272 51.728C152.746 51.728 154.794 50.9387 156.416 49.36C158.037 47.7387 158.848 45.4347 158.848 42.448V41.808C158.848 38.8213 158.037 36.5387 156.416 34.96C154.837 33.3387 152.789 32.528 150.272 32.528C147.797 32.528 145.749 33.3387 144.128 34.96C142.506 36.5387 141.696 38.8213 141.696 41.808V42.448C141.696 45.4347 142.506 47.7387 144.128 49.36C145.749 50.9387 147.797 51.728 150.272 51.728ZM174.355 58V26.256H182.291V29.84H183.443C183.912 28.56 184.68 27.6213 185.747 27.024C186.856 26.4267 188.136 26.128 189.587 26.128H193.427V33.296H189.459C187.411 33.296 185.726 33.8507 184.403 34.96C183.08 36.0267 182.419 37.6907 182.419 39.952V58H174.355ZM211.405 58.896C208.888 58.896 206.52 58.2773 204.301 57.04C202.125 55.76 200.376 53.904 199.053 51.472C197.73 49.04 197.069 46.096 197.069 42.64V41.616C197.069 38.16 197.73 35.216 199.053 32.784C200.376 30.352 202.125 28.5173 204.301 27.28C206.477 26 208.845 25.36 211.405 25.36C213.325 25.36 214.925 25.5947 216.205 26.064C217.528 26.4907 218.594 27.0453 219.405 27.728C220.216 28.4107 220.834 29.136 221.261 29.904H222.413V13.2H230.477V58H222.541V54.16H221.389C220.664 55.3547 219.533 56.4427 217.997 57.424C216.504 58.4053 214.306 58.896 211.405 58.896ZM213.837 51.856C216.312 51.856 218.381 51.0667 220.045 49.488C221.709 47.8667 222.541 45.52 222.541 42.448V41.808C222.541 38.736 221.709 36.4107 220.045 34.832C218.424 33.2107 216.354 32.4 213.837 32.4C211.362 32.4 209.293 33.2107 207.629 34.832C205.965 36.4107 205.133 38.736 205.133 41.808V42.448C205.133 45.52 205.965 47.8667 207.629 49.488C209.293 51.0667 211.362 51.856 213.837 51.856Z" fill="#5865F2"/>
</g>
<defs>
<clipPath id="clip0_186_2007">
<rect width="235" height="72" fill="white"/>
</clipPath>
</defs>
</svg>
