<svg width="24" height="20" viewBox="0 0 24 20" fill="none" xmlns="http://www.w3.org/2000/svg">
<path d="M20.3303 2.26085C18.7535 1.52265 17.0888 0.998953 15.3789 0.703125C15.1449 1.13085 14.9332 1.57092 14.7446 2.02149C12.9232 1.74084 11.071 1.74084 9.24961 2.02149C9.06095 1.57096 8.84924 1.1309 8.61535 0.703125C6.90433 1.00145 5.2386 1.52639 3.66019 2.26471C0.526644 7.00543 -0.322811 11.6284 0.101917 16.1858C1.937 17.5722 3.99098 18.6266 6.17458 19.3031C6.66626 18.6269 7.10134 17.9095 7.47519 17.1586C6.76511 16.8874 6.07975 16.5528 5.42706 16.1587C5.59884 16.0313 5.76684 15.9001 5.92918 15.7727C7.82837 16.686 9.90124 17.1595 12 17.1595C14.0987 17.1595 16.1715 16.686 18.0707 15.7727C18.235 15.9097 18.403 16.041 18.5729 16.1587C17.9189 16.5535 17.2323 16.8887 16.5209 17.1605C16.8943 17.9111 17.3294 18.6279 17.8216 19.3031C20.007 18.6293 22.0626 17.5754 23.898 16.1877V16.1877C24.3963 10.9026 23.0467 6.32212 20.3303 2.26085ZM8.01318 13.383C6.82961 13.383 5.85179 12.2847 5.85179 10.9335C5.85179 9.58233 6.79563 8.47436 8.0094 8.47436C9.22318 8.47436 10.1934 9.58233 10.1727 10.9335C10.1519 12.2847 9.21941 13.383 8.01318 13.383ZM15.9867 13.383C14.8013 13.383 13.8272 12.2847 13.8272 10.9335C13.8272 9.58233 14.7711 8.47436 15.9867 8.47436C17.2024 8.47436 18.1651 9.58233 18.1444 10.9335C18.1236 12.2847 17.193 13.383 15.9867 13.383Z" fill="#7D8795"/>
</svg>
