<svg width="25" height="20" viewBox="0 0 25 20" fill="none" xmlns="http://www.w3.org/2000/svg">
<path d="M20.8303 2.25767C19.2535 1.51948 17.5888 0.995779 15.8789 0.699951C15.6449 1.12767 15.4332 1.56774 15.2446 2.01832C13.4232 1.73766 11.571 1.73766 9.74961 2.01832C9.56095 1.56779 9.34924 1.12773 9.11535 0.699951C7.40433 0.998277 5.7386 1.52322 4.16019 2.26153C1.02664 7.00225 0.177189 11.6252 0.601917 16.1826C2.437 17.569 4.49098 18.6234 6.67458 19.3C7.16626 18.6237 7.60134 17.9064 7.97519 17.1554C7.26511 16.8842 6.57975 16.5497 5.92706 16.1556C6.09884 16.0282 6.26684 15.8969 6.42918 15.7695C8.32837 16.6828 10.4012 17.1563 12.5 17.1563C14.5987 17.1563 16.6715 16.6828 18.5707 15.7695C18.735 15.9066 18.903 16.0378 19.0729 16.1556C18.4189 16.5503 17.7323 16.8855 17.0209 17.1574C17.3943 17.9079 17.8294 18.6247 18.3216 19.3C20.507 18.6261 22.5626 17.5722 24.398 16.1845C24.8963 10.8995 23.5467 6.31894 20.8303 2.25767ZM8.51318 13.3798C7.32961 13.3798 6.35179 12.2815 6.35179 10.9303C6.35179 9.57915 7.29563 8.47118 8.5094 8.47118C9.72318 8.47118 10.6934 9.57915 10.6727 10.9303C10.6519 12.2815 9.71941 13.3798 8.51318 13.3798ZM16.4867 13.3798C15.3013 13.3798 14.3272 12.2815 14.3272 10.9303C14.3272 9.57915 15.2711 8.47118 16.4867 8.47118C17.7024 8.47118 18.6651 9.57915 18.6444 10.9303C18.6236 12.2815 17.693 13.3798 16.4867 13.3798Z" fill="#5865F2"/>
</svg>
