<svg width="262" height="72" viewBox="0 0 262 72" fill="none" xmlns="http://www.w3.org/2000/svg">
<g clip-path="url(#clip0_186_2045)">
<path d="M2.944 58V50.576H8.832V20.624H2.944V13.2H21.376C27.392 13.2 31.9573 14.736 35.072 17.808C38.2293 20.8373 39.808 25.36 39.808 31.376V39.824C39.808 45.84 38.2293 50.384 35.072 53.456C31.9573 56.4853 27.392 58 21.376 58H2.944ZM17.28 50.32H21.504C24.9173 50.32 27.4133 49.424 28.992 47.632C30.5707 45.84 31.36 43.3227 31.36 40.08V31.12C31.36 27.8347 30.5707 25.3173 28.992 23.568C27.4133 21.776 24.9173 20.88 21.504 20.88H17.28V50.32ZM47.105 58V26.256H55.041V29.84H56.193C56.6623 28.56 57.4303 27.6213 58.497 27.024C59.6063 26.4267 60.8863 26.128 62.337 26.128H66.177V33.296H62.209C60.161 33.296 58.4757 33.8507 57.153 34.96C55.8303 36.0267 55.169 37.6907 55.169 39.952V58H47.105ZM72.48 58V26.256H80.544V58H72.48ZM76.512 22.544C75.0613 22.544 73.824 22.0747 72.8 21.136C71.8187 20.1973 71.328 18.96 71.328 17.424C71.328 15.888 71.8187 14.6507 72.8 13.712C73.824 12.7733 75.0613 12.304 76.512 12.304C78.0053 12.304 79.2427 12.7733 80.224 13.712C81.2053 14.6507 81.696 15.888 81.696 17.424C81.696 18.96 81.2053 20.1973 80.224 21.136C79.2427 22.0747 78.0053 22.544 76.512 22.544ZM108.552 58.896C105.693 58.896 103.496 58.4053 101.96 57.424C100.424 56.4427 99.2933 55.3547 98.568 54.16H97.416V58H89.48V13.2H97.544V29.904H98.696C99.1653 29.136 99.784 28.4107 100.552 27.728C101.363 27.0453 102.408 26.4907 103.688 26.064C105.011 25.5947 106.632 25.36 108.552 25.36C111.112 25.36 113.48 26 115.656 27.28C117.832 28.5173 119.581 30.352 120.904 32.784C122.227 35.216 122.888 38.16 122.888 41.616V42.64C122.888 46.096 122.227 49.04 120.904 51.472C119.581 53.904 117.832 55.76 115.656 57.04C113.48 58.2773 111.112 58.896 108.552 58.896ZM106.12 51.856C108.595 51.856 110.664 51.0667 112.328 49.488C113.992 47.8667 114.824 45.52 114.824 42.448V41.808C114.824 38.736 113.992 36.4107 112.328 34.832C110.707 33.2107 108.637 32.4 106.12 32.4C103.645 32.4 101.576 33.2107 99.912 34.832C98.248 36.4107 97.416 38.736 97.416 41.808V42.448C97.416 45.52 98.248 47.8667 99.912 49.488C101.576 51.0667 103.645 51.856 106.12 51.856ZM149.365 58.896C146.506 58.896 144.309 58.4053 142.773 57.424C141.237 56.4427 140.106 55.3547 139.381 54.16H138.229V58H130.293V13.2H138.357V29.904H139.509C139.978 29.136 140.597 28.4107 141.365 27.728C142.175 27.0453 143.221 26.4907 144.501 26.064C145.823 25.5947 147.445 25.36 149.365 25.36C151.925 25.36 154.293 26 156.469 27.28C158.645 28.5173 160.394 30.352 161.717 32.784C163.039 35.216 163.701 38.16 163.701 41.616V42.64C163.701 46.096 163.039 49.04 161.717 51.472C160.394 53.904 158.645 55.76 156.469 57.04C154.293 58.2773 151.925 58.896 149.365 58.896ZM146.933 51.856C149.407 51.856 151.477 51.0667 153.141 49.488C154.805 47.8667 155.637 45.52 155.637 42.448V41.808C155.637 38.736 154.805 36.4107 153.141 34.832C151.519 33.2107 149.45 32.4 146.933 32.4C144.458 32.4 142.389 33.2107 140.725 34.832C139.061 36.4107 138.229 38.736 138.229 41.808V42.448C138.229 45.52 139.061 47.8667 140.725 49.488C142.389 51.0667 144.458 51.856 146.933 51.856ZM190.177 58.896C187.318 58.896 185.121 58.4053 183.585 57.424C182.049 56.4427 180.918 55.3547 180.193 54.16H179.041V58H171.105V13.2H179.169V29.904H180.321C180.79 29.136 181.409 28.4107 182.177 27.728C182.988 27.0453 184.033 26.4907 185.313 26.064C186.636 25.5947 188.257 25.36 190.177 25.36C192.737 25.36 195.105 26 197.281 27.28C199.457 28.5173 201.206 30.352 202.529 32.784C203.852 35.216 204.513 38.16 204.513 41.616V42.64C204.513 46.096 203.852 49.04 202.529 51.472C201.206 53.904 199.457 55.76 197.281 57.04C195.105 58.2773 192.737 58.896 190.177 58.896ZM187.745 51.856C190.22 51.856 192.289 51.0667 193.953 49.488C195.617 47.8667 196.449 45.52 196.449 42.448V41.808C196.449 38.736 195.617 36.4107 193.953 34.832C192.332 33.2107 190.262 32.4 187.745 32.4C185.27 32.4 183.201 33.2107 181.537 34.832C179.873 36.4107 179.041 38.736 179.041 41.808V42.448C179.041 45.52 179.873 47.8667 181.537 49.488C183.201 51.0667 185.27 51.856 187.745 51.856ZM211.918 58V13.2H219.982V58H211.918ZM243.382 58.896C240.224 58.896 237.43 58.2347 234.998 56.912C232.608 55.5467 230.731 53.648 229.366 51.216C228.043 48.7413 227.382 45.84 227.382 42.512V41.744C227.382 38.416 228.043 35.536 229.366 33.104C230.688 30.6293 232.544 28.7307 234.934 27.408C237.323 26.0427 240.096 25.36 243.253 25.36C246.368 25.36 249.078 26.064 251.382 27.472C253.686 28.8373 255.478 30.7573 256.757 33.232C258.038 35.664 258.678 38.5013 258.678 41.744V44.496H235.574C235.659 46.672 236.47 48.4427 238.006 49.808C239.542 51.1733 241.419 51.856 243.638 51.856C245.899 51.856 247.563 51.3653 248.63 50.384C249.696 49.4027 250.507 48.3147 251.062 47.12L257.654 50.576C257.056 51.6853 256.182 52.9013 255.03 54.224C253.92 55.504 252.427 56.6133 250.55 57.552C248.672 58.448 246.283 58.896 243.382 58.896ZM235.638 38.48H250.486C250.315 36.6453 249.568 35.1733 248.246 34.064C246.966 32.9547 245.28 32.4 243.19 32.4C241.014 32.4 239.286 32.9547 238.006 34.064C236.726 35.1733 235.936 36.6453 235.638 38.48Z" fill="#E84C88"/>
</g>
<defs>
<clipPath id="clip0_186_2045">
<rect width="262" height="72" fill="white"/>
</clipPath>
</defs>
</svg>
