<svg width="184" height="72" viewBox="0 0 184 72" fill="none" xmlns="http://www.w3.org/2000/svg">
<g clip-path="url(#clip0_186_2026)">
<path d="M4.224 58V13.2H32.384V20.88H12.672V31.696H30.848V39.376H12.672V58H4.224Z" fill="#F24E1E"/>
<path d="M38.6675 58V26.256H46.7315V58H38.6675ZM42.6995 22.544C41.2488 22.544 40.0115 22.0747 38.9875 21.136C38.0062 20.1973 37.5155 18.96 37.5155 17.424C37.5155 15.888 38.0062 14.6507 38.9875 13.712C40.0115 12.7733 41.2488 12.304 42.6995 12.304C44.1928 12.304 45.4302 12.7733 46.4115 13.712C47.3928 14.6507 47.8835 15.888 47.8835 17.424C47.8835 18.96 47.3928 20.1973 46.4115 21.136C45.4302 22.0747 44.1928 22.544 42.6995 22.544Z" fill="#FF7262"/>
<path d="M54.1315 42.256V41.232C54.1315 37.904 54.7928 35.0667 56.1155 32.72C57.4382 30.3307 59.1875 28.5173 61.3635 27.28C63.5822 26 65.9928 25.36 68.5955 25.36C71.4968 25.36 73.6942 25.872 75.1875 26.896C76.6808 27.92 77.7688 28.9867 78.4515 30.096H79.6035V26.256H87.5395V63.632C87.5395 65.808 86.8995 67.536 85.6195 68.816C84.3395 70.1387 82.6328 70.8 80.4995 70.8H59.2515V63.76H77.6835C78.8782 63.76 79.4755 63.12 79.4755 61.84V53.584H78.3235C77.8968 54.2667 77.2995 54.9707 76.5315 55.696C75.7635 56.3787 74.7395 56.9547 73.4595 57.424C72.1795 57.8933 70.5582 58.128 68.5955 58.128C65.9928 58.128 63.5822 57.5093 61.3635 56.272C59.1875 54.992 57.4382 53.1787 56.1155 50.832C54.7928 48.4427 54.1315 45.584 54.1315 42.256ZM70.8995 51.088C73.3742 51.088 75.4435 50.2987 77.1075 48.72C78.7715 47.1413 79.6035 44.9227 79.6035 42.064V41.424C79.6035 38.5227 78.7715 36.304 77.1075 34.768C75.4862 33.1893 73.4168 32.4 70.8995 32.4C68.4248 32.4 66.3555 33.1893 64.6915 34.768C63.0275 36.304 62.1955 38.5227 62.1955 41.424V42.064C62.1955 44.9227 63.0275 47.1413 64.6915 48.72C66.3555 50.2987 68.4248 51.088 70.8995 51.088Z" fill="#A259FF"/>
<path d="M96.48 58V26.256H104.416V29.712H105.568C106.123 28.6453 107.04 27.728 108.32 26.96C109.6 26.1493 111.285 25.744 113.376 25.744C115.637 25.744 117.451 26.192 118.816 27.088C120.181 27.9413 121.227 29.072 121.952 30.48H123.104C123.829 29.1147 124.853 27.984 126.176 27.088C127.499 26.192 129.376 25.744 131.808 25.744C133.771 25.744 135.541 26.1707 137.12 27.024C138.741 27.8347 140.021 29.0933 140.96 30.8C141.941 32.464 142.432 34.576 142.432 37.136V58H134.368V37.712C134.368 35.9627 133.92 34.6613 133.024 33.808C132.128 32.912 130.869 32.464 129.248 32.464C127.413 32.464 125.984 33.0613 124.96 34.256C123.979 35.408 123.488 37.072 123.488 39.248V58H115.424V37.712C115.424 35.9627 114.976 34.6613 114.08 33.808C113.184 32.912 111.925 32.464 110.304 32.464C108.469 32.464 107.04 33.0613 106.016 34.256C105.035 35.408 104.544 37.072 104.544 39.248V58H96.48Z" fill="#1ABCFE"/>
<path d="M160.961 58.896C158.7 58.896 156.673 58.512 154.881 57.744C153.089 56.9333 151.66 55.7813 150.593 54.288C149.569 52.752 149.057 50.896 149.057 48.72C149.057 46.544 149.569 44.7307 150.593 43.28C151.66 41.7867 153.11 40.6773 154.945 39.952C156.822 39.184 158.956 38.8 161.345 38.8H170.049V37.008C170.049 35.5147 169.58 34.2987 168.641 33.36C167.702 32.3787 166.209 31.888 164.161 31.888C162.156 31.888 160.662 32.3573 159.681 33.296C158.7 34.192 158.06 35.3653 157.761 36.816L150.337 34.32C150.849 32.6987 151.66 31.2267 152.769 29.904C153.921 28.5387 155.436 27.4507 157.313 26.64C159.233 25.7867 161.558 25.36 164.289 25.36C168.47 25.36 171.777 26.4053 174.209 28.496C176.641 30.5867 177.857 33.616 177.857 37.584V49.424C177.857 50.704 178.454 51.344 179.649 51.344H182.209V58H176.833C175.254 58 173.953 57.616 172.929 56.848C171.905 56.08 171.393 55.056 171.393 53.776V53.712H170.177C170.006 54.224 169.622 54.9067 169.025 55.76C168.428 56.5707 167.489 57.296 166.209 57.936C164.929 58.576 163.18 58.896 160.961 58.896ZM162.369 52.368C164.63 52.368 166.465 51.7493 167.873 50.512C169.324 49.232 170.049 47.5467 170.049 45.456V44.816H161.921C160.428 44.816 159.254 45.136 158.401 45.776C157.548 46.416 157.121 47.312 157.121 48.464C157.121 49.616 157.569 50.5547 158.465 51.28C159.361 52.0053 160.662 52.368 162.369 52.368Z" fill="#0ACF83"/>
</g>
<defs>
<clipPath id="clip0_186_2026">
<rect width="184" height="72" fill="white"/>
</clipPath>
</defs>
</svg>
