<svg width="169" height="114" viewBox="0 0 169 114" fill="none" xmlns="http://www.w3.org/2000/svg">
<path d="M167.931 16.6022V107.572C167.931 109.016 167.358 110.4 166.338 111.421C165.318 112.441 163.935 113.015 162.493 113.015H6.29278C4.85059 113.015 3.46746 112.441 2.44767 111.421C1.42789 110.4 0.85498 109.016 0.85498 107.572V8.55786C0.85498 6.51514 1.6657 4.55609 3.10879 3.11168C4.55189 1.66726 6.50914 0.855797 8.54998 0.855797H69.6141C71.5157 0.866088 73.345 1.58629 74.7441 2.87545L83.7387 11.1252H162.484C163.202 11.1241 163.913 11.2651 164.576 11.5403C165.239 11.8155 165.841 12.2193 166.347 12.7284C166.853 13.2376 167.254 13.842 167.526 14.5069C167.797 15.1717 167.935 15.8839 167.931 16.6022Z" fill="#F7F7F7"/>
<path d="M162.493 113.871H6.2928C4.62454 113.868 3.02525 113.204 1.84562 112.023C0.665977 110.843 0.00226205 109.242 0 107.572V8.55785C0 6.28817 0.900801 4.11145 2.50424 2.50654C4.10767 0.901635 6.2824 7.42934e-06 8.55 7.42934e-06H69.6141C71.7455 -0.00281329 73.7998 0.79767 75.3682 2.24216L84.1149 10.2694H162.527C164.195 10.2717 165.794 10.936 166.974 12.1167C168.154 13.2975 168.817 14.8982 168.82 16.568V107.538C168.823 108.37 168.662 109.195 168.345 109.965C168.028 110.735 167.562 111.435 166.974 112.023C166.386 112.612 165.687 113.078 164.918 113.396C164.149 113.713 163.325 113.874 162.493 113.871ZM8.5158 1.74581C6.70172 1.74581 4.96194 2.46711 3.67919 3.75104C2.39644 5.03496 1.6758 6.77634 1.6758 8.59208V107.606C1.6758 108.209 1.79434 108.805 2.02465 109.362C2.25496 109.918 2.59252 110.424 3.01807 110.85C3.44362 111.276 3.94883 111.614 4.50484 111.844C5.06085 112.075 5.65678 112.193 6.2586 112.193H162.493C163.095 112.193 163.691 112.075 164.247 111.844C164.803 111.614 165.308 111.276 165.733 110.85C166.159 110.424 166.496 109.918 166.727 109.362C166.957 108.805 167.076 108.209 167.076 107.606V16.6022C167.076 15.9999 166.957 15.4034 166.727 14.8469C166.496 14.2903 166.159 13.7847 165.733 13.3587C165.308 12.9328 164.803 12.5949 164.247 12.3644C163.691 12.1339 163.095 12.0152 162.493 12.0152H83.7473C83.5324 12.0168 83.3248 11.9374 83.1658 11.7927L74.1712 3.54295C72.924 2.38263 71.2827 1.74021 69.5799 1.74581H8.5158Z" fill="#093F68"/>
<path d="M54.4974 88.8989H22.0074C21.5538 88.8989 21.1189 88.7186 20.7982 88.3976C20.4775 88.0766 20.2974 87.6413 20.2974 87.1873V57.2092L28.2403 48.6514H54.4888C54.9423 48.6514 55.3773 48.8317 55.698 49.1527C56.0187 49.4736 56.1988 49.909 56.1988 50.3629V87.2472C56.1833 87.6892 55.9976 88.1081 55.6804 88.416C55.3632 88.7239 54.9392 88.8969 54.4974 88.8989Z" fill="#2375EF"/>
<path d="M54.4974 89.7547H22.0074C21.3271 89.7547 20.6747 89.4842 20.1937 89.0027C19.7126 88.5212 19.4424 87.8682 19.4424 87.1873V57.2092C19.4431 56.993 19.5256 56.7851 19.6732 56.6273L27.6162 48.0694C27.6959 47.9834 27.7924 47.9147 27.8998 47.8676C28.0072 47.8204 28.1231 47.7959 28.2403 47.7956H54.4888C55.1691 47.7956 55.8215 48.0661 56.3026 48.5475C56.7836 49.029 57.0538 49.682 57.0538 50.3629V87.2472C57.0382 87.9162 56.7623 88.5527 56.2848 89.021C55.8073 89.4894 55.1659 89.7526 54.4974 89.7547ZM21.1524 57.5515V87.2215C21.1524 87.4485 21.2425 87.6662 21.4028 87.8267C21.5631 87.9872 21.7806 88.0773 22.0074 88.0773H54.4974C54.7241 88.0773 54.9416 87.9872 55.102 87.8267C55.2623 87.6662 55.3524 87.4485 55.3524 87.2215V50.3373C55.3524 50.1103 55.2623 49.8926 55.102 49.7321C54.9416 49.5716 54.7241 49.4815 54.4974 49.4815H28.6251L21.1524 57.5515Z" fill="#093F68"/>
<path d="M20.3062 57.2092H28.1294V48.6599L20.3062 57.2092Z" fill="#F7F7F7"/>
<path d="M28.1295 58.065H20.3063C20.1418 58.0646 19.9809 58.0168 19.8429 57.9273C19.7049 57.8377 19.5956 57.7102 19.5282 57.5601C19.4602 57.4085 19.4377 57.2404 19.4635 57.0763C19.4893 56.9122 19.5623 56.7591 19.6736 56.6358L27.5054 48.078C27.6224 47.9528 27.7743 47.8658 27.9413 47.8281C28.1084 47.7903 28.2829 47.8037 28.4423 47.8664C28.6017 47.9291 28.7386 48.0383 28.8352 48.1797C28.9319 48.3212 28.9839 48.4885 28.9845 48.6599V57.2177C28.9823 57.4432 28.8912 57.6587 28.7311 57.8174C28.571 57.976 28.3548 58.065 28.1295 58.065ZM22.2471 56.3534H27.2745V50.8593L22.2471 56.3534Z" fill="#093F68"/>
<path d="M49.6756 64.4491H27.0523C26.8255 64.4491 26.608 64.359 26.4477 64.1985C26.2873 64.038 26.1973 63.8203 26.1973 63.5933C26.1973 63.3664 26.2873 63.1487 26.4477 62.9882C26.608 62.8277 26.8255 62.7376 27.0523 62.7376H49.6756C49.9023 62.7376 50.1198 62.8277 50.2801 62.9882C50.4405 63.1487 50.5306 63.3664 50.5306 63.5933C50.5306 63.8203 50.4405 64.038 50.2801 64.1985C50.1198 64.359 49.9023 64.4491 49.6756 64.4491Z" fill="white"/>
<path d="M49.6756 70.0203H27.0523C26.8255 70.0203 26.608 69.9301 26.4477 69.7696C26.2873 69.6091 26.1973 69.3915 26.1973 69.1645C26.1973 68.9375 26.2873 68.7199 26.4477 68.5594C26.608 68.3989 26.8255 68.3087 27.0523 68.3087H49.6756C49.9023 68.3087 50.1198 68.3989 50.2801 68.5594C50.4405 68.7199 50.5306 68.9375 50.5306 69.1645C50.5306 69.3915 50.4405 69.6091 50.2801 69.7696C50.1198 69.9301 49.9023 70.0203 49.6756 70.0203Z" fill="white"/>
<path d="M49.6756 75.5914H27.0523C26.8255 75.5914 26.608 75.5013 26.4477 75.3408C26.2873 75.1803 26.1973 74.9626 26.1973 74.7356C26.1973 74.5087 26.2873 74.291 26.4477 74.1305C26.608 73.97 26.8255 73.8799 27.0523 73.8799H49.6756C49.9023 73.8799 50.1198 73.97 50.2801 74.1305C50.4405 74.291 50.5306 74.5087 50.5306 74.7356C50.5306 74.9626 50.4405 75.1803 50.2801 75.3408C50.1198 75.5013 49.9023 75.5914 49.6756 75.5914Z" fill="white"/>
<path d="M43.1776 81.1626H27.0523C26.8255 81.1626 26.608 81.0724 26.4477 80.9119C26.2873 80.7515 26.1973 80.5338 26.1973 80.3068C26.1973 80.0798 26.2873 79.8622 26.4477 79.7017C26.608 79.5412 26.8255 79.451 27.0523 79.451H43.1776C43.4043 79.451 43.6218 79.5412 43.7821 79.7017C43.9425 79.8622 44.0326 80.0798 44.0326 80.3068C44.0326 80.5338 43.9425 80.7515 43.7821 80.9119C43.6218 81.0724 43.4043 81.1626 43.1776 81.1626Z" fill="white"/>
<path d="M50.1629 83.0624H17.6729C17.2194 83.0624 16.7844 82.8821 16.4637 82.5611C16.143 82.2401 15.9629 81.8048 15.9629 81.3509V51.3727L23.9144 42.8149H50.1543C50.6078 42.8149 51.0428 42.9952 51.3635 43.3162C51.6842 43.6372 51.8643 44.0725 51.8643 44.5265V81.4108C51.8489 81.8528 51.6631 82.2716 51.3459 82.5795C51.0287 82.8874 50.6047 83.0605 50.1629 83.0624Z" fill="#2375EF"/>
<path d="M50.1629 83.9182H17.6729C16.9926 83.9182 16.3402 83.6477 15.8592 83.1663C15.3781 82.6848 15.1079 82.0318 15.1079 81.3509V51.3727C15.1087 51.1565 15.1911 50.9486 15.3388 50.7908L23.2817 42.233C23.3624 42.1459 23.4603 42.0765 23.5693 42.0294C23.6782 41.9823 23.7957 41.9583 23.9144 41.9591H50.1544C50.8346 41.9591 51.4871 42.2296 51.9681 42.7111C52.4491 43.1926 52.7194 43.8456 52.7194 44.5265V81.4108C52.7038 82.0798 52.4278 82.7162 51.9503 83.1846C51.4728 83.6529 50.8315 83.9162 50.1629 83.9182ZM16.8179 51.7151V81.3851C16.8179 81.6121 16.908 81.8298 17.0683 81.9902C17.2287 82.1507 17.4462 82.2409 17.6729 82.2409H50.1629C50.3897 82.2409 50.6071 82.1507 50.7675 81.9902C50.9278 81.8298 51.0179 81.6121 51.0179 81.3851V44.5008C51.0179 44.2738 50.9278 44.0562 50.7675 43.8957C50.6071 43.7352 50.3897 43.645 50.1629 43.645H24.2906L16.8179 51.7151Z" fill="#093F68"/>
<path d="M15.9712 51.3727H23.7944V42.8235L15.9712 51.3727Z" fill="#F7F7F7"/>
<path d="M23.8032 52.2285H15.9714C15.807 52.2265 15.6466 52.177 15.5095 52.086C15.3724 51.9951 15.2644 51.8664 15.1985 51.7156C15.1326 51.5647 15.1116 51.398 15.138 51.2355C15.1644 51.073 15.2371 50.9216 15.3473 50.7994L23.1705 42.2415C23.287 42.1133 23.4396 42.0235 23.6081 41.9839C23.7767 41.9444 23.9532 41.9569 24.1145 42.02C24.2757 42.0831 24.414 42.1937 24.5111 42.3371C24.6082 42.4806 24.6595 42.6502 24.6582 42.8234V51.3813C24.656 51.6068 24.5649 51.8223 24.4048 51.9809C24.2447 52.1395 24.0285 52.2285 23.8032 52.2285ZM17.9208 50.5169H22.9482V45.0228L17.9208 50.5169Z" fill="#093F68"/>
<path d="M45.3406 58.6127H22.7173C22.4905 58.6127 22.2731 58.5225 22.1127 58.362C21.9524 58.2015 21.8623 57.9839 21.8623 57.7569C21.8623 57.5299 21.9524 57.3123 22.1127 57.1518C22.2731 56.9913 22.4905 56.9011 22.7173 56.9011H45.3406C45.5674 56.9011 45.7848 56.9913 45.9452 57.1518C46.1055 57.3123 46.1956 57.5299 46.1956 57.7569C46.1956 57.9839 46.1055 58.2015 45.9452 58.362C45.7848 58.5225 45.5674 58.6127 45.3406 58.6127Z" fill="white"/>
<path d="M45.3406 64.1838H22.7173C22.4905 64.1838 22.2731 64.0937 22.1127 63.9332C21.9524 63.7727 21.8623 63.555 21.8623 63.3281C21.8623 63.1011 21.9524 62.8834 22.1127 62.7229C22.2731 62.5624 22.4905 62.4723 22.7173 62.4723H45.3406C45.5674 62.4723 45.7848 62.5624 45.9452 62.7229C46.1055 62.8834 46.1956 63.1011 46.1956 63.3281C46.1956 63.555 46.1055 63.7727 45.9452 63.9332C45.7848 64.0937 45.5674 64.1838 45.3406 64.1838Z" fill="white"/>
<path d="M45.3406 69.7892H22.7173C22.4905 69.7892 22.2731 69.6991 22.1127 69.5386C21.9524 69.3781 21.8623 69.1604 21.8623 68.9334C21.8623 68.7065 21.9524 68.4888 22.1127 68.3283C22.2731 68.1678 22.4905 68.0776 22.7173 68.0776H45.3406C45.5674 68.0776 45.7848 68.1678 45.9452 68.3283C46.1055 68.4888 46.1956 68.7065 46.1956 68.9334C46.1956 69.1604 46.1055 69.3781 45.9452 69.5386C45.7848 69.6991 45.5674 69.7892 45.3406 69.7892Z" fill="white"/>
<path d="M38.8426 75.3262H22.7173C22.4905 75.3262 22.2731 75.236 22.1127 75.0755C21.9524 74.915 21.8623 74.6973 21.8623 74.4704C21.8623 74.2434 21.9524 74.0257 22.1127 73.8652C22.2731 73.7047 22.4905 73.6146 22.7173 73.6146H38.8426C39.0694 73.6146 39.2868 73.7047 39.4472 73.8652C39.6075 74.0257 39.6976 74.2434 39.6976 74.4704C39.6976 74.6973 39.6075 74.915 39.4472 75.0755C39.2868 75.236 39.0694 75.3262 38.8426 75.3262Z" fill="white"/>
<path d="M45.8362 77.226H13.3462C12.8927 77.226 12.4578 77.0457 12.1371 76.7247C11.8164 76.4037 11.6362 75.9684 11.6362 75.5144V45.5363L19.5792 36.9785H45.8277C46.2812 36.9785 46.7161 37.1588 47.0368 37.4798C47.3575 37.8007 47.5377 38.2361 47.5377 38.69V75.5743C47.5222 76.0163 47.3364 76.4352 47.0192 76.7431C46.702 77.051 46.2781 77.224 45.8362 77.226Z" fill="white"/>
<path d="M45.8363 78.0818H13.3463C12.666 78.0818 12.0136 77.8113 11.5325 77.3298C11.0515 76.8483 10.7813 76.1953 10.7813 75.5144V45.5363C10.7797 45.3213 10.8591 45.1135 11.0036 44.9544L18.9551 36.3965C19.0348 36.3105 19.1313 36.2418 19.2387 36.1947C19.3461 36.1476 19.462 36.1231 19.5792 36.1227H45.8277C46.508 36.1227 47.1604 36.3932 47.6415 36.8746C48.1225 37.3561 48.3927 38.0091 48.3927 38.69V75.5743C48.3771 76.2433 48.1012 76.8798 47.6237 77.3481C47.1462 77.8165 46.5048 78.0797 45.8363 78.0818ZM12.4913 45.8786V75.5487C12.4913 75.7756 12.5814 75.9933 12.7417 76.1538C12.902 76.3143 13.1195 76.4044 13.3463 76.4044H45.8363C46.063 76.4044 46.2805 76.3143 46.4409 76.1538C46.6012 75.9933 46.6913 75.7756 46.6913 75.5487V38.6643C46.6913 38.4374 46.6012 38.2197 46.4409 38.0592C46.2805 37.8987 46.063 37.8086 45.8363 37.8086H19.9554L12.4913 45.8786Z" fill="#093F68"/>
<path d="M11.645 45.5363H19.4683V36.987L11.645 45.5363Z" fill="#2375EF"/>
<path d="M19.4682 46.3921H11.645C11.4798 46.3917 11.3182 46.3434 11.1799 46.253C11.0415 46.1627 10.9322 46.0342 10.8653 45.883C10.7984 45.7318 10.7766 45.5645 10.8027 45.4012C10.8288 45.2379 10.9016 45.0857 11.0123 44.9629L18.8355 36.4051C18.9526 36.2788 19.105 36.1909 19.2728 36.1527C19.4406 36.1145 19.616 36.1279 19.776 36.1911C19.9367 36.2532 20.0749 36.3624 20.1726 36.5044C20.2702 36.6464 20.3227 36.8146 20.3232 36.987V45.5448C20.321 45.7703 20.2299 45.9858 20.0698 46.1445C19.9097 46.3031 19.6935 46.3921 19.4682 46.3921ZM13.5858 44.6805H18.6132V39.1864L13.5858 44.6805Z" fill="#093F68"/>
<path d="M41.0142 52.7762H18.3823C18.1556 52.7762 17.9381 52.6861 17.7778 52.5256C17.6174 52.3651 17.5273 52.1474 17.5273 51.9204C17.5273 51.6935 17.6174 51.4758 17.7778 51.3153C17.9381 51.1548 18.1556 51.0647 18.3823 51.0647H41.0142C41.241 51.0647 41.4584 51.1548 41.6188 51.3153C41.7791 51.4758 41.8692 51.6935 41.8692 51.9204C41.8692 52.1474 41.7791 52.3651 41.6188 52.5256C41.4584 52.6861 41.241 52.7762 41.0142 52.7762Z" fill="#DFEAEF"/>
<path d="M41.0142 58.3474H18.3823C18.1556 58.3474 17.9381 58.2572 17.7778 58.0967C17.6174 57.9363 17.5273 57.7186 17.5273 57.4916C17.5273 57.2646 17.6174 57.047 17.7778 56.8865C17.9381 56.726 18.1556 56.6358 18.3823 56.6358H41.0142C41.241 56.6358 41.4584 56.726 41.6188 56.8865C41.7791 57.047 41.8692 57.2646 41.8692 57.4916C41.8692 57.7186 41.7791 57.9363 41.6188 58.0967C41.4584 58.2572 41.241 58.3474 41.0142 58.3474Z" fill="#DFEAEF"/>
<path d="M41.0142 63.9185H18.3823C18.1556 63.9185 17.9381 63.8284 17.7778 63.6679C17.6174 63.5074 17.5273 63.2897 17.5273 63.0628C17.5273 62.8358 17.6174 62.6181 17.7778 62.4576C17.9381 62.2971 18.1556 62.207 18.3823 62.207H41.0142C41.241 62.207 41.4584 62.2971 41.6188 62.4576C41.7791 62.6181 41.8692 62.8358 41.8692 63.0628C41.8692 63.2897 41.7791 63.5074 41.6188 63.6679C41.4584 63.8284 41.241 63.9185 41.0142 63.9185Z" fill="#DFEAEF"/>
<path d="M34.5077 69.4897H18.3823C18.1556 69.4897 17.9381 69.3995 17.7778 69.239C17.6174 69.0786 17.5273 68.8609 17.5273 68.6339C17.5273 68.4069 17.6174 68.1893 17.7778 68.0288C17.9381 67.8683 18.1556 67.7781 18.3823 67.7781H34.5077C34.7344 67.7781 34.9519 67.8683 35.1122 68.0288C35.2726 68.1893 35.3627 68.4069 35.3627 68.6339C35.3627 68.8609 35.2726 69.0786 35.1122 69.239C34.9519 69.3995 34.7344 69.4897 34.5077 69.4897Z" fill="#DFEAEF"/>
<path d="M105.25 88.8989H72.7603C72.3068 88.8989 71.8718 88.7186 71.5511 88.3976C71.2305 88.0766 71.0503 87.6413 71.0503 87.1873V57.2092L78.9933 48.6514H105.242C105.695 48.6514 106.13 48.8317 106.451 49.1527C106.772 49.4736 106.952 49.909 106.952 50.3629V87.2472C106.936 87.6892 106.75 88.1081 106.433 88.416C106.116 88.7239 105.692 88.8969 105.25 88.8989Z" fill="#FFBC0E"/>
<path d="M105.25 89.7547H72.7603C72.08 89.7547 71.4276 89.4842 70.9466 89.0027C70.4656 88.5212 70.1953 87.8682 70.1953 87.1873V57.2092C70.1961 56.993 70.2785 56.7851 70.4262 56.6273L78.3691 48.0694C78.4488 47.9834 78.5454 47.9147 78.6527 47.8676C78.7601 47.8204 78.876 47.7959 78.9933 47.7956H105.242C105.922 47.7956 106.574 48.0661 107.055 48.5475C107.537 49.029 107.807 49.682 107.807 50.3629V87.2472C107.791 87.9162 107.515 88.5527 107.038 89.021C106.56 89.4894 105.919 89.7526 105.25 89.7547ZM71.9053 57.5515V87.2215C71.9053 87.4485 71.9954 87.6662 72.1557 87.8267C72.3161 87.9872 72.5336 88.0773 72.7603 88.0773H105.25C105.477 88.0773 105.695 87.9872 105.855 87.8267C106.015 87.6662 106.105 87.4485 106.105 87.2215V50.3373C106.105 50.1103 106.015 49.8926 105.855 49.7321C105.695 49.5716 105.477 49.4815 105.25 49.4815H79.378L71.9053 57.5515Z" fill="#093F68"/>
<path d="M71.0591 57.2092H78.8823V48.6599L71.0591 57.2092Z" fill="#F7F7F7"/>
<path d="M78.8821 58.065H71.0588C70.8944 58.063 70.734 58.0135 70.5969 57.9225C70.4598 57.8315 70.3518 57.7029 70.2859 57.552C70.2201 57.4012 70.199 57.2345 70.2254 57.072C70.2518 56.9095 70.3245 56.758 70.4347 56.6358L78.2579 48.078C78.375 47.9528 78.5269 47.8658 78.6939 47.8281C78.861 47.7903 79.0355 47.8037 79.1949 47.8664C79.3543 47.9291 79.4912 48.0383 79.5878 48.1797C79.6845 48.3212 79.7365 48.4885 79.7371 48.6599V57.2177C79.7348 57.4432 79.6438 57.6587 79.4837 57.8174C79.3236 57.976 79.1074 58.065 78.8821 58.065ZM72.9997 56.3534H78.0271V50.8593L72.9997 56.3534Z" fill="#093F68"/>
<path d="M100.428 64.4491H77.8047C77.5779 64.4491 77.3605 64.359 77.2001 64.1985C77.0398 64.038 76.9497 63.8203 76.9497 63.5933C76.9497 63.3664 77.0398 63.1487 77.2001 62.9882C77.3605 62.8277 77.5779 62.7376 77.8047 62.7376H100.428C100.655 62.7376 100.872 62.8277 101.033 62.9882C101.193 63.1487 101.283 63.3664 101.283 63.5933C101.283 63.8203 101.193 64.038 101.033 64.1985C100.872 64.359 100.655 64.4491 100.428 64.4491Z" fill="white"/>
<path d="M100.428 70.0203H77.8047C77.5779 70.0203 77.3605 69.9301 77.2001 69.7696C77.0398 69.6091 76.9497 69.3915 76.9497 69.1645C76.9497 68.9375 77.0398 68.7199 77.2001 68.5594C77.3605 68.3989 77.5779 68.3087 77.8047 68.3087H100.428C100.655 68.3087 100.872 68.3989 101.033 68.5594C101.193 68.7199 101.283 68.9375 101.283 69.1645C101.283 69.3915 101.193 69.6091 101.033 69.7696C100.872 69.9301 100.655 70.0203 100.428 70.0203Z" fill="white"/>
<path d="M100.428 75.5914H77.8047C77.5779 75.5914 77.3605 75.5013 77.2001 75.3408C77.0398 75.1803 76.9497 74.9626 76.9497 74.7356C76.9497 74.5087 77.0398 74.291 77.2001 74.1305C77.3605 73.97 77.5779 73.8799 77.8047 73.8799H100.428C100.655 73.8799 100.872 73.97 101.033 74.1305C101.193 74.291 101.283 74.5087 101.283 74.7356C101.283 74.9626 101.193 75.1803 101.033 75.3408C100.872 75.5013 100.655 75.5914 100.428 75.5914Z" fill="white"/>
<path d="M93.93 81.1626H77.8047C77.5779 81.1626 77.3605 81.0724 77.2001 80.9119C77.0398 80.7515 76.9497 80.5338 76.9497 80.3068C76.9497 80.0798 77.0398 79.8622 77.2001 79.7017C77.3605 79.5412 77.5779 79.451 77.8047 79.451H93.93C94.1568 79.451 94.3742 79.5412 94.5346 79.7017C94.6949 79.8622 94.785 80.0798 94.785 80.3068C94.785 80.5338 94.6949 80.7515 94.5346 80.9119C94.3742 81.0724 94.1568 81.1626 93.93 81.1626Z" fill="white"/>
<path d="M100.915 83.0624H68.4253C67.9718 83.0624 67.5369 82.8821 67.2162 82.5611C66.8955 82.2401 66.7153 81.8048 66.7153 81.3509V51.3727L74.6668 42.8149H100.907C101.36 42.8149 101.795 42.9952 102.116 43.3162C102.437 43.6372 102.617 44.0725 102.617 44.5265V81.4108C102.601 81.8528 102.416 82.2716 102.098 82.5795C101.781 82.8874 101.357 83.0605 100.915 83.0624Z" fill="#FFBC0E"/>
<path d="M100.915 83.9182H68.4254C67.7451 83.9182 67.0927 83.6477 66.6116 83.1663C66.1306 82.6848 65.8604 82.0318 65.8604 81.3509V51.3727C65.8588 51.1577 65.9382 50.95 66.0827 50.7908L74.0256 42.233C74.1063 42.1459 74.2043 42.0765 74.3132 42.0294C74.4221 41.9823 74.5396 41.9583 74.6583 41.9591H100.898C101.579 41.9591 102.231 42.2296 102.712 42.7111C103.193 43.1926 103.463 43.8456 103.463 44.5265V81.4108C103.448 82.0783 103.173 82.7135 102.697 83.1816C102.222 83.6497 101.582 83.914 100.915 83.9182ZM67.5704 51.7151V81.3851C67.5704 81.6121 67.6605 81.8298 67.8208 81.9902C67.9811 82.1507 68.1986 82.2409 68.4254 82.2409H100.915C101.142 82.2409 101.36 82.1507 101.52 81.9902C101.68 81.8298 101.77 81.6121 101.77 81.3851V44.5008C101.77 44.2738 101.68 44.0562 101.52 43.8957C101.36 43.7352 101.142 43.645 100.915 43.645H75.0431L67.5704 51.7151Z" fill="#093F68"/>
<path d="M66.7241 51.3727H74.5559V42.8235L66.7241 51.3727Z" fill="#F7F7F7"/>
<path d="M74.5561 52.2285H66.7329C66.5677 52.2281 66.4061 52.1798 66.2677 52.0895C66.1294 51.9992 66.0201 51.8706 65.9532 51.7194C65.8863 51.5683 65.8645 51.4009 65.8906 51.2376C65.9167 51.0743 65.9895 50.9221 66.1002 50.7994L73.9234 42.2415C74.0399 42.1133 74.1924 42.0235 74.361 41.9839C74.5295 41.9444 74.7061 41.9569 74.8674 42.02C75.0286 42.0831 75.1669 42.1937 75.264 42.3371C75.3611 42.4806 75.4124 42.6502 75.4111 42.8234V51.3813C75.4089 51.6068 75.3178 51.8223 75.1577 51.9809C74.9976 52.1395 74.7814 52.2285 74.5561 52.2285ZM68.6737 50.5169H73.7011V45.0228L68.6737 50.5169Z" fill="#093F68"/>
<path d="M96.0935 58.6127H73.4702C73.2435 58.6127 73.026 58.5225 72.8657 58.362C72.7053 58.2015 72.6152 57.9839 72.6152 57.7569C72.6152 57.5299 72.7053 57.3123 72.8657 57.1518C73.026 56.9913 73.2435 56.9011 73.4702 56.9011H96.0935C96.3203 56.9011 96.5378 56.9913 96.6981 57.1518C96.8585 57.3123 96.9485 57.5299 96.9485 57.7569C96.9485 57.9839 96.8585 58.2015 96.6981 58.362C96.5378 58.5225 96.3203 58.6127 96.0935 58.6127Z" fill="white"/>
<path d="M96.0935 64.1838H73.4702C73.2435 64.1838 73.026 64.0937 72.8657 63.9332C72.7053 63.7727 72.6152 63.555 72.6152 63.3281C72.6152 63.1011 72.7053 62.8834 72.8657 62.7229C73.026 62.5624 73.2435 62.4723 73.4702 62.4723H96.0935C96.3203 62.4723 96.5378 62.5624 96.6981 62.7229C96.8585 62.8834 96.9485 63.1011 96.9485 63.3281C96.9485 63.555 96.8585 63.7727 96.6981 63.9332C96.5378 64.0937 96.3203 64.1838 96.0935 64.1838Z" fill="white"/>
<path d="M96.0935 69.7892H73.4702C73.2435 69.7892 73.026 69.6991 72.8657 69.5386C72.7053 69.3781 72.6152 69.1604 72.6152 68.9334C72.6152 68.7065 72.7053 68.4888 72.8657 68.3283C73.026 68.1678 73.2435 68.0776 73.4702 68.0776H96.0935C96.3203 68.0776 96.5378 68.1678 96.6981 68.3283C96.8585 68.4888 96.9485 68.7065 96.9485 68.9334C96.9485 69.1604 96.8585 69.3781 96.6981 69.5386C96.5378 69.6991 96.3203 69.7892 96.0935 69.7892Z" fill="white"/>
<path d="M89.5955 75.3262H73.4702C73.2435 75.3262 73.026 75.236 72.8657 75.0755C72.7053 74.915 72.6152 74.6973 72.6152 74.4704C72.6152 74.2434 72.7053 74.0257 72.8657 73.8652C73.026 73.7047 73.2435 73.6146 73.4702 73.6146H89.5955C89.8223 73.6146 90.0398 73.7047 90.2001 73.8652C90.3605 74.0257 90.4505 74.2434 90.4505 74.4704C90.4505 74.6973 90.3605 74.915 90.2001 75.0755C90.0398 75.236 89.8223 75.3262 89.5955 75.3262Z" fill="white"/>
<path d="M96.5892 77.226H64.0992C63.6456 77.226 63.2107 77.0457 62.89 76.7247C62.5693 76.4037 62.3892 75.9684 62.3892 75.5144V45.5363L70.3321 36.9785H96.5806C97.0341 36.9785 97.4691 37.1588 97.7898 37.4798C98.1104 37.8007 98.2906 38.2361 98.2906 38.69V75.5743C98.2751 76.0163 98.0893 76.4352 97.7722 76.7431C97.455 77.051 97.031 77.224 96.5892 77.226Z" fill="white"/>
<path d="M96.5892 78.0818H64.0992C63.4189 78.0818 62.7665 77.8113 62.2854 77.3298C61.8044 76.8484 61.5342 76.1953 61.5342 75.5144V45.5363C61.5438 45.3237 61.6322 45.1224 61.7821 44.9715L69.7336 36.4136C69.8133 36.3276 69.9099 36.2589 70.0173 36.2118C70.1246 36.1647 70.2405 36.1402 70.3578 36.1398H96.6063C97.2865 36.1398 97.939 36.4103 98.42 36.8918C98.901 37.3732 99.1713 38.0262 99.1713 38.7071V75.5914C99.1512 76.2619 98.8698 76.8978 98.3872 77.3632C97.9046 77.8286 97.2593 78.0866 96.5892 78.0818ZM63.2442 45.8786V75.5487C63.2442 75.7756 63.3343 75.9933 63.4946 76.1538C63.6549 76.3143 63.8724 76.4044 64.0992 76.4044H96.5892C96.8159 76.4044 97.0334 76.3143 97.1938 76.1538C97.3541 75.9933 97.4442 75.7756 97.4442 75.5487V38.6644C97.4442 38.4374 97.3541 38.2197 97.1938 38.0592C97.0334 37.8987 96.8159 37.8086 96.5892 37.8086H70.7083L63.2442 45.8786Z" fill="#093F68"/>
<path d="M62.3979 45.5363H70.2212V36.987L62.3979 45.5363Z" fill="#FFBC0E"/>
<path d="M70.2212 46.3921H62.398C62.2358 46.3871 62.0785 46.336 61.9443 46.2448C61.81 46.1537 61.7045 46.0262 61.6399 45.8772C61.5754 45.7283 61.5545 45.564 61.5797 45.4037C61.605 45.2433 61.6752 45.0934 61.7824 44.9715L69.6056 36.4136C69.7227 36.2874 69.875 36.1994 70.0428 36.1613C70.2106 36.1231 70.386 36.1365 70.5461 36.1997C70.7068 36.2617 70.845 36.3709 70.9427 36.5129C71.0403 36.655 71.0928 36.8232 71.0933 36.9956V45.5534C71.0911 45.6658 71.0668 45.7766 71.0217 45.8796C70.9767 45.9826 70.9118 46.0757 70.8309 46.1536C70.7499 46.2315 70.6543 46.2926 70.5497 46.3335C70.4451 46.3745 70.3335 46.3944 70.2212 46.3921ZM64.3388 44.6805H69.3662V39.1864L64.3388 44.6805Z" fill="#093F68"/>
<path d="M91.7671 52.7762H69.1353C68.9085 52.7762 68.691 52.6861 68.5307 52.5256C68.3704 52.3651 68.2803 52.1474 68.2803 51.9204C68.2803 51.6935 68.3704 51.4758 68.5307 51.3153C68.691 51.1548 68.9085 51.0647 69.1353 51.0647H91.7671C91.9939 51.0647 92.2113 51.1548 92.3717 51.3153C92.532 51.4758 92.6221 51.6935 92.6221 51.9204C92.6221 52.1474 92.532 52.3651 92.3717 52.5256C92.2113 52.6861 91.9939 52.7762 91.7671 52.7762Z" fill="#DFEAEF"/>
<path d="M91.7671 58.3474H69.1353C68.9085 58.3474 68.691 58.2572 68.5307 58.0967C68.3704 57.9363 68.2803 57.7186 68.2803 57.4916C68.2803 57.2646 68.3704 57.047 68.5307 56.8865C68.691 56.726 68.9085 56.6358 69.1353 56.6358H91.7671C91.9939 56.6358 92.2113 56.726 92.3717 56.8865C92.532 57.047 92.6221 57.2646 92.6221 57.4916C92.6221 57.7186 92.532 57.9363 92.3717 58.0967C92.2113 58.2572 91.9939 58.3474 91.7671 58.3474Z" fill="#DFEAEF"/>
<path d="M91.7671 63.9185H69.1353C68.9085 63.9185 68.691 63.8284 68.5307 63.6679C68.3704 63.5074 68.2803 63.2897 68.2803 63.0628C68.2803 62.8358 68.3704 62.6181 68.5307 62.4576C68.691 62.2971 68.9085 62.207 69.1353 62.207H91.7671C91.9939 62.207 92.2113 62.2971 92.3717 62.4576C92.532 62.6181 92.6221 62.8358 92.6221 63.0628C92.6221 63.2897 92.532 63.5074 92.3717 63.6679C92.2113 63.8284 91.9939 63.9185 91.7671 63.9185Z" fill="#DFEAEF"/>
<path d="M85.2606 69.4897H69.1353C68.9085 69.4897 68.691 69.3995 68.5307 69.239C68.3704 69.0786 68.2803 68.8609 68.2803 68.6339C68.2803 68.4069 68.3704 68.1893 68.5307 68.0288C68.691 67.8683 68.9085 67.7781 69.1353 67.7781H85.2606C85.4873 67.7781 85.7048 67.8683 85.8652 68.0288C86.0255 68.1893 86.1156 68.4069 86.1156 68.6339C86.1156 68.8609 86.0255 69.0786 85.8652 69.239C85.7048 69.3995 85.4873 69.4897 85.2606 69.4897Z" fill="#DFEAEF"/>
<path d="M156.003 88.8989H123.513C123.06 88.8989 122.625 88.7186 122.304 88.3976C121.983 88.0766 121.803 87.6413 121.803 87.1873V57.2092L129.755 48.6514H156.003C156.457 48.6514 156.892 48.8317 157.212 49.1527C157.533 49.4736 157.713 49.909 157.713 50.3629V87.2472C157.698 87.6907 157.511 88.1108 157.192 88.4189C156.873 88.7271 156.447 88.8992 156.003 88.8989Z" fill="#F56132"/>
<path d="M156.003 89.7547H123.513C122.833 89.7547 122.181 89.4842 121.7 89.0027C121.218 88.5212 120.948 87.8682 120.948 87.1873V57.2092C120.949 56.993 121.031 56.7851 121.179 56.6273L129.122 48.0694C129.202 47.9834 129.298 47.9147 129.406 47.8676C129.513 47.8204 129.629 47.7959 129.746 47.7956H155.995C156.675 47.7956 157.327 48.0661 157.808 48.5475C158.289 49.029 158.56 49.682 158.56 50.3629V87.2472C158.544 87.9162 158.268 88.5527 157.791 89.021C157.313 89.4894 156.672 89.7526 156.003 89.7547ZM122.658 57.5515V87.2215C122.658 87.4485 122.748 87.6662 122.909 87.8267C123.069 87.9872 123.286 88.0773 123.513 88.0773H156.003C156.23 88.0773 156.447 87.9872 156.608 87.8267C156.768 87.6662 156.858 87.4485 156.858 87.2215V50.3373C156.858 50.1103 156.768 49.8926 156.608 49.7321C156.447 49.5716 156.23 49.4815 156.003 49.4815H130.131L122.658 57.5515Z" fill="#093F68"/>
<path d="M121.812 57.2092H129.635V48.6599L121.812 57.2092Z" fill="#F7F7F7"/>
<path d="M129.635 58.065H121.812C121.647 58.063 121.487 58.0135 121.35 57.9225C121.213 57.8315 121.105 57.7029 121.039 57.552C120.973 57.4012 120.952 57.2345 120.978 57.072C121.005 56.9095 121.077 56.758 121.188 56.6358L129.011 48.078C129.128 47.9528 129.28 47.8658 129.447 47.8281C129.614 47.7903 129.788 47.8037 129.948 47.8664C130.107 47.9291 130.244 48.0383 130.341 48.1797C130.437 48.3212 130.489 48.4885 130.49 48.6599V57.2177C130.488 57.4432 130.397 57.6587 130.237 57.8174C130.076 57.976 129.86 58.065 129.635 58.065ZM123.761 56.3534H128.78V50.8593L123.761 56.3534Z" fill="#093F68"/>
<path d="M151.181 64.4491H128.558C128.331 64.4491 128.113 64.359 127.953 64.1985C127.793 64.038 127.703 63.8203 127.703 63.5933C127.703 63.3664 127.793 63.1487 127.953 62.9882C128.113 62.8277 128.331 62.7376 128.558 62.7376H151.181C151.408 62.7376 151.625 62.8277 151.786 62.9882C151.946 63.1487 152.036 63.3664 152.036 63.5933C152.036 63.8203 151.946 64.038 151.786 64.1985C151.625 64.359 151.408 64.4491 151.181 64.4491Z" fill="white"/>
<path d="M151.181 70.0203H128.558C128.331 70.0203 128.113 69.9301 127.953 69.7696C127.793 69.6091 127.703 69.3915 127.703 69.1645C127.703 68.9375 127.793 68.7199 127.953 68.5594C128.113 68.3989 128.331 68.3087 128.558 68.3087H151.181C151.408 68.3087 151.625 68.3989 151.786 68.5594C151.946 68.7199 152.036 68.9375 152.036 69.1645C152.036 69.3915 151.946 69.6091 151.786 69.7696C151.625 69.9301 151.408 70.0203 151.181 70.0203Z" fill="white"/>
<path d="M151.181 75.5914H128.558C128.331 75.5914 128.113 75.5013 127.953 75.3408C127.793 75.1803 127.703 74.9626 127.703 74.7356C127.703 74.5087 127.793 74.291 127.953 74.1305C128.113 73.97 128.331 73.8799 128.558 73.8799H151.181C151.408 73.8799 151.625 73.97 151.786 74.1305C151.946 74.291 152.036 74.5087 152.036 74.7356C152.036 74.9626 151.946 75.1803 151.786 75.3408C151.625 75.5013 151.408 75.5914 151.181 75.5914Z" fill="white"/>
<path d="M144.717 81.1626H128.558C128.331 81.1626 128.113 81.0724 127.953 80.9119C127.793 80.7515 127.703 80.5338 127.703 80.3068C127.703 80.0798 127.793 79.8622 127.953 79.7017C128.113 79.5412 128.331 79.451 128.558 79.451H144.717C144.944 79.451 145.161 79.5412 145.322 79.7017C145.482 79.8622 145.572 80.0798 145.572 80.3068C145.572 80.5338 145.482 80.7515 145.322 80.9119C145.161 81.0724 144.944 81.1626 144.717 81.1626Z" fill="white"/>
<path d="M151.677 83.0624H119.187C118.734 83.0624 118.299 82.8821 117.978 82.5611C117.657 82.2401 117.477 81.8048 117.477 81.3509V51.3727L125.42 42.8149H151.669C152.122 42.8149 152.557 42.9952 152.878 43.3162C153.198 43.6372 153.379 44.0725 153.379 44.5265V81.4108C153.363 81.8528 153.177 82.2716 152.86 82.5795C152.543 82.8874 152.119 83.0605 151.677 83.0624Z" fill="#F56132"/>
<path d="M151.677 83.9182H119.187C118.507 83.9182 117.854 83.6477 117.373 83.1663C116.892 82.6848 116.622 82.0318 116.622 81.3509V51.3727C116.621 51.1577 116.7 50.9499 116.844 50.7908L124.796 42.233C124.876 42.1469 124.972 42.0782 125.08 42.0311C125.187 41.984 125.303 41.9595 125.42 41.9591H151.669C152.349 41.9591 153.001 42.2296 153.482 42.7111C153.963 43.1926 154.234 43.8456 154.234 44.5265V81.4108C154.218 82.0798 153.942 82.7162 153.465 83.1846C152.987 83.6529 152.346 83.9162 151.677 83.9182ZM118.332 51.7151V81.3851C118.332 81.6121 118.422 81.8297 118.583 81.9902C118.743 82.1507 118.96 82.2409 119.187 82.2409H151.677C151.904 82.2409 152.121 82.1507 152.282 81.9902C152.442 81.8297 152.532 81.6121 152.532 81.3851V44.5008C152.532 44.2738 152.442 44.0562 152.282 43.8957C152.121 43.7352 151.904 43.645 151.677 43.645H125.796L118.332 51.7151Z" fill="#093F68"/>
<path d="M117.485 51.3727H125.309V42.8235L117.485 51.3727Z" fill="#F7F7F7"/>
<path d="M125.309 52.2285H117.485C117.32 52.2281 117.159 52.1798 117.02 52.0895C116.882 51.9992 116.773 51.8706 116.706 51.7194C116.639 51.5683 116.617 51.4009 116.643 51.2376C116.669 51.0743 116.742 50.9221 116.853 50.7994L124.676 42.2415C124.792 42.1133 124.945 42.0235 125.113 41.9839C125.282 41.9444 125.459 41.9569 125.62 42.02C125.781 42.0831 125.919 42.1937 126.016 42.3371C126.114 42.4806 126.165 42.6502 126.164 42.8234V51.3813C126.161 51.6068 126.07 51.8223 125.91 51.9809C125.75 52.1395 125.534 52.2285 125.309 52.2285ZM119.426 50.5169H124.454V45.0228L119.426 50.5169Z" fill="#093F68"/>
<path d="M146.855 58.6127H124.197C123.971 58.6127 123.753 58.5225 123.593 58.362C123.432 58.2015 123.342 57.9839 123.342 57.7569C123.342 57.5299 123.432 57.3123 123.593 57.1518C123.753 56.9913 123.971 56.9011 124.197 56.9011H146.855C147.082 56.9011 147.299 56.9913 147.459 57.1518C147.62 57.3123 147.71 57.5299 147.71 57.7569C147.71 57.9839 147.62 58.2015 147.459 58.362C147.299 58.5225 147.082 58.6127 146.855 58.6127Z" fill="white"/>
<path d="M146.855 64.1838H124.197C123.971 64.1838 123.753 64.0937 123.593 63.9332C123.432 63.7727 123.342 63.555 123.342 63.3281C123.342 63.1011 123.432 62.8834 123.593 62.7229C123.753 62.5624 123.971 62.4723 124.197 62.4723H146.855C147.082 62.4723 147.299 62.5624 147.459 62.7229C147.62 62.8834 147.71 63.1011 147.71 63.3281C147.71 63.555 147.62 63.7727 147.459 63.9332C147.299 64.0937 147.082 64.1838 146.855 64.1838Z" fill="white"/>
<path d="M146.855 69.7892H124.197C123.971 69.7892 123.753 69.6991 123.593 69.5386C123.432 69.3781 123.342 69.1604 123.342 68.9334C123.342 68.7065 123.432 68.4888 123.593 68.3283C123.753 68.1678 123.971 68.0776 124.197 68.0776H146.855C147.082 68.0776 147.299 68.1678 147.459 68.3283C147.62 68.4888 147.71 68.7065 147.71 68.9334C147.71 69.1604 147.62 69.3781 147.459 69.5386C147.299 69.6991 147.082 69.7892 146.855 69.7892Z" fill="white"/>
<path d="M140.348 75.3262H124.197C123.971 75.3262 123.753 75.236 123.593 75.0755C123.432 74.915 123.342 74.6973 123.342 74.4704C123.342 74.2434 123.432 74.0257 123.593 73.8652C123.753 73.7047 123.971 73.6146 124.197 73.6146H140.323C140.549 73.6146 140.767 73.7047 140.927 73.8652C141.088 74.0257 141.178 74.2434 141.178 74.4704C141.178 74.6973 141.088 74.915 140.927 75.0755C140.767 75.236 140.549 75.3262 140.323 75.3262H140.348Z" fill="white"/>
<path d="M147.342 77.226H114.792C114.339 77.226 113.904 77.0457 113.583 76.7247C113.262 76.4037 113.082 75.9684 113.082 75.5144V45.5363L121.025 36.9785H147.273C147.727 36.9785 148.162 37.1588 148.483 37.4798C148.803 37.8007 148.983 38.2361 148.983 38.69V75.5743C148.969 76.0062 148.791 76.4165 148.487 76.7229C148.182 77.0292 147.773 77.209 147.342 77.226Z" fill="white"/>
<path d="M147.342 78.0818H114.792C114.112 78.0818 113.459 77.8113 112.978 77.3298C112.497 76.8484 112.227 76.1953 112.227 75.5144V45.5363C112.225 45.3213 112.305 45.1135 112.449 44.9544L120.401 36.3965C120.481 36.3105 120.577 36.2418 120.685 36.1947C120.792 36.1476 120.908 36.1231 121.025 36.1227H147.274C147.954 36.1227 148.606 36.3932 149.087 36.8746C149.568 37.3561 149.839 38.0091 149.839 38.69V75.5743C149.823 76.2331 149.556 76.8609 149.091 77.3276C148.626 77.7944 148 78.0644 147.342 78.0818ZM113.997 45.8786V75.5487C113.997 75.7756 114.087 75.9933 114.247 76.1538C114.408 76.3143 114.625 76.4044 114.852 76.4044H147.342C147.569 76.4044 147.786 76.3143 147.946 76.1538C148.107 75.9933 148.197 75.7756 148.197 75.5487V38.6643C148.197 38.4374 148.107 38.2197 147.946 38.0592C147.786 37.8987 147.569 37.8086 147.342 37.8086H121.461L113.997 45.8786Z" fill="#093F68"/>
<path d="M113.15 45.5363H120.974V36.987L113.15 45.5363Z" fill="#F56132"/>
<path d="M120.974 46.3921H113.15C112.985 46.3917 112.824 46.3434 112.685 46.253C112.547 46.1627 112.438 46.0342 112.371 45.883C112.304 45.7318 112.282 45.5645 112.308 45.4012C112.334 45.2379 112.407 45.0857 112.518 44.9629L120.341 36.4051C120.458 36.2788 120.61 36.1909 120.778 36.1527C120.946 36.1145 121.121 36.1279 121.281 36.1911C121.442 36.2532 121.58 36.3624 121.678 36.5044C121.776 36.6464 121.828 36.8146 121.829 36.987V45.5448C121.826 45.7703 121.735 45.9858 121.575 46.1445C121.415 46.3031 121.199 46.3921 120.974 46.3921ZM115.091 44.6805H120.119V39.1864L115.091 44.6805Z" fill="#093F68"/>
<path d="M142.52 52.7762H119.922C119.696 52.7762 119.478 52.6861 119.318 52.5256C119.157 52.3651 119.067 52.1474 119.067 51.9204C119.067 51.6935 119.157 51.4758 119.318 51.3153C119.478 51.1548 119.696 51.0647 119.922 51.0647H142.554C142.781 51.0647 142.998 51.1548 143.159 51.3153C143.319 51.4758 143.409 51.6935 143.409 51.9204C143.409 52.1474 143.319 52.3651 143.159 52.5256C142.998 52.6861 142.781 52.7762 142.554 52.7762H142.52Z" fill="#DFEAEF"/>
<path d="M142.52 58.3474H119.922C119.696 58.3474 119.478 58.2572 119.318 58.0967C119.157 57.9363 119.067 57.7186 119.067 57.4916C119.067 57.2646 119.157 57.047 119.318 56.8865C119.478 56.726 119.696 56.6358 119.922 56.6358H142.554C142.781 56.6358 142.998 56.726 143.159 56.8865C143.319 57.047 143.409 57.2646 143.409 57.4916C143.409 57.7186 143.319 57.9363 143.159 58.0967C142.998 58.2572 142.781 58.3474 142.554 58.3474H142.52Z" fill="#DFEAEF"/>
<path d="M142.52 63.9185H119.922C119.696 63.9185 119.478 63.8284 119.318 63.6679C119.157 63.5074 119.067 63.2897 119.067 63.0628C119.067 62.8358 119.157 62.6181 119.318 62.4576C119.478 62.2971 119.696 62.207 119.922 62.207H142.554C142.781 62.207 142.998 62.2971 143.159 62.4576C143.319 62.6181 143.409 62.8358 143.409 63.0628C143.409 63.2897 143.319 63.5074 143.159 63.6679C142.998 63.8284 142.781 63.9185 142.554 63.9185H142.52Z" fill="#DFEAEF"/>
<path d="M136.022 69.4897H119.922C119.696 69.4897 119.478 69.3995 119.318 69.239C119.157 69.0786 119.067 68.8609 119.067 68.6339C119.067 68.4069 119.157 68.1893 119.318 68.0288C119.478 67.8683 119.696 67.7781 119.922 67.7781H136.056C136.283 67.7781 136.5 67.8683 136.661 68.0288C136.821 68.1893 136.911 68.4069 136.911 68.6339C136.911 68.8609 136.821 69.0786 136.661 69.239C136.5 69.3995 136.283 69.4897 136.056 69.4897H136.022Z" fill="#DFEAEF"/>
<path d="M167.931 16.6022V20.1537H0.85498V8.55786C0.85498 6.51514 1.6657 4.55609 3.10879 3.11168C4.55189 1.66726 6.50914 0.855797 8.54998 0.855797H69.6141C71.5157 0.866088 73.345 1.58629 74.7441 2.87545L83.7387 11.1252H162.484C163.202 11.1241 163.913 11.2651 164.576 11.5403C165.239 11.8155 165.841 12.2193 166.347 12.7284C166.853 13.2376 167.254 13.842 167.526 14.5069C167.797 15.1717 167.935 15.8839 167.931 16.6022Z" fill="#2375EF"/>
<path d="M167.931 21.0095H0.855C0.62824 21.0095 0.410767 20.9194 0.250423 20.7589C0.0900794 20.5984 0 20.3807 0 20.1537V8.55785C0 6.28817 0.900801 4.11145 2.50424 2.50654C4.10767 0.901635 6.2824 7.42934e-06 8.55 7.42934e-06H69.6141C71.7455 -0.00281329 73.7998 0.79767 75.3683 2.24216L84.1149 10.2694H162.527C164.195 10.2717 165.794 10.936 166.974 12.1167C168.154 13.2975 168.818 14.8982 168.82 16.568V20.1537C168.82 20.2691 168.797 20.3832 168.752 20.4893C168.706 20.5955 168.64 20.6914 168.557 20.7713C168.474 20.8512 168.376 20.9135 168.268 20.9545C168.161 20.9954 168.046 21.0141 167.931 21.0095ZM1.71 19.2979H167.076V16.6022C167.076 15.3857 166.593 14.219 165.733 13.3587C164.874 12.4985 163.708 12.0152 162.493 12.0152H83.7473C83.5324 12.0168 83.3248 11.9374 83.1658 11.7927L74.1713 3.54295C72.924 2.38263 71.2827 1.74021 69.5799 1.74581H8.5158C6.70172 1.74581 4.96194 2.46711 3.67919 3.75104C2.39644 5.03496 1.6758 6.77634 1.6758 8.59208L1.71 19.2979Z" fill="#093F68"/>
<path d="M51.24 101.881H25.3677C25.1409 101.881 24.9235 101.791 24.7631 101.63C24.6028 101.47 24.5127 101.252 24.5127 101.025C24.5127 100.798 24.6028 100.581 24.7631 100.42C24.9235 100.26 25.1409 100.17 25.3677 100.17H51.24C51.4667 100.17 51.6842 100.26 51.8446 100.42C52.0049 100.581 52.095 100.798 52.095 101.025C52.095 101.252 52.0049 101.47 51.8446 101.63C51.6842 101.791 51.4667 101.881 51.24 101.881Z" fill="#DFEAEF"/>
<path d="M100.368 101.881H74.4961C74.2694 101.881 74.0519 101.791 73.8915 101.63C73.7312 101.47 73.6411 101.252 73.6411 101.025C73.6411 100.798 73.7312 100.581 73.8915 100.42C74.0519 100.26 74.2694 100.17 74.4961 100.17H100.368C100.595 100.17 100.813 100.26 100.973 100.42C101.133 100.581 101.223 100.798 101.223 101.025C101.223 101.252 101.133 101.47 100.973 101.63C100.813 101.791 100.595 101.881 100.368 101.881Z" fill="#DFEAEF"/>
<path d="M149.497 101.881H123.625C123.398 101.881 123.18 101.791 123.02 101.63C122.86 101.47 122.77 101.252 122.77 101.025C122.77 100.798 122.86 100.581 123.02 100.42C123.18 100.26 123.398 100.17 123.625 100.17H149.497C149.724 100.17 149.941 100.26 150.101 100.42C150.262 100.581 150.352 100.798 150.352 101.025C150.352 101.252 150.262 101.47 150.101 101.63C149.941 101.791 149.724 101.881 149.497 101.881Z" fill="#DFEAEF"/>
</svg>
