<svg width="24" height="24" viewBox="0 0 24 24" fill="none" xmlns="http://www.w3.org/2000/svg">
<path fill-rule="evenodd" clip-rule="evenodd" d="M12 0.37793C5.37 0.37793 0 5.7117 0 12.297C0 17.5711 3.435 22.0259 8.205 23.6052C8.805 23.7095 9.03 23.3519 9.03 23.039C9.03 22.7559 9.015 21.8173 9.015 20.8191C6 21.3703 5.22 20.089 4.98 19.4186C4.845 19.0759 4.26 18.0181 3.75 17.735C3.33 17.5116 2.73 16.9603 3.735 16.9454C4.68 16.9305 5.355 17.8095 5.58 18.1671C6.66 19.9699 8.385 19.4633 9.075 19.1504C9.18 18.3757 9.495 17.8542 9.84 17.5562C7.17 17.2583 4.38 16.2303 4.38 11.6712C4.38 10.375 4.845 9.30231 5.61 8.46798C5.49 8.17 5.07 6.9483 5.73 5.30943C5.73 5.30943 6.735 4.99656 9.03 6.53113C9.99 6.26296 11.01 6.12887 12.03 6.12887C13.05 6.12887 14.07 6.26296 15.03 6.53113C17.325 4.98166 18.33 5.30943 18.33 5.30943C18.99 6.9483 18.57 8.17 18.45 8.46798C19.215 9.30231 19.68 10.3601 19.68 11.6712C19.68 16.2452 16.875 17.2583 14.205 17.5562C14.64 17.9287 15.015 18.6439 15.015 19.7613C15.015 21.3554 15 22.6367 15 23.039C15 23.3519 15.225 23.7243 15.825 23.6052C20.565 22.0259 24 17.5562 24 12.297C24 5.7117 18.63 0.37793 12 0.37793Z" fill="#7D8795"/>
</svg>
