<svg width="146" height="131" viewBox="0 0 146 131" fill="none" xmlns="http://www.w3.org/2000/svg">
<path d="M141.553 65.3923C141.557 81.2577 135.613 96.5563 124.878 108.307C114.144 120.058 99.3884 127.42 83.4866 128.958C67.5848 130.496 51.676 126.1 38.8598 116.627C26.0436 107.154 17.2382 93.2816 14.1591 77.7136C11.0801 62.1457 13.948 45.997 22.2041 32.4141C30.4602 18.8311 43.513 8.78691 58.8194 4.23848C74.1257 -0.309949 90.5891 0.963216 105.002 7.80991C119.415 14.6566 130.744 26.5864 136.783 41.2748C138.176 44.6263 139.271 48.0919 140.058 51.6323C140.652 54.2777 141.063 56.9601 141.291 59.6609C141.466 61.5609 141.553 63.4713 141.553 65.3923Z" fill="#2375EF"/>
<path d="M77.0941 130.182C65.1413 130.195 53.4158 126.939 43.2033 120.772C34.9047 115.735 27.8301 108.939 22.4856 100.87C17.5137 93.3082 14.1884 84.7979 12.7231 75.8851C11.2579 66.9722 11.6849 57.8537 13.9769 49.1144C16.2689 40.3751 20.3753 32.208 26.0325 25.1371C31.6897 18.0663 38.7729 12.2477 46.8276 8.05481C54.8823 3.86189 63.7307 1.38718 72.8051 0.789439C81.8795 0.191698 90.9796 1.48413 99.5215 4.58381C108.063 7.68349 115.858 12.522 122.407 18.7889C128.955 25.0558 134.112 32.6127 137.546 40.9748C138.945 44.3815 140.044 47.9025 140.829 51.4981C141.429 54.1774 141.846 56.8941 142.077 59.6293C142.252 61.5161 142.348 63.4581 142.348 65.3923C142.327 82.5705 135.445 99.0391 123.212 111.185C110.979 123.331 94.3933 130.163 77.0941 130.182ZM77.0941 2.17357C64.5027 2.17357 52.194 5.88128 41.7245 12.8278C31.2551 19.7744 23.0952 29.6478 18.2766 41.1995C13.4581 52.7512 12.1973 65.4624 14.6538 77.7256C17.1103 89.9889 23.1737 101.253 32.0772 110.095C40.9807 118.936 52.3244 124.957 64.674 127.396C77.0235 129.836 89.8241 128.584 101.457 123.799C113.09 119.014 123.033 110.911 130.029 100.515C137.024 90.1184 140.758 77.8957 140.758 65.3923C140.758 63.5055 140.67 61.6108 140.495 59.7635C140.27 57.1078 139.863 54.4703 139.279 51.8691C138.521 48.3631 137.457 44.9292 136.099 41.6063C131.32 29.9644 123.158 19.9994 112.654 12.9821C102.149 5.96475 89.7783 2.21297 77.118 2.20515L77.0941 2.17357Z" fill="#093F68"/>
<path d="M86.8252 117.946C85.744 119.019 85.4657 120.622 84.9569 122.059C84.4481 123.495 83.3669 124.995 81.8485 125.019C80.4493 125.019 79.3442 123.764 78.9388 122.43C78.6592 121.07 78.468 119.693 78.3664 118.309C78.1199 116.872 77.5237 115.467 77.6747 114.022C78.0325 110.477 82.6514 107.58 81.1886 104.328C80.7116 103.262 79.5986 102.409 79.6463 101.241C79.7466 100.702 79.8956 100.174 80.0915 99.662C80.7037 96.9384 77.2693 95.3122 75.3215 93.3465C72.4436 90.4097 72.6265 85.7599 73.0637 81.6864C73.5248 77.3208 74.3278 72.4578 77.8735 69.8447C81.6179 67.0659 86.8729 67.9185 91.3885 69.1658C91.8967 69.2449 92.3594 69.5027 92.6923 69.8921C93.3601 70.8789 92.1358 72.3315 92.74 73.3656C93.535 74.6919 95.4668 73.4288 96.9932 73.2551C100.467 72.8525 102.049 78.7812 105.532 78.5365C106.366 78.4733 107.233 78.047 108.004 78.3707C108.775 78.6944 109.061 79.6338 109.697 80.1785C111.597 81.8285 115.445 79.3891 116.781 81.4969C116.957 81.8128 117.083 82.1536 117.154 82.5074C117.83 85.2468 118.116 88.823 115.652 90.2124C114.722 90.7413 113.497 90.8676 112.877 91.736C111.884 93.1175 113.251 95.0675 112.822 96.7174C112.556 97.4694 112.082 98.1316 111.454 98.6279C110.067 99.8783 108.486 100.899 106.772 101.651C106.125 101.876 105.52 102.207 104.983 102.63C104.093 103.42 103.87 104.762 103.194 105.788C102.694 106.448 102.094 107.026 101.413 107.501C98.8423 109.328 96.3938 111.319 94.0835 113.462C91.8814 115.577 88.9001 115.932 86.8252 117.946Z" fill="#70CC40"/>
<path d="M81.8168 125.84C79.9803 125.84 78.6368 124.214 78.1757 122.682C77.9396 121.81 77.7983 120.916 77.7543 120.014C77.7543 119.469 77.6669 118.964 77.5874 118.435C77.5079 117.906 77.3966 117.559 77.2853 117.125C76.9684 116.103 76.8312 115.035 76.8798 113.967C77.0547 112.262 78.0405 110.809 78.9866 109.348C80.1393 107.628 81.1251 106.143 80.4653 104.675C80.2952 104.336 80.0929 104.013 79.8611 103.712C79.3694 103.245 79.0362 102.638 78.908 101.974C78.7798 101.311 78.8628 100.624 79.1456 100.009C79.2121 99.8339 79.2678 99.6547 79.3125 99.4725C79.6385 98.0515 78.438 96.9621 76.5698 95.4464C75.9301 94.9555 75.3196 94.4284 74.7413 93.8675C71.7441 90.7965 71.7759 86.1467 72.2609 81.5679C72.7458 76.9892 73.5726 71.9999 77.3886 69.1658C81.5067 66.1106 87.1353 67.129 91.5794 68.3763C91.9653 68.4126 92.3365 68.5417 92.6608 68.7524C92.9852 68.9632 93.2529 69.2493 93.4408 69.586C93.6288 69.9227 93.7312 70.2998 93.7393 70.6846C93.7474 71.0694 93.661 71.4504 93.4874 71.7946C93.3761 72.2604 93.2648 72.7104 93.4079 72.9472C93.551 73.184 94.1154 73.1761 95.292 72.8209C95.8087 72.6446 96.3411 72.5177 96.882 72.442C99.0444 72.1893 100.539 73.8472 101.859 75.3155C103.019 76.5944 104.109 77.8102 105.452 77.6839C105.696 77.6583 105.938 77.6161 106.176 77.5576C106.862 77.3329 107.604 77.3329 108.29 77.5576C108.87 77.8475 109.351 78.3005 109.674 78.8602C109.821 79.0916 109.995 79.3061 110.19 79.4996C110.834 80.0522 111.947 79.9338 113.132 79.8075C114.722 79.6417 116.463 79.4522 117.433 80.9917C117.652 81.3783 117.811 81.7964 117.902 82.2311C118.967 86.5414 118.315 89.5019 116.026 90.8123C115.655 91.0103 115.27 91.1792 114.873 91.3176C114.349 91.4482 113.873 91.7216 113.498 92.107C113.14 92.6123 113.283 93.3543 113.458 94.2227C113.692 95.0719 113.727 95.9631 113.561 96.8279C113.267 97.7307 112.715 98.529 111.971 99.1252C110.526 100.436 108.874 101.503 107.082 102.283L106.835 102.386C106.355 102.56 105.907 102.81 105.508 103.128C105.09 103.583 104.773 104.121 104.578 104.707C104.378 105.205 104.13 105.684 103.838 106.135C103.291 106.865 102.631 107.505 101.883 108.03L100.157 109.341C98.1946 110.736 96.3349 112.269 94.5924 113.927C93.4288 115.003 92.0831 115.866 90.6174 116.477C89.4184 116.976 88.3114 117.67 87.342 118.53C86.673 119.338 86.2094 120.293 85.9905 121.316C85.8792 121.664 85.7759 122.011 85.6566 122.343C84.8616 124.498 83.4545 125.801 81.8168 125.832V125.84ZM84.2018 68.7237C82.1169 68.6388 80.0616 69.235 78.3506 70.421C75.0434 72.8762 74.2961 77.526 73.8509 81.7258C73.4057 85.9257 73.3421 90.1571 75.8861 92.7781C76.379 93.2675 76.9593 93.7412 77.5794 94.2464C79.392 95.7069 81.4352 97.3647 80.8707 99.8436C80.8122 100.088 80.7379 100.328 80.6481 100.562C80.545 100.815 80.4781 101.08 80.4494 101.351C80.5234 101.914 80.7737 102.438 81.1649 102.851C81.4705 103.235 81.7368 103.647 81.9599 104.083C82.9775 106.349 81.6419 108.346 80.3699 110.28C79.5272 111.551 78.6527 112.862 78.5175 114.18C78.4882 115.078 78.6118 115.975 78.8832 116.832C79.0025 117.29 79.1217 117.772 79.2092 118.253C79.2966 118.735 79.3523 119.398 79.4 119.951C79.4286 120.751 79.5459 121.545 79.7498 122.319C80.0678 123.337 80.8946 124.372 81.8963 124.348C82.898 124.324 83.844 123.077 84.2813 121.909C84.3926 121.593 84.4959 121.269 84.5993 120.945C84.8827 119.671 85.4841 118.487 86.3483 117.503C87.4376 116.513 88.6874 115.712 90.045 115.135C91.3417 114.59 92.5354 113.829 93.5748 112.885C95.3545 111.172 97.2569 109.589 99.267 108.149L100.976 106.846C101.582 106.419 102.118 105.902 102.566 105.314C102.802 104.941 103.005 104.547 103.17 104.138C103.451 103.359 103.896 102.649 104.474 102.054C105.003 101.611 105.606 101.264 106.255 101.028L106.486 100.925C108.119 100.21 109.625 99.2365 110.946 98.0436C111.459 97.6494 111.852 97.1222 112.082 96.52C112.174 95.8814 112.131 95.2306 111.955 94.6096C111.741 93.5438 111.502 92.336 112.257 91.2781C112.804 90.6244 113.539 90.1531 114.364 89.9282C114.683 89.8219 114.992 89.6872 115.286 89.5255C117.329 88.3651 117.027 85.1757 116.407 82.6969C116.359 82.4213 116.268 82.1549 116.137 81.9074C115.724 81.2443 114.809 81.2995 113.354 81.4574C111.9 81.6153 110.365 81.7811 109.205 80.7706C108.901 80.4943 108.634 80.1813 108.41 79.8391C108.245 79.5337 108.004 79.2754 107.71 79.0891C107.329 79.0063 106.933 79.0309 106.565 79.1601C106.245 79.2203 105.921 79.2546 105.595 79.2628C103.465 79.4128 102.002 77.7865 100.698 76.3418C99.5294 75.0471 98.4243 73.8314 97.0887 73.9735C96.6437 74.0476 96.2052 74.1558 95.777 74.2972C94.5606 74.6682 92.8991 75.1734 92.0484 73.6972C91.7158 72.9727 91.6844 72.1472 91.961 71.3999C92.0723 70.9262 92.1836 70.4841 92.0325 70.2631C91.7866 70.0568 91.4906 69.918 91.1739 69.8605C88.908 69.1771 86.5609 68.7949 84.1938 68.7237H84.2018Z" fill="#093F68"/>
<path d="M70.3926 68.2106C68.0076 65.8422 64.8276 64.3975 61.7192 63.0002C61.1459 62.6957 60.5151 62.5129 59.8668 62.4634C59.1751 62.5381 58.4962 62.7027 57.8475 62.9529C53.7056 64.066 49.8021 60.1977 48.3075 56.2031C46.8129 52.2085 46.5108 47.7166 44.2053 44.1246C42.3371 41.2116 39.9521 37.6433 42.8697 34.4302C43.5874 33.794 44.267 33.1165 44.9049 32.4014C47.2104 29.1962 43.8237 24.1359 46.2008 20.9939C46.9958 19.9202 48.4029 19.2729 48.8879 18.0177C49.3728 16.7625 48.713 15.2546 48.4347 13.8652C47.3058 8.37857 54.7152 11.3706 56.9253 12.9495C58.7856 14.2362 60.1769 16.2099 62.2598 17.1019C64.5653 18.0887 67.2762 17.5203 69.4784 16.3125C69.8884 16.0188 70.38 15.8588 70.8855 15.8546C71.9667 15.9809 72.245 17.4335 71.9906 18.4835C71.7362 19.5334 71.2353 20.6702 71.7521 21.6412C72.3404 22.7228 73.8827 22.8333 74.8049 23.6543C75.9179 24.6411 75.8702 26.3305 76.0451 27.7989C76.22 29.2673 77.1104 31.0198 78.597 30.9014C79.5669 30.8304 80.2586 29.962 81.0854 29.4488C81.9122 28.9357 83.375 29.0304 83.4704 29.9936C83.478 30.2307 83.4374 30.467 83.3511 30.6883L79.4477 43.0273C79.3378 43.9958 78.8709 44.8896 78.137 45.5368C77.4032 46.1839 76.4541 46.5386 75.4727 46.5324C71.5401 47.2956 67.6472 48.235 63.7941 49.3507C62.4661 49.6276 61.23 50.2331 60.2007 51.1112C59.2547 52.0743 58.8731 53.7164 59.7317 54.7584C60.9878 54.4506 61.9736 55.9268 62.1167 57.2136C62.3154 59.1556 62.1167 60.1503 63.6033 61.6187C64.8942 62.7624 66.3358 63.7265 67.8884 64.4844C69.8063 65.4552 71.5092 66.7973 72.8969 68.4316C74.0178 69.9079 75.0116 72.3788 74.1132 74.1788C73.3182 73.6262 73.1751 72.363 72.7697 71.5104C72.177 70.2813 71.3726 69.1646 70.3926 68.2106Z" fill="#70CC40"/>
<path d="M74.1208 74.9603C73.9599 74.9594 73.8027 74.9128 73.6676 74.8261C72.9994 74.2563 72.5361 73.4859 72.3479 72.6314C72.2687 72.3617 72.1704 72.0979 72.0538 71.842C71.5007 70.6929 70.7501 69.6483 69.8357 68.7553C67.4507 66.4501 64.39 65.0606 61.3849 63.7028C60.9155 63.4476 60.399 63.2892 59.8664 63.237C59.4648 63.2595 59.0686 63.3392 58.6898 63.4739C58.4831 63.537 58.2764 63.6081 58.0618 63.6633C53.4985 64.8949 49.2373 60.8608 47.5439 56.4399C46.9877 54.8893 46.5232 53.3077 46.1527 51.7033C45.5008 49.106 44.8807 46.6508 43.5133 44.5272L43.4258 44.3851C41.5496 41.4721 38.9897 37.4854 42.2651 33.8776C42.5546 33.5674 42.8625 33.2748 43.1873 33.0013C43.5756 32.6771 43.9298 32.3147 44.2447 31.9198C45.2066 30.5777 44.9761 28.762 44.7217 26.7884C44.4434 24.6016 44.1572 22.3359 45.5167 20.4728C45.8915 20.0033 46.3182 19.577 46.7887 19.2018C47.345 18.8049 47.802 18.2863 48.1243 17.6861C48.3172 16.818 48.2395 15.9121 47.9017 15.0888C47.8063 14.7099 47.7029 14.2994 47.6234 13.9757C47.2021 11.8521 47.9573 10.8179 48.6649 10.3916C51.0022 8.868 55.9391 11.26 57.4099 12.2547C58.1692 12.804 58.8867 13.4083 59.5564 14.0625C60.4343 14.9875 61.4672 15.7541 62.6092 16.3283C64.4377 17.1177 66.8147 16.8414 69.1282 15.5862C69.6803 15.2068 70.3415 15.0157 71.0123 15.0415C71.2903 15.0727 71.5581 15.1637 71.797 15.3083C72.0359 15.4528 72.2402 15.6473 72.3956 15.8783C72.643 16.2897 72.8055 16.7458 72.8737 17.2202C72.9419 17.6945 72.9146 18.1776 72.7931 18.6413C72.7454 18.8387 72.6818 19.0439 72.6262 19.2413C72.3453 19.859 72.2946 20.5557 72.4831 21.207C72.8129 21.6447 73.2711 21.9701 73.7948 22.1386C74.3695 22.353 74.9062 22.6568 75.3848 23.0385C76.5455 24.0727 76.6886 25.62 76.8079 26.9858C76.8079 27.2331 76.8317 27.4699 76.8794 27.6963C76.9987 28.7067 77.6029 30.1751 78.5807 30.0646C79.0833 29.9482 79.5414 29.6906 79.9004 29.3225C80.1546 29.1112 80.42 28.9136 80.6954 28.7304C81.0864 28.4877 81.5309 28.3429 81.9906 28.3085C82.4504 28.2741 82.9117 28.3512 83.3348 28.5331C83.5979 28.6526 83.8246 28.8388 83.9921 29.073C84.1596 29.3073 84.2619 29.5812 84.2888 29.8672C84.3083 30.2108 84.2569 30.5546 84.1378 30.8777L80.2423 43.2167C79.9938 44.3059 79.443 45.3041 78.6523 46.0982C77.7771 46.7426 76.7458 47.1457 75.6631 47.2666C71.7676 48.056 67.8641 48.956 64.0561 50.0612C62.8581 50.3144 61.7414 50.8566 60.8045 51.6401C60.5048 51.9253 60.2887 52.286 60.1795 52.6837C60.0703 53.0814 60.072 53.5011 60.1844 53.8979C60.6284 53.9169 61.0569 54.0652 61.4167 54.3242C61.846 54.6595 62.202 55.0781 62.463 55.5545C62.7241 56.0309 62.8847 56.5551 62.9351 57.0952C62.9351 57.4346 62.9908 57.7425 63.0146 58.0267C63.118 59.3451 63.1657 60.0082 64.1912 61.0345C65.2646 61.9902 66.4593 62.8024 67.7449 63.4502L68.3093 63.7739C70.3287 64.7898 72.115 66.2088 73.5563 67.9421C74.9396 69.7579 75.8777 72.5051 74.8522 74.5182C74.8017 74.6186 74.7301 74.7072 74.6424 74.778C74.5547 74.8487 74.4527 74.9001 74.3434 74.9287C74.2709 74.949 74.1961 74.9596 74.1208 74.9603ZM70.9408 67.6342C71.8842 68.5584 72.6756 69.624 73.286 70.792C73.0313 70.1186 72.6834 69.4836 72.2525 68.9053C71.4965 67.9507 70.5921 67.122 69.5734 66.4501C70.0513 66.8217 70.5078 67.2197 70.9408 67.6421V67.6342ZM59.8108 61.6581C60.5725 61.7028 61.3155 61.9101 61.9891 62.266C62.8556 62.6607 63.754 63.0555 64.6603 63.5054C64.0616 63.1095 63.5026 62.6575 62.9908 62.1555C62.4467 61.6425 62.0191 61.0201 61.7367 60.3299C61.4542 59.6396 61.3235 58.8975 61.3531 58.153C61.3531 57.8767 61.3054 57.5846 61.2736 57.2688C61.2144 56.6329 60.9095 56.0444 60.4229 55.6268C60.3496 55.5643 60.2622 55.5203 60.1681 55.4983C60.0741 55.4763 59.9761 55.4771 59.8823 55.5005C59.7378 55.5339 59.5867 55.5264 59.4462 55.479C59.3057 55.4316 59.1814 55.346 59.0873 55.2321C57.9107 53.8111 58.4275 51.7269 59.612 50.4954C60.7308 49.5136 62.0866 48.8364 63.5473 48.5297C67.403 47.4166 71.3542 46.4613 75.2974 45.6956C76.1021 45.6239 76.8758 45.3525 77.5472 44.9061C78.105 44.2971 78.4868 43.5497 78.6523 42.7431L82.5478 30.404C82.5945 30.2824 82.6239 30.1548 82.6352 30.0251C82.6352 30.0251 82.6352 29.9777 82.5637 29.9462C82.3845 29.8857 82.1941 29.865 82.0059 29.8854C81.8177 29.9059 81.6364 29.9671 81.4745 30.0646C81.243 30.2182 81.0201 30.3843 80.8067 30.5619C80.2061 31.1398 79.4392 31.5177 78.6125 31.6435C76.6807 31.7856 75.4325 29.8435 75.2099 27.8462L75.1384 27.0568C75.035 25.8805 74.9317 24.7753 74.2321 24.1516C73.8825 23.8863 73.4972 23.6711 73.0873 23.5122C72.2362 23.2332 71.505 22.6768 71.0123 21.9333C70.432 20.8754 70.7659 19.715 71.0123 18.7755C71.06 18.594 71.1157 18.4045 71.1554 18.2229C71.2943 17.7261 71.2374 17.1955 70.9964 16.7388C70.9681 16.6926 70.9299 16.6531 70.8846 16.6231C70.8393 16.5931 70.7879 16.5733 70.7341 16.5651C70.4221 16.6027 70.1243 16.7167 69.8675 16.8967C67.0612 18.4203 64.1753 18.7203 61.9175 17.7414C60.603 17.0987 59.4133 16.2301 58.4036 15.1757C57.7903 14.5742 57.1341 14.0175 56.44 13.5099C54.85 12.3889 50.875 10.7942 49.5076 11.6705C49.0703 11.9547 48.9511 12.61 49.1578 13.6205C49.2214 13.9599 49.3168 14.2915 49.4042 14.6309C49.8484 15.7733 49.9097 17.0274 49.5791 18.2071C49.1803 19.0555 48.5768 19.793 47.8222 20.3544C47.4385 20.6579 47.0893 21.002 46.7807 21.3807C45.779 22.707 45.9857 24.5385 46.264 26.5279C46.5343 28.6909 46.8205 30.933 45.469 32.7724C45.0867 33.2645 44.6522 33.7144 44.1731 34.1144C43.8921 34.3611 43.6266 34.6248 43.3781 34.9039C41.0885 37.4222 42.4798 40.0589 44.6978 43.5009L44.7853 43.643C46.2958 46.0114 46.9636 48.6797 47.6234 51.2848C47.9791 52.8381 48.425 54.3695 48.959 55.8715C50.4218 59.6924 54.047 63.0791 57.5768 62.1318L58.1254 61.966C58.6812 61.7662 59.2674 61.662 59.8585 61.6581H59.8108Z" fill="#093F68"/>
<path d="M91.4677 13.0679L87.7868 12.539C87.3943 12.4442 86.9824 12.4662 86.6023 12.6021C86.0458 12.8705 85.855 13.5495 85.4416 13.9995C84.8676 14.4722 84.1979 14.8169 83.4779 15.0099C82.7942 15.302 82.0946 15.8783 82.1662 16.5888C82.2616 17.6625 83.6926 17.8914 84.7658 18.0809C86.2869 18.3443 87.6813 19.0893 88.7408 20.2045C89.7107 21.2387 90.6568 22.6991 92.0719 22.5728C92.7658 22.3711 93.4479 22.1313 94.115 21.8544C95.4029 21.5939 96.5875 22.5176 97.7959 23.0307C98.7515 23.4193 99.7905 23.5616 100.816 23.4443C101.842 23.3269 102.821 22.9538 103.663 22.3597C106.692 20.165 101.675 16.8888 99.529 16.2967C98.2252 15.9415 96.6988 16.2967 95.4824 15.6336C93.7891 14.71 93.6698 13.3758 91.4677 13.0679Z" fill="#70CC40"/>
<path d="M100.07 24.2859C99.1724 24.2897 98.2831 24.1152 97.4544 23.7728C97.1205 23.6307 96.7946 23.4649 96.4686 23.2991C95.8178 22.8469 95.0365 22.617 94.2426 22.6439C93.9829 22.712 93.7321 22.81 93.4953 22.936C93.0653 23.1593 92.6003 23.3088 92.12 23.3781C90.53 23.528 89.4726 22.3044 88.614 21.3176L88.1291 20.7729C87.1964 19.7885 85.9704 19.1272 84.6311 18.8861C83.4306 18.6809 81.5306 18.3414 81.3716 16.6915C81.385 16.16 81.5655 15.646 81.8876 15.2213C82.2098 14.7967 82.6575 14.4826 83.1683 14.3231L83.7089 14.11C84.132 14.0005 84.5239 13.7951 84.8537 13.51C84.9699 13.372 85.0737 13.2241 85.1637 13.0679C85.4051 12.59 85.7842 12.1942 86.2529 11.9311C86.7757 11.7245 87.3488 11.6777 87.8985 11.7969L91.5794 12.3258C92.7475 12.4841 93.8152 13.0662 94.5765 13.96C94.9465 14.3699 95.375 14.7237 95.8485 15.0099C96.4786 15.2847 97.1647 15.4091 97.8519 15.3731C98.4787 15.373 99.1032 15.4472 99.7122 15.5941C101.453 16.0757 104.927 18.144 105.333 20.3782C105.424 20.8957 105.355 21.4285 105.135 21.9063C104.915 22.3841 104.555 22.7844 104.101 23.0544C102.92 23.8735 101.51 24.3042 100.07 24.2859ZM94.505 21.0334C95.4469 21.1038 96.3578 21.399 97.1603 21.8939C97.4465 22.0439 97.7406 22.1939 98.0348 22.3123C98.8636 22.6536 99.7663 22.7797 100.658 22.6789C101.549 22.5781 102.4 22.2536 103.131 21.736C103.759 21.2781 103.783 20.8992 103.727 20.6229C103.481 19.2808 100.841 17.5125 99.2432 17.0783C98.7557 16.9667 98.2568 16.9111 97.7565 16.9125C96.8084 16.9478 95.8662 16.7498 95.0138 16.3362C94.4227 15.9781 93.8871 15.5367 93.4238 15.0257C92.9086 14.3772 92.158 13.9549 91.3329 13.8495L87.6521 13.3205C87.5436 13.2628 87.423 13.2308 87.3 13.2272C87.1769 13.2235 87.0547 13.2483 86.9429 13.2996C86.8311 13.3509 86.7329 13.4273 86.6559 13.5227C86.579 13.6181 86.5253 13.73 86.4993 13.8495C86.3647 14.0937 86.202 14.3215 86.0144 14.5284C85.5199 15.0092 84.9137 15.3617 84.2495 15.5547L83.7725 15.7362C83.2716 15.9494 82.9139 16.2967 82.9775 16.5257C82.9775 16.9836 84.1779 17.1809 84.8696 17.3151C86.5705 17.6047 88.1304 18.436 89.3136 19.6835L89.8463 20.2834C90.681 21.2387 91.2852 21.8623 91.9928 21.7992C92.29 21.7384 92.5766 21.6347 92.8434 21.4913C93.1929 21.3168 93.5608 21.1818 93.9405 21.0887C94.1399 21.0526 94.3421 21.0341 94.5447 21.0334H94.505Z" fill="#093F68"/>
<path d="M140.058 51.6323C139.064 48.1508 138.023 44.6615 136.815 41.2432C133.426 32.981 128.335 25.5137 121.869 19.3203C121.217 19.3993 120.771 19.9361 120.748 21.1992C120.748 22.8175 122.377 24.3964 123.045 25.7464C124.246 28.1621 123.212 28.2252 122.369 30.4831C121.797 31.983 122.95 33.554 124.102 34.675C125.255 35.796 126.607 37.0433 126.487 38.6222C126.36 41.0774 122.878 42.9247 123.808 45.2062C124.222 46.2009 125.398 46.7298 125.812 47.7166C126.4 49.035 125.502 50.5349 125.518 51.9796C125.518 53.6533 126.782 55.0348 127.68 56.4479C128.578 57.861 129.127 59.9057 127.934 61.0977C127.537 61.5003 126.98 61.7529 126.686 62.2266C126.09 63.174 126.79 64.3818 127.481 65.266L129.803 68.3211C130.056 68.7056 130.389 69.0314 130.78 69.2764C131.719 69.7737 132.871 69.2764 133.754 68.6685C136.403 66.9333 138.616 64.619 140.225 61.9029C140.668 61.2004 141.018 60.4442 141.267 59.653L140.058 51.6323Z" fill="#70CC40"/>
<path d="M131.631 70.3105C131.212 70.3125 130.799 70.2093 130.431 70.0105C129.937 69.715 129.514 69.3163 129.191 68.8422L126.869 65.7791C125.661 64.2002 125.383 62.8976 126.074 61.8319C126.322 61.4698 126.638 61.1588 127.004 60.9161C127.152 60.809 127.293 60.693 127.426 60.5688C128.268 59.732 127.847 58.1215 127.068 56.8979C126.893 56.6137 126.694 56.3295 126.504 56.0532C125.709 54.8927 124.802 53.5822 124.786 52.0112C124.798 51.384 124.889 50.7608 125.057 50.156C125.341 49.6427 125.423 49.0432 125.288 48.4731C125.153 47.9031 124.81 47.4029 124.325 47.0693C123.822 46.6457 123.416 46.121 123.133 45.5299C122.449 43.8483 123.498 42.4352 124.429 41.1879C125.1 40.4641 125.56 39.5713 125.756 38.6064C125.82 37.4065 124.731 36.3407 123.673 35.3223L123.578 35.2197C121.257 32.9698 121.249 31.2725 121.654 30.1909C121.862 29.6449 122.114 29.1169 122.409 28.6121C122.902 27.7121 123.037 27.4674 122.362 26.1016C122.124 25.6564 121.859 25.2266 121.567 24.8148C120.819 23.7491 119.977 22.5333 119.977 21.1913C120.016 19.0756 121.129 18.6256 121.789 18.5466C121.907 18.5316 122.027 18.5429 122.139 18.5798C122.252 18.6166 122.355 18.6782 122.441 18.7598C128.99 25.0215 134.136 32.5828 137.546 40.9511C138.842 44.6141 139.931 48.3008 140.821 51.427C140.825 51.4585 140.825 51.4903 140.821 51.5217L142.054 59.5504C142.081 59.6619 142.081 59.7784 142.054 59.8899C141.788 60.7468 141.409 61.5645 140.925 62.3213C139.258 65.1396 136.963 67.5406 134.215 69.3395C133.469 69.9092 132.57 70.247 131.631 70.3105ZM121.718 20.315C121.584 20.6067 121.524 20.9265 121.543 21.2465C121.543 22.0834 122.179 23.0228 122.815 23.9385C123.166 24.4107 123.48 24.9096 123.753 25.4306C124.747 27.4279 124.405 28.241 123.753 29.3778C123.499 29.8162 123.278 30.2727 123.093 30.7436C122.672 31.8567 123.697 33.1829 124.683 34.0987L124.778 34.1934C125.963 35.3381 127.442 36.7749 127.33 38.6854C127.14 39.9669 126.573 41.1642 125.701 42.1273C124.802 43.3352 124.27 44.1167 124.596 44.9378C124.798 45.3168 125.067 45.6564 125.391 45.9404C125.87 46.3551 126.267 46.8559 126.559 47.4166C126.901 48.4176 126.901 49.5024 126.559 50.5034C126.421 50.9895 126.344 51.4906 126.329 51.9954C126.329 53.0848 127.036 54.0953 127.768 55.1532C127.974 55.4532 128.173 55.7453 128.364 56.0453C129.405 57.6715 130.065 60.1188 128.515 61.6661C128.326 61.8485 128.124 62.0174 127.911 62.1713C127.705 62.3014 127.524 62.4672 127.378 62.6608C127.036 63.1976 127.593 64.1213 128.117 64.8002L130.447 67.8632C130.632 68.1515 130.872 68.4009 131.154 68.5974C131.758 68.9132 132.665 68.4632 133.317 68.029C135.866 66.3597 137.996 64.1315 139.542 61.5161C139.922 60.9204 140.228 60.2816 140.456 59.6135L139.263 51.8059C138.381 48.7113 137.308 45.072 136.044 41.5432C132.788 33.5649 127.911 26.3386 121.718 20.315Z" fill="#093F68"/>
<path d="M43.5849 120.101C35.3801 115.133 28.3903 108.416 23.1216 100.436C23.3564 100.202 23.6032 99.9809 23.8609 99.7726C25.272 98.597 26.9669 97.8063 28.779 97.4783C30.591 97.1502 32.4579 97.2961 34.1959 97.9016C37.8688 99.3226 40.2061 102.844 42.297 106.159C43.1556 107.525 44.0539 109.088 43.6644 110.651C43.3384 111.938 42.1857 112.917 41.9074 114.227C41.7873 115.317 42.0006 116.418 42.5196 117.385C42.9012 118.277 43.3066 119.177 43.5849 120.101Z" fill="#70CC40"/>
<path d="M43.5852 120.89C43.4391 120.889 43.296 120.848 43.1718 120.772C34.8732 115.735 27.7986 108.939 22.4541 100.87C22.353 100.718 22.3081 100.536 22.327 100.354C22.3458 100.173 22.4272 100.004 22.5574 99.8753C22.8118 99.6226 23.0821 99.3858 23.3524 99.1569C24.8715 97.8897 26.6981 97.0394 28.6507 96.6904C30.6032 96.3414 32.6137 96.5059 34.4824 97.1675C38.5528 98.7463 41.1048 102.788 42.9651 105.741C43.9588 107.32 44.889 109.009 44.4359 110.841C44.2231 111.542 43.8954 112.203 43.466 112.798C43.1158 113.278 42.8472 113.811 42.671 114.377C42.6019 115.303 42.8005 116.229 43.2434 117.046L43.4739 117.598C43.7839 118.325 44.1019 119.075 44.3563 119.832C44.4086 119.986 44.4123 120.151 44.3668 120.306C44.3213 120.462 44.2288 120.599 44.1019 120.701C43.9579 120.823 43.7747 120.89 43.5852 120.89ZM24.1872 100.578C28.9037 107.533 34.9552 113.497 41.9952 118.127L41.7964 117.677C41.2505 116.805 40.9909 115.785 41.0535 114.76C41.1162 113.735 41.498 112.754 42.1462 111.954C42.4866 111.5 42.7548 110.997 42.9412 110.462C43.2433 109.23 42.4801 107.864 41.6692 106.578C39.4035 102.994 37.2649 99.9226 33.9498 98.6358C32.3445 98.0751 30.6195 97.9411 28.9459 98.2471C27.2724 98.5532 25.7086 99.2886 24.4098 100.381L24.1872 100.578Z" fill="#093F68"/>
<path d="M36.1676 101.47C35.9814 101.468 35.8018 101.401 35.6602 101.281C35.5185 101.161 35.4238 100.995 35.3926 100.813C35.3614 100.631 35.3956 100.443 35.4893 100.283C35.583 100.124 35.7302 100.001 35.9052 99.9384L104.323 76.2551C104.52 76.1957 104.732 76.2146 104.916 76.3076C105.099 76.4006 105.239 76.5605 105.305 76.7538C105.372 76.947 105.361 77.1585 105.274 77.3437C105.188 77.529 105.032 77.6736 104.84 77.7471L36.422 101.43C36.3403 101.459 36.2541 101.472 36.1676 101.47Z" fill="white"/>
<path d="M36.1675 101.47C36.0961 101.478 36.0242 101.478 35.9528 101.47C35.8512 101.443 35.756 101.395 35.6728 101.331C35.5897 101.267 35.5202 101.187 35.4684 101.096C35.4166 101.005 35.3836 100.905 35.3712 100.801C35.3589 100.697 35.3674 100.592 35.3963 100.491L54.1424 33.9408C54.1621 33.8329 54.2042 33.7302 54.266 33.6393C54.3278 33.5484 54.4081 33.4713 54.5016 33.4129C54.5951 33.3545 54.6998 33.3161 54.8091 33.3001C54.9184 33.2842 55.0298 33.291 55.1363 33.3202C55.2428 33.3494 55.342 33.4003 55.4275 33.4697C55.5131 33.539 55.5832 33.6253 55.6333 33.7231C55.6834 33.8209 55.7124 33.9279 55.7185 34.0374C55.7247 34.147 55.7077 34.2565 55.6688 34.3592L36.9307 100.894C36.884 101.059 36.7842 101.205 36.6464 101.309C36.5087 101.413 36.3405 101.469 36.1675 101.47Z" fill="white"/>
<path d="M104.578 77.8103C104.373 77.8094 104.176 77.7303 104.029 77.5892C103.955 77.5158 103.895 77.4285 103.855 77.3323C103.815 77.2361 103.794 77.1329 103.794 77.0287C103.794 76.9245 103.815 76.8213 103.855 76.7251C103.895 76.6289 103.955 76.5416 104.029 76.4682L133.508 45.9641C133.657 45.817 133.858 45.7345 134.068 45.7345C134.278 45.7345 134.48 45.817 134.629 45.9641C134.703 46.0375 134.762 46.1248 134.803 46.221C134.843 46.3172 134.864 46.4204 134.864 46.5246C134.864 46.6288 134.843 46.732 134.803 46.8282C134.762 46.9244 134.703 47.0117 134.629 47.0851L105.158 77.5892C105.081 77.6629 104.99 77.7204 104.89 77.7584C104.791 77.7964 104.684 77.814 104.578 77.8103Z" fill="white"/>
<path d="M85.7201 101.47C85.5423 101.468 85.3696 101.41 85.2273 101.304C85.145 101.239 85.0764 101.159 85.0255 101.068C84.9745 100.977 84.9422 100.877 84.9304 100.774C84.9185 100.67 84.9274 100.566 84.9566 100.466C84.9857 100.366 85.0345 100.272 85.1 100.191L103.973 76.5076C104.038 76.4262 104.118 76.3583 104.209 76.3077C104.301 76.2571 104.401 76.2249 104.505 76.2128C104.608 76.2007 104.713 76.209 104.814 76.2372C104.914 76.2655 105.008 76.3131 105.09 76.3774C105.172 76.4416 105.241 76.5213 105.292 76.6118C105.343 76.7024 105.375 76.802 105.387 76.905C105.399 77.008 105.391 77.1123 105.363 77.2121C105.334 77.3119 105.286 77.4052 105.221 77.4865L86.3482 101.17C86.2733 101.264 86.1779 101.34 86.069 101.392C85.9602 101.444 85.8409 101.471 85.7201 101.47Z" fill="white"/>
<path d="M104.578 76.7366C104.395 76.7352 104.218 76.6711 104.077 76.5551L56.7027 37.5723C56.555 37.4351 56.4655 37.2472 56.4524 37.0467C56.4393 36.8463 56.5037 36.6484 56.6324 36.4934C56.7611 36.3385 56.9444 36.238 57.1451 36.2126C57.3457 36.1872 57.5486 36.2387 57.7124 36.3566L103.377 73.9341L97.0172 41.1327L54.0077 34.904C53.8284 34.8794 53.6629 34.7948 53.5386 34.6642C53.4143 34.5336 53.3386 34.3647 53.324 34.1856C53.3164 34.0105 53.3678 33.8378 53.47 33.6949C53.5722 33.5519 53.7194 33.4468 53.8884 33.3961L93.8531 21.144C93.9594 21.1103 94.0717 21.0992 94.1827 21.1114C94.2936 21.1236 94.4007 21.1589 94.497 21.215C94.5933 21.272 94.6764 21.3486 94.7408 21.4398C94.8052 21.5309 94.8495 21.6346 94.8707 21.7439L98.3687 39.7512L132.84 44.7405C133.047 44.7717 133.234 44.8829 133.359 45.05C133.484 45.2171 133.537 45.4264 133.508 45.6325C133.478 45.8398 133.367 46.0269 133.198 46.1528C133.03 46.2786 132.818 46.3328 132.609 46.3036L98.6787 41.3695L105.365 75.7972C105.387 75.9515 105.362 76.1088 105.294 76.2493C105.226 76.3898 105.118 76.5072 104.983 76.5867C104.864 76.6729 104.724 76.7248 104.578 76.7366ZM57.7124 33.8461L96.6674 39.4907L93.4476 22.9123L57.7124 33.8461Z" fill="white"/>
<path d="M104.577 81.2128C106.909 81.2128 108.799 79.336 108.799 77.0208C108.799 74.7057 106.909 72.8289 104.577 72.8289C102.246 72.8289 100.356 74.7057 100.356 77.0208C100.356 79.336 102.246 81.2128 104.577 81.2128Z" fill="#F56132"/>
<path d="M104.577 81.9943C103.585 81.9943 102.615 81.7019 101.79 81.1542C100.965 80.6065 100.322 79.8281 99.9421 78.9174C99.5627 78.0067 99.4638 77.0047 99.658 76.0382C99.8522 75.0717 100.331 74.1841 101.033 73.4877C101.735 72.7914 102.63 72.3176 103.604 72.1263C104.577 71.9349 105.586 72.0347 106.503 72.413C107.419 72.7912 108.202 73.4309 108.752 74.2511C109.303 75.0713 109.596 76.0352 109.594 77.0208C109.592 78.3406 109.062 79.6056 108.122 80.5381C107.181 81.4706 105.907 81.9943 104.577 81.9943ZM104.577 73.6183C103.9 73.6183 103.237 73.8178 102.674 74.1917C102.11 74.5656 101.671 75.097 101.412 75.7187C101.153 76.3404 101.085 77.0246 101.217 77.6846C101.349 78.3446 101.675 78.9509 102.155 79.4267C102.634 79.9026 103.244 80.2266 103.909 80.3579C104.574 80.4892 105.263 80.4218 105.889 80.1643C106.515 79.9068 107.05 79.4707 107.426 78.9111C107.803 78.3516 108.004 77.6937 108.004 77.0208C108.004 76.1184 107.643 75.2529 107 74.6149C106.358 73.9768 105.486 73.6183 104.577 73.6183Z" fill="#093F68"/>
<path d="M36.1677 104.872C38.4992 104.872 40.3892 102.996 40.3892 100.68C40.3892 98.3653 38.4992 96.4885 36.1677 96.4885C33.8363 96.4885 31.9463 98.3653 31.9463 100.68C31.9463 102.996 33.8363 104.872 36.1677 104.872Z" fill="#F56132"/>
<path d="M36.1675 105.662C35.175 105.663 34.2043 105.373 33.3783 104.826C32.5523 104.28 31.9081 103.502 31.5272 102.592C31.1463 101.682 31.0458 100.68 31.2385 99.7135C31.4312 98.7467 31.9083 97.8584 32.6095 97.1609C33.3108 96.4635 34.2046 95.9882 35.1779 95.7954C36.1512 95.6025 37.1603 95.7007 38.0774 96.0775C38.9945 96.4543 39.7784 97.0928 40.33 97.9122C40.8815 98.7315 41.176 99.6949 41.176 100.68C41.1739 102 40.6458 103.264 39.7072 104.198C38.7686 105.131 37.4959 105.658 36.1675 105.662ZM36.1675 97.2859C35.4891 97.2843 34.8255 97.4827 34.2609 97.856C33.6962 98.2293 33.2557 98.7606 32.9954 99.3826C32.7351 100.005 32.6666 100.689 32.7985 101.35C32.9305 102.011 33.257 102.618 33.7367 103.094C34.2163 103.571 34.8276 103.895 35.493 104.026C36.1584 104.157 36.848 104.089 37.4744 103.83C38.1009 103.572 38.6359 103.135 39.0118 102.574C39.3877 102.013 39.5875 101.354 39.586 100.68C39.5839 99.7808 39.223 98.9186 38.5824 98.2824C37.9418 97.6463 37.0735 97.288 36.1675 97.2859Z" fill="#093F68"/>
<path d="M86.7693 104.872C89.1008 104.872 90.9908 102.996 90.9908 100.68C90.9908 98.3653 89.1008 96.4885 86.7693 96.4885C84.4379 96.4885 82.5479 98.3653 82.5479 100.68C82.5479 102.996 84.4379 104.872 86.7693 104.872Z" fill="#FFBC0E"/>
<path d="M86.7695 105.662C85.777 105.663 84.8064 105.373 83.9804 104.826C83.1544 104.28 82.5102 103.502 82.1293 102.592C81.7484 101.682 81.6479 100.68 81.8405 99.7135C82.0332 98.7467 82.5103 97.8584 83.2116 97.1609C83.9128 96.4635 84.8067 95.9882 85.78 95.7954C86.7533 95.6025 87.7623 95.7007 88.6794 96.0775C89.5965 96.4543 90.3805 97.0928 90.932 97.9122C91.4836 98.7315 91.778 99.6949 91.778 100.68C91.7759 102 91.2478 103.264 90.3092 104.198C89.3706 105.131 88.0979 105.658 86.7695 105.662ZM86.7695 97.2859C86.0912 97.2843 85.4276 97.4827 84.8629 97.856C84.2982 98.2293 83.8578 98.7606 83.5975 99.3826C83.3371 100.005 83.2686 100.689 83.4006 101.35C83.5325 102.011 83.859 102.618 84.3387 103.094C84.8184 103.571 85.4297 103.895 86.0951 104.026C86.7605 104.157 87.4501 104.089 88.0765 103.83C88.7029 103.572 89.238 103.135 89.6139 102.574C89.9898 102.013 90.1896 101.354 90.188 100.68C90.1859 99.7808 89.8251 98.9186 89.1844 98.2824C88.5438 97.6463 87.6755 97.288 86.7695 97.2859Z" fill="#093F68"/>
<path d="M54.906 38.3143C57.2375 38.3143 59.1275 36.4375 59.1275 34.1224C59.1275 31.8072 57.2375 29.9304 54.906 29.9304C52.5746 29.9304 50.6846 31.8072 50.6846 34.1224C50.6846 36.4375 52.5746 38.3143 54.906 38.3143Z" fill="#FFBC0E"/>
<path d="M54.9056 39.1038C53.9135 39.1038 52.9436 38.8116 52.1186 38.2643C51.2937 37.7169 50.6507 36.9389 50.271 36.0287C49.8913 35.1185 49.792 34.1169 49.9856 33.1506C50.1791 32.1843 50.6569 31.2967 51.3584 30.6C52.06 29.9033 52.9539 29.4289 53.927 29.2367C54.9001 29.0445 55.9087 29.1431 56.8253 29.5202C57.742 29.8972 58.5254 30.5357 59.0766 31.3549C59.6279 32.1741 59.9221 33.1372 59.9221 34.1224C59.92 35.4429 59.3908 36.7087 58.4505 37.6425C57.5102 38.5762 56.2354 39.1017 54.9056 39.1038ZM54.9056 30.7278C54.2276 30.7278 53.5648 30.9275 53.0012 31.3018C52.4375 31.676 51.9983 32.2078 51.7392 32.83C51.4801 33.4522 51.4127 34.1367 51.5456 34.797C51.6785 35.4572 52.0056 36.0635 52.4856 36.539C52.9656 37.0145 53.5768 37.338 54.242 37.4684C54.9072 37.5988 55.5964 37.5303 56.2224 37.2715C56.8483 37.0128 57.3829 36.5754 57.7585 36.0149C58.134 35.4543 58.3336 34.7957 58.3321 34.1224C58.33 33.2214 57.968 32.3579 57.3257 31.7216C56.6833 31.0852 55.813 30.7278 54.9056 30.7278Z" fill="#093F68"/>
<path d="M95.2044 25.1937C97.5358 25.1937 99.4258 23.3169 99.4258 21.0018C99.4258 18.6866 97.5358 16.8098 95.2044 16.8098C92.8729 16.8098 90.9829 18.6866 90.9829 21.0018C90.9829 23.3169 92.8729 25.1937 95.2044 25.1937Z" fill="#F56132"/>
<path d="M95.2044 25.9832C94.2123 25.9832 93.2424 25.691 92.4174 25.1437C91.5925 24.5963 90.9495 23.8183 90.5699 22.9081C90.1902 21.9978 90.0908 20.9963 90.2844 20.03C90.4779 19.0637 90.9557 18.1761 91.6573 17.4794C92.3588 16.7827 93.2527 16.3083 94.2258 16.1161C95.1989 15.9239 96.2075 16.0225 97.1241 16.3996C98.0408 16.7766 98.8243 17.4151 99.3755 18.2343C99.9267 19.0535 100.221 20.0166 100.221 21.0018C100.219 22.3223 99.6896 23.5881 98.7493 24.5219C97.809 25.4556 96.5342 25.9811 95.2044 25.9832ZM95.2044 17.6072C94.5264 17.6072 93.8636 17.8069 93.3 18.1811C92.7363 18.5554 92.2972 19.0872 92.0381 19.7094C91.779 20.3316 91.7116 21.0161 91.8444 21.6764C91.9773 22.3366 92.3044 22.9429 92.7844 23.4184C93.2644 23.8939 93.8757 24.2174 94.5409 24.3478C95.206 24.4782 95.8952 24.4096 96.5212 24.1509C97.1472 23.8922 97.6817 23.4548 98.0573 22.8943C98.4328 22.3337 98.6325 21.6751 98.6309 21.0018C98.6288 20.1007 98.2669 19.2373 97.6245 18.6009C96.9821 17.9646 96.1118 17.6072 95.2044 17.6072Z" fill="#093F68"/>
<path d="M134.056 50.7007C136.387 50.7007 138.277 48.8239 138.277 46.5087C138.277 44.1936 136.387 42.3168 134.056 42.3168C131.724 42.3168 129.834 44.1936 129.834 46.5087C129.834 48.8239 131.724 50.7007 134.056 50.7007Z" fill="#FFBC0E"/>
<path d="M134.056 51.4901C133.064 51.4901 132.094 51.198 131.269 50.6506C130.444 50.1033 129.801 49.3253 129.421 48.415C129.042 47.5048 128.942 46.5032 129.136 45.5369C129.33 44.5706 129.807 43.683 130.509 42.9864C131.21 42.2897 132.104 41.8153 133.077 41.6231C134.05 41.4309 135.059 41.5295 135.976 41.9065C136.892 42.2836 137.676 42.922 138.227 43.7412C138.778 44.5604 139.072 45.5235 139.072 46.5087C139.07 47.8292 138.541 49.0951 137.601 50.0288C136.661 50.9626 135.386 51.488 134.056 51.4901ZM134.056 43.1141C133.378 43.1141 132.715 43.3139 132.152 43.6881C131.588 44.0623 131.149 44.5942 130.89 45.2164C130.631 45.8386 130.563 46.5231 130.696 47.1833C130.829 47.8436 131.156 48.4498 131.636 48.9254C132.116 49.4009 132.727 49.7243 133.392 49.8547C134.058 49.9851 134.747 49.9166 135.373 49.6579C135.999 49.3991 136.533 48.9618 136.909 48.4012C137.284 47.8406 137.484 47.182 137.482 46.5087C137.48 45.6077 137.118 44.7443 136.476 44.1079C135.834 43.4715 134.963 43.1141 134.056 43.1141Z" fill="#093F68"/>
<path d="M137.912 113.343C135.51 113.247 133.129 112.862 130.82 112.198C119.635 109.341 88.097 92.7386 59.0239 74.4156C42.4879 63.987 4.00192 38.5432 3.88267 27.4831C3.81628 26.6946 3.9642 25.9029 4.31099 25.1906C4.65779 24.4782 5.19075 23.8713 5.85428 23.4333C10.99 20.1413 24.9343 26.4884 25.4987 26.7568C25.5937 26.8004 25.6792 26.8621 25.7502 26.9384C25.8212 27.0147 25.8763 27.1042 25.9125 27.2017C25.9487 27.2992 25.9651 27.4028 25.961 27.5066C25.9568 27.6104 25.9321 27.7124 25.8883 27.8068C25.8444 27.9011 25.7823 27.986 25.7054 28.0565C25.6286 28.127 25.5385 28.1817 25.4403 28.2176C25.3421 28.2536 25.2377 28.2699 25.1332 28.2658C25.0286 28.2617 24.9259 28.2371 24.8309 28.1936C21.0308 26.441 10.3699 22.4228 6.71288 24.7911C6.28085 25.0907 5.93782 25.5001 5.71965 25.9765C5.50148 26.4528 5.41618 26.9786 5.47267 27.4989C5.55217 34.6039 25.8883 51.6875 59.8745 73.113C88.8364 91.3649 120.167 107.849 131.218 110.706C138.898 112.672 140.217 111.496 140.44 111.046C141.442 109.151 135.741 102.978 131.576 99.4015C131.416 99.2633 131.319 99.068 131.305 98.8585C131.291 98.649 131.361 98.4425 131.5 98.2844C131.639 98.1263 131.836 98.0296 132.047 98.0156C132.258 98.0015 132.466 98.0712 132.625 98.2094C134.509 99.7883 143.811 108.077 141.855 111.78C141.283 112.814 140.003 113.343 137.912 113.343Z" fill="#093F68"/>
<path d="M5.69533 93.3465C5.20567 93.3794 4.71572 93.2869 4.27229 93.0781C1.88729 91.6492 0.678885 89.9203 0.774285 87.9388C1.06048 82.1285 12.8583 76.5393 13.3591 76.3024C13.454 76.2572 13.557 76.231 13.6621 76.2256C13.7673 76.2202 13.8724 76.2355 13.9715 76.2708C14.0706 76.306 14.1617 76.3605 14.2395 76.431C14.3172 76.5015 14.3801 76.5866 14.4244 76.6814C14.514 76.8708 14.5241 77.0879 14.4526 77.2848C14.381 77.4817 14.2336 77.6423 14.0428 77.7313C10.8628 79.2234 2.56303 83.9758 2.36428 87.9941C2.30068 89.3598 3.15928 90.5756 5.08318 91.6966C5.62378 92.0124 10.1314 92.7939 45.9303 76.7998C90.7603 56.7795 142.777 29.1963 143.572 25.0201C143.691 24.6708 143.705 24.2949 143.613 23.9377C143.522 23.5805 143.328 23.2573 143.055 23.007C140.344 20.5913 129.866 23.0702 126.058 24.2307C125.859 24.2852 125.646 24.2605 125.465 24.1619C125.284 24.0633 125.149 23.8986 125.088 23.7026C125.027 23.5065 125.045 23.2947 125.139 23.1118C125.232 22.9289 125.394 22.7894 125.589 22.7228C127.076 22.265 140.257 18.3888 144.113 21.8308C144.587 22.2646 144.933 22.8192 145.112 23.4343C145.292 24.0495 145.298 24.7017 145.13 25.3201C144.017 31.1699 85.0761 61.0504 46.5504 78.2129C24.1473 88.2941 10.4256 93.3465 5.69533 93.3465Z" fill="#093F68"/>
</svg>
