<svg width="216" height="72" viewBox="0 0 216 72" fill="none" xmlns="http://www.w3.org/2000/svg">
<g clip-path="url(#clip0_186_2140)">
<path d="M19.712 58.896C16.64 58.896 13.8453 58.2133 11.328 56.848C8.85333 55.44 6.86933 53.4133 5.376 50.768C3.92533 48.08 3.2 44.816 3.2 40.976V30.224C3.2 24.464 4.82133 20.048 8.064 16.976C11.3067 13.8613 15.7013 12.304 21.248 12.304C26.752 12.304 30.9973 13.776 33.984 16.72C37.0133 19.6213 38.528 23.568 38.528 28.56V28.816H30.208V28.304C30.208 26.7253 29.8667 25.296 29.184 24.016C28.544 22.736 27.5627 21.7333 26.24 21.008C24.9173 20.24 23.2533 19.856 21.248 19.856C18.2613 19.856 15.9147 20.7733 14.208 22.608C12.5013 24.4427 11.648 26.9387 11.648 30.096V41.104C11.648 44.2187 12.5013 46.736 14.208 48.656C15.9147 50.5333 18.304 51.472 21.376 51.472C24.448 51.472 26.688 50.6613 28.096 49.04C29.504 47.4187 30.208 45.3707 30.208 42.896V42.256H19.584V35.088H38.528V58H30.72V53.712H29.568C29.2693 54.4373 28.7787 55.2053 28.096 56.016C27.456 56.8267 26.4747 57.5093 25.152 58.064C23.8293 58.6187 22.016 58.896 19.712 58.896ZM123.694 42.256V41.232C123.694 37.904 124.355 35.0667 125.678 32.72C127.001 30.3307 128.75 28.5173 130.926 27.28C133.145 26 135.555 25.36 138.158 25.36C141.059 25.36 143.257 25.872 144.75 26.896C146.243 27.92 147.331 28.9867 148.014 30.096H149.166V26.256H157.102V63.632C157.102 65.808 156.462 67.536 155.182 68.816C153.902 70.1387 152.195 70.8 150.062 70.8H128.814V63.76H147.246C148.441 63.76 149.038 63.12 149.038 61.84V53.584H147.886C147.459 54.2667 146.862 54.9707 146.094 55.696C145.326 56.3787 144.302 56.9547 143.022 57.424C141.742 57.8933 140.121 58.128 138.158 58.128C135.555 58.128 133.145 57.5093 130.926 56.272C128.75 54.992 127.001 53.1787 125.678 50.832C124.355 48.4427 123.694 45.584 123.694 42.256ZM140.462 51.088C142.937 51.088 145.006 50.2987 146.67 48.72C148.334 47.1413 149.166 44.9227 149.166 42.064V41.424C149.166 38.5227 148.334 36.304 146.67 34.768C145.049 33.1893 142.979 32.4 140.462 32.4C137.987 32.4 135.918 33.1893 134.254 34.768C132.59 36.304 131.758 38.5227 131.758 41.424V42.064C131.758 44.9227 132.59 47.1413 134.254 48.72C135.918 50.2987 137.987 51.088 140.462 51.088Z" fill="#4285F4"/>
<path d="M61.959 58.896C58.8017 58.896 55.9643 58.256 53.447 56.976C50.9297 55.696 48.9457 53.84 47.495 51.408C46.0443 48.976 45.319 46.0533 45.319 42.64V41.616C45.319 38.2027 46.0443 35.28 47.495 32.848C48.9457 30.416 50.9297 28.56 53.447 27.28C55.9643 26 58.8017 25.36 61.959 25.36C65.1163 25.36 67.9537 26 70.471 27.28C72.9883 28.56 74.9723 30.416 76.423 32.848C77.8737 35.28 78.599 38.2027 78.599 41.616V42.64C78.599 46.0533 77.8737 48.976 76.423 51.408C74.9723 53.84 72.9883 55.696 70.471 56.976C67.9537 58.256 65.1163 58.896 61.959 58.896ZM61.959 51.728C64.4337 51.728 66.4817 50.9387 68.103 49.36C69.7243 47.7387 70.535 45.4347 70.535 42.448V41.808C70.535 38.8213 69.7243 36.5387 68.103 34.96C66.5243 33.3387 64.4763 32.528 61.959 32.528C59.4843 32.528 57.4363 33.3387 55.815 34.96C54.1937 36.5387 53.383 38.8213 53.383 41.808V42.448C53.383 45.4347 54.1937 47.7387 55.815 49.36C57.4363 50.9387 59.4843 51.728 61.959 51.728ZM197.507 58.896C194.349 58.896 191.555 58.2347 189.123 56.912C186.733 55.5467 184.856 53.648 183.491 51.216C182.168 48.7413 181.507 45.84 181.507 42.512V41.744C181.507 38.416 182.168 35.536 183.491 33.104C184.813 30.6293 186.669 28.7307 189.059 27.408C191.448 26.0427 194.221 25.36 197.378 25.36C200.493 25.36 203.203 26.064 205.507 27.472C207.811 28.8373 209.603 30.7573 210.882 33.232C212.163 35.664 212.803 38.5013 212.803 41.744V44.496H189.699C189.784 46.672 190.595 48.4427 192.131 49.808C193.667 51.1733 195.544 51.856 197.763 51.856C200.024 51.856 201.688 51.3653 202.755 50.384C203.821 49.4027 204.632 48.3147 205.187 47.12L211.779 50.576C211.181 51.6853 210.307 52.9013 209.155 54.224C208.045 55.504 206.552 56.6133 204.675 57.552C202.797 58.448 200.408 58.896 197.507 58.896ZM189.763 38.48H204.611C204.44 36.6453 203.693 35.1733 202.371 34.064C201.091 32.9547 199.405 32.4 197.315 32.4C195.139 32.4 193.411 32.9547 192.131 34.064C190.851 35.1733 190.061 36.6453 189.763 38.48Z" fill="#EA4335"/>
<path d="M101.147 58.896C97.9892 58.896 95.1518 58.256 92.6345 56.976C90.1172 55.696 88.1332 53.84 86.6825 51.408C85.2318 48.976 84.5065 46.0533 84.5065 42.64V41.616C84.5065 38.2027 85.2318 35.28 86.6825 32.848C88.1332 30.416 90.1172 28.56 92.6345 27.28C95.1518 26 97.9892 25.36 101.147 25.36C104.304 25.36 107.141 26 109.659 27.28C112.176 28.56 114.16 30.416 115.611 32.848C117.061 35.28 117.787 38.2027 117.787 41.616V42.64C117.787 46.0533 117.061 48.976 115.611 51.408C114.16 53.84 112.176 55.696 109.659 56.976C107.141 58.256 104.304 58.896 101.147 58.896ZM101.147 51.728C103.621 51.728 105.669 50.9387 107.291 49.36C108.912 47.7387 109.723 45.4347 109.723 42.448V41.808C109.723 38.8213 108.912 36.5387 107.291 34.96C105.712 33.3387 103.664 32.528 101.147 32.528C98.6718 32.528 96.6238 33.3387 95.0025 34.96C93.3812 36.5387 92.5705 38.8213 92.5705 41.808V42.448C92.5705 45.4347 93.3812 47.7387 95.0025 49.36C96.6238 50.9387 98.6718 51.728 101.147 51.728Z" fill="#FBBC05"/>
<path d="M166.043 58V13.2H174.107V58H166.043Z" fill="#34A853"/>
</g>
<defs>
<clipPath id="clip0_186_2140">
<rect width="216" height="72" fill="white"/>
</clipPath>
</defs>
</svg>
