<svg width="123" height="41" viewBox="0 0 123 41" fill="none" xmlns="http://www.w3.org/2000/svg">
<rect y="5.7666" width="50.0247" height="27.6771" rx="13.8385" fill="#2375EF"/>
<rect x="23.0957" y="6.69531" width="26.0005" height="25.8199" rx="12.91" fill="#F7F7FA"/>
<path d="M67.128 26.2189C65.868 26.2189 64.764 25.9429 63.816 25.3909C62.88 24.8389 62.142 24.0769 61.602 23.1049C61.074 22.1209 60.81 20.9869 60.81 19.7029C60.81 18.4189 61.074 17.2909 61.602 16.3189C62.142 15.3349 62.88 14.5669 63.816 14.0149C64.764 13.4629 65.868 13.1869 67.128 13.1869C68.376 13.1869 69.474 13.4629 70.422 14.0149C71.37 14.5669 72.108 15.3349 72.636 16.3189C73.164 17.2909 73.428 18.4189 73.428 19.7029C73.428 20.9869 73.164 22.1209 72.636 23.1049C72.108 24.0769 71.37 24.8389 70.422 25.3909C69.474 25.9429 68.376 26.2189 67.128 26.2189ZM67.128 24.1489C68.328 24.1489 69.282 23.7529 69.99 22.9609C70.71 22.1689 71.07 21.0829 71.07 19.7029C71.07 18.3229 70.71 17.2369 69.99 16.4449C69.282 15.6529 68.328 15.2569 67.128 15.2569C65.928 15.2569 64.968 15.6529 64.248 16.4449C63.528 17.2369 63.168 18.3229 63.168 19.7029C63.168 21.0829 63.528 22.1689 64.248 22.9609C64.968 23.7529 65.928 24.1489 67.128 24.1489ZM79.3863 26.0029C78.4503 26.0029 77.7003 25.7749 77.1363 25.3189C76.5723 24.8629 76.2903 24.0529 76.2903 22.8889V19.0009H74.7603V17.0749H76.2903L76.5603 14.6809H78.5943V17.0749H81.0063V19.0009H78.5943V22.9069C78.5943 23.3389 78.6843 23.6389 78.8643 23.8069C79.0563 23.9629 79.3803 24.0409 79.8363 24.0409H80.9523V26.0029H79.3863ZM82.9845 26.0029V13.0429H85.2885V18.4429C85.5885 17.9509 85.9905 17.5669 86.4945 17.2909C87.0105 17.0029 87.5985 16.8589 88.2585 16.8589C89.3625 16.8589 90.2145 17.2069 90.8145 17.9029C91.4265 18.5989 91.7325 19.6189 91.7325 20.9629V26.0029H89.4465V21.1789C89.4465 20.4109 89.2905 19.8229 88.9785 19.4149C88.6785 19.0069 88.1985 18.8029 87.5385 18.8029C86.8905 18.8029 86.3505 19.0309 85.9185 19.4869C85.4985 19.9429 85.2885 20.5789 85.2885 21.3949V26.0029H82.9845ZM98.2736 26.2189C97.3736 26.2189 96.5756 26.0269 95.8796 25.6429C95.1836 25.2589 94.6376 24.7189 94.2416 24.0229C93.8456 23.3269 93.6476 22.5229 93.6476 21.6109C93.6476 20.6869 93.8396 19.8649 94.2236 19.1449C94.6196 18.4249 95.1596 17.8669 95.8436 17.4709C96.5396 17.0629 97.3556 16.8589 98.2916 16.8589C99.1676 16.8589 99.9416 17.0509 100.614 17.4349C101.286 17.8189 101.808 18.3469 102.18 19.0189C102.564 19.6789 102.756 20.4169 102.756 21.2329C102.756 21.3649 102.75 21.5029 102.738 21.6469C102.738 21.7909 102.732 21.9409 102.72 22.0969H95.9336C95.9816 22.7929 96.2216 23.3389 96.6536 23.7349C97.0976 24.1309 97.6316 24.3289 98.2556 24.3289C98.7236 24.3289 99.1136 24.2269 99.4256 24.0229C99.7496 23.8069 99.9896 23.5309 100.146 23.1949H102.486C102.318 23.7589 102.036 24.2749 101.64 24.7429C101.256 25.1989 100.776 25.5589 100.2 25.8229C99.6356 26.0869 98.9936 26.2189 98.2736 26.2189ZM98.2916 18.7309C97.7276 18.7309 97.2296 18.8929 96.7976 19.2169C96.3656 19.5289 96.0896 20.0089 95.9696 20.6569H100.416C100.38 20.0689 100.164 19.6009 99.7676 19.2529C99.3716 18.9049 98.8796 18.7309 98.2916 18.7309ZM104.693 26.0029V17.0749H106.727L106.907 18.5869C107.183 18.0589 107.579 17.6389 108.095 17.3269C108.623 17.0149 109.241 16.8589 109.949 16.8589C111.053 16.8589 111.911 17.2069 112.523 17.9029C113.135 18.5989 113.441 19.6189 113.441 20.9629V26.0029H111.137V21.1789C111.137 20.4109 110.981 19.8229 110.669 19.4149C110.357 19.0069 109.871 18.8029 109.211 18.8029C108.563 18.8029 108.029 19.0309 107.609 19.4869C107.201 19.9429 106.997 20.5789 106.997 21.3949V26.0029H104.693ZM119.623 26.0029C118.687 26.0029 117.937 25.7749 117.373 25.3189C116.809 24.8629 116.527 24.0529 116.527 22.8889V19.0009H114.997V17.0749H116.527L116.797 14.6809H118.831V17.0749H121.243V19.0009H118.831V22.9069C118.831 23.3389 118.921 23.6389 119.101 23.8069C119.293 23.9629 119.617 24.0409 120.073 24.0409H121.189V26.0029H119.623Z" fill="#2375EF"/>
</svg>
