<svg width="304" height="72" viewBox="0 0 304 72" fill="none" xmlns="http://www.w3.org/2000/svg">
<g clip-path="url(#clip0_186_2197)">
<path d="M4.44275 58V13.2H20.1228L27.8668 52.24H29.0188L36.7628 13.2H52.4428V58H44.2508V19.408H43.0988L35.4188 58H21.4668L13.7868 19.408H12.6348V58H4.44275ZM61.1363 58V26.256H69.2003V58H61.1363ZM65.1683 22.544C63.7176 22.544 62.4803 22.0747 61.4563 21.136C60.4749 20.1973 59.9843 18.96 59.9843 17.424C59.9843 15.888 60.4749 14.6507 61.4563 13.712C62.4803 12.7733 63.7176 12.304 65.1683 12.304C66.6616 12.304 67.8989 12.7733 68.8803 13.712C69.8616 14.6507 70.3523 15.888 70.3523 17.424C70.3523 18.96 69.8616 20.1973 68.8803 21.136C67.8989 22.0747 66.6616 22.544 65.1683 22.544ZM93.0483 58.896C89.9763 58.896 87.1816 58.256 84.6643 56.976C82.1896 55.696 80.2269 53.84 78.7763 51.408C77.3256 48.976 76.6003 46.032 76.6003 42.576V41.68C76.6003 38.224 77.3256 35.28 78.7763 32.848C80.2269 30.416 82.1896 28.56 84.6643 27.28C87.1816 26 89.9763 25.36 93.0483 25.36C96.0776 25.36 98.6803 25.8933 100.856 26.96C103.032 28.0267 104.782 29.4987 106.104 31.376C107.47 33.2107 108.366 35.3013 108.792 37.648L100.984 39.312C100.814 38.032 100.43 36.88 99.8323 35.856C99.2349 34.832 98.3816 34.0213 97.2723 33.424C96.2056 32.8267 94.8616 32.528 93.2403 32.528C91.6189 32.528 90.1469 32.8907 88.8243 33.616C87.5443 34.2987 86.5203 35.344 85.7523 36.752C85.0269 38.1173 84.6643 39.8027 84.6643 41.808V42.448C84.6643 44.4533 85.0269 46.16 85.7523 47.568C86.5203 48.9333 87.5443 49.9787 88.8243 50.704C90.1469 51.3867 91.6189 51.728 93.2403 51.728C95.6723 51.728 97.5069 51.1093 98.7443 49.872C100.024 48.592 100.835 46.928 101.176 44.88L108.984 46.736C108.43 48.9973 107.47 51.0667 106.104 52.944C104.782 54.7787 103.032 56.2293 100.856 57.296C98.6803 58.3627 96.0776 58.896 93.0483 58.896Z" fill="#F25022"/>
<path d="M115.636 58V26.256H123.572V29.84H124.724C125.194 28.56 125.962 27.6213 127.028 27.024C128.138 26.4267 129.418 26.128 130.868 26.128H134.708V33.296H130.74C128.692 33.296 127.007 33.8507 125.684 34.96C124.362 36.0267 123.7 37.6907 123.7 39.952V58H115.636ZM154.99 58.896C151.833 58.896 148.996 58.256 146.478 56.976C143.961 55.696 141.977 53.84 140.526 51.408C139.076 48.976 138.35 46.0533 138.35 42.64V41.616C138.35 38.2027 139.076 35.28 140.526 32.848C141.977 30.416 143.961 28.56 146.478 27.28C148.996 26 151.833 25.36 154.99 25.36C158.148 25.36 160.985 26 163.502 27.28C166.02 28.56 168.004 30.416 169.454 32.848C170.905 35.28 171.63 38.2027 171.63 41.616V42.64C171.63 46.0533 170.905 48.976 169.454 51.408C168.004 53.84 166.02 55.696 163.502 56.976C160.985 58.256 158.148 58.896 154.99 58.896ZM154.99 51.728C157.465 51.728 159.513 50.9387 161.134 49.36C162.756 47.7387 163.566 45.4347 163.566 42.448V41.808C163.566 38.8213 162.756 36.5387 161.134 34.96C159.556 33.3387 157.508 32.528 154.99 32.528C152.516 32.528 150.468 33.3387 148.846 34.96C147.225 36.5387 146.414 38.8213 146.414 41.808V42.448C146.414 45.4347 147.225 47.7387 148.846 49.36C150.468 50.9387 152.516 51.728 154.99 51.728Z" fill="#7FBA00"/>
<path d="M192.258 58.896C188.119 58.896 184.727 58 182.082 56.208C179.436 54.416 177.836 51.856 177.282 48.528L184.706 46.608C185.004 48.1013 185.495 49.2747 186.178 50.128C186.903 50.9813 187.778 51.6 188.802 51.984C189.868 52.3253 191.02 52.496 192.258 52.496C194.135 52.496 195.522 52.176 196.418 51.536C197.314 50.8533 197.762 50.0213 197.762 49.04C197.762 48.0587 197.335 47.312 196.482 46.8C195.628 46.2453 194.263 45.7973 192.386 45.456L190.594 45.136C188.375 44.7093 186.348 44.1333 184.514 43.408C182.679 42.64 181.207 41.5947 180.098 40.272C178.988 38.9493 178.434 37.2427 178.434 35.152C178.434 31.9947 179.586 29.584 181.89 27.92C184.194 26.2133 187.223 25.36 190.978 25.36C194.519 25.36 197.463 26.1493 199.81 27.728C202.156 29.3067 203.692 31.376 204.418 33.936L196.93 36.24C196.588 34.6187 195.884 33.4667 194.818 32.784C193.794 32.1013 192.514 31.76 190.978 31.76C189.442 31.76 188.268 32.0373 187.458 32.592C186.647 33.104 186.242 33.8293 186.242 34.768C186.242 35.792 186.668 36.56 187.522 37.072C188.375 37.5413 189.527 37.904 190.978 38.16L192.77 38.48C195.159 38.9067 197.314 39.4827 199.234 40.208C201.196 40.8907 202.732 41.8933 203.842 43.216C204.994 44.496 205.57 46.2453 205.57 48.464C205.57 51.792 204.354 54.3733 201.922 56.208C199.532 58 196.311 58.896 192.258 58.896ZM227.74 58.896C224.583 58.896 221.746 58.256 219.228 56.976C216.711 55.696 214.727 53.84 213.276 51.408C211.826 48.976 211.1 46.0533 211.1 42.64V41.616C211.1 38.2027 211.826 35.28 213.276 32.848C214.727 30.416 216.711 28.56 219.228 27.28C221.746 26 224.583 25.36 227.74 25.36C230.898 25.36 233.735 26 236.252 27.28C238.77 28.56 240.754 30.416 242.204 32.848C243.655 35.28 244.38 38.2027 244.38 41.616V42.64C244.38 46.0533 243.655 48.976 242.204 51.408C240.754 53.84 238.77 55.696 236.252 56.976C233.735 58.256 230.898 58.896 227.74 58.896ZM227.74 51.728C230.215 51.728 232.263 50.9387 233.884 49.36C235.506 47.7387 236.316 45.4347 236.316 42.448V41.808C236.316 38.8213 235.506 36.5387 233.884 34.96C232.306 33.3387 230.258 32.528 227.74 32.528C225.266 32.528 223.218 33.3387 221.596 34.96C219.975 36.5387 219.164 38.8213 219.164 41.808V42.448C219.164 45.4347 219.975 47.7387 221.596 49.36C223.218 50.9387 225.266 51.728 227.74 51.728Z" fill="#00A4EF"/>
<path d="M257.072 58V32.912H249.008V26.256H257.072V20.368C257.072 18.192 257.712 16.464 258.992 15.184C260.314 13.8613 262.021 13.2 264.112 13.2H272.432V19.856H266.928C265.733 19.856 265.136 20.496 265.136 21.776V26.256H273.456V32.912H265.136V58H257.072ZM291.234 58C289.143 58 287.436 57.36 286.114 56.08C284.834 54.7573 284.194 53.008 284.194 50.832V32.912H276.258V26.256H284.194V16.4H292.258V26.256H300.962V32.912H292.258V49.424C292.258 50.704 292.855 51.344 294.05 51.344H300.194V58H291.234Z" fill="#FFB900"/>
</g>
<defs>
<clipPath id="clip0_186_2197">
<rect width="304" height="72" fill="white"/>
</clipPath>
</defs>
</svg>
