<svg width="167" height="72" viewBox="0 0 167 72" fill="none" xmlns="http://www.w3.org/2000/svg">
<g clip-path="url(#clip0_186_2064)">
<path d="M19.776 58.896C16.32 58.896 13.2693 58.2773 10.624 57.04C7.97867 55.8027 5.90933 54.032 4.416 51.728C2.92267 49.424 2.176 46.6507 2.176 43.408V41.616H10.496V43.408C10.496 46.096 11.328 48.1227 12.992 49.488C14.656 50.8107 16.9173 51.472 19.776 51.472C22.6773 51.472 24.832 50.896 26.24 49.744C27.6907 48.592 28.416 47.12 28.416 45.328C28.416 44.0907 28.0533 43.088 27.328 42.32C26.6453 41.552 25.6213 40.9333 24.256 40.464C22.9333 39.952 21.312 39.4827 19.392 39.056L17.92 38.736C14.848 38.0533 12.2027 37.2 9.984 36.176C7.808 35.1093 6.12267 33.7227 4.928 32.016C3.776 30.3093 3.2 28.0907 3.2 25.36C3.2 22.6293 3.84 20.304 5.12 18.384C6.44267 16.4213 8.27733 14.928 10.624 13.904C13.0133 12.8373 15.808 12.304 19.008 12.304C22.208 12.304 25.0453 12.8587 27.52 13.968C30.0373 15.0347 32 16.656 33.408 18.832C34.8587 20.9653 35.584 23.6533 35.584 26.896V28.816H27.264V26.896C27.264 25.1893 26.9227 23.824 26.24 22.8C25.6 21.7333 24.6613 20.9653 23.424 20.496C22.1867 19.984 20.7147 19.728 19.008 19.728C16.448 19.728 14.5493 20.2187 13.312 21.2C12.1173 22.1387 11.52 23.44 11.52 25.104C11.52 26.2133 11.7973 27.152 12.352 27.92C12.9493 28.688 13.824 29.328 14.976 29.84C16.128 30.352 17.6 30.8 19.392 31.184L20.864 31.504C24.064 32.1867 26.8373 33.0613 29.184 34.128C31.5733 35.1947 33.4293 36.6027 34.752 38.352C36.0747 40.1013 36.736 42.3413 36.736 45.072C36.736 47.8027 36.032 50.2133 34.624 52.304C33.2587 54.352 31.296 55.9733 28.736 57.168C26.2187 58.32 23.232 58.896 19.776 58.896ZM134.793 58V13.2H142.857V37.968H144.009L154.505 26.256H165.001L150.345 41.616L165.513 58H155.145L144.009 45.392H142.857V58H134.793Z" fill="#36C5F0"/>
<path d="M43.2925 58V13.2H51.3565V58H43.2925Z" fill="#2EB67D"/>
<path d="M70.1485 58.896C67.8872 58.896 65.8605 58.512 64.0685 57.744C62.2765 56.9333 60.8472 55.7813 59.7805 54.288C58.7565 52.752 58.2445 50.896 58.2445 48.72C58.2445 46.544 58.7565 44.7307 59.7805 43.28C60.8472 41.7867 62.2978 40.6773 64.1325 39.952C66.0098 39.184 68.1432 38.8 70.5325 38.8H79.2365V37.008C79.2365 35.5147 78.7672 34.2987 77.8285 33.36C76.8898 32.3787 75.3965 31.888 73.3485 31.888C71.3432 31.888 69.8498 32.3573 68.8685 33.296C67.8872 34.192 67.2472 35.3653 66.9485 36.816L59.5245 34.32C60.0365 32.6987 60.8472 31.2267 61.9565 29.904C63.1085 28.5387 64.6232 27.4507 66.5005 26.64C68.4205 25.7867 70.7458 25.36 73.4765 25.36C77.6578 25.36 80.9645 26.4053 83.3965 28.496C85.8285 30.5867 87.0445 33.616 87.0445 37.584V49.424C87.0445 50.704 87.6418 51.344 88.8365 51.344H91.3965V58H86.0205C84.4418 58 83.1405 57.616 82.1165 56.848C81.0925 56.08 80.5805 55.056 80.5805 53.776V53.712H79.3645C79.1938 54.224 78.8098 54.9067 78.2125 55.76C77.6152 56.5707 76.6765 57.296 75.3965 57.936C74.1165 58.576 72.3672 58.896 70.1485 58.896ZM71.5565 52.368C73.8178 52.368 75.6525 51.7493 77.0605 50.512C78.5112 49.232 79.2365 47.5467 79.2365 45.456V44.816H71.1085C69.6152 44.816 68.4418 45.136 67.5885 45.776C66.7352 46.416 66.3085 47.312 66.3085 48.464C66.3085 49.616 66.7565 50.5547 67.6525 51.28C68.5485 52.0053 69.8498 52.368 71.5565 52.368Z" fill="#E01E5A"/>
<path d="M112.205 58.896C109.133 58.896 106.338 58.256 103.821 56.976C101.346 55.696 99.3832 53.84 97.9325 51.408C96.4818 48.976 95.7565 46.032 95.7565 42.576V41.68C95.7565 38.224 96.4818 35.28 97.9325 32.848C99.3832 30.416 101.346 28.56 103.821 27.28C106.338 26 109.133 25.36 112.205 25.36C115.234 25.36 117.837 25.8933 120.013 26.96C122.189 28.0267 123.938 29.4987 125.261 31.376C126.626 33.2107 127.522 35.3013 127.949 37.648L120.141 39.312C119.97 38.032 119.586 36.88 118.989 35.856C118.391 34.832 117.538 34.0213 116.429 33.424C115.362 32.8267 114.018 32.528 112.397 32.528C110.775 32.528 109.303 32.8907 107.981 33.616C106.701 34.2987 105.677 35.344 104.909 36.752C104.183 38.1173 103.821 39.8027 103.821 41.808V42.448C103.821 44.4533 104.183 46.16 104.909 47.568C105.677 48.9333 106.701 49.9787 107.981 50.704C109.303 51.3867 110.775 51.728 112.397 51.728C114.829 51.728 116.663 51.1093 117.901 49.872C119.181 48.592 119.991 46.928 120.333 44.88L128.141 46.736C127.586 48.9973 126.626 51.0667 125.261 52.944C123.938 54.7787 122.189 56.2293 120.013 57.296C117.837 58.3627 115.234 58.896 112.205 58.896Z" fill="#ECB22E"/>
</g>
<defs>
<clipPath id="clip0_186_2064">
<rect width="167" height="72" fill="white"/>
</clipPath>
</defs>
</svg>
