<svg width="118" height="127" viewBox="0 0 118 127" fill="none" xmlns="http://www.w3.org/2000/svg">
<path d="M109.904 96.1659C109.991 95.7692 109.945 95.3552 109.773 94.9874C109.601 94.6196 109.313 94.3186 108.953 94.1306C108.319 93.8135 107.67 93.5333 107.021 93.2531C106.93 93.2215 106.851 93.1629 106.794 93.0852C106.738 93.0074 106.706 92.9142 106.704 92.818C106.645 92.2281 106.556 91.6381 106.461 91.0482C106.439 90.9755 106.441 90.898 106.466 90.8265C106.492 90.7551 106.538 90.6933 106.601 90.65C107.154 90.2002 107.714 89.7504 108.238 89.2637C108.541 88.9921 108.745 88.6274 108.819 88.2269C108.892 87.8264 108.83 87.4129 108.643 87.0514C108.201 86.2108 107.699 85.3996 107.22 84.5811C106.992 84.1376 106.604 83.7974 106.134 83.629C105.665 83.4607 105.149 83.4768 104.691 83.6741C104.093 83.8953 103.496 84.1239 102.906 84.3599C102.839 84.3945 102.762 84.4075 102.687 84.3969C102.611 84.3863 102.541 84.3528 102.486 84.3009C101.977 83.8953 101.461 83.5118 100.937 83.1357C100.871 83.0987 100.817 83.0419 100.784 82.9733C100.751 82.9046 100.74 82.8274 100.753 82.7523C100.819 82.1107 100.878 81.4692 100.93 80.8203C100.979 80.3689 100.868 79.9146 100.616 79.537C100.364 79.1595 99.9868 78.8828 99.5509 78.7555C98.6071 78.4827 97.6484 78.2393 96.6898 78.0181C96.2829 77.9183 95.8542 77.9596 95.4738 78.135C95.0934 78.3105 94.7838 78.6098 94.5955 78.9841C94.2637 79.633 93.9761 80.3114 93.6811 80.9825C93.6557 81.0545 93.6089 81.1171 93.5469 81.1619C93.485 81.2067 93.4109 81.2316 93.3345 81.2332C92.7225 81.307 92.1104 81.4028 91.4984 81.5061C91.4297 81.5265 91.3563 81.5246 91.2888 81.5008C91.2212 81.4769 91.1629 81.4323 91.1223 81.3733C90.6798 80.8203 90.23 80.2746 89.7581 79.7436C89.4876 79.439 89.1238 79.2325 88.7236 79.1565C88.3233 79.0804 87.9092 79.1391 87.5458 79.3233C86.6462 79.8026 85.7613 80.3114 84.9059 80.8571C84.5104 81.0984 84.2169 81.4763 84.0811 81.9192C83.9452 82.3621 83.9763 82.8395 84.1685 83.2611C84.4044 83.8953 84.6552 84.5221 84.9059 85.1563C84.9188 85.2046 84.9216 85.2552 84.914 85.3047C84.9064 85.3542 84.8885 85.4016 84.8616 85.4439C84.4782 85.9822 84.1242 86.5205 83.6818 87.044C83.6476 87.0829 83.6057 87.1142 83.5587 87.1358C83.5117 87.1574 83.4607 87.1688 83.4089 87.1694C82.76 87.1252 82.1185 87.0662 81.4695 87.0072C81.0198 86.9431 80.5618 87.0395 80.1761 87.2796C79.7904 87.5196 79.5016 87.8879 79.3605 88.3198C79.0729 89.3079 78.8222 90.3034 78.6231 91.2694C78.5386 91.662 78.5852 92.0715 78.7557 92.4351C78.9262 92.7987 79.2112 93.0964 79.567 93.2826C80.238 93.6218 80.9238 93.9168 81.6096 94.2265C81.676 94.2499 81.734 94.2925 81.776 94.349C81.818 94.4055 81.8423 94.4732 81.8456 94.5436C81.9194 95.1704 82.0152 95.7898 82.1258 96.4092C82.1421 96.474 82.1389 96.5422 82.1166 96.6051C82.0943 96.6681 82.0539 96.7231 82.0005 96.7632C81.4917 97.1761 80.9828 97.5965 80.4888 98.0242C80.1109 98.3218 79.8572 98.7492 79.7768 99.2234C79.6964 99.6976 79.7951 100.185 80.0537 100.59C80.4888 101.328 80.9386 102.117 81.3958 102.869C81.6275 103.307 82.0178 103.639 82.4867 103.798C82.9556 103.957 83.4676 103.931 83.9178 103.724C84.5298 103.496 85.1419 103.267 85.7539 102.987C85.8106 102.959 85.8745 102.95 85.9367 102.961C85.9988 102.971 86.0561 103.001 86.1005 103.046C86.5651 103.407 87.037 103.783 87.5237 104.115C87.6008 104.159 87.6617 104.226 87.6975 104.307C87.7334 104.388 87.7422 104.479 87.7228 104.565C87.6638 105.199 87.6048 105.833 87.5532 106.475C87.5018 106.913 87.6027 107.355 87.8391 107.727C88.0755 108.099 88.4329 108.378 88.8511 108.518C89.8466 108.813 90.8494 109.063 91.8597 109.292C92.2568 109.374 92.67 109.324 93.0361 109.15C93.4023 108.976 93.7013 108.686 93.8876 108.326C94.2047 107.684 94.4923 107.028 94.7799 106.372C94.8048 106.291 94.8547 106.221 94.9223 106.17C94.9899 106.12 95.0717 106.092 95.156 106.091C95.768 106.018 96.3874 105.929 96.9995 105.833C97.0631 105.816 97.1307 105.818 97.1929 105.841C97.255 105.863 97.3086 105.904 97.3461 105.959L98.6071 107.47C98.9041 107.826 99.3116 108.073 99.7648 108.171C100.179 108.277 100.619 108.216 100.989 108.001C101.807 107.552 102.604 107.08 103.408 106.6C103.863 106.374 104.212 105.98 104.383 105.502C104.554 105.023 104.532 104.497 104.322 104.034C104.101 103.434 103.872 102.837 103.636 102.242C103.606 102.182 103.595 102.114 103.606 102.048C103.616 101.982 103.648 101.921 103.695 101.873C104.086 101.379 104.433 100.878 104.831 100.399C104.869 100.333 104.926 100.281 104.995 100.25C105.063 100.218 105.14 100.208 105.214 100.222C105.863 100.288 106.505 100.347 107.154 100.399C107.604 100.453 108.058 100.348 108.438 100.101C108.819 99.8547 109.1 99.4823 109.233 99.0492C109.425 98.1274 109.676 97.1466 109.904 96.1659ZM92.516 100.295C91.2103 99.9557 90.0346 99.2365 89.1377 98.2286C88.2408 97.2207 87.6629 95.9694 87.4772 94.6331C87.2914 93.2967 87.5062 91.9353 88.0942 90.721C88.6822 89.5067 89.6172 88.4941 90.7808 87.8112C91.9444 87.1283 93.2844 86.8058 94.6313 86.8845C95.9782 86.9633 97.2715 87.4396 98.3476 88.2534C99.4237 89.0672 100.234 90.1819 100.677 91.4564C101.12 92.7309 101.174 94.1081 100.834 95.4137C100.376 97.1628 99.2436 98.6591 97.6843 99.5742C96.1249 100.489 94.2663 100.749 92.516 100.295Z" fill="#70CC40" stroke="#093F68" stroke-width="1.47483" stroke-linecap="round" stroke-linejoin="round"/>
<path d="M116.858 42.4672C116.83 41.762 116.57 41.0856 116.12 40.5421C115.67 39.9985 115.053 39.6179 114.366 39.4585C113.164 39.2004 111.94 39.0087 110.723 38.817C110.553 38.8086 110.389 38.7462 110.257 38.6388C110.124 38.5314 110.029 38.3846 109.986 38.2197C109.624 37.2463 109.248 36.295 108.798 35.3511C108.731 35.2368 108.701 35.1041 108.713 34.9717C108.725 34.8394 108.778 34.7142 108.865 34.6137C109.602 33.6035 110.34 32.6006 111.025 31.5535C111.415 30.9641 111.598 30.2622 111.546 29.5576C111.494 28.853 111.21 28.1856 110.738 27.6599C109.632 26.4358 108.437 25.2854 107.265 24.1129C106.689 23.4635 105.887 23.0578 105.023 22.9784C104.158 22.8989 103.296 23.1517 102.611 23.6852C101.697 24.3194 100.79 24.9659 99.8904 25.6246C99.7925 25.7159 99.6673 25.7725 99.5341 25.7858C99.401 25.7991 99.2671 25.7684 99.153 25.6984C98.1206 25.2486 97.0809 24.8135 96.0264 24.4153C95.8991 24.3814 95.7857 24.3084 95.7023 24.2064C95.6189 24.1045 95.5698 23.9789 95.5618 23.8475C95.3848 22.734 95.2005 21.6352 95.0087 20.5143C94.8951 19.7399 94.5161 19.029 93.9364 18.5031C93.3567 17.9771 92.6123 17.6689 91.8305 17.6311C90.1197 17.5917 88.399 17.5917 86.6686 17.6311C85.9394 17.6437 85.2358 17.9016 84.6712 18.3632C84.1067 18.8248 83.714 19.4631 83.5567 20.1751C83.2765 21.4214 83.0921 22.6824 82.8783 23.9433C82.8692 24.0744 82.8196 24.1995 82.7364 24.3012C82.6532 24.4029 82.5404 24.4763 82.4137 24.5111C81.4305 24.9093 80.4472 25.3297 79.464 25.7721C79.3594 25.8385 79.2361 25.8694 79.1126 25.8601C78.989 25.8508 78.8717 25.8018 78.7782 25.7205C77.7901 24.9831 76.7946 24.2457 75.7696 23.5672C75.1779 23.1665 74.4695 22.9743 73.7564 23.0211C73.0433 23.0678 72.3661 23.3508 71.8318 23.8253C70.5192 25.02 69.2508 26.2662 68.0488 27.564C67.4811 28.1399 67.1448 28.9044 67.104 29.712C67.0632 30.5197 67.3208 31.3142 67.8276 31.9443C68.4987 32.9103 69.1918 33.8542 69.8555 34.8202C69.8995 34.8979 69.9275 34.9836 69.9376 35.0723C69.9477 35.161 69.9399 35.2508 69.9145 35.3364C69.4942 36.413 69.0665 37.4823 68.6093 38.5441C68.5696 38.6263 68.513 38.699 68.4431 38.7575C68.3731 38.816 68.2915 38.8589 68.2037 38.8834C67.0976 39.0898 65.9915 39.2668 64.8706 39.4438C64.0906 39.5403 63.3689 39.9063 62.8303 40.4786C62.2917 41.0509 61.97 41.7934 61.9209 42.5778C61.8619 44.3624 61.8693 46.1543 61.9209 47.9462C61.96 48.6395 62.2225 49.3015 62.6691 49.8332C63.1157 50.3649 63.7225 50.7377 64.3986 50.8958C65.667 51.1834 66.9648 51.3825 68.2553 51.5964C68.3784 51.6071 68.4953 51.6552 68.5902 51.7343C68.6851 51.8134 68.7536 51.9197 68.7863 52.0388C69.1894 53.0565 69.6171 54.0667 70.0694 55.0696C70.1289 55.169 70.1552 55.2847 70.1446 55.4C70.134 55.5154 70.087 55.6243 70.0104 55.7112C69.3319 56.6329 68.6609 57.5547 68.012 58.4986C67.5042 59.1661 67.263 59.9986 67.3353 60.8342C67.4075 61.6697 67.788 62.4485 68.4028 63.019C69.472 64.1103 70.556 65.2312 71.6548 66.271C72.2347 66.9089 73.0366 67.301 73.8963 67.3668C74.7559 67.4326 75.6081 67.1672 76.2784 66.6249C77.2149 65.9686 78.1514 65.3123 79.0732 64.6339C79.1571 64.5655 79.2597 64.524 79.3676 64.5147C79.4754 64.5055 79.5836 64.5291 79.6779 64.5823C80.6291 64.9952 81.5804 65.4082 82.5538 65.7621C82.7011 65.8049 82.8314 65.8925 82.9265 66.0128C83.0217 66.1331 83.077 66.28 83.0847 66.4332C83.2543 67.5319 83.4313 68.6454 83.6304 69.7294C83.7171 70.4954 84.0678 71.2072 84.6222 71.7428C85.1766 72.2783 85.9001 72.6041 86.6686 72.6643C88.4679 72.7307 90.2745 72.7233 92.0812 72.6643C92.7871 72.6285 93.4619 72.3625 94.0025 71.9072C94.5431 71.4518 94.9198 70.832 95.0751 70.1424C95.3406 68.9256 95.5249 67.6942 95.7314 66.4553C95.7433 66.3101 95.798 66.1716 95.8886 66.0574C95.9791 65.9432 96.1015 65.8584 96.2402 65.8138C97.2505 65.4303 98.246 65.01 99.2341 64.5749C99.336 64.5179 99.4529 64.4937 99.5691 64.5056C99.6852 64.5175 99.7948 64.5648 99.8831 64.6413C100.805 65.3197 101.741 65.9686 102.67 66.6397C103.32 67.1169 104.114 67.3564 104.92 67.3181C105.664 67.3097 106.378 67.0199 106.918 66.5069C108.098 65.3861 109.241 64.2357 110.384 63.0853C111.053 62.5057 111.471 61.6895 111.55 60.8081C111.63 59.9267 111.365 59.0488 110.812 58.3585C110.17 57.4441 109.528 56.5371 108.872 55.6374C108.788 55.549 108.735 55.4361 108.721 55.3153C108.706 55.1945 108.731 55.0722 108.791 54.9664C109.233 53.9635 109.654 52.9532 110.052 51.9282C110.089 51.8017 110.164 51.6898 110.267 51.6078C110.37 51.5259 110.496 51.4781 110.627 51.471C111.741 51.3014 112.839 51.1171 113.968 50.9254C114.752 50.8217 115.474 50.4445 116.007 49.8603C116.54 49.2761 116.849 48.5225 116.88 47.7323C116.895 45.9871 116.888 44.2321 116.858 42.4672ZM89.3306 57.0164C86.981 57.012 84.6855 56.311 82.7343 55.002C80.7832 53.693 79.264 51.8348 78.3689 49.6624C77.4738 47.49 77.243 45.1009 77.7056 42.7973C78.1683 40.4937 79.3037 38.3791 80.9682 36.7208C82.6327 35.0625 84.7516 33.935 87.0569 33.4809C89.3621 33.0268 91.7503 33.2665 93.9194 34.1697C96.0885 35.0729 97.941 36.599 99.2427 38.555C100.544 40.5111 101.237 42.8092 101.233 45.1588C101.225 48.3089 99.9668 51.3271 97.7352 53.5504C95.5036 55.7737 92.4807 57.0203 89.3306 57.0164Z" fill="#F56132" stroke="#093F68" stroke-width="1.47483" stroke-linecap="round" stroke-linejoin="round"/>
<path d="M77.0747 0.737183H22.2921C16.1506 0.737183 11.1719 5.71588 11.1719 11.8574V114.299C11.1719 120.441 16.1506 125.419 22.2921 125.419H77.0747C83.2162 125.419 88.1949 120.441 88.1949 114.299V11.8574C88.1949 5.71588 83.2162 0.737183 77.0747 0.737183Z" fill="#2375EF"/>
<path d="M77.0821 126.157H22.2996C19.1547 126.155 16.139 124.905 13.9145 122.682C11.69 120.459 10.4385 117.444 10.4346 114.299V11.8575C10.4385 8.71259 11.69 5.69771 13.9145 3.47461C16.139 1.25151 19.1547 0.00182887 22.2996 -0.00012207H77.0821C80.2271 0.00182887 83.2427 1.25151 85.4672 3.47461C87.6917 5.69771 88.9432 8.71259 88.9472 11.8575V114.299C88.9432 117.444 87.6917 120.459 85.4672 122.682C83.2427 124.905 80.2271 126.155 77.0821 126.157ZM22.2996 1.47471C19.5458 1.47666 16.9053 2.57095 14.9574 4.51747C13.0095 6.46399 11.9133 9.10374 11.9094 11.8575V114.299C11.9133 117.053 13.0095 119.693 14.9574 121.639C16.9053 123.586 19.5458 124.68 22.2996 124.682H77.0821C79.8359 124.68 82.4765 123.586 84.4244 121.639C86.3723 119.693 87.4684 117.053 87.4723 114.299V11.8575C87.4684 9.10374 86.3723 6.46399 84.4244 4.51747C82.4765 2.57095 79.8359 1.47666 77.0821 1.47471H22.2996Z" fill="#093F68"/>
<path d="M88.1949 15.131H11.1719V104.24H88.1949V15.131Z" fill="white"/>
<path d="M88.2024 104.978H11.172C10.9764 104.978 10.7888 104.9 10.6506 104.762C10.5123 104.623 10.4346 104.436 10.4346 104.24V15.1456C10.4346 14.95 10.5123 14.7625 10.6506 14.6242C10.7888 14.4859 10.9764 14.4082 11.172 14.4082H88.2024C88.3979 14.4082 88.5855 14.4859 88.7238 14.6242C88.8621 14.7625 88.9398 14.95 88.9398 15.1456V104.24C88.9398 104.436 88.8621 104.623 88.7238 104.762C88.5855 104.9 88.3979 104.978 88.2024 104.978ZM11.9094 103.503H87.465V15.883H11.9094V103.503Z" fill="#093F68"/>
<path d="M49.6873 119.585C52.2571 119.585 54.3404 117.502 54.3404 114.932C54.3404 112.363 52.2571 110.279 49.6873 110.279C47.1174 110.279 45.0342 112.363 45.0342 114.932C45.0342 117.502 47.1174 119.585 49.6873 119.585Z" fill="#093F68"/>
<path d="M52.1723 9.82151H42.6818C42.4862 9.82151 42.2986 9.74382 42.1603 9.60553C42.022 9.46723 41.9443 9.27967 41.9443 9.08409C41.9443 8.88852 42.022 8.70096 42.1603 8.56266C42.2986 8.42437 42.4862 8.34668 42.6818 8.34668H52.1723C52.3679 8.34668 52.5554 8.42437 52.6937 8.56266C52.832 8.70096 52.9097 8.88852 52.9097 9.08409C52.9097 9.27967 52.832 9.46723 52.6937 9.60553C52.5554 9.74382 52.3679 9.82151 52.1723 9.82151Z" fill="#093F68"/>
<path d="M56.6851 9.82151H54.9596C54.764 9.82151 54.5764 9.74382 54.4382 9.60553C54.2999 9.46723 54.2222 9.27967 54.2222 9.08409C54.2222 8.88852 54.2999 8.70096 54.4382 8.56266C54.5764 8.42437 54.764 8.34668 54.9596 8.34668H56.7073C56.9028 8.34668 57.0904 8.42437 57.2287 8.56266C57.367 8.70096 57.4447 8.88852 57.4447 9.08409C57.4447 9.27967 57.367 9.46723 57.2287 9.60553C57.0904 9.74382 56.9028 9.82151 56.7073 9.82151H56.6851Z" fill="#093F68"/>
<path d="M54.9594 45.5939C54.9621 48.2933 54.3002 50.9519 53.0322 53.335C51.7641 55.718 49.9289 57.7523 47.6885 59.2582V104.24H29.2531V59.2582C26.8302 57.6278 24.8842 55.3826 23.6145 52.7526C22.3448 50.1226 21.7971 47.2024 22.0274 44.291C22.2578 41.3797 23.2579 38.5819 24.9254 36.1843C26.5929 33.7867 28.8678 31.8755 31.517 30.6465V42.8212L38.4487 47.4964L45.3878 42.8212V30.6317C48.2454 31.9513 50.6654 34.0616 52.3616 36.7131C54.0578 39.3645 54.9593 42.4463 54.9594 45.5939Z" fill="#093F68"/>
<path d="M47.6665 104.977H29.2312C29.0356 104.977 28.848 104.9 28.7097 104.761C28.5714 104.623 28.4938 104.436 28.4938 104.24V59.6412C26.0295 57.9008 24.0662 55.5431 22.8008 52.8044C21.5354 50.0657 21.0125 47.0424 21.2844 44.0379C21.5563 41.0333 22.6136 38.153 24.3501 35.686C26.0866 33.219 28.4413 31.252 31.1779 29.9824C31.2902 29.9289 31.4141 29.9047 31.5382 29.912C31.6623 29.9193 31.7826 29.9578 31.8878 30.024C31.993 30.0903 32.0798 30.182 32.1401 30.2907C32.2003 30.3995 32.2321 30.5217 32.2324 30.646V42.4447L38.4267 46.6258L44.6358 42.4299V30.6313C44.6367 30.508 44.6685 30.3868 44.7284 30.279C44.7883 30.1711 44.8742 30.08 44.9784 30.014C45.0826 29.948 45.2017 29.9091 45.3247 29.901C45.4478 29.8929 45.571 29.9158 45.6829 29.9676C48.4183 31.2382 50.7718 33.2053 52.5076 35.6719C54.2435 38.1384 55.3006 41.0178 55.5732 44.0216C55.8458 47.0254 55.3243 50.0481 54.0608 52.7868C52.7974 55.5255 50.8365 57.8842 48.3745 59.6265V104.225C48.3785 104.418 48.3066 104.605 48.1742 104.746C48.0418 104.887 47.8595 104.97 47.6665 104.977ZM29.9686 103.503H46.9291V59.2577C46.9289 59.137 46.9584 59.018 47.015 58.9112C47.0716 58.8045 47.1535 58.7133 47.2536 58.6457C49.4827 57.1414 51.2891 55.0909 52.5004 52.69C53.7117 50.289 54.2875 47.6177 54.1728 44.931C54.0582 42.2442 53.257 39.6316 51.8456 37.3426C50.4342 35.0536 48.4597 33.1644 46.1106 31.8554V42.8208C46.1108 42.9416 46.0813 43.0605 46.0247 43.1673C45.9681 43.274 45.8862 43.3652 45.7861 43.4328L38.8471 48.108C38.7251 48.1905 38.5813 48.2345 38.4341 48.2345C38.2869 48.2345 38.1431 48.1905 38.0212 48.108L31.0895 43.4328C30.9894 43.3652 30.9075 43.274 30.8509 43.1673C30.7943 43.0605 30.7648 42.9416 30.765 42.8208V31.8554C28.4173 33.1686 26.4454 35.0617 25.0376 37.354C23.6298 39.6463 22.8332 42.2612 22.7237 44.949C22.6142 47.6368 23.1956 50.3078 24.4123 52.7069C25.629 55.1061 27.4405 57.1533 29.6736 58.6531C29.7751 58.7199 29.8584 58.8107 29.9163 58.9175C29.9742 59.0242 30.0048 59.1437 30.0055 59.2651L29.9686 103.503Z" fill="#093F68"/>
<path d="M72.8936 47.1123H67.4072V93.5621H72.8936V47.1123Z" fill="#2375EF"/>
<path d="M72.8937 94.2931H67.4073C67.2118 94.2931 67.0242 94.2154 66.8859 94.0771C66.7476 93.9388 66.6699 93.7512 66.6699 93.5556V47.0985C66.6699 46.9029 66.7476 46.7154 66.8859 46.5771C67.0242 46.4388 67.2118 46.3611 67.4073 46.3611H72.8937C73.0893 46.3611 73.2768 46.4388 73.4151 46.5771C73.5534 46.7154 73.6311 46.9029 73.6311 47.0985V93.5556C73.6311 93.7512 73.5534 93.9388 73.4151 94.0771C73.2768 94.2154 73.0893 94.2931 72.8937 94.2931ZM68.1448 92.8182H72.1563V47.8359H68.1448V92.8182Z" fill="#093F68"/>
<path d="M67.4074 47.1137H72.8938L75.0102 41.3545H65.291L67.4074 47.1137Z" fill="#2375EF"/>
<path d="M72.8933 47.8512H67.407C67.2554 47.8512 67.1076 47.8044 66.9835 47.7173C66.8595 47.6302 66.7653 47.5071 66.7138 47.3645L64.6048 41.6053C64.5638 41.4951 64.5498 41.3767 64.5639 41.26C64.578 41.1432 64.6199 41.0316 64.6859 40.9343C64.7537 40.8366 64.844 40.7567 64.9493 40.7015C65.0546 40.6463 65.1717 40.6174 65.2906 40.6172H75.0097C75.1286 40.6174 75.2457 40.6463 75.351 40.7015C75.4562 40.7567 75.5466 40.8366 75.6144 40.9343C75.6816 41.0309 75.7248 41.1423 75.7402 41.259C75.7556 41.3758 75.7428 41.4945 75.7029 41.6053L73.5865 47.3645C73.535 47.5071 73.4408 47.6302 73.3168 47.7173C73.1927 47.8044 73.0449 47.8512 72.8933 47.8512ZM67.9231 46.3764H72.3476L73.9183 42.092H66.3524L67.9231 46.3764Z" fill="#093F68"/>
<path d="M67.4069 32.6007H72.8933L75.0097 41.3538H65.2905L67.4069 32.6007Z" fill="#2375EF"/>
<path d="M75.01 42.0915H65.2835C65.1728 42.091 65.0635 42.0656 64.964 42.0171C64.8644 41.9686 64.777 41.8982 64.7084 41.8113C64.6381 41.7233 64.589 41.6204 64.5647 41.5105C64.5404 41.4006 64.5416 41.2865 64.5682 41.1771L66.6846 32.424C66.725 32.2604 66.8202 32.1156 66.9544 32.0136C67.0885 31.9116 67.2536 31.8587 67.422 31.8636H72.9084C73.0769 31.8587 73.2419 31.9116 73.3761 32.0136C73.5103 32.1156 73.6055 32.2604 73.6458 32.424L75.7548 41.1771C75.7825 41.286 75.7849 41.3997 75.7619 41.5096C75.7389 41.6195 75.6911 41.7227 75.6221 41.8113C75.5496 41.9033 75.4563 41.9766 75.3499 42.0253C75.2435 42.0741 75.127 42.0968 75.01 42.0915ZM66.2274 40.6167H74.0735L72.3185 33.3384H67.9899L66.2274 40.6167Z" fill="#093F68"/>
<path d="M65.3868 87.5459H74.9216L76.3817 104.241H63.9268L65.3868 87.5459Z" fill="#093F68"/>
<path d="M76.3814 104.978H63.9264C63.8238 104.978 63.7221 104.957 63.628 104.916C63.5339 104.875 63.4495 104.814 63.3801 104.739C63.3106 104.663 63.2578 104.574 63.2249 104.476C63.192 104.379 63.1798 104.276 63.189 104.174L64.6639 87.4788C64.6805 87.2949 64.7654 87.124 64.902 86.9998C65.0385 86.8755 65.2167 86.807 65.4013 86.8077H74.936C75.1206 86.807 75.2988 86.8755 75.4354 86.9998C75.5719 87.124 75.6568 87.2949 75.6735 87.4788L77.1483 104.174C77.1575 104.276 77.1453 104.379 77.1124 104.476C77.0795 104.574 77.0267 104.663 76.9573 104.739C76.8878 104.814 76.8034 104.875 76.7093 104.916C76.6152 104.957 76.5136 104.978 76.4109 104.978H76.3814ZM64.7302 103.503H75.6071L74.2724 88.2826H66.0649L64.7302 103.503Z" fill="#093F68"/>
<path d="M42.6817 24.423H21.9899C21.7943 24.423 21.6067 24.3453 21.4684 24.207C21.3301 24.0687 21.2524 23.8811 21.2524 23.6855C21.2524 23.49 21.3301 23.3024 21.4684 23.1641C21.6067 23.0258 21.7943 22.9481 21.9899 22.9481H42.6817C42.8773 22.9481 43.0649 23.0258 43.2032 23.1641C43.3415 23.3024 43.4191 23.49 43.4191 23.6855C43.4191 23.8811 43.3415 24.0687 43.2032 24.207C43.0649 24.3453 42.8773 24.423 42.6817 24.423Z" fill="#DFEAEF"/>
<path d="M54.9595 24.423H49.7091C49.5135 24.423 49.326 24.3453 49.1877 24.207C49.0494 24.0687 48.9717 23.8811 48.9717 23.6855C48.9717 23.49 49.0494 23.3024 49.1877 23.1641C49.326 23.0258 49.5135 22.9481 49.7091 22.9481H54.9595C55.1551 22.9481 55.3426 23.0258 55.4809 23.1641C55.6192 23.3024 55.6969 23.49 55.6969 23.6855C55.6969 23.8811 55.6192 24.0687 55.4809 24.207C55.3426 24.3453 55.1551 24.423 54.9595 24.423Z" fill="#DFEAEF"/>
<path d="M40.602 73.1509V94.477C40.6 95.2254 40.3018 95.9427 39.7726 96.4719C39.2434 97.0011 38.5261 97.2993 37.7777 97.3013H3.55422C2.80645 97.2993 2.08998 97.0009 1.56191 96.4714C1.03385 95.942 0.737302 95.2247 0.737305 94.477V73.1509C0.737305 72.4038 1.03409 71.6873 1.56236 71.159C2.09064 70.6308 2.80713 70.334 3.55422 70.334H37.7777C38.5254 70.334 39.2427 70.6305 39.7721 71.1586C40.3016 71.6867 40.6 72.4031 40.602 73.1509Z" fill="white"/>
<path d="M37.7778 98.0388H3.55434C3.08696 98.0388 2.62416 97.9466 2.19245 97.7675C1.76074 97.5884 1.36859 97.326 1.03844 96.9951C0.70829 96.6643 0.446636 96.2716 0.268448 95.8395C0.0902599 95.4074 -0.000962026 94.9444 7.65008e-06 94.4771V73.151C7.65008e-06 72.2084 0.37448 71.3043 1.04105 70.6377C1.70762 69.9712 2.61167 69.5967 3.55434 69.5967H37.7778C38.7211 69.5967 39.626 69.9709 40.2937 70.6373C40.9614 71.3036 41.3375 72.2077 41.3395 73.151V94.4771C41.3395 95.4217 40.9642 96.3276 40.2963 96.9956C39.6283 97.6635 38.7224 98.0388 37.7778 98.0388ZM3.55434 71.0715C3.00282 71.0715 2.4739 71.2906 2.08391 71.6806C1.69393 72.0706 1.47484 72.5995 1.47484 73.151V94.4771C1.47483 95.0293 1.69369 95.559 2.08346 95.9501C2.47323 96.3413 3.00214 96.562 3.55434 96.564H37.7778C38.3313 96.564 38.8621 96.3441 39.2534 95.9527C39.6448 95.5614 39.8647 95.0305 39.8647 94.4771V73.151C39.8627 72.5988 39.642 72.0699 39.2508 71.6801C38.8597 71.2904 38.33 71.0715 37.7778 71.0715H3.55434Z" fill="#093F68"/>
<path d="M40.602 73.1513V75.6142H0.737305V73.1734C0.737305 72.4263 1.03409 71.7098 1.56236 71.1815C2.09064 70.6532 2.80713 70.3564 3.55422 70.3564H37.7777C38.5216 70.3564 39.2356 70.6499 39.7644 71.1732C40.2932 71.6965 40.5942 72.4073 40.602 73.1513Z" fill="#FFBC0E"/>
<path d="M40.6021 76.3517H0.737415C0.54184 76.3517 0.354275 76.2741 0.215983 76.1358C0.0776912 75.9975 0 75.8099 0 75.6143V73.1735C0 72.2308 0.374472 71.3267 1.04104 70.6602C1.70761 69.9936 2.61166 69.6191 3.55433 69.6191H37.7778C38.7211 69.6191 39.6259 69.9934 40.2937 70.6597C40.9614 71.3261 41.3375 72.2301 41.3395 73.1735V75.6143C41.3395 75.8099 41.2618 75.9975 41.1235 76.1358C40.9852 76.2741 40.7976 76.3517 40.6021 76.3517ZM1.47483 74.8769H39.8647V73.1735C39.8627 72.6213 39.642 72.0924 39.2508 71.7026C38.8597 71.3128 38.33 71.094 37.7778 71.094H3.55433C3.00281 71.094 2.47389 71.3131 2.0839 71.703C1.69392 72.093 1.47483 72.622 1.47483 73.1735V74.8769Z" fill="#093F68"/>
<path d="M21.1563 93.5555C21.0124 93.556 20.8715 93.5144 20.7509 93.4358C20.6304 93.3572 20.5355 93.245 20.4779 93.1131L15.139 80.7761L11.3045 87.2064C11.2392 87.3165 11.1464 87.4077 11.0352 87.471C10.924 87.5344 10.7983 87.5677 10.6703 87.5677H6.37853C6.18295 87.5677 5.99539 87.4901 5.8571 87.3518C5.7188 87.2135 5.64111 87.0259 5.64111 86.8303C5.64111 86.6348 5.7188 86.4472 5.8571 86.3089C5.99539 86.1706 6.18295 86.0929 6.37853 86.0929H10.25L14.6081 78.7851C14.6783 78.6699 14.7788 78.5762 14.8986 78.5142C15.0184 78.4522 15.153 78.4242 15.2875 78.4333C15.4221 78.4425 15.5517 78.4883 15.662 78.566C15.7723 78.6436 15.8593 78.75 15.9133 78.8736L21.149 90.8935L25.072 80.7024C25.1186 80.5778 25.1981 80.4682 25.3019 80.3851C25.4058 80.3021 25.5302 80.2486 25.6619 80.2305C25.7922 80.2141 25.9244 80.2329 26.0449 80.2847C26.1655 80.3366 26.27 80.4197 26.3477 80.5254L29.8652 85.267H35.0271C35.2227 85.267 35.4102 85.3447 35.5485 85.483C35.6868 85.6213 35.7645 85.8088 35.7645 86.0044C35.7645 86.2 35.6868 86.3876 35.5485 86.5258C35.4102 86.6641 35.2227 86.7418 35.0271 86.7418H29.4891C29.374 86.741 29.2607 86.7132 29.1583 86.6607C29.0558 86.6082 28.9671 86.5324 28.8992 86.4395L25.9495 82.4796L21.8642 93.1057C21.8117 93.242 21.7199 93.3596 21.6004 93.4436C21.481 93.5276 21.3392 93.5743 21.1932 93.5777L21.1563 93.5555Z" fill="#DFEAEF"/>
</svg>
