<svg width="24" height="20" viewBox="0 0 24 20" fill="none" xmlns="http://www.w3.org/2000/svg">
<path d="M21.543 5.18262C21.5576 5.39093 21.5576 5.59924 21.5576 5.80946C21.5576 12.2151 16.6045 19.6028 7.54759 19.6028V19.599C4.87215 19.6028 2.25229 18.8483 0 17.4257C0.389031 17.4718 0.780012 17.4948 1.17197 17.4958C3.38915 17.4977 5.54296 16.7653 7.28726 15.4165C5.18026 15.3772 3.3326 14.0246 2.68714 12.05C3.42523 12.1902 4.18574 12.1614 4.91018 11.9665C2.61304 11.5096 0.96039 9.52251 0.96039 7.21481V7.15338C1.64485 7.52871 2.41121 7.73702 3.19512 7.76006C1.03157 6.33647 0.364656 3.50273 1.67118 1.28719C4.17111 4.3158 7.8596 6.15696 11.8191 6.35183C11.4223 4.6681 11.9644 2.90373 13.2436 1.72012C15.2268 -0.115283 18.3459 -0.0212093 20.2101 1.93035C21.3129 1.71628 22.3698 1.31791 23.337 0.753462C22.9694 1.87563 22.2001 2.82885 21.1725 3.43457C22.1484 3.3213 23.102 3.06404 24 2.67142C23.3389 3.64672 22.5063 4.49627 21.543 5.18262Z" fill="#7D8795"/>
</svg>
