<svg width="21" height="20" viewBox="0 0 21 20" fill="none" xmlns="http://www.w3.org/2000/svg">
<path d="M15 12H15.01M1.5 3V17C1.5 18.1046 2.39543 19 3.5 19H17.5C18.6046 19 19.5 18.1046 19.5 17V7C19.5 5.89543 18.6046 5 17.5 5L3.5 5C2.39543 5 1.5 4.10457 1.5 3ZM1.5 3C1.5 1.89543 2.39543 1 3.5 1H15.5M15.5 12C15.5 12.2761 15.2761 12.5 15 12.5C14.7239 12.5 14.5 12.2761 14.5 12C14.5 11.7239 14.7239 11.5 15 11.5C15.2761 11.5 15.5 11.7239 15.5 12Z" stroke="#2375EF" stroke-width="2" stroke-linecap="round" stroke-linejoin="round"/>
</svg>
