<svg width="320" height="864" viewBox="0 0 320 864" fill="none" xmlns="http://www.w3.org/2000/svg">
<g filter="url(#filter0_b_118_3707)">
<rect x="102" y="696" width="104" height="104" rx="32" fill="white" fill-opacity="0.1"/>
<path d="M168.167 740.13L154 748M154 748L139.834 740.13M154 748L154 763.833M169 754.764V741.236C169 740.665 169 740.379 168.916 740.124C168.842 739.899 168.72 739.692 168.559 739.518C168.378 739.321 168.128 739.182 167.629 738.905L155.296 732.053C154.823 731.79 154.587 731.659 154.336 731.607C154.115 731.562 153.886 731.562 153.665 731.607C153.414 731.659 153.178 731.79 152.705 732.053L140.372 738.905C139.873 739.182 139.623 739.321 139.442 739.518C139.281 739.692 139.159 739.899 139.085 740.124C139 740.379 139 740.665 139 741.236V754.764C139 755.335 139 755.621 139.085 755.876C139.159 756.101 139.281 756.308 139.442 756.482C139.623 756.679 139.873 756.818 140.372 757.095L152.705 763.947C153.178 764.21 153.414 764.341 153.665 764.393C153.886 764.438 154.115 764.438 154.336 764.393C154.587 764.341 154.823 764.21 155.296 763.947L167.629 757.095C168.128 756.818 168.378 756.679 168.559 756.482C168.72 756.308 168.842 756.101 168.916 755.876C169 755.621 169 755.335 169 754.764Z" stroke="#2375EF" stroke-width="2.85" stroke-linecap="round" stroke-linejoin="round"/>
<rect x="102.633" y="696.633" width="102.733" height="102.733" rx="31.3667" stroke="#D3E3FC" stroke-width="1.26667"/>
</g>
<path d="M118.738 827.28C117.018 827.28 115.651 826.8 114.638 825.84C113.624 824.867 113.118 823.467 113.118 821.64V818.36C113.118 816.533 113.624 815.14 114.638 814.18C115.651 813.207 117.018 812.72 118.738 812.72C120.458 812.72 121.824 813.207 122.838 814.18C123.864 815.14 124.378 816.533 124.378 818.36V821.64C124.378 823.467 123.864 824.867 122.838 825.84C121.824 826.8 120.458 827.28 118.738 827.28ZM118.738 825.34C119.844 825.34 120.698 825.02 121.298 824.38C121.898 823.727 122.198 822.84 122.198 821.72V818.28C122.198 817.16 121.898 816.28 121.298 815.64C120.698 814.987 119.844 814.66 118.738 814.66C117.658 814.66 116.811 814.987 116.198 815.64C115.584 816.28 115.278 817.16 115.278 818.28V821.72C115.278 822.84 115.584 823.727 116.198 824.38C116.811 825.02 117.658 825.34 118.738 825.34ZM126.995 827V817.14H129.015V818.62H129.335C129.521 818.22 129.855 817.847 130.335 817.5C130.815 817.153 131.528 816.98 132.475 816.98C133.221 816.98 133.881 817.147 134.455 817.48C135.041 817.813 135.501 818.287 135.835 818.9C136.168 819.5 136.335 820.227 136.335 821.08V827H134.275V821.24C134.275 820.387 134.061 819.76 133.635 819.36C133.208 818.947 132.621 818.74 131.875 818.74C131.021 818.74 130.335 819.02 129.815 819.58C129.308 820.14 129.055 820.953 129.055 822.02V827H126.995ZM148.977 827.28C148.03 827.28 147.17 827.08 146.397 826.68C145.637 826.28 145.03 825.7 144.577 824.94C144.137 824.18 143.917 823.267 143.917 822.2V821.94C143.917 820.873 144.137 819.967 144.577 819.22C145.03 818.46 145.637 817.88 146.397 817.48C147.17 817.067 148.03 816.86 148.977 816.86C149.924 816.86 150.73 817.033 151.397 817.38C152.064 817.727 152.597 818.187 152.997 818.76C153.41 819.333 153.677 819.967 153.797 820.66L151.797 821.08C151.73 820.64 151.59 820.24 151.377 819.88C151.164 819.52 150.864 819.233 150.477 819.02C150.09 818.807 149.604 818.7 149.017 818.7C148.444 818.7 147.924 818.833 147.457 819.1C147.004 819.353 146.644 819.727 146.377 820.22C146.11 820.7 145.977 821.287 145.977 821.98V822.16C145.977 822.853 146.11 823.447 146.377 823.94C146.644 824.433 147.004 824.807 147.457 825.06C147.924 825.313 148.444 825.44 149.017 825.44C149.884 825.44 150.544 825.22 150.997 824.78C151.45 824.327 151.737 823.753 151.857 823.06L153.857 823.52C153.697 824.2 153.41 824.827 152.997 825.4C152.597 825.973 152.064 826.433 151.397 826.78C150.73 827.113 149.924 827.28 148.977 827.28ZM156.233 827V813H158.293V818.54H158.613C158.746 818.287 158.933 818.04 159.173 817.8C159.426 817.56 159.753 817.367 160.153 817.22C160.566 817.06 161.086 816.98 161.713 816.98C162.46 816.98 163.12 817.147 163.693 817.48C164.28 817.813 164.74 818.287 165.073 818.9C165.406 819.5 165.573 820.227 165.573 821.08V827H163.513V821.24C163.513 820.387 163.3 819.76 162.873 819.36C162.446 818.947 161.86 818.74 161.113 818.74C160.26 818.74 159.573 819.02 159.053 819.58C158.546 820.14 158.293 820.953 158.293 822.02V827H156.233ZM171.598 827.28C170.891 827.28 170.258 827.16 169.698 826.92C169.151 826.68 168.711 826.327 168.378 825.86C168.058 825.393 167.898 824.827 167.898 824.16C167.898 823.48 168.058 822.92 168.378 822.48C168.711 822.027 169.158 821.687 169.718 821.46C170.291 821.233 170.938 821.12 171.658 821.12H174.658V820.48C174.658 819.907 174.484 819.447 174.138 819.1C173.791 818.753 173.258 818.58 172.538 818.58C171.831 818.58 171.291 818.747 170.918 819.08C170.544 819.413 170.298 819.847 170.178 820.38L168.258 819.76C168.418 819.227 168.671 818.747 169.018 818.32C169.378 817.88 169.851 817.527 170.438 817.26C171.024 816.993 171.731 816.86 172.558 816.86C173.838 816.86 174.844 817.187 175.578 817.84C176.311 818.493 176.678 819.42 176.678 820.62V824.68C176.678 825.08 176.864 825.28 177.238 825.28H178.078V827H176.538C176.071 827 175.691 826.88 175.398 826.64C175.104 826.4 174.958 826.073 174.958 825.66V825.6H174.658C174.551 825.8 174.391 826.033 174.178 826.3C173.964 826.567 173.651 826.8 173.238 827C172.824 827.187 172.278 827.28 171.598 827.28ZM171.898 825.58C172.724 825.58 173.391 825.347 173.898 824.88C174.404 824.4 174.658 823.747 174.658 822.92V822.72H171.778C171.231 822.72 170.791 822.84 170.458 823.08C170.124 823.307 169.958 823.647 169.958 824.1C169.958 824.553 170.131 824.913 170.478 825.18C170.824 825.447 171.298 825.58 171.898 825.58ZM180.081 827V817.14H182.141V827H180.081ZM181.121 815.8C180.721 815.8 180.381 815.673 180.101 815.42C179.834 815.153 179.701 814.813 179.701 814.4C179.701 813.987 179.834 813.653 180.101 813.4C180.381 813.133 180.721 813 181.121 813C181.534 813 181.874 813.133 182.141 813.4C182.407 813.653 182.541 813.987 182.541 814.4C182.541 814.813 182.407 815.153 182.141 815.42C181.874 815.673 181.534 815.8 181.121 815.8ZM185.198 827V817.14H187.218V818.62H187.538C187.724 818.22 188.058 817.847 188.538 817.5C189.018 817.153 189.731 816.98 190.678 816.98C191.424 816.98 192.084 817.147 192.658 817.48C193.244 817.813 193.704 818.287 194.038 818.9C194.371 819.5 194.538 820.227 194.538 821.08V827H192.478V821.24C192.478 820.387 192.264 819.76 191.838 819.36C191.411 818.947 190.824 818.74 190.078 818.74C189.224 818.74 188.538 819.02 188.018 819.58C187.511 820.14 187.258 820.953 187.258 822.02V827H185.198ZM111.573 851.28C110.573 851.28 109.7 851.073 108.953 850.66C108.207 850.233 107.62 849.64 107.193 848.88C106.78 848.107 106.573 847.213 106.573 846.2V845.96C106.573 844.933 106.78 844.04 107.193 843.28C107.607 842.507 108.18 841.913 108.913 841.5C109.66 841.073 110.52 840.86 111.493 840.86C112.44 840.86 113.267 841.073 113.973 841.5C114.693 841.913 115.253 842.493 115.653 843.24C116.053 843.987 116.253 844.86 116.253 845.86V846.64H108.673C108.7 847.507 108.987 848.2 109.533 848.72C110.093 849.227 110.787 849.48 111.613 849.48C112.387 849.48 112.967 849.307 113.353 848.96C113.753 848.613 114.06 848.213 114.273 847.76L115.973 848.64C115.787 849.013 115.513 849.407 115.153 849.82C114.807 850.233 114.347 850.58 113.773 850.86C113.2 851.14 112.467 851.28 111.573 851.28ZM108.693 845.06H114.153C114.1 844.313 113.833 843.733 113.353 843.32C112.873 842.893 112.247 842.68 111.473 842.68C110.7 842.68 110.067 842.893 109.573 843.32C109.093 843.733 108.8 844.313 108.693 845.06ZM117.248 851L121.008 846.02L117.328 841.14H119.748L122.328 844.68H122.648L125.228 841.14H127.668L123.968 846.02L127.728 851H125.268L122.648 847.38H122.328L119.708 851H117.248ZM133.819 851.28C132.819 851.28 131.946 851.073 131.199 850.66C130.453 850.233 129.866 849.64 129.439 848.88C129.026 848.107 128.819 847.213 128.819 846.2V845.96C128.819 844.933 129.026 844.04 129.439 843.28C129.853 842.507 130.426 841.913 131.159 841.5C131.906 841.073 132.766 840.86 133.739 840.86C134.686 840.86 135.513 841.073 136.219 841.5C136.939 841.913 137.499 842.493 137.899 843.24C138.299 843.987 138.499 844.86 138.499 845.86V846.64H130.919C130.946 847.507 131.233 848.2 131.779 848.72C132.339 849.227 133.033 849.48 133.859 849.48C134.633 849.48 135.213 849.307 135.599 848.96C135.999 848.613 136.306 848.213 136.519 847.76L138.219 848.64C138.033 849.013 137.759 849.407 137.399 849.82C137.053 850.233 136.593 850.58 136.019 850.86C135.446 851.14 134.713 851.28 133.819 851.28ZM130.939 845.06H136.399C136.346 844.313 136.079 843.733 135.599 843.32C135.119 842.893 134.493 842.68 133.719 842.68C132.946 842.68 132.313 842.893 131.819 843.32C131.339 843.733 131.046 844.313 130.939 845.06ZM145.559 851.28C144.612 851.28 143.752 851.08 142.979 850.68C142.219 850.28 141.612 849.7 141.159 848.94C140.719 848.18 140.499 847.267 140.499 846.2V845.94C140.499 844.873 140.719 843.967 141.159 843.22C141.612 842.46 142.219 841.88 142.979 841.48C143.752 841.067 144.612 840.86 145.559 840.86C146.506 840.86 147.312 841.033 147.979 841.38C148.646 841.727 149.179 842.187 149.579 842.76C149.992 843.333 150.259 843.967 150.379 844.66L148.379 845.08C148.312 844.64 148.172 844.24 147.959 843.88C147.746 843.52 147.446 843.233 147.059 843.02C146.672 842.807 146.186 842.7 145.599 842.7C145.026 842.7 144.506 842.833 144.039 843.1C143.586 843.353 143.226 843.727 142.959 844.22C142.692 844.7 142.559 845.287 142.559 845.98V846.16C142.559 846.853 142.692 847.447 142.959 847.94C143.226 848.433 143.586 848.807 144.039 849.06C144.506 849.313 145.026 849.44 145.599 849.44C146.466 849.44 147.126 849.22 147.579 848.78C148.032 848.327 148.319 847.753 148.439 847.06L150.439 847.52C150.279 848.2 149.992 848.827 149.579 849.4C149.179 849.973 148.646 850.433 147.979 850.78C147.312 851.113 146.506 851.28 145.559 851.28ZM156.595 851.18C155.848 851.18 155.182 851.013 154.595 850.68C154.008 850.347 153.548 849.873 153.215 849.26C152.882 848.647 152.715 847.913 152.715 847.06V841.14H154.775V846.92C154.775 847.773 154.988 848.407 155.415 848.82C155.842 849.22 156.435 849.42 157.195 849.42C158.035 849.42 158.708 849.14 159.215 848.58C159.735 848.007 159.995 847.187 159.995 846.12V841.14H162.055V851H160.035V849.52H159.715C159.528 849.92 159.195 850.3 158.715 850.66C158.235 851.007 157.528 851.18 156.595 851.18ZM168.8 851C168.2 851 167.72 850.82 167.36 850.46C167.013 850.1 166.84 849.62 166.84 849.02V842.88H164.12V841.14H166.84V837.88H168.9V841.14H171.84V842.88H168.9V848.66C168.9 849.06 169.087 849.26 169.46 849.26H171.52V851H168.8ZM174.26 851V841.14H176.32V851H174.26ZM175.3 839.8C174.9 839.8 174.56 839.673 174.28 839.42C174.014 839.153 173.88 838.813 173.88 838.4C173.88 837.987 174.014 837.653 174.28 837.4C174.56 837.133 174.9 837 175.3 837C175.714 837 176.054 837.133 176.32 837.4C176.587 837.653 176.72 837.987 176.72 838.4C176.72 838.813 176.587 839.153 176.32 839.42C176.054 839.673 175.714 839.8 175.3 839.8ZM183.997 851.28C183.011 851.28 182.131 851.08 181.357 850.68C180.597 850.267 179.997 849.68 179.557 848.92C179.117 848.16 178.897 847.26 178.897 846.22V845.92C178.897 844.88 179.117 843.987 179.557 843.24C179.997 842.48 180.597 841.893 181.357 841.48C182.131 841.067 183.011 840.86 183.997 840.86C184.984 840.86 185.864 841.067 186.637 841.48C187.411 841.893 188.017 842.48 188.457 843.24C188.897 843.987 189.117 844.88 189.117 845.92V846.22C189.117 847.26 188.897 848.16 188.457 848.92C188.017 849.68 187.411 850.267 186.637 850.68C185.864 851.08 184.984 851.28 183.997 851.28ZM183.997 849.44C184.904 849.44 185.637 849.153 186.197 848.58C186.771 847.993 187.057 847.187 187.057 846.16V845.98C187.057 844.953 186.777 844.153 186.217 843.58C185.657 842.993 184.917 842.7 183.997 842.7C183.104 842.7 182.371 842.993 181.797 843.58C181.237 844.153 180.957 844.953 180.957 845.98V846.16C180.957 847.187 181.237 847.993 181.797 848.58C182.371 849.153 183.104 849.44 183.997 849.44ZM191.682 851V841.14H193.702V842.62H194.022C194.209 842.22 194.542 841.847 195.022 841.5C195.502 841.153 196.215 840.98 197.162 840.98C197.909 840.98 198.569 841.147 199.142 841.48C199.729 841.813 200.189 842.287 200.522 842.9C200.855 843.5 201.022 844.227 201.022 845.08V851H198.962V845.24C198.962 844.387 198.749 843.76 198.322 843.36C197.895 842.947 197.309 842.74 196.562 842.74C195.709 842.74 195.022 843.02 194.502 843.58C193.995 844.14 193.742 844.953 193.742 846.02V851H191.682Z" fill="#2375EF"/>
<g filter="url(#filter1_b_118_3707)">
<rect x="204" y="464" width="104" height="104" rx="32" fill="white" fill-opacity="0.1"/>
<path d="M242.667 520.832C241.429 519.567 240.495 518.036 239.935 516.357C239.376 514.677 239.206 512.892 239.439 511.137C239.672 509.382 240.301 507.703 241.279 506.228C242.256 504.752 243.557 503.518 245.082 502.619C246.608 501.721 248.317 501.181 250.082 501.041C251.847 500.901 253.62 501.165 255.268 501.812C256.916 502.458 258.395 503.472 259.593 504.775C260.791 506.078 261.677 507.637 262.184 509.333H265.167C266.776 509.333 268.343 509.851 269.635 510.809C270.928 511.768 271.878 513.117 272.345 514.656C272.812 516.196 272.771 517.846 272.229 519.361C271.687 520.876 270.672 522.176 269.334 523.07" stroke="#2375EF" stroke-width="2.85" stroke-linecap="round" stroke-linejoin="round"/>
<path d="M256 516V531" stroke="#2375EF" stroke-width="2.85" stroke-linecap="round" stroke-linejoin="round"/>
<path d="M262.667 522.667L256 516L249.333 522.667" stroke="#2375EF" stroke-width="2.85" stroke-linecap="round" stroke-linejoin="round"/>
<rect x="204.633" y="464.633" width="102.733" height="102.733" rx="31.3667" stroke="#D3E3FC" stroke-width="1.26667"/>
</g>
<path d="M204.106 595.28C203 595.28 202.046 595.08 201.246 594.68C200.46 594.28 199.846 593.707 199.406 592.96C198.98 592.2 198.766 591.28 198.766 590.2V581H200.946V590.26C200.946 591.247 201.22 592.007 201.766 592.54C202.313 593.073 203.093 593.34 204.106 593.34C205.12 593.34 205.9 593.073 206.446 592.54C206.993 592.007 207.266 591.247 207.266 590.26V581H209.426V590.2C209.426 591.28 209.213 592.2 208.786 592.96C208.36 593.707 207.746 594.28 206.946 594.68C206.146 595.08 205.2 595.28 204.106 595.28ZM212.305 599V585.14H214.325V586.56H214.645C214.898 586.12 215.278 585.727 215.785 585.38C216.305 585.033 217.045 584.86 218.005 584.86C218.832 584.86 219.585 585.06 220.265 585.46C220.958 585.86 221.512 586.44 221.925 587.2C222.352 587.947 222.565 588.853 222.565 589.92V590.22C222.565 591.287 222.358 592.2 221.945 592.96C221.532 593.707 220.978 594.28 220.285 594.68C219.592 595.08 218.832 595.28 218.005 595.28C217.365 595.28 216.825 595.2 216.385 595.04C215.945 594.88 215.592 594.68 215.325 594.44C215.058 594.187 214.845 593.927 214.685 593.66H214.365V599H212.305ZM217.405 593.48C218.312 593.48 219.052 593.193 219.625 592.62C220.198 592.047 220.485 591.227 220.485 590.16V589.98C220.485 588.927 220.192 588.113 219.605 587.54C219.032 586.967 218.298 586.68 217.405 586.68C216.525 586.68 215.792 586.967 215.205 587.54C214.632 588.113 214.345 588.927 214.345 589.98V590.16C214.345 591.227 214.632 592.047 215.205 592.62C215.792 593.193 216.525 593.48 217.405 593.48ZM225.118 595V581H227.178V595H225.118ZM234.855 595.28C233.868 595.28 232.988 595.08 232.215 594.68C231.455 594.267 230.855 593.68 230.415 592.92C229.975 592.16 229.755 591.26 229.755 590.22V589.92C229.755 588.88 229.975 587.987 230.415 587.24C230.855 586.48 231.455 585.893 232.215 585.48C232.988 585.067 233.868 584.86 234.855 584.86C235.842 584.86 236.722 585.067 237.495 585.48C238.268 585.893 238.875 586.48 239.315 587.24C239.755 587.987 239.975 588.88 239.975 589.92V590.22C239.975 591.26 239.755 592.16 239.315 592.92C238.875 593.68 238.268 594.267 237.495 594.68C236.722 595.08 235.842 595.28 234.855 595.28ZM234.855 593.44C235.762 593.44 236.495 593.153 237.055 592.58C237.628 591.993 237.915 591.187 237.915 590.16V589.98C237.915 588.953 237.635 588.153 237.075 587.58C236.515 586.993 235.775 586.7 234.855 586.7C233.962 586.7 233.228 586.993 232.655 587.58C232.095 588.153 231.815 588.953 231.815 589.98V590.16C231.815 591.187 232.095 591.993 232.655 592.58C233.228 593.153 233.962 593.44 234.855 593.44ZM245.6 595.28C244.893 595.28 244.26 595.16 243.7 594.92C243.153 594.68 242.713 594.327 242.38 593.86C242.06 593.393 241.9 592.827 241.9 592.16C241.9 591.48 242.06 590.92 242.38 590.48C242.713 590.027 243.16 589.687 243.72 589.46C244.293 589.233 244.94 589.12 245.66 589.12H248.66V588.48C248.66 587.907 248.486 587.447 248.14 587.1C247.793 586.753 247.26 586.58 246.54 586.58C245.833 586.58 245.293 586.747 244.92 587.08C244.546 587.413 244.3 587.847 244.18 588.38L242.26 587.76C242.42 587.227 242.673 586.747 243.02 586.32C243.38 585.88 243.853 585.527 244.44 585.26C245.026 584.993 245.733 584.86 246.56 584.86C247.84 584.86 248.846 585.187 249.58 585.84C250.313 586.493 250.68 587.42 250.68 588.62V592.68C250.68 593.08 250.866 593.28 251.24 593.28H252.08V595H250.54C250.073 595 249.693 594.88 249.4 594.64C249.106 594.4 248.96 594.073 248.96 593.66V593.6H248.66C248.553 593.8 248.393 594.033 248.18 594.3C247.966 594.567 247.653 594.8 247.24 595C246.826 595.187 246.28 595.28 245.6 595.28ZM245.9 593.58C246.726 593.58 247.393 593.347 247.9 592.88C248.406 592.4 248.66 591.747 248.66 590.92V590.72H245.78C245.233 590.72 244.793 590.84 244.46 591.08C244.126 591.307 243.96 591.647 243.96 592.1C243.96 592.553 244.133 592.913 244.48 593.18C244.826 593.447 245.3 593.58 245.9 593.58ZM257.928 595.28C257.115 595.28 256.361 595.08 255.668 594.68C254.975 594.28 254.415 593.707 253.988 592.96C253.575 592.2 253.368 591.287 253.368 590.22V589.92C253.368 588.867 253.575 587.96 253.988 587.2C254.401 586.44 254.955 585.86 255.648 585.46C256.341 585.06 257.101 584.86 257.928 584.86C258.568 584.86 259.101 584.94 259.528 585.1C259.968 585.26 260.328 585.467 260.608 585.72C260.888 585.96 261.101 586.213 261.248 586.48H261.568V581H263.628V595H261.608V593.6H261.288C261.035 594.027 260.648 594.413 260.128 594.76C259.621 595.107 258.888 595.28 257.928 595.28ZM258.508 593.48C259.401 593.48 260.135 593.193 260.708 592.62C261.295 592.047 261.588 591.227 261.588 590.16V589.98C261.588 588.927 261.301 588.113 260.728 587.54C260.155 586.967 259.415 586.68 258.508 586.68C257.628 586.68 256.895 586.967 256.308 587.54C255.735 588.113 255.448 588.927 255.448 589.98V590.16C255.448 591.227 255.735 592.047 256.308 592.62C256.895 593.193 257.628 593.48 258.508 593.48ZM275.838 595.28C275.025 595.28 274.272 595.08 273.578 594.68C272.885 594.28 272.325 593.707 271.898 592.96C271.485 592.2 271.278 591.287 271.278 590.22V589.92C271.278 588.867 271.485 587.96 271.898 587.2C272.312 586.44 272.865 585.86 273.558 585.46C274.252 585.06 275.012 584.86 275.838 584.86C276.478 584.86 277.012 584.94 277.438 585.1C277.878 585.26 278.238 585.467 278.518 585.72C278.798 585.96 279.012 586.213 279.158 586.48H279.478V581H281.538V595H279.518V593.6H279.198C278.945 594.027 278.558 594.413 278.038 594.76C277.532 595.107 276.798 595.28 275.838 595.28ZM276.418 593.48C277.312 593.48 278.045 593.193 278.618 592.62C279.205 592.047 279.498 591.227 279.498 590.16V589.98C279.498 588.927 279.212 588.113 278.638 587.54C278.065 586.967 277.325 586.68 276.418 586.68C275.538 586.68 274.805 586.967 274.218 587.54C273.645 588.113 273.358 588.927 273.358 589.98V590.16C273.358 591.227 273.645 592.047 274.218 592.62C274.805 593.193 275.538 593.48 276.418 593.48ZM287.631 595.28C286.924 595.28 286.291 595.16 285.731 594.92C285.184 594.68 284.744 594.327 284.411 593.86C284.091 593.393 283.931 592.827 283.931 592.16C283.931 591.48 284.091 590.92 284.411 590.48C284.744 590.027 285.191 589.687 285.751 589.46C286.324 589.233 286.971 589.12 287.691 589.12H290.691V588.48C290.691 587.907 290.517 587.447 290.171 587.1C289.824 586.753 289.291 586.58 288.571 586.58C287.864 586.58 287.324 586.747 286.951 587.08C286.577 587.413 286.331 587.847 286.211 588.38L284.291 587.76C284.451 587.227 284.704 586.747 285.051 586.32C285.411 585.88 285.884 585.527 286.471 585.26C287.057 584.993 287.764 584.86 288.591 584.86C289.871 584.86 290.877 585.187 291.611 585.84C292.344 586.493 292.711 587.42 292.711 588.62V592.68C292.711 593.08 292.897 593.28 293.271 593.28H294.111V595H292.571C292.104 595 291.724 594.88 291.431 594.64C291.137 594.4 290.991 594.073 290.991 593.66V593.6H290.691C290.584 593.8 290.424 594.033 290.211 594.3C289.997 594.567 289.684 594.8 289.271 595C288.857 595.187 288.311 595.28 287.631 595.28ZM287.931 593.58C288.757 593.58 289.424 593.347 289.931 592.88C290.437 592.4 290.691 591.747 290.691 590.92V590.72H287.811C287.264 590.72 286.824 590.84 286.491 591.08C286.157 591.307 285.991 591.647 285.991 592.1C285.991 592.553 286.164 592.913 286.511 593.18C286.857 593.447 287.331 593.58 287.931 593.58ZM299.13 595C298.53 595 298.05 594.82 297.69 594.46C297.343 594.1 297.17 593.62 297.17 593.02V586.88H294.45V585.14H297.17V581.88H299.23V585.14H302.17V586.88H299.23V592.66C299.23 593.06 299.417 593.26 299.79 593.26H301.85V595H299.13ZM307.631 595.28C306.924 595.28 306.291 595.16 305.731 594.92C305.184 594.68 304.744 594.327 304.411 593.86C304.091 593.393 303.931 592.827 303.931 592.16C303.931 591.48 304.091 590.92 304.411 590.48C304.744 590.027 305.191 589.687 305.751 589.46C306.324 589.233 306.971 589.12 307.691 589.12H310.691V588.48C310.691 587.907 310.517 587.447 310.171 587.1C309.824 586.753 309.291 586.58 308.571 586.58C307.864 586.58 307.324 586.747 306.951 587.08C306.577 587.413 306.331 587.847 306.211 588.38L304.291 587.76C304.451 587.227 304.704 586.747 305.051 586.32C305.411 585.88 305.884 585.527 306.471 585.26C307.057 584.993 307.764 584.86 308.591 584.86C309.871 584.86 310.877 585.187 311.611 585.84C312.344 586.493 312.711 587.42 312.711 588.62V592.68C312.711 593.08 312.897 593.28 313.271 593.28H314.111V595H312.571C312.104 595 311.724 594.88 311.431 594.64C311.137 594.4 310.991 594.073 310.991 593.66V593.6H310.691C310.584 593.8 310.424 594.033 310.211 594.3C309.997 594.567 309.684 594.8 309.271 595C308.857 595.187 308.311 595.28 307.631 595.28ZM307.931 593.58C308.757 593.58 309.424 593.347 309.931 592.88C310.437 592.4 310.691 591.747 310.691 590.92V590.72H307.811C307.264 590.72 306.824 590.84 306.491 591.08C306.157 591.307 305.991 591.647 305.991 592.1C305.991 592.553 306.164 592.913 306.511 593.18C306.857 593.447 307.331 593.58 307.931 593.58Z" fill="#2375EF"/>
<g filter="url(#filter2_b_118_3707)">
<rect x="12" y="464" width="104" height="104" rx="32" fill="white" fill-opacity="0.1"/>
<path d="M76.5 516C76.5 513.947 76.4233 511.912 76.27 509.897C76.1521 508.3 75.4645 506.799 74.3326 505.667C73.2007 504.535 71.6998 503.848 70.1033 503.73C66.0402 503.423 61.9598 503.423 57.8967 503.73C56.3002 503.848 54.7993 504.535 53.6674 505.667C52.5355 506.799 51.8479 508.3 51.73 509.897C51.7017 510.263 51.6767 510.632 51.6533 511M76.5 516L81.5 511M76.5 516L71.5 511M51.5 516C51.5 518.053 51.5767 520.088 51.73 522.103C51.8479 523.7 52.5355 525.201 53.6674 526.332C54.7993 527.464 56.3002 528.152 57.8967 528.27C61.9598 528.577 66.0402 528.577 70.1033 528.27C71.6998 528.152 73.2007 527.464 74.3326 526.332C75.4645 525.201 76.1521 523.7 76.27 522.103C76.2983 521.737 76.3233 521.368 76.3467 521M51.5 516L56.5 521M51.5 516L46.5 521" stroke="#2375EF" stroke-width="2.85" stroke-linecap="round" stroke-linejoin="round"/>
<rect x="12.6333" y="464.633" width="102.733" height="102.733" rx="31.3667" stroke="#D3E3FC" stroke-width="1.26667"/>
</g>
<path d="M3.19438 595V581H5.35438V595H3.19438ZM8.3325 595V585.14H10.3525V586.62H10.6725C10.8592 586.22 11.1925 585.847 11.6725 585.5C12.1525 585.153 12.8658 584.98 13.8125 584.98C14.5592 584.98 15.2192 585.147 15.7925 585.48C16.3792 585.813 16.8392 586.287 17.1725 586.9C17.5058 587.5 17.6725 588.227 17.6725 589.08V595H15.6125V589.24C15.6125 588.387 15.3992 587.76 14.9725 587.36C14.5458 586.947 13.9592 586.74 13.2125 586.74C12.3592 586.74 11.6725 587.02 11.1525 587.58C10.6458 588.14 10.3925 588.953 10.3925 590.02V595H8.3325ZM24.0638 595C23.4638 595 22.9838 594.82 22.6238 594.46C22.2771 594.1 22.1038 593.62 22.1038 593.02V586.88H19.3838V585.14H22.1038V581.88H24.1638V585.14H27.1038V586.88H24.1638V592.66C24.1638 593.06 24.3504 593.26 24.7237 593.26H26.7838V595H24.0638ZM33.6923 595.28C32.6923 595.28 31.819 595.073 31.0723 594.66C30.3257 594.233 29.739 593.64 29.3123 592.88C28.899 592.107 28.6923 591.213 28.6923 590.2V589.96C28.6923 588.933 28.899 588.04 29.3123 587.28C29.7257 586.507 30.299 585.913 31.0323 585.5C31.779 585.073 32.639 584.86 33.6123 584.86C34.559 584.86 35.3857 585.073 36.0923 585.5C36.8123 585.913 37.3723 586.493 37.7723 587.24C38.1723 587.987 38.3723 588.86 38.3723 589.86V590.64H30.7923C30.819 591.507 31.1057 592.2 31.6523 592.72C32.2123 593.227 32.9057 593.48 33.7323 593.48C34.5057 593.48 35.0857 593.307 35.4723 592.96C35.8723 592.613 36.179 592.213 36.3923 591.76L38.0923 592.64C37.9057 593.013 37.6323 593.407 37.2723 593.82C36.9257 594.233 36.4657 594.58 35.8923 594.86C35.319 595.14 34.5857 595.28 33.6923 595.28ZM30.8123 589.06H36.2723C36.219 588.313 35.9523 587.733 35.4723 587.32C34.9923 586.893 34.3657 586.68 33.5923 586.68C32.819 586.68 32.1857 586.893 31.6923 587.32C31.2123 587.733 30.919 588.313 30.8123 589.06ZM40.852 595V585.14H42.872V586.3H43.192C43.352 585.887 43.6054 585.587 43.952 585.4C44.312 585.2 44.752 585.1 45.272 585.1H46.452V586.96H45.192C44.5254 586.96 43.9787 587.147 43.552 587.52C43.1254 587.88 42.912 588.44 42.912 589.2V595H40.852ZM51.373 595.28C50.6663 595.28 50.033 595.16 49.473 594.92C48.9263 594.68 48.4863 594.327 48.153 593.86C47.833 593.393 47.673 592.827 47.673 592.16C47.673 591.48 47.833 590.92 48.153 590.48C48.4863 590.027 48.933 589.687 49.493 589.46C50.0663 589.233 50.713 589.12 51.433 589.12H54.433V588.48C54.433 587.907 54.2596 587.447 53.913 587.1C53.5663 586.753 53.033 586.58 52.313 586.58C51.6063 586.58 51.0663 586.747 50.693 587.08C50.3196 587.413 50.073 587.847 49.953 588.38L48.033 587.76C48.193 587.227 48.4463 586.747 48.793 586.32C49.153 585.88 49.6263 585.527 50.213 585.26C50.7996 584.993 51.5063 584.86 52.333 584.86C53.613 584.86 54.6196 585.187 55.353 585.84C56.0863 586.493 56.453 587.42 56.453 588.62V592.68C56.453 593.08 56.6396 593.28 57.013 593.28H57.853V595H56.313C55.8463 595 55.4663 594.88 55.173 594.64C54.8796 594.4 54.733 594.073 54.733 593.66V593.6H54.433C54.3263 593.8 54.1663 594.033 53.953 594.3C53.7396 594.567 53.4263 594.8 53.013 595C52.5996 595.187 52.053 595.28 51.373 595.28ZM51.673 593.58C52.4996 593.58 53.1663 593.347 53.673 592.88C54.1796 592.4 54.433 591.747 54.433 590.92V590.72H51.553C51.0063 590.72 50.5663 590.84 50.233 591.08C49.8996 591.307 49.733 591.647 49.733 592.1C49.733 592.553 49.9063 592.913 50.253 593.18C50.5996 593.447 51.073 593.58 51.673 593.58ZM64.2016 595.28C63.2549 595.28 62.3949 595.08 61.6216 594.68C60.8616 594.28 60.2549 593.7 59.8016 592.94C59.3616 592.18 59.1416 591.267 59.1416 590.2V589.94C59.1416 588.873 59.3616 587.967 59.8016 587.22C60.2549 586.46 60.8616 585.88 61.6216 585.48C62.3949 585.067 63.2549 584.86 64.2016 584.86C65.1482 584.86 65.9549 585.033 66.6216 585.38C67.2882 585.727 67.8216 586.187 68.2216 586.76C68.6349 587.333 68.9016 587.967 69.0216 588.66L67.0216 589.08C66.9549 588.64 66.8149 588.24 66.6016 587.88C66.3882 587.52 66.0882 587.233 65.7016 587.02C65.3149 586.807 64.8282 586.7 64.2416 586.7C63.6682 586.7 63.1482 586.833 62.6816 587.1C62.2282 587.353 61.8682 587.727 61.6016 588.22C61.3349 588.7 61.2016 589.287 61.2016 589.98V590.16C61.2016 590.853 61.3349 591.447 61.6016 591.94C61.8682 592.433 62.2282 592.807 62.6816 593.06C63.1482 593.313 63.6682 593.44 64.2416 593.44C65.1082 593.44 65.7682 593.22 66.2216 592.78C66.6749 592.327 66.9616 591.753 67.0816 591.06L69.0816 591.52C68.9216 592.2 68.6349 592.827 68.2216 593.4C67.8216 593.973 67.2882 594.433 66.6216 594.78C65.9549 595.113 65.1482 595.28 64.2016 595.28ZM74.8059 595C74.2059 595 73.7259 594.82 73.3659 594.46C73.0193 594.1 72.8459 593.62 72.8459 593.02V586.88H70.1259V585.14H72.8459V581.88H74.9059V585.14H77.8459V586.88H74.9059V592.66C74.9059 593.06 75.0926 593.26 75.4659 593.26H77.5259V595H74.8059ZM86.4438 595L84.7638 585.14H86.8238L88.0638 593.62H88.3838L90.1038 585.14H93.4438L95.1437 593.62H95.4638L96.7038 585.14H98.7638L97.0838 595H93.6238L91.9238 586.54H91.6038L89.9038 595H86.4438ZM101.204 595V585.14H103.264V595H101.204ZM102.244 583.8C101.844 583.8 101.504 583.673 101.224 583.42C100.957 583.153 100.824 582.813 100.824 582.4C100.824 581.987 100.957 581.653 101.224 581.4C101.504 581.133 101.844 581 102.244 581C102.657 581 102.997 581.133 103.264 581.4C103.53 581.653 103.664 581.987 103.664 582.4C103.664 582.813 103.53 583.153 103.264 583.42C102.997 583.673 102.657 583.8 102.244 583.8ZM110.021 595C109.421 595 108.941 594.82 108.581 594.46C108.234 594.1 108.061 593.62 108.061 593.02V586.88H105.341V585.14H108.061V581.88H110.121V585.14H113.061V586.88H110.121V592.66C110.121 593.06 110.307 593.26 110.681 593.26H112.741V595H110.021ZM115.481 595V581H117.541V586.54H117.861C117.994 586.287 118.181 586.04 118.421 585.8C118.674 585.56 119.001 585.367 119.401 585.22C119.814 585.06 120.334 584.98 120.961 584.98C121.708 584.98 122.368 585.147 122.941 585.48C123.528 585.813 123.988 586.287 124.321 586.9C124.654 587.5 124.821 588.227 124.821 589.08V595H122.761V589.24C122.761 588.387 122.548 587.76 122.121 587.36C121.694 586.947 121.108 586.74 120.361 586.74C119.508 586.74 118.821 587.02 118.301 587.58C117.794 588.14 117.541 588.953 117.541 590.02V595H115.481ZM38.809 619.28C37.9957 619.28 37.2423 619.08 36.549 618.68C35.8557 618.28 35.2957 617.707 34.869 616.96C34.4557 616.2 34.249 615.287 34.249 614.22V613.92C34.249 612.867 34.4557 611.96 34.869 611.2C35.2823 610.44 35.8357 609.86 36.529 609.46C37.2223 609.06 37.9823 608.86 38.809 608.86C39.449 608.86 39.9823 608.94 40.409 609.1C40.849 609.26 41.209 609.467 41.489 609.72C41.769 609.96 41.9823 610.213 42.129 610.48H42.449V605H44.509V619H42.489V617.6H42.169C41.9157 618.027 41.529 618.413 41.009 618.76C40.5023 619.107 39.769 619.28 38.809 619.28ZM39.389 617.48C40.2823 617.48 41.0157 617.193 41.589 616.62C42.1757 616.047 42.469 615.227 42.469 614.16V613.98C42.469 612.927 42.1823 612.113 41.609 611.54C41.0357 610.967 40.2957 610.68 39.389 610.68C38.509 610.68 37.7757 610.967 37.189 611.54C36.6157 612.113 36.329 612.927 36.329 613.98V614.16C36.329 615.227 36.6157 616.047 37.189 616.62C37.7757 617.193 38.509 617.48 39.389 617.48ZM46.4415 619L50.4415 605H54.2415L58.2215 619H56.0015L55.0815 615.7H49.6015L48.6815 619H46.4415ZM50.1415 613.7H54.5415L52.5015 606.34H52.1815L50.1415 613.7ZM60.1782 623V609.14H62.1982V610.56H62.5182C62.7715 610.12 63.1515 609.727 63.6582 609.38C64.1782 609.033 64.9182 608.86 65.8782 608.86C66.7049 608.86 67.4582 609.06 68.1382 609.46C68.8315 609.86 69.3849 610.44 69.7982 611.2C70.2249 611.947 70.4382 612.853 70.4382 613.92V614.22C70.4382 615.287 70.2315 616.2 69.8182 616.96C69.4049 617.707 68.8515 618.28 68.1582 618.68C67.4649 619.08 66.7049 619.28 65.8782 619.28C65.2382 619.28 64.6982 619.2 64.2582 619.04C63.8182 618.88 63.4649 618.68 63.1982 618.44C62.9315 618.187 62.7182 617.927 62.5582 617.66H62.2382V623H60.1782ZM65.2782 617.48C66.1849 617.48 66.9249 617.193 67.4982 616.62C68.0715 616.047 68.3582 615.227 68.3582 614.16V613.98C68.3582 612.927 68.0649 612.113 67.4782 611.54C66.9049 610.967 66.1715 610.68 65.2782 610.68C64.3982 610.68 63.6649 610.967 63.0782 611.54C62.5049 612.113 62.2182 612.927 62.2182 613.98V614.16C62.2182 615.227 62.5049 616.047 63.0782 616.62C63.6649 617.193 64.3982 617.48 65.2782 617.48ZM72.9907 623V609.14H75.0107V610.56H75.3307C75.584 610.12 75.964 609.727 76.4707 609.38C76.9907 609.033 77.7307 608.86 78.6907 608.86C79.5174 608.86 80.2707 609.06 80.9507 609.46C81.644 609.86 82.1974 610.44 82.6107 611.2C83.0374 611.947 83.2507 612.853 83.2507 613.92V614.22C83.2507 615.287 83.044 616.2 82.6307 616.96C82.2174 617.707 81.664 618.28 80.9707 618.68C80.2774 619.08 79.5174 619.28 78.6907 619.28C78.0507 619.28 77.5107 619.2 77.0707 619.04C76.6307 618.88 76.2774 618.68 76.0107 618.44C75.744 618.187 75.5307 617.927 75.3707 617.66H75.0507V623H72.9907ZM78.0907 617.48C78.9974 617.48 79.7374 617.193 80.3107 616.62C80.884 616.047 81.1707 615.227 81.1707 614.16V613.98C81.1707 612.927 80.8774 612.113 80.2907 611.54C79.7174 610.967 78.984 610.68 78.0907 610.68C77.2107 610.68 76.4774 610.967 75.8907 611.54C75.3174 612.113 75.0307 612.927 75.0307 613.98V614.16C75.0307 615.227 75.3174 616.047 75.8907 616.62C76.4774 617.193 77.2107 617.48 78.0907 617.48ZM89.8432 619.28C88.5899 619.28 87.5499 619 86.7232 618.44C85.8965 617.88 85.3899 617.033 85.2032 615.9L87.1232 615.44C87.2299 615.987 87.4099 616.42 87.6632 616.74C87.9165 617.06 88.2299 617.287 88.6032 617.42C88.9899 617.553 89.4032 617.62 89.8432 617.62C90.4965 617.62 90.9965 617.493 91.3432 617.24C91.7032 616.987 91.8832 616.66 91.8832 616.26C91.8832 615.86 91.7165 615.567 91.3832 615.38C91.0499 615.193 90.5565 615.04 89.9032 614.92L89.2232 614.8C88.5565 614.68 87.9499 614.507 87.4032 614.28C86.8565 614.053 86.4232 613.74 86.1032 613.34C85.7832 612.94 85.6232 612.427 85.6232 611.8C85.6232 610.867 85.9699 610.147 86.6632 609.64C87.3565 609.12 88.2765 608.86 89.4232 608.86C90.5299 608.86 91.4365 609.113 92.1432 609.62C92.8632 610.113 93.3299 610.787 93.5432 611.64L91.6232 612.18C91.5032 611.58 91.2499 611.16 90.8632 610.92C90.4765 610.667 89.9965 610.54 89.4232 610.54C88.8632 610.54 88.4232 610.647 88.1032 610.86C87.7832 611.06 87.6232 611.347 87.6232 611.72C87.6232 612.12 87.7765 612.413 88.0832 612.6C88.4032 612.787 88.8299 612.927 89.3632 613.02L90.0632 613.14C90.7699 613.26 91.4165 613.427 92.0032 613.64C92.5899 613.853 93.0499 614.16 93.3832 614.56C93.7299 614.96 93.9032 615.493 93.9032 616.16C93.9032 617.147 93.5365 617.913 92.8032 618.46C92.0699 619.007 91.0832 619.28 89.8432 619.28Z" fill="#2375EF"/>
<g filter="url(#filter3_b_118_3707)">
<rect x="102" y="232" width="104" height="104" rx="32" fill="white" fill-opacity="0.1"/>
<path d="M154 276.5H156.5M154 281.5H156.5M144 286.5H156.5M144 291.5H156.5M161.5 276.5H167.125C168.16 276.5 169 277.34 169 278.375V294C169 294.995 168.605 295.948 167.902 296.652C167.198 297.355 166.245 297.75 165.25 297.75M161.5 276.5V294C161.5 294.995 161.895 295.948 162.598 296.652C163.302 297.355 164.255 297.75 165.25 297.75M161.5 276.5V272.125C161.5 271.09 160.66 270.25 159.625 270.25H140.875C139.84 270.25 139 271.09 139 272.125V294C139 294.995 139.395 295.948 140.098 296.652C140.802 297.355 141.755 297.75 142.75 297.75H165.25M144 276.5H149V281.5H144V276.5Z" stroke="#2375EF" stroke-width="2.85" stroke-linecap="round" stroke-linejoin="round"/>
<rect x="102.633" y="232.633" width="102.733" height="102.733" rx="31.3667" stroke="#D3E3FC" stroke-width="1.26667"/>
</g>
<path d="M95.929 363L93.869 349H96.029L97.709 361.54H98.029L100.189 349H103.969L106.129 361.54H106.449L108.109 349H110.269L108.209 363H104.429L102.229 350.28H101.909L99.729 363H95.929ZM116.788 363.28C115.788 363.28 114.915 363.073 114.168 362.66C113.421 362.233 112.835 361.64 112.408 360.88C111.995 360.107 111.788 359.213 111.788 358.2V357.96C111.788 356.933 111.995 356.04 112.408 355.28C112.821 354.507 113.395 353.913 114.128 353.5C114.875 353.073 115.735 352.86 116.708 352.86C117.655 352.86 118.481 353.073 119.188 353.5C119.908 353.913 120.468 354.493 120.868 355.24C121.268 355.987 121.468 356.86 121.468 357.86V358.64H113.888C113.915 359.507 114.201 360.2 114.748 360.72C115.308 361.227 116.001 361.48 116.828 361.48C117.601 361.48 118.181 361.307 118.568 360.96C118.968 360.613 119.275 360.213 119.488 359.76L121.188 360.64C121.001 361.013 120.728 361.407 120.368 361.82C120.021 362.233 119.561 362.58 118.988 362.86C118.415 363.14 117.681 363.28 116.788 363.28ZM113.908 357.06H119.368C119.315 356.313 119.048 355.733 118.568 355.32C118.088 354.893 117.461 354.68 116.688 354.68C115.915 354.68 115.281 354.893 114.788 355.32C114.308 355.733 114.015 356.313 113.908 357.06ZM128.565 358.12V357.82C128.565 356.78 128.772 355.893 129.185 355.16C129.612 354.427 130.172 353.86 130.865 353.46C131.559 353.06 132.319 352.86 133.145 352.86C134.105 352.86 134.839 353.04 135.345 353.4C135.865 353.76 136.245 354.147 136.485 354.56H136.805V353.14H138.805V365.02C138.805 365.62 138.625 366.1 138.265 366.46C137.919 366.82 137.439 367 136.825 367H130.185V365.2H136.185C136.572 365.2 136.765 365 136.765 364.6V361.46H136.445C136.299 361.7 136.092 361.947 135.825 362.2C135.559 362.453 135.205 362.66 134.765 362.82C134.339 362.98 133.799 363.06 133.145 363.06C132.319 363.06 131.552 362.867 130.845 362.48C130.152 362.08 129.599 361.513 129.185 360.78C128.772 360.033 128.565 359.147 128.565 358.12ZM133.705 361.26C134.599 361.26 135.332 360.98 135.905 360.42C136.492 359.847 136.785 359.06 136.785 358.06V357.88C136.785 356.853 136.499 356.067 135.925 355.52C135.352 354.96 134.612 354.68 133.705 354.68C132.825 354.68 132.092 354.96 131.505 355.52C130.932 356.067 130.645 356.853 130.645 357.88V358.06C130.645 359.06 130.932 359.847 131.505 360.42C132.092 360.98 132.825 361.26 133.705 361.26ZM146.358 363.28C145.358 363.28 144.485 363.073 143.738 362.66C142.992 362.233 142.405 361.64 141.978 360.88C141.565 360.107 141.358 359.213 141.358 358.2V357.96C141.358 356.933 141.565 356.04 141.978 355.28C142.392 354.507 142.965 353.913 143.698 353.5C144.445 353.073 145.305 352.86 146.278 352.86C147.225 352.86 148.052 353.073 148.758 353.5C149.478 353.913 150.038 354.493 150.438 355.24C150.838 355.987 151.038 356.86 151.038 357.86V358.64H143.458C143.485 359.507 143.772 360.2 144.318 360.72C144.878 361.227 145.572 361.48 146.398 361.48C147.172 361.48 147.752 361.307 148.138 360.96C148.538 360.613 148.845 360.213 149.058 359.76L150.758 360.64C150.572 361.013 150.298 361.407 149.938 361.82C149.592 362.233 149.132 362.58 148.558 362.86C147.985 363.14 147.252 363.28 146.358 363.28ZM143.478 357.06H148.938C148.885 356.313 148.618 355.733 148.138 355.32C147.658 354.893 147.032 354.68 146.258 354.68C145.485 354.68 144.852 354.893 144.358 355.32C143.878 355.733 143.585 356.313 143.478 357.06ZM153.518 363V353.14H155.538V354.62H155.858C156.045 354.22 156.378 353.847 156.858 353.5C157.338 353.153 158.051 352.98 158.998 352.98C159.745 352.98 160.405 353.147 160.978 353.48C161.565 353.813 162.025 354.287 162.358 354.9C162.691 355.5 162.858 356.227 162.858 357.08V363H160.798V357.24C160.798 356.387 160.585 355.76 160.158 355.36C159.731 354.947 159.145 354.74 158.398 354.74C157.545 354.74 156.858 355.02 156.338 355.58C155.831 356.14 155.578 356.953 155.578 358.02V363H153.518ZM170.343 363.28C169.343 363.28 168.469 363.073 167.723 362.66C166.976 362.233 166.389 361.64 165.963 360.88C165.549 360.107 165.343 359.213 165.343 358.2V357.96C165.343 356.933 165.549 356.04 165.963 355.28C166.376 354.507 166.949 353.913 167.683 353.5C168.429 353.073 169.289 352.86 170.263 352.86C171.209 352.86 172.036 353.073 172.743 353.5C173.463 353.913 174.023 354.493 174.423 355.24C174.823 355.987 175.023 356.86 175.023 357.86V358.64H167.443C167.469 359.507 167.756 360.2 168.303 360.72C168.863 361.227 169.556 361.48 170.383 361.48C171.156 361.48 171.736 361.307 172.123 360.96C172.523 360.613 172.829 360.213 173.043 359.76L174.743 360.64C174.556 361.013 174.283 361.407 173.923 361.82C173.576 362.233 173.116 362.58 172.543 362.86C171.969 363.14 171.236 363.28 170.343 363.28ZM167.463 357.06H172.923C172.869 356.313 172.603 355.733 172.123 355.32C171.643 354.893 171.016 354.68 170.243 354.68C169.469 354.68 168.836 354.893 168.343 355.32C167.863 355.733 167.569 356.313 167.463 357.06ZM177.502 363V353.14H179.522V354.3H179.842C180.002 353.887 180.256 353.587 180.602 353.4C180.962 353.2 181.402 353.1 181.922 353.1H183.102V354.96H181.842C181.176 354.96 180.629 355.147 180.202 355.52C179.776 355.88 179.562 356.44 179.562 357.2V363H177.502ZM188.023 363.28C187.317 363.28 186.683 363.16 186.123 362.92C185.577 362.68 185.137 362.327 184.803 361.86C184.483 361.393 184.323 360.827 184.323 360.16C184.323 359.48 184.483 358.92 184.803 358.48C185.137 358.027 185.583 357.687 186.143 357.46C186.717 357.233 187.363 357.12 188.083 357.12H191.083V356.48C191.083 355.907 190.91 355.447 190.563 355.1C190.217 354.753 189.683 354.58 188.963 354.58C188.257 354.58 187.717 354.747 187.343 355.08C186.97 355.413 186.723 355.847 186.603 356.38L184.683 355.76C184.843 355.227 185.097 354.747 185.443 354.32C185.803 353.88 186.277 353.527 186.863 353.26C187.45 352.993 188.157 352.86 188.983 352.86C190.263 352.86 191.27 353.187 192.003 353.84C192.737 354.493 193.103 355.42 193.103 356.62V360.68C193.103 361.08 193.29 361.28 193.663 361.28H194.503V363H192.963C192.497 363 192.117 362.88 191.823 362.64C191.53 362.4 191.383 362.073 191.383 361.66V361.6H191.083C190.977 361.8 190.817 362.033 190.603 362.3C190.39 362.567 190.077 362.8 189.663 363C189.25 363.187 188.703 363.28 188.023 363.28ZM188.323 361.58C189.15 361.58 189.817 361.347 190.323 360.88C190.83 360.4 191.083 359.747 191.083 358.92V358.72H188.203C187.657 358.72 187.217 358.84 186.883 359.08C186.55 359.307 186.383 359.647 186.383 360.1C186.383 360.553 186.557 360.913 186.903 361.18C187.25 361.447 187.723 361.58 188.323 361.58ZM199.523 363C198.923 363 198.443 362.82 198.083 362.46C197.736 362.1 197.563 361.62 197.563 361.02V354.88H194.843V353.14H197.563V349.88H199.623V353.14H202.563V354.88H199.623V360.66C199.623 361.06 199.809 361.26 200.183 361.26H202.243V363H199.523ZM209.151 363.28C208.151 363.28 207.278 363.073 206.531 362.66C205.785 362.233 205.198 361.64 204.771 360.88C204.358 360.107 204.151 359.213 204.151 358.2V357.96C204.151 356.933 204.358 356.04 204.771 355.28C205.185 354.507 205.758 353.913 206.491 353.5C207.238 353.073 208.098 352.86 209.071 352.86C210.018 352.86 210.845 353.073 211.551 353.5C212.271 353.913 212.831 354.493 213.231 355.24C213.631 355.987 213.831 356.86 213.831 357.86V358.64H206.251C206.278 359.507 206.565 360.2 207.111 360.72C207.671 361.227 208.365 361.48 209.191 361.48C209.965 361.48 210.545 361.307 210.931 360.96C211.331 360.613 211.638 360.213 211.851 359.76L213.551 360.64C213.365 361.013 213.091 361.407 212.731 361.82C212.385 362.233 211.925 362.58 211.351 362.86C210.778 363.14 210.045 363.28 209.151 363.28ZM206.271 357.06H211.731C211.678 356.313 211.411 355.733 210.931 355.32C210.451 354.893 209.825 354.68 209.051 354.68C208.278 354.68 207.645 354.893 207.151 355.32C206.671 355.733 206.378 356.313 206.271 357.06ZM118.199 387.28C117.492 387.28 116.859 387.16 116.299 386.92C115.752 386.68 115.312 386.327 114.979 385.86C114.659 385.393 114.499 384.827 114.499 384.16C114.499 383.48 114.659 382.92 114.979 382.48C115.312 382.027 115.759 381.687 116.319 381.46C116.892 381.233 117.539 381.12 118.259 381.12H121.259V380.48C121.259 379.907 121.086 379.447 120.739 379.1C120.392 378.753 119.859 378.58 119.139 378.58C118.432 378.58 117.892 378.747 117.519 379.08C117.146 379.413 116.899 379.847 116.779 380.38L114.859 379.76C115.019 379.227 115.272 378.747 115.619 378.32C115.979 377.88 116.452 377.527 117.039 377.26C117.626 376.993 118.332 376.86 119.159 376.86C120.439 376.86 121.446 377.187 122.179 377.84C122.912 378.493 123.279 379.42 123.279 380.62V384.68C123.279 385.08 123.466 385.28 123.839 385.28H124.679V387H123.139C122.672 387 122.292 386.88 121.999 386.64C121.706 386.4 121.559 386.073 121.559 385.66V385.6H121.259C121.152 385.8 120.992 386.033 120.779 386.3C120.566 386.567 120.252 386.8 119.839 387C119.426 387.187 118.879 387.28 118.199 387.28ZM118.499 385.58C119.326 385.58 119.992 385.347 120.499 384.88C121.006 384.4 121.259 383.747 121.259 382.92V382.72H118.379C117.832 382.72 117.392 382.84 117.059 383.08C116.726 383.307 116.559 383.647 116.559 384.1C116.559 384.553 116.732 384.913 117.079 385.18C117.426 385.447 117.899 385.58 118.499 385.58ZM131.028 387.28C130.081 387.28 129.221 387.08 128.448 386.68C127.688 386.28 127.081 385.7 126.628 384.94C126.188 384.18 125.968 383.267 125.968 382.2V381.94C125.968 380.873 126.188 379.967 126.628 379.22C127.081 378.46 127.688 377.88 128.448 377.48C129.221 377.067 130.081 376.86 131.028 376.86C131.974 376.86 132.781 377.033 133.448 377.38C134.114 377.727 134.648 378.187 135.048 378.76C135.461 379.333 135.728 379.967 135.848 380.66L133.848 381.08C133.781 380.64 133.641 380.24 133.428 379.88C133.214 379.52 132.914 379.233 132.528 379.02C132.141 378.807 131.654 378.7 131.068 378.7C130.494 378.7 129.974 378.833 129.508 379.1C129.054 379.353 128.694 379.727 128.428 380.22C128.161 380.7 128.028 381.287 128.028 381.98V382.16C128.028 382.853 128.161 383.447 128.428 383.94C128.694 384.433 129.054 384.807 129.508 385.06C129.974 385.313 130.494 385.44 131.068 385.44C131.934 385.44 132.594 385.22 133.048 384.78C133.501 384.327 133.788 383.753 133.908 383.06L135.908 383.52C135.748 384.2 135.461 384.827 135.048 385.4C134.648 385.973 134.114 386.433 133.448 386.78C132.781 387.113 131.974 387.28 131.028 387.28ZM142.864 387.28C141.917 387.28 141.057 387.08 140.284 386.68C139.524 386.28 138.917 385.7 138.464 384.94C138.024 384.18 137.804 383.267 137.804 382.2V381.94C137.804 380.873 138.024 379.967 138.464 379.22C138.917 378.46 139.524 377.88 140.284 377.48C141.057 377.067 141.917 376.86 142.864 376.86C143.81 376.86 144.617 377.033 145.284 377.38C145.95 377.727 146.484 378.187 146.884 378.76C147.297 379.333 147.564 379.967 147.684 380.66L145.684 381.08C145.617 380.64 145.477 380.24 145.264 379.88C145.05 379.52 144.75 379.233 144.364 379.02C143.977 378.807 143.49 378.7 142.904 378.7C142.33 378.7 141.81 378.833 141.344 379.1C140.89 379.353 140.53 379.727 140.264 380.22C139.997 380.7 139.864 381.287 139.864 381.98V382.16C139.864 382.853 139.997 383.447 140.264 383.94C140.53 384.433 140.89 384.807 141.344 385.06C141.81 385.313 142.33 385.44 142.904 385.44C143.77 385.44 144.43 385.22 144.884 384.78C145.337 384.327 145.624 383.753 145.744 383.06L147.744 383.52C147.584 384.2 147.297 384.827 146.884 385.4C146.484 385.973 145.95 386.433 145.284 386.78C144.617 387.113 143.81 387.28 142.864 387.28ZM154.74 387.28C153.753 387.28 152.873 387.08 152.1 386.68C151.34 386.267 150.74 385.68 150.3 384.92C149.86 384.16 149.64 383.26 149.64 382.22V381.92C149.64 380.88 149.86 379.987 150.3 379.24C150.74 378.48 151.34 377.893 152.1 377.48C152.873 377.067 153.753 376.86 154.74 376.86C155.726 376.86 156.606 377.067 157.38 377.48C158.153 377.893 158.76 378.48 159.2 379.24C159.64 379.987 159.86 380.88 159.86 381.92V382.22C159.86 383.26 159.64 384.16 159.2 384.92C158.76 385.68 158.153 386.267 157.38 386.68C156.606 387.08 155.726 387.28 154.74 387.28ZM154.74 385.44C155.646 385.44 156.38 385.153 156.94 384.58C157.513 383.993 157.8 383.187 157.8 382.16V381.98C157.8 380.953 157.52 380.153 156.96 379.58C156.4 378.993 155.66 378.7 154.74 378.7C153.846 378.7 153.113 378.993 152.54 379.58C151.98 380.153 151.7 380.953 151.7 381.98V382.16C151.7 383.187 151.98 383.993 152.54 384.58C153.113 385.153 153.846 385.44 154.74 385.44ZM166.204 387.18C165.458 387.18 164.791 387.013 164.204 386.68C163.618 386.347 163.158 385.873 162.824 385.26C162.491 384.647 162.324 383.913 162.324 383.06V377.14H164.384V382.92C164.384 383.773 164.598 384.407 165.024 384.82C165.451 385.22 166.044 385.42 166.804 385.42C167.644 385.42 168.318 385.14 168.824 384.58C169.344 384.007 169.604 383.187 169.604 382.12V377.14H171.664V387H169.644V385.52H169.324C169.138 385.92 168.804 386.3 168.324 386.66C167.844 387.007 167.138 387.18 166.204 387.18ZM174.709 387V377.14H176.729V378.62H177.049C177.236 378.22 177.569 377.847 178.049 377.5C178.529 377.153 179.243 376.98 180.189 376.98C180.936 376.98 181.596 377.147 182.169 377.48C182.756 377.813 183.216 378.287 183.549 378.9C183.883 379.5 184.049 380.227 184.049 381.08V387H181.989V381.24C181.989 380.387 181.776 379.76 181.349 379.36C180.923 378.947 180.336 378.74 179.589 378.74C178.736 378.74 178.049 379.02 177.529 379.58C177.023 380.14 176.769 380.953 176.769 382.02V387H174.709ZM190.441 387C189.841 387 189.361 386.82 189.001 386.46C188.654 386.1 188.481 385.62 188.481 385.02V378.88H185.761V377.14H188.481V373.88H190.541V377.14H193.481V378.88H190.541V384.66C190.541 385.06 190.727 385.26 191.101 385.26H193.161V387H190.441Z" fill="#2375EF"/>
<g filter="url(#filter4_b_118_3707)">
<rect x="102" width="104" height="104" rx="32" fill="white" fill-opacity="0.1"/>
<path d="M160.25 42C160.25 43.6576 159.592 45.2473 158.42 46.4194C157.248 47.5915 155.658 48.25 154 48.25C152.343 48.25 150.753 47.5915 149.581 46.4194C148.409 45.2473 147.75 43.6576 147.75 42C147.75 40.3424 148.409 38.7527 149.581 37.5806C150.753 36.4085 152.343 35.75 154 35.75C155.658 35.75 157.248 36.4085 158.42 37.5806C159.592 38.7527 160.25 40.3424 160.25 42V42ZM141.502 65.53C141.556 62.2506 142.896 59.1236 145.234 56.8234C147.572 54.5232 150.72 53.2341 154 53.2341C157.28 53.2341 160.429 54.5232 162.767 56.8234C165.105 59.1236 166.445 62.2506 166.499 65.53C162.578 67.3279 158.314 68.2559 154 68.25C149.54 68.25 145.307 67.2767 141.502 65.53Z" stroke="#2375EF" stroke-width="2.85" stroke-linecap="round" stroke-linejoin="round"/>
<rect x="102.633" y="0.633333" width="102.733" height="102.733" rx="31.3667" stroke="#D3E3FC" stroke-width="1.26667"/>
</g>
<path d="M103.999 131.28C102.946 131.28 102.013 131.093 101.199 130.72C100.386 130.347 99.746 129.8 99.2793 129.08C98.826 128.347 98.5993 127.46 98.5993 126.42V125.92H100.739V126.42C100.739 127.407 101.033 128.147 101.619 128.64C102.219 129.133 103.013 129.38 103.999 129.38C104.999 129.38 105.753 129.173 106.259 128.76C106.766 128.333 107.019 127.787 107.019 127.12C107.019 126.68 106.899 126.32 106.659 126.04C106.419 125.76 106.079 125.54 105.639 125.38C105.199 125.207 104.673 125.047 104.059 124.9L103.319 124.72C102.426 124.507 101.646 124.247 100.979 123.94C100.326 123.62 99.8193 123.2 99.4593 122.68C99.0993 122.16 98.9193 121.493 98.9193 120.68C98.9193 119.853 99.1193 119.147 99.5193 118.56C99.9326 117.973 100.499 117.52 101.219 117.2C101.939 116.88 102.786 116.72 103.759 116.72C104.733 116.72 105.599 116.887 106.359 117.22C107.133 117.553 107.739 118.047 108.179 118.7C108.619 119.353 108.839 120.173 108.839 121.16V121.88H106.699V121.16C106.699 120.56 106.573 120.073 106.319 119.7C106.079 119.327 105.739 119.053 105.299 118.88C104.859 118.707 104.346 118.62 103.759 118.62C102.906 118.62 102.239 118.8 101.759 119.16C101.293 119.507 101.059 119.993 101.059 120.62C101.059 121.047 101.159 121.4 101.359 121.68C101.573 121.947 101.879 122.167 102.279 122.34C102.679 122.513 103.179 122.667 103.779 122.8L104.519 122.98C105.426 123.18 106.226 123.44 106.919 123.76C107.613 124.067 108.159 124.487 108.559 125.02C108.959 125.553 109.159 126.24 109.159 127.08C109.159 127.92 108.946 128.653 108.519 129.28C108.106 129.907 107.513 130.4 106.739 130.76C105.966 131.107 105.053 131.28 103.999 131.28ZM111.487 131V121.14H113.547V131H111.487ZM112.527 119.8C112.127 119.8 111.787 119.673 111.507 119.42C111.24 119.153 111.107 118.813 111.107 118.4C111.107 117.987 111.24 117.653 111.507 117.4C111.787 117.133 112.127 117 112.527 117C112.94 117 113.28 117.133 113.547 117.4C113.813 117.653 113.947 117.987 113.947 118.4C113.947 118.813 113.813 119.153 113.547 119.42C113.28 119.673 112.94 119.8 112.527 119.8ZM116.124 126.12V125.82C116.124 124.78 116.331 123.893 116.744 123.16C117.171 122.427 117.731 121.86 118.424 121.46C119.117 121.06 119.877 120.86 120.704 120.86C121.664 120.86 122.397 121.04 122.904 121.4C123.424 121.76 123.804 122.147 124.044 122.56H124.364V121.14H126.364V133.02C126.364 133.62 126.184 134.1 125.824 134.46C125.477 134.82 124.997 135 124.384 135H117.744V133.2H123.744C124.131 133.2 124.324 133 124.324 132.6V129.46H124.004C123.857 129.7 123.651 129.947 123.384 130.2C123.117 130.453 122.764 130.66 122.324 130.82C121.897 130.98 121.357 131.06 120.704 131.06C119.877 131.06 119.111 130.867 118.404 130.48C117.711 130.08 117.157 129.513 116.744 128.78C116.331 128.033 116.124 127.147 116.124 126.12ZM121.264 129.26C122.157 129.26 122.891 128.98 123.464 128.42C124.051 127.847 124.344 127.06 124.344 126.06V125.88C124.344 124.853 124.057 124.067 123.484 123.52C122.911 122.96 122.171 122.68 121.264 122.68C120.384 122.68 119.651 122.96 119.064 123.52C118.491 124.067 118.204 124.853 118.204 125.88V126.06C118.204 127.06 118.491 127.847 119.064 128.42C119.651 128.98 120.384 129.26 121.264 129.26ZM129.397 131V121.14H131.417V122.62H131.737C131.924 122.22 132.257 121.847 132.737 121.5C133.217 121.153 133.93 120.98 134.877 120.98C135.624 120.98 136.284 121.147 136.857 121.48C137.444 121.813 137.904 122.287 138.237 122.9C138.57 123.5 138.737 124.227 138.737 125.08V131H136.677V125.24C136.677 124.387 136.464 123.76 136.037 123.36C135.61 122.947 135.024 122.74 134.277 122.74C133.424 122.74 132.737 123.02 132.217 123.58C131.71 124.14 131.457 124.953 131.457 126.02V131H129.397ZM146.799 131V121.14H148.859V131H146.799ZM147.839 119.8C147.439 119.8 147.099 119.673 146.819 119.42C146.553 119.153 146.419 118.813 146.419 118.4C146.419 117.987 146.553 117.653 146.819 117.4C147.099 117.133 147.439 117 147.839 117C148.253 117 148.593 117.133 148.859 117.4C149.126 117.653 149.259 117.987 149.259 118.4C149.259 118.813 149.126 119.153 148.859 119.42C148.593 119.673 148.253 119.8 147.839 119.8ZM151.916 131V121.14H153.936V122.62H154.256C154.443 122.22 154.776 121.847 155.256 121.5C155.736 121.153 156.45 120.98 157.396 120.98C158.143 120.98 158.803 121.147 159.376 121.48C159.963 121.813 160.423 122.287 160.756 122.9C161.09 123.5 161.256 124.227 161.256 125.08V131H159.196V125.24C159.196 124.387 158.983 123.76 158.556 123.36C158.13 122.947 157.543 122.74 156.796 122.74C155.943 122.74 155.256 123.02 154.736 123.58C154.23 124.14 153.976 124.953 153.976 126.02V131H151.916ZM170.399 131L168.719 121.14H170.779L172.019 129.62H172.339L174.059 121.14H177.399L179.099 129.62H179.419L180.659 121.14H182.719L181.039 131H177.579L175.879 122.54H175.559L173.859 131H170.399ZM185.159 131V121.14H187.219V131H185.159ZM186.199 119.8C185.799 119.8 185.459 119.673 185.179 119.42C184.912 119.153 184.779 118.813 184.779 118.4C184.779 117.987 184.912 117.653 185.179 117.4C185.459 117.133 185.799 117 186.199 117C186.612 117 186.952 117.133 187.219 117.4C187.485 117.653 187.619 117.987 187.619 118.4C187.619 118.813 187.485 119.153 187.219 119.42C186.952 119.673 186.612 119.8 186.199 119.8ZM193.976 131C193.376 131 192.896 130.82 192.536 130.46C192.189 130.1 192.016 129.62 192.016 129.02V122.88H189.296V121.14H192.016V117.88H194.076V121.14H197.016V122.88H194.076V128.66C194.076 129.06 194.263 129.26 194.636 129.26H196.696V131H193.976ZM199.436 131V117H201.496V122.54H201.816C201.949 122.287 202.136 122.04 202.376 121.8C202.629 121.56 202.956 121.367 203.356 121.22C203.769 121.06 204.289 120.98 204.916 120.98C205.663 120.98 206.323 121.147 206.896 121.48C207.483 121.813 207.943 122.287 208.276 122.9C208.609 123.5 208.776 124.227 208.776 125.08V131H206.716V125.24C206.716 124.387 206.503 123.76 206.076 123.36C205.649 122.947 205.063 122.74 204.316 122.74C203.463 122.74 202.776 123.02 202.256 123.58C201.749 124.14 201.496 124.953 201.496 126.02V131H199.436ZM109.383 155L107.703 145.14H109.763L111.003 153.62H111.323L113.043 145.14H116.383L118.083 153.62H118.403L119.643 145.14H121.703L120.023 155H116.563L114.863 146.54H114.543L112.843 155H109.383ZM128.546 155.28C127.546 155.28 126.673 155.073 125.926 154.66C125.179 154.233 124.593 153.64 124.166 152.88C123.753 152.107 123.546 151.213 123.546 150.2V149.96C123.546 148.933 123.753 148.04 124.166 147.28C124.579 146.507 125.153 145.913 125.886 145.5C126.633 145.073 127.493 144.86 128.466 144.86C129.413 144.86 130.239 145.073 130.946 145.5C131.666 145.913 132.226 146.493 132.626 147.24C133.026 147.987 133.226 148.86 133.226 149.86V150.64H125.646C125.673 151.507 125.959 152.2 126.506 152.72C127.066 153.227 127.759 153.48 128.586 153.48C129.359 153.48 129.939 153.307 130.326 152.96C130.726 152.613 131.033 152.213 131.246 151.76L132.946 152.64C132.759 153.013 132.486 153.407 132.126 153.82C131.779 154.233 131.319 154.58 130.746 154.86C130.173 155.14 129.439 155.28 128.546 155.28ZM125.666 149.06H131.126C131.073 148.313 130.806 147.733 130.326 147.32C129.846 146.893 129.219 146.68 128.446 146.68C127.673 146.68 127.039 146.893 126.546 147.32C126.066 147.733 125.773 148.313 125.666 149.06ZM141.406 155.28C140.446 155.28 139.706 155.107 139.186 154.76C138.679 154.413 138.299 154.027 138.046 153.6H137.726V155H135.706V141H137.766V146.48H138.086C138.246 146.213 138.459 145.96 138.726 145.72C138.992 145.467 139.346 145.26 139.786 145.1C140.226 144.94 140.766 144.86 141.406 144.86C142.232 144.86 142.992 145.06 143.686 145.46C144.379 145.86 144.932 146.44 145.346 147.2C145.759 147.96 145.966 148.867 145.966 149.92V150.22C145.966 151.287 145.752 152.2 145.326 152.96C144.912 153.707 144.359 154.28 143.666 154.68C142.986 155.08 142.232 155.28 141.406 155.28ZM140.806 153.48C141.699 153.48 142.432 153.193 143.006 152.62C143.592 152.047 143.886 151.227 143.886 150.16V149.98C143.886 148.927 143.599 148.113 143.026 147.54C142.452 146.967 141.712 146.68 140.806 146.68C139.926 146.68 139.192 146.967 138.606 147.54C138.032 148.113 137.746 148.927 137.746 149.98V150.16C137.746 151.227 138.032 152.047 138.606 152.62C139.192 153.193 139.926 153.48 140.806 153.48ZM147.958 155V153.42C147.958 152.447 148.125 151.647 148.458 151.02C148.791 150.393 149.265 149.887 149.878 149.5C150.505 149.1 151.258 148.767 152.138 148.5L153.358 148.12C153.905 147.947 154.371 147.733 154.758 147.48C155.158 147.227 155.465 146.913 155.678 146.54C155.891 146.153 155.998 145.707 155.998 145.2V145.12C155.998 144.333 155.731 143.72 155.198 143.28C154.665 142.827 153.965 142.6 153.098 142.6C152.205 142.6 151.478 142.84 150.918 143.32C150.371 143.8 150.098 144.507 150.098 145.44V145.76H148.018V145.46C148.018 144.447 148.238 143.593 148.678 142.9C149.118 142.193 149.725 141.653 150.498 141.28C151.271 140.907 152.138 140.72 153.098 140.72C154.058 140.72 154.911 140.9 155.658 141.26C156.418 141.62 157.011 142.127 157.438 142.78C157.878 143.433 158.098 144.2 158.098 145.08V145.26C158.098 146.167 157.918 146.92 157.558 147.52C157.198 148.12 156.698 148.613 156.058 149C155.431 149.387 154.705 149.713 153.878 149.98L152.698 150.34C152.071 150.527 151.565 150.733 151.178 150.96C150.805 151.173 150.525 151.433 150.338 151.74C150.165 152.047 150.078 152.44 150.078 152.92V153.12H157.978V155H147.958ZM168.629 155.28C167.922 155.28 167.289 155.16 166.729 154.92C166.182 154.68 165.742 154.327 165.409 153.86C165.089 153.393 164.929 152.827 164.929 152.16C164.929 151.48 165.089 150.92 165.409 150.48C165.742 150.027 166.189 149.687 166.749 149.46C167.322 149.233 167.969 149.12 168.689 149.12H171.689V148.48C171.689 147.907 171.515 147.447 171.169 147.1C170.822 146.753 170.289 146.58 169.569 146.58C168.862 146.58 168.322 146.747 167.949 147.08C167.575 147.413 167.329 147.847 167.209 148.38L165.289 147.76C165.449 147.227 165.702 146.747 166.049 146.32C166.409 145.88 166.882 145.527 167.469 145.26C168.055 144.993 168.762 144.86 169.589 144.86C170.869 144.86 171.875 145.187 172.609 145.84C173.342 146.493 173.709 147.42 173.709 148.62V152.68C173.709 153.08 173.895 153.28 174.269 153.28H175.109V155H173.569C173.102 155 172.722 154.88 172.429 154.64C172.135 154.4 171.989 154.073 171.989 153.66V153.6H171.689C171.582 153.8 171.422 154.033 171.209 154.3C170.995 154.567 170.682 154.8 170.269 155C169.855 155.187 169.309 155.28 168.629 155.28ZM168.929 153.58C169.755 153.58 170.422 153.347 170.929 152.88C171.435 152.4 171.689 151.747 171.689 150.92V150.72H168.809C168.262 150.72 167.822 150.84 167.489 151.08C167.155 151.307 166.989 151.647 166.989 152.1C166.989 152.553 167.162 152.913 167.509 153.18C167.855 153.447 168.329 153.58 168.929 153.58ZM177.112 159V145.14H179.132V146.56H179.452C179.705 146.12 180.085 145.727 180.592 145.38C181.112 145.033 181.852 144.86 182.812 144.86C183.638 144.86 184.392 145.06 185.072 145.46C185.765 145.86 186.318 146.44 186.732 147.2C187.158 147.947 187.372 148.853 187.372 149.92V150.22C187.372 151.287 187.165 152.2 186.752 152.96C186.338 153.707 185.785 154.28 185.092 154.68C184.398 155.08 183.638 155.28 182.812 155.28C182.172 155.28 181.632 155.2 181.192 155.04C180.752 154.88 180.398 154.68 180.132 154.44C179.865 154.187 179.652 153.927 179.492 153.66H179.172V159H177.112ZM182.212 153.48C183.118 153.48 183.858 153.193 184.432 152.62C185.005 152.047 185.292 151.227 185.292 150.16V149.98C185.292 148.927 184.998 148.113 184.412 147.54C183.838 146.967 183.105 146.68 182.212 146.68C181.332 146.68 180.598 146.967 180.012 147.54C179.438 148.113 179.152 148.927 179.152 149.98V150.16C179.152 151.227 179.438 152.047 180.012 152.62C180.598 153.193 181.332 153.48 182.212 153.48ZM189.924 159V145.14H191.944V146.56H192.264C192.518 146.12 192.898 145.727 193.404 145.38C193.924 145.033 194.664 144.86 195.624 144.86C196.451 144.86 197.204 145.06 197.884 145.46C198.578 145.86 199.131 146.44 199.544 147.2C199.971 147.947 200.184 148.853 200.184 149.92V150.22C200.184 151.287 199.978 152.2 199.564 152.96C199.151 153.707 198.598 154.28 197.904 154.68C197.211 155.08 196.451 155.28 195.624 155.28C194.984 155.28 194.444 155.2 194.004 155.04C193.564 154.88 193.211 154.68 192.944 154.44C192.678 154.187 192.464 153.927 192.304 153.66H191.984V159H189.924ZM195.024 153.48C195.931 153.48 196.671 153.193 197.244 152.62C197.818 152.047 198.104 151.227 198.104 150.16V149.98C198.104 148.927 197.811 148.113 197.224 147.54C196.651 146.967 195.918 146.68 195.024 146.68C194.144 146.68 193.411 146.967 192.824 147.54C192.251 148.113 191.964 148.927 191.964 149.98V150.16C191.964 151.227 192.251 152.047 192.824 152.62C193.411 153.193 194.144 153.48 195.024 153.48Z" fill="#2375EF"/>
<path d="M65.5 636C65.5 635.172 64.8284 634.5 64 634.5C63.1716 634.5 62.5 635.172 62.5 636H65.5ZM152.939 693.061C153.525 693.646 154.475 693.646 155.061 693.061L164.607 683.515C165.192 682.929 165.192 681.979 164.607 681.393C164.021 680.808 163.071 680.808 162.485 681.393L154 689.879L145.515 681.393C144.929 680.808 143.979 680.808 143.393 681.393C142.808 681.979 142.808 682.929 143.393 683.515L152.939 693.061ZM62.5 636V640H65.5V636H62.5ZM88 665.5H130V662.5H88V665.5ZM152.5 688V692H155.5V688H152.5ZM130 665.5C142.426 665.5 152.5 675.574 152.5 688H155.5C155.5 673.917 144.083 662.5 130 662.5V665.5ZM62.5 640C62.5 654.083 73.9167 665.5 88 665.5V662.5C75.5736 662.5 65.5 652.426 65.5 640H62.5Z" fill="#2375EF"/>
<path d="M155.5 404C155.5 403.172 154.828 402.5 154 402.5C153.172 402.5 152.5 403.172 152.5 404H155.5ZM254.939 461.061C255.525 461.646 256.475 461.646 257.061 461.061L266.607 451.515C267.192 450.929 267.192 449.979 266.607 449.393C266.021 448.808 265.071 448.808 264.485 449.393L256 457.879L247.515 449.393C246.929 448.808 245.979 448.808 245.393 449.393C244.808 449.979 244.808 450.929 245.393 451.515L254.939 461.061ZM152.5 404V408H155.5V404H152.5ZM178 433.5H232V430.5H178V433.5ZM254.5 456V460H257.5V456H254.5ZM232 433.5C244.426 433.5 254.5 443.574 254.5 456H257.5C257.5 441.917 246.083 430.5 232 430.5V433.5ZM152.5 408C152.5 422.083 163.917 433.5 178 433.5V430.5C165.574 430.5 155.5 420.426 155.5 408H152.5Z" fill="#2375EF"/>
<path d="M155.5 172C155.5 171.172 154.828 170.5 154 170.5C153.172 170.5 152.5 171.172 152.5 172H155.5ZM152.939 229.061C153.525 229.646 154.475 229.646 155.061 229.061L164.607 219.515C165.192 218.929 165.192 217.979 164.607 217.393C164.021 216.808 163.071 216.808 162.485 217.393L154 225.879L145.515 217.393C144.929 216.808 143.979 216.808 143.393 217.393C142.808 217.979 142.808 218.929 143.393 219.515L152.939 229.061ZM152.5 172V228H155.5V172H152.5Z" fill="#2375EF"/>
<path d="M256.216 632.496C256.216 631.668 255.545 630.996 254.716 630.996C253.888 630.996 253.216 631.668 253.216 632.496L256.216 632.496ZM152.939 693.061C153.525 693.646 154.475 693.646 155.061 693.061L164.607 683.515C165.192 682.929 165.192 681.979 164.607 681.393C164.021 680.808 163.071 680.808 162.485 681.393L154 689.879L145.515 681.393C144.929 680.808 143.979 680.808 143.393 681.393C142.808 681.979 142.808 682.929 143.393 683.515L152.939 693.061ZM254.716 641L253.216 641L254.716 641ZM253.216 632.496L253.216 641L256.216 641L256.216 632.496L253.216 632.496ZM230.716 663.5H178V666.5H230.716V663.5ZM152.5 689V692H155.5V689H152.5ZM178 663.5C163.917 663.5 152.5 674.916 152.5 689H155.5C155.5 676.573 165.574 666.5 178 666.5V663.5ZM253.216 641C253.216 653.426 243.143 663.5 230.716 663.5V666.5C244.8 666.5 256.216 655.083 256.216 641L253.216 641Z" fill="#2375EF"/>
<path d="M155.5 404C155.5 403.172 154.828 402.5 154 402.5C153.172 402.5 152.5 403.172 152.5 404H155.5ZM62.9393 461.061C63.5251 461.646 64.4749 461.646 65.0607 461.061L74.6066 451.515C75.1924 450.929 75.1924 449.979 74.6066 449.393C74.0208 448.808 73.0711 448.808 72.4853 449.393L64 457.879L55.5147 449.393C54.9289 448.808 53.9792 448.808 53.3934 449.393C52.8076 449.979 52.8076 450.929 53.3934 451.515L62.9393 461.061ZM152.5 404V408H155.5V404H152.5ZM130 430.5H88V433.5H130V430.5ZM62.5 456V460H65.5V456H62.5ZM88 430.5C73.9167 430.5 62.5 441.917 62.5 456H65.5C65.5 443.574 75.5736 433.5 88 433.5V430.5ZM152.5 408C152.5 420.426 142.426 430.5 130 430.5V433.5C144.083 433.5 155.5 422.083 155.5 408H152.5Z" fill="#2375EF"/>
<defs>
<filter id="filter0_b_118_3707" x="51.3333" y="645.333" width="205.333" height="205.333" filterUnits="userSpaceOnUse" color-interpolation-filters="sRGB">
<feFlood flood-opacity="0" result="BackgroundImageFix"/>
<feGaussianBlur in="BackgroundImageFix" stdDeviation="25.3333"/>
<feComposite in2="SourceAlpha" operator="in" result="effect1_backgroundBlur_118_3707"/>
<feBlend mode="normal" in="SourceGraphic" in2="effect1_backgroundBlur_118_3707" result="shape"/>
</filter>
<filter id="filter1_b_118_3707" x="153.333" y="413.333" width="205.333" height="205.333" filterUnits="userSpaceOnUse" color-interpolation-filters="sRGB">
<feFlood flood-opacity="0" result="BackgroundImageFix"/>
<feGaussianBlur in="BackgroundImageFix" stdDeviation="25.3333"/>
<feComposite in2="SourceAlpha" operator="in" result="effect1_backgroundBlur_118_3707"/>
<feBlend mode="normal" in="SourceGraphic" in2="effect1_backgroundBlur_118_3707" result="shape"/>
</filter>
<filter id="filter2_b_118_3707" x="-38.6667" y="413.333" width="205.333" height="205.333" filterUnits="userSpaceOnUse" color-interpolation-filters="sRGB">
<feFlood flood-opacity="0" result="BackgroundImageFix"/>
<feGaussianBlur in="BackgroundImageFix" stdDeviation="25.3333"/>
<feComposite in2="SourceAlpha" operator="in" result="effect1_backgroundBlur_118_3707"/>
<feBlend mode="normal" in="SourceGraphic" in2="effect1_backgroundBlur_118_3707" result="shape"/>
</filter>
<filter id="filter3_b_118_3707" x="51.3333" y="181.333" width="205.333" height="205.333" filterUnits="userSpaceOnUse" color-interpolation-filters="sRGB">
<feFlood flood-opacity="0" result="BackgroundImageFix"/>
<feGaussianBlur in="BackgroundImageFix" stdDeviation="25.3333"/>
<feComposite in2="SourceAlpha" operator="in" result="effect1_backgroundBlur_118_3707"/>
<feBlend mode="normal" in="SourceGraphic" in2="effect1_backgroundBlur_118_3707" result="shape"/>
</filter>
<filter id="filter4_b_118_3707" x="51.3333" y="-50.6667" width="205.333" height="205.333" filterUnits="userSpaceOnUse" color-interpolation-filters="sRGB">
<feFlood flood-opacity="0" result="BackgroundImageFix"/>
<feGaussianBlur in="BackgroundImageFix" stdDeviation="25.3333"/>
<feComposite in2="SourceAlpha" operator="in" result="effect1_backgroundBlur_118_3707"/>
<feBlend mode="normal" in="SourceGraphic" in2="effect1_backgroundBlur_118_3707" result="shape"/>
</filter>
</defs>
</svg>
