<svg width="912" height="394" viewBox="0 0 912 394" fill="none" xmlns="http://www.w3.org/2000/svg">
<g filter="url(#filter0_b_118_2976)">
<rect x="775.2" y="107.401" width="121.6" height="121.6" rx="32" fill="white" fill-opacity="0.1"/>
<path d="M855.833 157.182L836 168.2M836 168.2L816.167 157.182M836 168.2L836 190.367M857 177.67V158.731C857 157.931 857 157.531 856.882 157.175C856.778 156.859 856.608 156.57 856.383 156.326C856.128 156.049 855.779 155.855 855.08 155.467L837.813 145.874C837.151 145.507 836.82 145.323 836.47 145.251C836.16 145.187 835.84 145.187 835.53 145.251C835.18 145.323 834.849 145.507 834.187 145.874L816.92 155.467C816.221 155.855 815.872 156.049 815.617 156.326C815.392 156.57 815.222 156.859 815.118 157.175C815 157.531 815 157.931 815 158.731V177.67C815 178.47 815 178.87 815.118 179.226C815.222 179.542 815.392 179.831 815.617 180.075C815.872 180.352 816.221 180.546 816.92 180.934L834.187 190.527C834.849 190.894 835.18 191.078 835.53 191.15C835.84 191.214 836.16 191.214 836.47 191.15C836.82 191.078 837.151 190.894 837.813 190.527L855.08 180.934C855.779 180.546 856.128 180.352 856.383 180.075C856.608 179.831 856.778 179.542 856.882 179.226C857 178.87 857 178.47 857 177.67Z" stroke="#2375EF" stroke-width="3.8" stroke-linecap="round" stroke-linejoin="round"/>
<rect x="775.834" y="108.034" width="120.333" height="120.333" rx="31.3667" stroke="#D3E3FC" stroke-width="1.26667"/>
</g>
<path d="M800.738 268.28C799.018 268.28 797.651 267.8 796.638 266.84C795.624 265.867 795.118 264.467 795.118 262.64V259.36C795.118 257.534 795.624 256.14 796.638 255.18C797.651 254.207 799.018 253.72 800.738 253.72C802.458 253.72 803.824 254.207 804.838 255.18C805.864 256.14 806.378 257.534 806.378 259.36V262.64C806.378 264.467 805.864 265.867 804.838 266.84C803.824 267.8 802.458 268.28 800.738 268.28ZM800.738 266.34C801.844 266.34 802.698 266.02 803.298 265.38C803.898 264.727 804.198 263.84 804.198 262.72V259.28C804.198 258.16 803.898 257.28 803.298 256.64C802.698 255.987 801.844 255.66 800.738 255.66C799.658 255.66 798.811 255.987 798.198 256.64C797.584 257.28 797.278 258.16 797.278 259.28V262.72C797.278 263.84 797.584 264.727 798.198 265.38C798.811 266.02 799.658 266.34 800.738 266.34ZM808.995 268V258.14H811.015V259.62H811.335C811.521 259.22 811.855 258.847 812.335 258.5C812.815 258.154 813.528 257.98 814.475 257.98C815.221 257.98 815.881 258.147 816.455 258.48C817.041 258.814 817.501 259.287 817.835 259.9C818.168 260.5 818.335 261.227 818.335 262.08V268H816.275V262.24C816.275 261.387 816.061 260.76 815.635 260.36C815.208 259.947 814.621 259.74 813.875 259.74C813.021 259.74 812.335 260.02 811.815 260.58C811.308 261.14 811.055 261.954 811.055 263.02V268H808.995ZM830.977 268.28C830.03 268.28 829.17 268.08 828.397 267.68C827.637 267.28 827.03 266.7 826.577 265.94C826.137 265.18 825.917 264.267 825.917 263.2V262.94C825.917 261.874 826.137 260.967 826.577 260.22C827.03 259.46 827.637 258.88 828.397 258.48C829.17 258.067 830.03 257.86 830.977 257.86C831.924 257.86 832.73 258.034 833.397 258.38C834.064 258.727 834.597 259.187 834.997 259.76C835.41 260.334 835.677 260.967 835.797 261.66L833.797 262.08C833.73 261.64 833.59 261.24 833.377 260.88C833.164 260.52 832.864 260.234 832.477 260.02C832.09 259.807 831.604 259.7 831.017 259.7C830.444 259.7 829.924 259.834 829.457 260.1C829.004 260.354 828.644 260.727 828.377 261.22C828.11 261.7 827.977 262.287 827.977 262.98V263.16C827.977 263.854 828.11 264.447 828.377 264.94C828.644 265.434 829.004 265.807 829.457 266.06C829.924 266.314 830.444 266.44 831.017 266.44C831.884 266.44 832.544 266.22 832.997 265.78C833.45 265.327 833.737 264.754 833.857 264.06L835.857 264.52C835.697 265.2 835.41 265.827 834.997 266.4C834.597 266.974 834.064 267.434 833.397 267.78C832.73 268.114 831.924 268.28 830.977 268.28ZM838.233 268V254H840.293V259.54H840.613C840.746 259.287 840.933 259.04 841.173 258.8C841.426 258.56 841.753 258.367 842.153 258.22C842.566 258.06 843.086 257.98 843.713 257.98C844.46 257.98 845.12 258.147 845.693 258.48C846.28 258.814 846.74 259.287 847.073 259.9C847.406 260.5 847.573 261.227 847.573 262.08V268H845.513V262.24C845.513 261.387 845.3 260.76 844.873 260.36C844.446 259.947 843.86 259.74 843.113 259.74C842.26 259.74 841.573 260.02 841.053 260.58C840.546 261.14 840.293 261.954 840.293 263.02V268H838.233ZM853.598 268.28C852.891 268.28 852.258 268.16 851.698 267.92C851.151 267.68 850.711 267.327 850.378 266.86C850.058 266.394 849.898 265.827 849.898 265.16C849.898 264.48 850.058 263.92 850.378 263.48C850.711 263.027 851.158 262.687 851.718 262.46C852.291 262.234 852.938 262.12 853.658 262.12H856.658V261.48C856.658 260.907 856.484 260.447 856.138 260.1C855.791 259.754 855.258 259.58 854.538 259.58C853.831 259.58 853.291 259.747 852.918 260.08C852.544 260.414 852.298 260.847 852.178 261.38L850.258 260.76C850.418 260.227 850.671 259.747 851.018 259.32C851.378 258.88 851.851 258.527 852.438 258.26C853.024 257.994 853.731 257.86 854.558 257.86C855.838 257.86 856.844 258.187 857.578 258.84C858.311 259.494 858.678 260.42 858.678 261.62V265.68C858.678 266.08 858.864 266.28 859.238 266.28H860.078V268H858.538C858.071 268 857.691 267.88 857.398 267.64C857.104 267.4 856.958 267.074 856.958 266.66V266.6H856.658C856.551 266.8 856.391 267.034 856.178 267.3C855.964 267.567 855.651 267.8 855.238 268C854.824 268.187 854.278 268.28 853.598 268.28ZM853.898 266.58C854.724 266.58 855.391 266.347 855.898 265.88C856.404 265.4 856.658 264.747 856.658 263.92V263.72H853.778C853.231 263.72 852.791 263.84 852.458 264.08C852.124 264.307 851.958 264.647 851.958 265.1C851.958 265.554 852.131 265.914 852.478 266.18C852.824 266.447 853.298 266.58 853.898 266.58ZM862.081 268V258.14H864.141V268H862.081ZM863.121 256.8C862.721 256.8 862.381 256.674 862.101 256.42C861.834 256.154 861.701 255.814 861.701 255.4C861.701 254.987 861.834 254.654 862.101 254.4C862.381 254.134 862.721 254 863.121 254C863.534 254 863.874 254.134 864.141 254.4C864.407 254.654 864.541 254.987 864.541 255.4C864.541 255.814 864.407 256.154 864.141 256.42C863.874 256.674 863.534 256.8 863.121 256.8ZM867.198 268V258.14H869.218V259.62H869.538C869.724 259.22 870.058 258.847 870.538 258.5C871.018 258.154 871.731 257.98 872.678 257.98C873.424 257.98 874.084 258.147 874.658 258.48C875.244 258.814 875.704 259.287 876.038 259.9C876.371 260.5 876.538 261.227 876.538 262.08V268H874.478V262.24C874.478 261.387 874.264 260.76 873.838 260.36C873.411 259.947 872.824 259.74 872.078 259.74C871.224 259.74 870.538 260.02 870.018 260.58C869.511 261.14 869.258 261.954 869.258 263.02V268H867.198ZM793.573 292.28C792.573 292.28 791.7 292.074 790.953 291.66C790.207 291.234 789.62 290.64 789.193 289.88C788.78 289.107 788.573 288.214 788.573 287.2V286.96C788.573 285.934 788.78 285.04 789.193 284.28C789.607 283.507 790.18 282.914 790.913 282.5C791.66 282.074 792.52 281.86 793.493 281.86C794.44 281.86 795.267 282.074 795.973 282.5C796.693 282.914 797.253 283.494 797.653 284.24C798.053 284.987 798.253 285.86 798.253 286.86V287.64H790.673C790.7 288.507 790.987 289.2 791.533 289.72C792.093 290.227 792.787 290.48 793.613 290.48C794.387 290.48 794.967 290.307 795.353 289.96C795.753 289.614 796.06 289.214 796.273 288.76L797.973 289.64C797.787 290.014 797.513 290.407 797.153 290.82C796.807 291.234 796.347 291.58 795.773 291.86C795.2 292.14 794.467 292.28 793.573 292.28ZM790.693 286.06H796.153C796.1 285.314 795.833 284.734 795.353 284.32C794.873 283.894 794.247 283.68 793.473 283.68C792.7 283.68 792.067 283.894 791.573 284.32C791.093 284.734 790.8 285.314 790.693 286.06ZM799.248 292L803.008 287.02L799.328 282.14H801.748L804.328 285.68H804.648L807.228 282.14H809.668L805.968 287.02L809.728 292H807.268L804.648 288.38H804.328L801.708 292H799.248ZM815.819 292.28C814.819 292.28 813.946 292.074 813.199 291.66C812.453 291.234 811.866 290.64 811.439 289.88C811.026 289.107 810.819 288.214 810.819 287.2V286.96C810.819 285.934 811.026 285.04 811.439 284.28C811.853 283.507 812.426 282.914 813.159 282.5C813.906 282.074 814.766 281.86 815.739 281.86C816.686 281.86 817.513 282.074 818.219 282.5C818.939 282.914 819.499 283.494 819.899 284.24C820.299 284.987 820.499 285.86 820.499 286.86V287.64H812.919C812.946 288.507 813.233 289.2 813.779 289.72C814.339 290.227 815.033 290.48 815.859 290.48C816.633 290.48 817.213 290.307 817.599 289.96C817.999 289.614 818.306 289.214 818.519 288.76L820.219 289.64C820.033 290.014 819.759 290.407 819.399 290.82C819.053 291.234 818.593 291.58 818.019 291.86C817.446 292.14 816.713 292.28 815.819 292.28ZM812.939 286.06H818.399C818.346 285.314 818.079 284.734 817.599 284.32C817.119 283.894 816.493 283.68 815.719 283.68C814.946 283.68 814.313 283.894 813.819 284.32C813.339 284.734 813.046 285.314 812.939 286.06ZM827.559 292.28C826.612 292.28 825.752 292.08 824.979 291.68C824.219 291.28 823.612 290.7 823.159 289.94C822.719 289.18 822.499 288.267 822.499 287.2V286.94C822.499 285.874 822.719 284.967 823.159 284.22C823.612 283.46 824.219 282.88 824.979 282.48C825.752 282.067 826.612 281.86 827.559 281.86C828.506 281.86 829.312 282.034 829.979 282.38C830.646 282.727 831.179 283.187 831.579 283.76C831.992 284.334 832.259 284.967 832.379 285.66L830.379 286.08C830.312 285.64 830.172 285.24 829.959 284.88C829.746 284.52 829.446 284.234 829.059 284.02C828.672 283.807 828.186 283.7 827.599 283.7C827.026 283.7 826.506 283.834 826.039 284.1C825.586 284.354 825.226 284.727 824.959 285.22C824.692 285.7 824.559 286.287 824.559 286.98V287.16C824.559 287.854 824.692 288.447 824.959 288.94C825.226 289.434 825.586 289.807 826.039 290.06C826.506 290.314 827.026 290.44 827.599 290.44C828.466 290.44 829.126 290.22 829.579 289.78C830.032 289.327 830.319 288.754 830.439 288.06L832.439 288.52C832.279 289.2 831.992 289.827 831.579 290.4C831.179 290.974 830.646 291.434 829.979 291.78C829.312 292.114 828.506 292.28 827.559 292.28ZM838.595 292.18C837.848 292.18 837.182 292.014 836.595 291.68C836.008 291.347 835.548 290.874 835.215 290.26C834.882 289.647 834.715 288.914 834.715 288.06V282.14H836.775V287.92C836.775 288.774 836.988 289.407 837.415 289.82C837.842 290.22 838.435 290.42 839.195 290.42C840.035 290.42 840.708 290.14 841.215 289.58C841.735 289.007 841.995 288.187 841.995 287.12V282.14H844.055V292H842.035V290.52H841.715C841.528 290.92 841.195 291.3 840.715 291.66C840.235 292.007 839.528 292.18 838.595 292.18ZM850.8 292C850.2 292 849.72 291.82 849.36 291.46C849.013 291.1 848.84 290.62 848.84 290.02V283.88H846.12V282.14H848.84V278.88H850.9V282.14H853.84V283.88H850.9V289.66C850.9 290.06 851.087 290.26 851.46 290.26H853.52V292H850.8ZM856.26 292V282.14H858.32V292H856.26ZM857.3 280.8C856.9 280.8 856.56 280.674 856.28 280.42C856.014 280.154 855.88 279.814 855.88 279.4C855.88 278.987 856.014 278.654 856.28 278.4C856.56 278.134 856.9 278 857.3 278C857.714 278 858.054 278.134 858.32 278.4C858.587 278.654 858.72 278.987 858.72 279.4C858.72 279.814 858.587 280.154 858.32 280.42C858.054 280.674 857.714 280.8 857.3 280.8ZM865.997 292.28C865.011 292.28 864.131 292.08 863.357 291.68C862.597 291.267 861.997 290.68 861.557 289.92C861.117 289.16 860.897 288.26 860.897 287.22V286.92C860.897 285.88 861.117 284.987 861.557 284.24C861.997 283.48 862.597 282.894 863.357 282.48C864.131 282.067 865.011 281.86 865.997 281.86C866.984 281.86 867.864 282.067 868.637 282.48C869.411 282.894 870.017 283.48 870.457 284.24C870.897 284.987 871.117 285.88 871.117 286.92V287.22C871.117 288.26 870.897 289.16 870.457 289.92C870.017 290.68 869.411 291.267 868.637 291.68C867.864 292.08 866.984 292.28 865.997 292.28ZM865.997 290.44C866.904 290.44 867.637 290.154 868.197 289.58C868.771 288.994 869.057 288.187 869.057 287.16V286.98C869.057 285.954 868.777 285.154 868.217 284.58C867.657 283.994 866.917 283.7 865.997 283.7C865.104 283.7 864.371 283.994 863.797 284.58C863.237 285.154 862.957 285.954 862.957 286.98V287.16C862.957 288.187 863.237 288.994 863.797 289.58C864.371 290.154 865.104 290.44 865.997 290.44ZM873.682 292V282.14H875.702V283.62H876.022C876.209 283.22 876.542 282.847 877.022 282.5C877.502 282.154 878.215 281.98 879.162 281.98C879.909 281.98 880.569 282.147 881.142 282.48C881.729 282.814 882.189 283.287 882.522 283.9C882.855 284.5 883.022 285.227 883.022 286.08V292H880.962V286.24C880.962 285.387 880.749 284.76 880.322 284.36C879.895 283.947 879.309 283.74 878.562 283.74C877.709 283.74 877.022 284.02 876.502 284.58C875.995 285.14 875.742 285.954 875.742 287.02V292H873.682Z" fill="#2375EF"/>
<g filter="url(#filter1_b_118_2976)">
<rect x="522" width="120" height="120" rx="32" fill="white" fill-opacity="0.1"/>
<path d="M563.333 66.764C561.6 64.9928 560.292 62.8503 559.509 60.4988C558.726 58.1474 558.489 55.6485 558.815 53.1917C559.141 50.7348 560.021 48.3843 561.39 46.3182C562.759 44.2521 564.58 42.5246 566.715 41.2666C568.851 40.0085 571.244 39.2529 573.715 39.057C576.185 38.861 578.668 39.2299 580.975 40.1356C583.282 41.0414 585.353 42.4602 587.03 44.2847C588.708 46.1092 589.948 48.2915 590.657 50.6663H594.833C597.086 50.666 599.28 51.3904 601.089 52.7323C602.899 54.0743 604.229 55.9627 604.883 58.1185C605.537 60.2744 605.48 62.5834 604.721 64.7045C603.961 66.8256 602.54 68.6463 600.667 69.8976" stroke="#2375EF" stroke-width="3.8" stroke-linecap="round" stroke-linejoin="round"/>
<path d="M582 60V81" stroke="#2375EF" stroke-width="3.8" stroke-linecap="round" stroke-linejoin="round"/>
<path d="M591.333 69.3333L582 60L572.667 69.3333" stroke="#2375EF" stroke-width="3.8" stroke-linecap="round" stroke-linejoin="round"/>
<rect x="522.633" y="0.633333" width="118.733" height="118.733" rx="31.3667" stroke="#D3E3FC" stroke-width="1.26667"/>
</g>
<path d="M530.106 159.28C529 159.28 528.046 159.08 527.246 158.68C526.46 158.28 525.846 157.707 525.406 156.96C524.98 156.2 524.766 155.28 524.766 154.2V145H526.946V154.26C526.946 155.247 527.22 156.007 527.766 156.54C528.313 157.073 529.093 157.34 530.106 157.34C531.12 157.34 531.9 157.073 532.446 156.54C532.993 156.007 533.266 155.247 533.266 154.26V145H535.426V154.2C535.426 155.28 535.213 156.2 534.786 156.96C534.36 157.707 533.746 158.28 532.946 158.68C532.146 159.08 531.2 159.28 530.106 159.28ZM538.305 163V149.14H540.325V150.56H540.645C540.898 150.12 541.278 149.727 541.785 149.38C542.305 149.033 543.045 148.86 544.005 148.86C544.832 148.86 545.585 149.06 546.265 149.46C546.958 149.86 547.512 150.44 547.925 151.2C548.352 151.947 548.565 152.853 548.565 153.92V154.22C548.565 155.287 548.358 156.2 547.945 156.96C547.532 157.707 546.978 158.28 546.285 158.68C545.592 159.08 544.832 159.28 544.005 159.28C543.365 159.28 542.825 159.2 542.385 159.04C541.945 158.88 541.592 158.68 541.325 158.44C541.058 158.187 540.845 157.927 540.685 157.66H540.365V163H538.305ZM543.405 157.48C544.312 157.48 545.052 157.193 545.625 156.62C546.198 156.047 546.485 155.227 546.485 154.16V153.98C546.485 152.927 546.192 152.113 545.605 151.54C545.032 150.967 544.298 150.68 543.405 150.68C542.525 150.68 541.792 150.967 541.205 151.54C540.632 152.113 540.345 152.927 540.345 153.98V154.16C540.345 155.227 540.632 156.047 541.205 156.62C541.792 157.193 542.525 157.48 543.405 157.48ZM551.118 159V145H553.178V159H551.118ZM560.855 159.28C559.868 159.28 558.988 159.08 558.215 158.68C557.455 158.267 556.855 157.68 556.415 156.92C555.975 156.16 555.755 155.26 555.755 154.22V153.92C555.755 152.88 555.975 151.987 556.415 151.24C556.855 150.48 557.455 149.893 558.215 149.48C558.988 149.067 559.868 148.86 560.855 148.86C561.842 148.86 562.722 149.067 563.495 149.48C564.268 149.893 564.875 150.48 565.315 151.24C565.755 151.987 565.975 152.88 565.975 153.92V154.22C565.975 155.26 565.755 156.16 565.315 156.92C564.875 157.68 564.268 158.267 563.495 158.68C562.722 159.08 561.842 159.28 560.855 159.28ZM560.855 157.44C561.762 157.44 562.495 157.153 563.055 156.58C563.628 155.993 563.915 155.187 563.915 154.16V153.98C563.915 152.953 563.635 152.153 563.075 151.58C562.515 150.993 561.775 150.7 560.855 150.7C559.962 150.7 559.228 150.993 558.655 151.58C558.095 152.153 557.815 152.953 557.815 153.98V154.16C557.815 155.187 558.095 155.993 558.655 156.58C559.228 157.153 559.962 157.44 560.855 157.44ZM571.6 159.28C570.893 159.28 570.26 159.16 569.7 158.92C569.153 158.68 568.713 158.327 568.38 157.86C568.06 157.393 567.9 156.827 567.9 156.16C567.9 155.48 568.06 154.92 568.38 154.48C568.713 154.027 569.16 153.687 569.72 153.46C570.293 153.233 570.94 153.12 571.66 153.12H574.66V152.48C574.66 151.907 574.486 151.447 574.14 151.1C573.793 150.753 573.26 150.58 572.54 150.58C571.833 150.58 571.293 150.747 570.92 151.08C570.546 151.413 570.3 151.847 570.18 152.38L568.26 151.76C568.42 151.227 568.673 150.747 569.02 150.32C569.38 149.88 569.853 149.527 570.44 149.26C571.026 148.993 571.733 148.86 572.56 148.86C573.84 148.86 574.846 149.187 575.58 149.84C576.313 150.493 576.68 151.42 576.68 152.62V156.68C576.68 157.08 576.866 157.28 577.24 157.28H578.08V159H576.54C576.073 159 575.693 158.88 575.4 158.64C575.106 158.4 574.96 158.073 574.96 157.66V157.6H574.66C574.553 157.8 574.393 158.033 574.18 158.3C573.966 158.567 573.653 158.8 573.24 159C572.826 159.187 572.28 159.28 571.6 159.28ZM571.9 157.58C572.726 157.58 573.393 157.347 573.9 156.88C574.406 156.4 574.66 155.747 574.66 154.92V154.72H571.78C571.233 154.72 570.793 154.84 570.46 155.08C570.126 155.307 569.96 155.647 569.96 156.1C569.96 156.553 570.133 156.913 570.48 157.18C570.826 157.447 571.3 157.58 571.9 157.58ZM583.928 159.28C583.115 159.28 582.361 159.08 581.668 158.68C580.975 158.28 580.415 157.707 579.988 156.96C579.575 156.2 579.368 155.287 579.368 154.22V153.92C579.368 152.867 579.575 151.96 579.988 151.2C580.401 150.44 580.955 149.86 581.648 149.46C582.341 149.06 583.101 148.86 583.928 148.86C584.568 148.86 585.101 148.94 585.528 149.1C585.968 149.26 586.328 149.467 586.608 149.72C586.888 149.96 587.101 150.213 587.248 150.48H587.568V145H589.628V159H587.608V157.6H587.288C587.035 158.027 586.648 158.413 586.128 158.76C585.621 159.107 584.888 159.28 583.928 159.28ZM584.508 157.48C585.401 157.48 586.135 157.193 586.708 156.62C587.295 156.047 587.588 155.227 587.588 154.16V153.98C587.588 152.927 587.301 152.113 586.728 151.54C586.155 150.967 585.415 150.68 584.508 150.68C583.628 150.68 582.895 150.967 582.308 151.54C581.735 152.113 581.448 152.927 581.448 153.98V154.16C581.448 155.227 581.735 156.047 582.308 156.62C582.895 157.193 583.628 157.48 584.508 157.48ZM601.838 159.28C601.025 159.28 600.272 159.08 599.578 158.68C598.885 158.28 598.325 157.707 597.898 156.96C597.485 156.2 597.278 155.287 597.278 154.22V153.92C597.278 152.867 597.485 151.96 597.898 151.2C598.312 150.44 598.865 149.86 599.558 149.46C600.252 149.06 601.012 148.86 601.838 148.86C602.478 148.86 603.012 148.94 603.438 149.1C603.878 149.26 604.238 149.467 604.518 149.72C604.798 149.96 605.012 150.213 605.158 150.48H605.478V145H607.538V159H605.518V157.6H605.198C604.945 158.027 604.558 158.413 604.038 158.76C603.532 159.107 602.798 159.28 601.838 159.28ZM602.418 157.48C603.312 157.48 604.045 157.193 604.618 156.62C605.205 156.047 605.498 155.227 605.498 154.16V153.98C605.498 152.927 605.212 152.113 604.638 151.54C604.065 150.967 603.325 150.68 602.418 150.68C601.538 150.68 600.805 150.967 600.218 151.54C599.645 152.113 599.358 152.927 599.358 153.98V154.16C599.358 155.227 599.645 156.047 600.218 156.62C600.805 157.193 601.538 157.48 602.418 157.48ZM613.631 159.28C612.924 159.28 612.291 159.16 611.731 158.92C611.184 158.68 610.744 158.327 610.411 157.86C610.091 157.393 609.931 156.827 609.931 156.16C609.931 155.48 610.091 154.92 610.411 154.48C610.744 154.027 611.191 153.687 611.751 153.46C612.324 153.233 612.971 153.12 613.691 153.12H616.691V152.48C616.691 151.907 616.517 151.447 616.171 151.1C615.824 150.753 615.291 150.58 614.571 150.58C613.864 150.58 613.324 150.747 612.951 151.08C612.577 151.413 612.331 151.847 612.211 152.38L610.291 151.76C610.451 151.227 610.704 150.747 611.051 150.32C611.411 149.88 611.884 149.527 612.471 149.26C613.057 148.993 613.764 148.86 614.591 148.86C615.871 148.86 616.877 149.187 617.611 149.84C618.344 150.493 618.711 151.42 618.711 152.62V156.68C618.711 157.08 618.897 157.28 619.271 157.28H620.111V159H618.571C618.104 159 617.724 158.88 617.431 158.64C617.137 158.4 616.991 158.073 616.991 157.66V157.6H616.691C616.584 157.8 616.424 158.033 616.211 158.3C615.997 158.567 615.684 158.8 615.271 159C614.857 159.187 614.311 159.28 613.631 159.28ZM613.931 157.58C614.757 157.58 615.424 157.347 615.931 156.88C616.437 156.4 616.691 155.747 616.691 154.92V154.72H613.811C613.264 154.72 612.824 154.84 612.491 155.08C612.157 155.307 611.991 155.647 611.991 156.1C611.991 156.553 612.164 156.913 612.511 157.18C612.857 157.447 613.331 157.58 613.931 157.58ZM625.13 159C624.53 159 624.05 158.82 623.69 158.46C623.343 158.1 623.17 157.62 623.17 157.02V150.88H620.45V149.14H623.17V145.88H625.23V149.14H628.17V150.88H625.23V156.66C625.23 157.06 625.417 157.26 625.79 157.26H627.85V159H625.13ZM633.631 159.28C632.924 159.28 632.291 159.16 631.731 158.92C631.184 158.68 630.744 158.327 630.411 157.86C630.091 157.393 629.931 156.827 629.931 156.16C629.931 155.48 630.091 154.92 630.411 154.48C630.744 154.027 631.191 153.687 631.751 153.46C632.324 153.233 632.971 153.12 633.691 153.12H636.691V152.48C636.691 151.907 636.517 151.447 636.171 151.1C635.824 150.753 635.291 150.58 634.571 150.58C633.864 150.58 633.324 150.747 632.951 151.08C632.577 151.413 632.331 151.847 632.211 152.38L630.291 151.76C630.451 151.227 630.704 150.747 631.051 150.32C631.411 149.88 631.884 149.527 632.471 149.26C633.057 148.993 633.764 148.86 634.591 148.86C635.871 148.86 636.877 149.187 637.611 149.84C638.344 150.493 638.711 151.42 638.711 152.62V156.68C638.711 157.08 638.897 157.28 639.271 157.28H640.111V159H638.571C638.104 159 637.724 158.88 637.431 158.64C637.137 158.4 636.991 158.073 636.991 157.66V157.6H636.691C636.584 157.8 636.424 158.033 636.211 158.3C635.997 158.567 635.684 158.8 635.271 159C634.857 159.187 634.311 159.28 633.631 159.28ZM633.931 157.58C634.757 157.58 635.424 157.347 635.931 156.88C636.437 156.4 636.691 155.747 636.691 154.92V154.72H633.811C633.264 154.72 632.824 154.84 632.491 155.08C632.157 155.307 631.991 155.647 631.991 156.1C631.991 156.553 632.164 156.913 632.511 157.18C632.857 157.447 633.331 157.58 633.931 157.58Z" fill="#2375EF"/>
<g filter="url(#filter2_b_118_2976)">
<rect x="522" y="206" width="120" height="120" rx="32" fill="white" fill-opacity="0.1"/>
<path d="M599.5 266C599.5 263.125 599.393 260.276 599.178 257.455C599.013 255.22 598.05 253.119 596.466 251.534C594.881 249.95 592.78 248.987 590.545 248.822C584.856 248.393 579.144 248.393 573.455 248.822C571.22 248.987 569.119 249.95 567.534 251.534C565.95 253.119 564.987 255.22 564.822 257.455C564.782 257.968 564.747 258.484 564.715 259M599.5 266L606.5 259M599.5 266L592.5 259M564.5 266C564.5 268.874 564.607 271.723 564.822 274.544C564.987 276.779 565.95 278.881 567.534 280.465C569.119 282.05 571.22 283.013 573.455 283.178C579.144 283.607 584.856 283.607 590.545 283.178C592.78 283.013 594.881 282.05 596.466 280.465C598.05 278.881 599.013 276.779 599.178 274.544C599.218 274.031 599.253 273.515 599.285 273M564.5 266L571.5 273M564.5 266L557.5 273" stroke="#2375EF" stroke-width="3.8" stroke-linecap="round" stroke-linejoin="round"/>
<rect x="522.633" y="206.633" width="118.733" height="118.733" rx="31.3667" stroke="#D3E3FC" stroke-width="1.26667"/>
</g>
<path d="M521.194 365V351H523.354V365H521.194ZM526.333 365V355.14H528.353V356.62H528.673C528.859 356.22 529.193 355.847 529.673 355.5C530.153 355.153 530.866 354.98 531.813 354.98C532.559 354.98 533.219 355.147 533.793 355.48C534.379 355.813 534.839 356.287 535.173 356.9C535.506 357.5 535.673 358.227 535.673 359.08V365H533.613V359.24C533.613 358.387 533.399 357.76 532.973 357.36C532.546 356.947 531.959 356.74 531.213 356.74C530.359 356.74 529.673 357.02 529.153 357.58C528.646 358.14 528.393 358.953 528.393 360.02V365H526.333ZM542.064 365C541.464 365 540.984 364.82 540.624 364.46C540.277 364.1 540.104 363.62 540.104 363.02V356.88H537.384V355.14H540.104V351.88H542.164V355.14H545.104V356.88H542.164V362.66C542.164 363.06 542.35 363.26 542.724 363.26H544.784V365H542.064ZM551.692 365.28C550.692 365.28 549.819 365.073 549.072 364.66C548.326 364.233 547.739 363.64 547.312 362.88C546.899 362.107 546.692 361.213 546.692 360.2V359.96C546.692 358.933 546.899 358.04 547.312 357.28C547.726 356.507 548.299 355.913 549.032 355.5C549.779 355.073 550.639 354.86 551.612 354.86C552.559 354.86 553.386 355.073 554.092 355.5C554.812 355.913 555.372 356.493 555.772 357.24C556.172 357.987 556.372 358.86 556.372 359.86V360.64H548.792C548.819 361.507 549.106 362.2 549.652 362.72C550.212 363.227 550.906 363.48 551.732 363.48C552.506 363.48 553.086 363.307 553.472 362.96C553.872 362.613 554.179 362.213 554.392 361.76L556.092 362.64C555.906 363.013 555.632 363.407 555.272 363.82C554.926 364.233 554.466 364.58 553.892 364.86C553.319 365.14 552.586 365.28 551.692 365.28ZM548.812 359.06H554.272C554.219 358.313 553.952 357.733 553.472 357.32C552.992 356.893 552.366 356.68 551.592 356.68C550.819 356.68 550.186 356.893 549.692 357.32C549.212 357.733 548.919 358.313 548.812 359.06ZM558.852 365V355.14H560.872V356.3H561.192C561.352 355.887 561.605 355.587 561.952 355.4C562.312 355.2 562.752 355.1 563.272 355.1H564.452V356.96H563.192C562.525 356.96 561.979 357.147 561.552 357.52C561.125 357.88 560.912 358.44 560.912 359.2V365H558.852ZM569.373 365.28C568.666 365.28 568.033 365.16 567.473 364.92C566.926 364.68 566.486 364.327 566.153 363.86C565.833 363.393 565.673 362.827 565.673 362.16C565.673 361.48 565.833 360.92 566.153 360.48C566.486 360.027 566.933 359.687 567.493 359.46C568.066 359.233 568.713 359.12 569.433 359.12H572.433V358.48C572.433 357.907 572.26 357.447 571.913 357.1C571.566 356.753 571.033 356.58 570.313 356.58C569.606 356.58 569.066 356.747 568.693 357.08C568.32 357.413 568.073 357.847 567.953 358.38L566.033 357.76C566.193 357.227 566.446 356.747 566.793 356.32C567.153 355.88 567.626 355.527 568.213 355.26C568.8 354.993 569.506 354.86 570.333 354.86C571.613 354.86 572.62 355.187 573.353 355.84C574.086 356.493 574.453 357.42 574.453 358.62V362.68C574.453 363.08 574.64 363.28 575.013 363.28H575.853V365H574.313C573.846 365 573.466 364.88 573.173 364.64C572.88 364.4 572.733 364.073 572.733 363.66V363.6H572.433C572.326 363.8 572.166 364.033 571.953 364.3C571.74 364.567 571.426 364.8 571.013 365C570.6 365.187 570.053 365.28 569.373 365.28ZM569.673 363.58C570.5 363.58 571.166 363.347 571.673 362.88C572.18 362.4 572.433 361.747 572.433 360.92V360.72H569.553C569.006 360.72 568.566 360.84 568.233 361.08C567.9 361.307 567.733 361.647 567.733 362.1C567.733 362.553 567.906 362.913 568.253 363.18C568.6 363.447 569.073 363.58 569.673 363.58ZM582.202 365.28C581.255 365.28 580.395 365.08 579.622 364.68C578.862 364.28 578.255 363.7 577.802 362.94C577.362 362.18 577.142 361.267 577.142 360.2V359.94C577.142 358.873 577.362 357.967 577.802 357.22C578.255 356.46 578.862 355.88 579.622 355.48C580.395 355.067 581.255 354.86 582.202 354.86C583.148 354.86 583.955 355.033 584.622 355.38C585.288 355.727 585.822 356.187 586.222 356.76C586.635 357.333 586.902 357.967 587.022 358.66L585.022 359.08C584.955 358.64 584.815 358.24 584.602 357.88C584.388 357.52 584.088 357.233 583.702 357.02C583.315 356.807 582.828 356.7 582.242 356.7C581.668 356.7 581.148 356.833 580.682 357.1C580.228 357.353 579.868 357.727 579.602 358.22C579.335 358.7 579.202 359.287 579.202 359.98V360.16C579.202 360.853 579.335 361.447 579.602 361.94C579.868 362.433 580.228 362.807 580.682 363.06C581.148 363.313 581.668 363.44 582.242 363.44C583.108 363.44 583.768 363.22 584.222 362.78C584.675 362.327 584.962 361.753 585.082 361.06L587.082 361.52C586.922 362.2 586.635 362.827 586.222 363.4C585.822 363.973 585.288 364.433 584.622 364.78C583.955 365.113 583.148 365.28 582.202 365.28ZM592.806 365C592.206 365 591.726 364.82 591.366 364.46C591.019 364.1 590.846 363.62 590.846 363.02V356.88H588.126V355.14H590.846V351.88H592.906V355.14H595.846V356.88H592.906V362.66C592.906 363.06 593.093 363.26 593.466 363.26H595.526V365H592.806ZM604.444 365L602.764 355.14H604.824L606.064 363.62H606.384L608.104 355.14H611.444L613.144 363.62H613.464L614.704 355.14H616.764L615.084 365H611.624L609.924 356.54H609.604L607.904 365H604.444ZM619.204 365V355.14H621.264V365H619.204ZM620.244 353.8C619.844 353.8 619.504 353.673 619.224 353.42C618.957 353.153 618.824 352.813 618.824 352.4C618.824 351.987 618.957 351.653 619.224 351.4C619.504 351.133 619.844 351 620.244 351C620.657 351 620.997 351.133 621.264 351.4C621.53 351.653 621.664 351.987 621.664 352.4C621.664 352.813 621.53 353.153 621.264 353.42C620.997 353.673 620.657 353.8 620.244 353.8ZM628.021 365C627.421 365 626.941 364.82 626.581 364.46C626.234 364.1 626.061 363.62 626.061 363.02V356.88H623.341V355.14H626.061V351.88H628.121V355.14H631.061V356.88H628.121V362.66C628.121 363.06 628.307 363.26 628.681 363.26H630.741V365H628.021ZM633.481 365V351H635.541V356.54H635.861C635.994 356.287 636.181 356.04 636.421 355.8C636.674 355.56 637.001 355.367 637.401 355.22C637.814 355.06 638.334 354.98 638.961 354.98C639.708 354.98 640.368 355.147 640.941 355.48C641.528 355.813 641.988 356.287 642.321 356.9C642.654 357.5 642.821 358.227 642.821 359.08V365H640.761V359.24C640.761 358.387 640.548 357.76 640.121 357.36C639.694 356.947 639.108 356.74 638.361 356.74C637.508 356.74 636.821 357.02 636.301 357.58C635.794 358.14 635.541 358.953 635.541 360.02V365H633.481ZM556.809 389.28C555.996 389.28 555.242 389.08 554.549 388.68C553.856 388.28 553.296 387.707 552.869 386.96C552.456 386.2 552.249 385.287 552.249 384.22V383.92C552.249 382.867 552.456 381.96 552.869 381.2C553.282 380.44 553.836 379.86 554.529 379.46C555.222 379.06 555.982 378.86 556.809 378.86C557.449 378.86 557.982 378.94 558.409 379.1C558.849 379.26 559.209 379.467 559.489 379.72C559.769 379.96 559.982 380.213 560.129 380.48H560.449V375H562.509V389H560.489V387.6H560.169C559.916 388.027 559.529 388.413 559.009 388.76C558.502 389.107 557.769 389.28 556.809 389.28ZM557.389 387.48C558.282 387.48 559.016 387.193 559.589 386.62C560.176 386.047 560.469 385.227 560.469 384.16V383.98C560.469 382.927 560.182 382.113 559.609 381.54C559.036 380.967 558.296 380.68 557.389 380.68C556.509 380.68 555.776 380.967 555.189 381.54C554.616 382.113 554.329 382.927 554.329 383.98V384.16C554.329 385.227 554.616 386.047 555.189 386.62C555.776 387.193 556.509 387.48 557.389 387.48ZM564.441 389L568.441 375H572.241L576.221 389H574.001L573.081 385.7H567.601L566.681 389H564.441ZM568.141 383.7H572.541L570.501 376.34H570.181L568.141 383.7ZM578.178 393V379.14H580.198V380.56H580.518C580.772 380.12 581.152 379.727 581.658 379.38C582.178 379.033 582.918 378.86 583.878 378.86C584.705 378.86 585.458 379.06 586.138 379.46C586.832 379.86 587.385 380.44 587.798 381.2C588.225 381.947 588.438 382.853 588.438 383.92V384.22C588.438 385.287 588.232 386.2 587.818 386.96C587.405 387.707 586.852 388.28 586.158 388.68C585.465 389.08 584.705 389.28 583.878 389.28C583.238 389.28 582.698 389.2 582.258 389.04C581.818 388.88 581.465 388.68 581.198 388.44C580.932 388.187 580.718 387.927 580.558 387.66H580.238V393H578.178ZM583.278 387.48C584.185 387.48 584.925 387.193 585.498 386.62C586.072 386.047 586.358 385.227 586.358 384.16V383.98C586.358 382.927 586.065 382.113 585.478 381.54C584.905 380.967 584.172 380.68 583.278 380.68C582.398 380.68 581.665 380.967 581.078 381.54C580.505 382.113 580.218 382.927 580.218 383.98V384.16C580.218 385.227 580.505 386.047 581.078 386.62C581.665 387.193 582.398 387.48 583.278 387.48ZM590.991 393V379.14H593.011V380.56H593.331C593.584 380.12 593.964 379.727 594.471 379.38C594.991 379.033 595.731 378.86 596.691 378.86C597.517 378.86 598.271 379.06 598.951 379.46C599.644 379.86 600.197 380.44 600.611 381.2C601.037 381.947 601.251 382.853 601.251 383.92V384.22C601.251 385.287 601.044 386.2 600.631 386.96C600.217 387.707 599.664 388.28 598.971 388.68C598.277 389.08 597.517 389.28 596.691 389.28C596.051 389.28 595.511 389.2 595.071 389.04C594.631 388.88 594.277 388.68 594.011 388.44C593.744 388.187 593.531 387.927 593.371 387.66H593.051V393H590.991ZM596.091 387.48C596.997 387.48 597.737 387.193 598.311 386.62C598.884 386.047 599.171 385.227 599.171 384.16V383.98C599.171 382.927 598.877 382.113 598.291 381.54C597.717 380.967 596.984 380.68 596.091 380.68C595.211 380.68 594.477 380.967 593.891 381.54C593.317 382.113 593.031 382.927 593.031 383.98V384.16C593.031 385.227 593.317 386.047 593.891 386.62C594.477 387.193 595.211 387.48 596.091 387.48ZM607.843 389.28C606.59 389.28 605.55 389 604.723 388.44C603.897 387.88 603.39 387.033 603.203 385.9L605.123 385.44C605.23 385.987 605.41 386.42 605.663 386.74C605.917 387.06 606.23 387.287 606.603 387.42C606.99 387.553 607.403 387.62 607.843 387.62C608.497 387.62 608.997 387.493 609.343 387.24C609.703 386.987 609.883 386.66 609.883 386.26C609.883 385.86 609.717 385.567 609.383 385.38C609.05 385.193 608.557 385.04 607.903 384.92L607.223 384.8C606.557 384.68 605.95 384.507 605.403 384.28C604.857 384.053 604.423 383.74 604.103 383.34C603.783 382.94 603.623 382.427 603.623 381.8C603.623 380.867 603.97 380.147 604.663 379.64C605.357 379.12 606.277 378.86 607.423 378.86C608.53 378.86 609.437 379.113 610.143 379.62C610.863 380.113 611.33 380.787 611.543 381.64L609.623 382.18C609.503 381.58 609.25 381.16 608.863 380.92C608.477 380.667 607.997 380.54 607.423 380.54C606.863 380.54 606.423 380.647 606.103 380.86C605.783 381.06 605.623 381.347 605.623 381.72C605.623 382.12 605.777 382.413 606.083 382.6C606.403 382.787 606.83 382.927 607.363 383.02L608.063 383.14C608.77 383.26 609.417 383.427 610.003 383.64C610.59 383.853 611.05 384.16 611.383 384.56C611.73 384.96 611.903 385.493 611.903 386.16C611.903 387.147 611.537 387.913 610.803 388.46C610.07 389.007 609.083 389.28 607.843 389.28Z" fill="#2375EF"/>
<g filter="url(#filter3_b_118_2976)">
<rect x="269.333" y="107.4" width="120" height="120" rx="32" fill="white" fill-opacity="0.1"/>
<path d="M329.333 156.9H332.833M329.333 163.9H332.833M315.333 170.9H332.833M315.333 177.9H332.833M339.833 156.9H347.708C349.157 156.9 350.333 158.076 350.333 159.525V181.4C350.333 182.793 349.78 184.128 348.796 185.113C347.811 186.097 346.476 186.65 345.083 186.65M339.833 156.9V181.4C339.833 182.793 340.387 184.128 341.371 185.113C342.356 186.097 343.691 186.65 345.083 186.65M339.833 156.9V150.775C339.833 149.326 338.657 148.15 337.208 148.15H310.958C309.509 148.15 308.333 149.326 308.333 150.775V181.4C308.333 182.793 308.887 184.128 309.871 185.113C310.856 186.097 312.191 186.65 313.583 186.65H345.083M315.333 156.9H322.333V163.9H315.333V156.9Z" stroke="#2375EF" stroke-width="3.8" stroke-linecap="round" stroke-linejoin="round"/>
<rect x="269.967" y="108.034" width="118.733" height="118.733" rx="31.3667" stroke="#D3E3FC" stroke-width="1.26667"/>
</g>
<path d="M271.262 266.4L269.202 252.4H271.362L273.042 264.94H273.362L275.522 252.4H279.302L281.462 264.94H281.782L283.442 252.4H285.602L283.542 266.4H279.762L277.562 253.68H277.242L275.062 266.4H271.262ZM292.122 266.68C291.122 266.68 290.248 266.474 289.502 266.06C288.755 265.634 288.168 265.04 287.742 264.28C287.328 263.507 287.122 262.614 287.122 261.6V261.36C287.122 260.334 287.328 259.44 287.742 258.68C288.155 257.907 288.728 257.314 289.462 256.9C290.208 256.474 291.068 256.26 292.042 256.26C292.988 256.26 293.815 256.474 294.522 256.9C295.242 257.314 295.802 257.894 296.202 258.64C296.602 259.387 296.802 260.26 296.802 261.26V262.04H289.222C289.248 262.907 289.535 263.6 290.082 264.12C290.642 264.627 291.335 264.88 292.162 264.88C292.935 264.88 293.515 264.707 293.902 264.36C294.302 264.014 294.608 263.614 294.822 263.16L296.522 264.04C296.335 264.414 296.062 264.807 295.702 265.22C295.355 265.634 294.895 265.98 294.322 266.26C293.748 266.54 293.015 266.68 292.122 266.68ZM289.242 260.46H294.702C294.648 259.714 294.382 259.134 293.902 258.72C293.422 258.294 292.795 258.08 292.022 258.08C291.248 258.08 290.615 258.294 290.122 258.72C289.642 259.134 289.348 259.714 289.242 260.46ZM303.899 261.52V261.22C303.899 260.18 304.106 259.294 304.519 258.56C304.946 257.827 305.506 257.26 306.199 256.86C306.892 256.46 307.652 256.26 308.479 256.26C309.439 256.26 310.172 256.44 310.679 256.8C311.199 257.16 311.579 257.547 311.819 257.96H312.139V256.54H314.139V268.42C314.139 269.02 313.959 269.5 313.599 269.86C313.252 270.22 312.772 270.4 312.159 270.4H305.519V268.6H311.519C311.906 268.6 312.099 268.4 312.099 268V264.86H311.779C311.632 265.1 311.426 265.347 311.159 265.6C310.892 265.854 310.539 266.06 310.099 266.22C309.672 266.38 309.132 266.46 308.479 266.46C307.652 266.46 306.886 266.267 306.179 265.88C305.486 265.48 304.932 264.914 304.519 264.18C304.106 263.434 303.899 262.547 303.899 261.52ZM309.039 264.66C309.932 264.66 310.666 264.38 311.239 263.82C311.826 263.247 312.119 262.46 312.119 261.46V261.28C312.119 260.254 311.832 259.467 311.259 258.92C310.686 258.36 309.946 258.08 309.039 258.08C308.159 258.08 307.426 258.36 306.839 258.92C306.266 259.467 305.979 260.254 305.979 261.28V261.46C305.979 262.46 306.266 263.247 306.839 263.82C307.426 264.38 308.159 264.66 309.039 264.66ZM321.692 266.68C320.692 266.68 319.819 266.474 319.072 266.06C318.325 265.634 317.739 265.04 317.312 264.28C316.899 263.507 316.692 262.614 316.692 261.6V261.36C316.692 260.334 316.899 259.44 317.312 258.68C317.725 257.907 318.299 257.314 319.032 256.9C319.779 256.474 320.639 256.26 321.612 256.26C322.559 256.26 323.385 256.474 324.092 256.9C324.812 257.314 325.372 257.894 325.772 258.64C326.172 259.387 326.372 260.26 326.372 261.26V262.04H318.792C318.819 262.907 319.105 263.6 319.652 264.12C320.212 264.627 320.905 264.88 321.732 264.88C322.505 264.88 323.085 264.707 323.472 264.36C323.872 264.014 324.179 263.614 324.392 263.16L326.092 264.04C325.905 264.414 325.632 264.807 325.272 265.22C324.925 265.634 324.465 265.98 323.892 266.26C323.319 266.54 322.585 266.68 321.692 266.68ZM318.812 260.46H324.272C324.219 259.714 323.952 259.134 323.472 258.72C322.992 258.294 322.365 258.08 321.592 258.08C320.819 258.08 320.185 258.294 319.692 258.72C319.212 259.134 318.919 259.714 318.812 260.46ZM328.852 266.4V256.54H330.872V258.02H331.192C331.378 257.62 331.712 257.247 332.192 256.9C332.672 256.554 333.385 256.38 334.332 256.38C335.078 256.38 335.738 256.547 336.312 256.88C336.898 257.214 337.358 257.687 337.692 258.3C338.025 258.9 338.192 259.627 338.192 260.48V266.4H336.132V260.64C336.132 259.787 335.918 259.16 335.492 258.76C335.065 258.347 334.478 258.14 333.732 258.14C332.878 258.14 332.192 258.42 331.672 258.98C331.165 259.54 330.912 260.354 330.912 261.42V266.4H328.852ZM345.676 266.68C344.676 266.68 343.803 266.474 343.056 266.06C342.31 265.634 341.723 265.04 341.296 264.28C340.883 263.507 340.676 262.614 340.676 261.6V261.36C340.676 260.334 340.883 259.44 341.296 258.68C341.71 257.907 342.283 257.314 343.016 256.9C343.763 256.474 344.623 256.26 345.596 256.26C346.543 256.26 347.37 256.474 348.076 256.9C348.796 257.314 349.356 257.894 349.756 258.64C350.156 259.387 350.356 260.26 350.356 261.26V262.04H342.776C342.803 262.907 343.09 263.6 343.636 264.12C344.196 264.627 344.89 264.88 345.716 264.88C346.49 264.88 347.07 264.707 347.456 264.36C347.856 264.014 348.163 263.614 348.376 263.16L350.076 264.04C349.89 264.414 349.616 264.807 349.256 265.22C348.91 265.634 348.45 265.98 347.876 266.26C347.303 266.54 346.57 266.68 345.676 266.68ZM342.796 260.46H348.256C348.203 259.714 347.936 259.134 347.456 258.72C346.976 258.294 346.35 258.08 345.576 258.08C344.803 258.08 344.17 258.294 343.676 258.72C343.196 259.134 342.903 259.714 342.796 260.46ZM352.836 266.4V256.54H354.856V257.7H355.176C355.336 257.287 355.589 256.987 355.936 256.8C356.296 256.6 356.736 256.5 357.256 256.5H358.436V258.36H357.176C356.509 258.36 355.963 258.547 355.536 258.92C355.109 259.28 354.896 259.84 354.896 260.6V266.4H352.836ZM363.357 266.68C362.65 266.68 362.017 266.56 361.457 266.32C360.91 266.08 360.47 265.727 360.137 265.26C359.817 264.794 359.657 264.227 359.657 263.56C359.657 262.88 359.817 262.32 360.137 261.88C360.47 261.427 360.917 261.087 361.477 260.86C362.05 260.634 362.697 260.52 363.417 260.52H366.417V259.88C366.417 259.307 366.244 258.847 365.897 258.5C365.55 258.154 365.017 257.98 364.297 257.98C363.59 257.98 363.05 258.147 362.677 258.48C362.304 258.814 362.057 259.247 361.937 259.78L360.017 259.16C360.177 258.627 360.43 258.147 360.777 257.72C361.137 257.28 361.61 256.927 362.197 256.66C362.784 256.394 363.49 256.26 364.317 256.26C365.597 256.26 366.604 256.587 367.337 257.24C368.07 257.894 368.437 258.82 368.437 260.02V264.08C368.437 264.48 368.624 264.68 368.997 264.68H369.837V266.4H368.297C367.83 266.4 367.45 266.28 367.157 266.04C366.864 265.8 366.717 265.474 366.717 265.06V265H366.417C366.31 265.2 366.15 265.434 365.937 265.7C365.724 265.967 365.41 266.2 364.997 266.4C364.584 266.587 364.037 266.68 363.357 266.68ZM363.657 264.98C364.484 264.98 365.15 264.747 365.657 264.28C366.164 263.8 366.417 263.147 366.417 262.32V262.12H363.537C362.99 262.12 362.55 262.24 362.217 262.48C361.884 262.707 361.717 263.047 361.717 263.5C361.717 263.954 361.89 264.314 362.237 264.58C362.584 264.847 363.057 264.98 363.657 264.98ZM374.856 266.4C374.256 266.4 373.776 266.22 373.416 265.86C373.07 265.5 372.896 265.02 372.896 264.42V258.28H370.176V256.54H372.896V253.28H374.956V256.54H377.896V258.28H374.956V264.06C374.956 264.46 375.143 264.66 375.516 264.66H377.576V266.4H374.856ZM384.485 266.68C383.485 266.68 382.611 266.474 381.865 266.06C381.118 265.634 380.531 265.04 380.105 264.28C379.691 263.507 379.485 262.614 379.485 261.6V261.36C379.485 260.334 379.691 259.44 380.105 258.68C380.518 257.907 381.091 257.314 381.825 256.9C382.571 256.474 383.431 256.26 384.405 256.26C385.351 256.26 386.178 256.474 386.885 256.9C387.605 257.314 388.165 257.894 388.565 258.64C388.965 259.387 389.165 260.26 389.165 261.26V262.04H381.585C381.611 262.907 381.898 263.6 382.445 264.12C383.005 264.627 383.698 264.88 384.525 264.88C385.298 264.88 385.878 264.707 386.265 264.36C386.665 264.014 386.971 263.614 387.185 263.16L388.885 264.04C388.698 264.414 388.425 264.807 388.065 265.22C387.718 265.634 387.258 265.98 386.685 266.26C386.111 266.54 385.378 266.68 384.485 266.68ZM381.605 260.46H387.065C387.011 259.714 386.745 259.134 386.265 258.72C385.785 258.294 385.158 258.08 384.385 258.08C383.611 258.08 382.978 258.294 382.485 258.72C382.005 259.134 381.711 259.714 381.605 260.46ZM293.533 290.68C292.826 290.68 292.193 290.56 291.633 290.32C291.086 290.08 290.646 289.727 290.313 289.26C289.993 288.794 289.833 288.227 289.833 287.56C289.833 286.88 289.993 286.32 290.313 285.88C290.646 285.427 291.093 285.087 291.653 284.86C292.226 284.634 292.873 284.52 293.593 284.52H296.593V283.88C296.593 283.307 296.419 282.847 296.073 282.5C295.726 282.154 295.193 281.98 294.473 281.98C293.766 281.98 293.226 282.147 292.853 282.48C292.479 282.814 292.233 283.247 292.113 283.78L290.193 283.16C290.353 282.627 290.606 282.147 290.953 281.72C291.313 281.28 291.786 280.927 292.373 280.66C292.959 280.394 293.666 280.26 294.493 280.26C295.773 280.26 296.779 280.587 297.513 281.24C298.246 281.894 298.613 282.82 298.613 284.02V288.08C298.613 288.48 298.799 288.68 299.173 288.68H300.013V290.4H298.473C298.006 290.4 297.626 290.28 297.333 290.04C297.039 289.8 296.893 289.474 296.893 289.06V289H296.593C296.486 289.2 296.326 289.434 296.113 289.7C295.899 289.967 295.586 290.2 295.173 290.4C294.759 290.587 294.213 290.68 293.533 290.68ZM293.833 288.98C294.659 288.98 295.326 288.747 295.833 288.28C296.339 287.8 296.593 287.147 296.593 286.32V286.12H293.713C293.166 286.12 292.726 286.24 292.393 286.48C292.059 286.707 291.893 287.047 291.893 287.5C291.893 287.954 292.066 288.314 292.413 288.58C292.759 288.847 293.233 288.98 293.833 288.98ZM306.361 290.68C305.415 290.68 304.555 290.48 303.781 290.08C303.021 289.68 302.415 289.1 301.961 288.34C301.521 287.58 301.301 286.667 301.301 285.6V285.34C301.301 284.274 301.521 283.367 301.961 282.62C302.415 281.86 303.021 281.28 303.781 280.88C304.555 280.467 305.415 280.26 306.361 280.26C307.308 280.26 308.115 280.434 308.781 280.78C309.448 281.127 309.981 281.587 310.381 282.16C310.795 282.734 311.061 283.367 311.181 284.06L309.181 284.48C309.115 284.04 308.975 283.64 308.761 283.28C308.548 282.92 308.248 282.634 307.861 282.42C307.475 282.207 306.988 282.1 306.401 282.1C305.828 282.1 305.308 282.234 304.841 282.5C304.388 282.754 304.028 283.127 303.761 283.62C303.495 284.1 303.361 284.687 303.361 285.38V285.56C303.361 286.254 303.495 286.847 303.761 287.34C304.028 287.834 304.388 288.207 304.841 288.46C305.308 288.714 305.828 288.84 306.401 288.84C307.268 288.84 307.928 288.62 308.381 288.18C308.835 287.727 309.121 287.154 309.241 286.46L311.241 286.92C311.081 287.6 310.795 288.227 310.381 288.8C309.981 289.374 309.448 289.834 308.781 290.18C308.115 290.514 307.308 290.68 306.361 290.68ZM318.197 290.68C317.251 290.68 316.391 290.48 315.617 290.08C314.857 289.68 314.251 289.1 313.797 288.34C313.357 287.58 313.137 286.667 313.137 285.6V285.34C313.137 284.274 313.357 283.367 313.797 282.62C314.251 281.86 314.857 281.28 315.617 280.88C316.391 280.467 317.251 280.26 318.197 280.26C319.144 280.26 319.951 280.434 320.617 280.78C321.284 281.127 321.817 281.587 322.217 282.16C322.631 282.734 322.897 283.367 323.017 284.06L321.017 284.48C320.951 284.04 320.811 283.64 320.597 283.28C320.384 282.92 320.084 282.634 319.697 282.42C319.311 282.207 318.824 282.1 318.237 282.1C317.664 282.1 317.144 282.234 316.677 282.5C316.224 282.754 315.864 283.127 315.597 283.62C315.331 284.1 315.197 284.687 315.197 285.38V285.56C315.197 286.254 315.331 286.847 315.597 287.34C315.864 287.834 316.224 288.207 316.677 288.46C317.144 288.714 317.664 288.84 318.237 288.84C319.104 288.84 319.764 288.62 320.217 288.18C320.671 287.727 320.957 287.154 321.077 286.46L323.077 286.92C322.917 287.6 322.631 288.227 322.217 288.8C321.817 289.374 321.284 289.834 320.617 290.18C319.951 290.514 319.144 290.68 318.197 290.68ZM330.073 290.68C329.086 290.68 328.206 290.48 327.433 290.08C326.673 289.667 326.073 289.08 325.633 288.32C325.193 287.56 324.973 286.66 324.973 285.62V285.32C324.973 284.28 325.193 283.387 325.633 282.64C326.073 281.88 326.673 281.294 327.433 280.88C328.206 280.467 329.086 280.26 330.073 280.26C331.06 280.26 331.94 280.467 332.713 280.88C333.486 281.294 334.093 281.88 334.533 282.64C334.973 283.387 335.193 284.28 335.193 285.32V285.62C335.193 286.66 334.973 287.56 334.533 288.32C334.093 289.08 333.486 289.667 332.713 290.08C331.94 290.48 331.06 290.68 330.073 290.68ZM330.073 288.84C330.98 288.84 331.713 288.554 332.273 287.98C332.846 287.394 333.133 286.587 333.133 285.56V285.38C333.133 284.354 332.853 283.554 332.293 282.98C331.733 282.394 330.993 282.1 330.073 282.1C329.18 282.1 328.446 282.394 327.873 282.98C327.313 283.554 327.033 284.354 327.033 285.38V285.56C327.033 286.587 327.313 287.394 327.873 287.98C328.446 288.554 329.18 288.84 330.073 288.84ZM341.538 290.58C340.791 290.58 340.124 290.414 339.538 290.08C338.951 289.747 338.491 289.274 338.158 288.66C337.824 288.047 337.658 287.314 337.658 286.46V280.54H339.718V286.32C339.718 287.174 339.931 287.807 340.358 288.22C340.784 288.62 341.378 288.82 342.138 288.82C342.978 288.82 343.651 288.54 344.158 287.98C344.678 287.407 344.938 286.587 344.938 285.52V280.54H346.998V290.4H344.978V288.92H344.658C344.471 289.32 344.138 289.7 343.658 290.06C343.178 290.407 342.471 290.58 341.538 290.58ZM350.043 290.4V280.54H352.063V282.02H352.383C352.57 281.62 352.903 281.247 353.383 280.9C353.863 280.554 354.576 280.38 355.523 280.38C356.27 280.38 356.93 280.547 357.503 280.88C358.09 281.214 358.55 281.687 358.883 282.3C359.216 282.9 359.383 283.627 359.383 284.48V290.4H357.323V284.64C357.323 283.787 357.11 283.16 356.683 282.76C356.256 282.347 355.67 282.14 354.923 282.14C354.07 282.14 353.383 282.42 352.863 282.98C352.356 283.54 352.103 284.354 352.103 285.42V290.4H350.043ZM365.774 290.4C365.174 290.4 364.694 290.22 364.334 289.86C363.988 289.5 363.814 289.02 363.814 288.42V282.28H361.094V280.54H363.814V277.28H365.874V280.54H368.814V282.28H365.874V288.06C365.874 288.46 366.061 288.66 366.434 288.66H368.494V290.4H365.774Z" fill="#2375EF"/>
<g filter="url(#filter4_b_118_2976)">
<rect x="16" y="107.4" width="120" height="120" rx="32" fill="white" fill-opacity="0.1"/>
<path d="M84.7501 153.4C84.7501 155.721 83.8282 157.947 82.1873 159.588C80.5463 161.228 78.3208 162.15 76.0001 162.15C73.6795 162.15 71.4539 161.228 69.8129 159.588C68.172 157.947 67.2501 155.721 67.2501 153.4C67.2501 151.08 68.172 148.854 69.8129 147.213C71.4539 145.572 73.6795 144.65 76.0001 144.65C78.3208 144.65 80.5463 145.572 82.1873 147.213C83.8282 148.854 84.7501 151.08 84.7501 153.4V153.4ZM58.5024 186.342C58.5774 181.751 60.4539 177.373 63.7272 174.153C67.0005 170.933 71.4083 169.128 76.0001 169.128C80.5919 169.128 84.9997 170.933 88.273 174.153C91.5463 177.373 93.4228 181.751 93.4978 186.342C88.0084 188.859 82.0391 190.159 76.0001 190.15C69.7561 190.15 63.8294 188.788 58.5024 186.342Z" stroke="#2375EF" stroke-width="3.8" stroke-linecap="round" stroke-linejoin="round"/>
<rect x="16.6333" y="108.034" width="118.733" height="118.733" rx="31.3667" stroke="#D3E3FC" stroke-width="1.26667"/>
</g>
<path d="M25.9993 266.68C24.946 266.68 24.0126 266.494 23.1993 266.12C22.386 265.747 21.746 265.2 21.2793 264.48C20.826 263.747 20.5993 262.86 20.5993 261.82V261.32H22.7393V261.82C22.7393 262.807 23.0326 263.547 23.6193 264.04C24.2193 264.534 25.0126 264.78 25.9993 264.78C26.9993 264.78 27.7526 264.574 28.2593 264.16C28.766 263.734 29.0193 263.187 29.0193 262.52C29.0193 262.08 28.8993 261.72 28.6593 261.44C28.4193 261.16 28.0793 260.94 27.6393 260.78C27.1993 260.607 26.6726 260.447 26.0593 260.3L25.3193 260.12C24.426 259.907 23.646 259.647 22.9793 259.34C22.326 259.02 21.8193 258.6 21.4593 258.08C21.0993 257.56 20.9193 256.894 20.9193 256.08C20.9193 255.254 21.1193 254.547 21.5193 253.96C21.9326 253.374 22.4993 252.92 23.2193 252.6C23.9393 252.28 24.786 252.12 25.7593 252.12C26.7326 252.12 27.5993 252.287 28.3593 252.62C29.1326 252.954 29.7393 253.447 30.1793 254.1C30.6193 254.754 30.8393 255.574 30.8393 256.56V257.28H28.6993V256.56C28.6993 255.96 28.5726 255.474 28.3193 255.1C28.0793 254.727 27.7393 254.454 27.2993 254.28C26.8593 254.107 26.346 254.02 25.7593 254.02C24.906 254.02 24.2393 254.2 23.7593 254.56C23.2926 254.907 23.0593 255.394 23.0593 256.02C23.0593 256.447 23.1593 256.8 23.3593 257.08C23.5726 257.347 23.8793 257.567 24.2793 257.74C24.6793 257.914 25.1793 258.067 25.7793 258.2L26.5193 258.38C27.426 258.58 28.226 258.84 28.9193 259.16C29.6126 259.467 30.1593 259.887 30.5593 260.42C30.9593 260.954 31.1593 261.64 31.1593 262.48C31.1593 263.32 30.946 264.054 30.5193 264.68C30.106 265.307 29.5126 265.8 28.7393 266.16C27.966 266.507 27.0526 266.68 25.9993 266.68ZM33.4868 266.4V256.54H35.5468V266.4H33.4868ZM34.5268 255.2C34.1268 255.2 33.7868 255.074 33.5068 254.82C33.2401 254.554 33.1068 254.214 33.1068 253.8C33.1068 253.387 33.2401 253.054 33.5068 252.8C33.7868 252.534 34.1268 252.4 34.5268 252.4C34.9401 252.4 35.2801 252.534 35.5468 252.8C35.8135 253.054 35.9468 253.387 35.9468 253.8C35.9468 254.214 35.8135 254.554 35.5468 254.82C35.2801 255.074 34.9401 255.2 34.5268 255.2ZM38.124 261.52V261.22C38.124 260.18 38.3307 259.294 38.744 258.56C39.1707 257.827 39.7307 257.26 40.424 256.86C41.1173 256.46 41.8773 256.26 42.704 256.26C43.664 256.26 44.3973 256.44 44.904 256.8C45.424 257.16 45.804 257.547 46.044 257.96H46.364V256.54H48.364V268.42C48.364 269.02 48.184 269.5 47.824 269.86C47.4773 270.22 46.9973 270.4 46.384 270.4H39.744V268.6H45.744C46.1307 268.6 46.324 268.4 46.324 268V264.86H46.004C45.8573 265.1 45.6507 265.347 45.384 265.6C45.1173 265.854 44.764 266.06 44.324 266.22C43.8973 266.38 43.3573 266.46 42.704 266.46C41.8773 266.46 41.1107 266.267 40.404 265.88C39.7107 265.48 39.1573 264.914 38.744 264.18C38.3307 263.434 38.124 262.547 38.124 261.52ZM43.264 264.66C44.1573 264.66 44.8907 264.38 45.464 263.82C46.0507 263.247 46.344 262.46 46.344 261.46V261.28C46.344 260.254 46.0573 259.467 45.484 258.92C44.9107 258.36 44.1707 258.08 43.264 258.08C42.384 258.08 41.6507 258.36 41.064 258.92C40.4907 259.467 40.204 260.254 40.204 261.28V261.46C40.204 262.46 40.4907 263.247 41.064 263.82C41.6507 264.38 42.384 264.66 43.264 264.66ZM51.397 266.4V256.54H53.417V258.02H53.737C53.9236 257.62 54.257 257.247 54.737 256.9C55.217 256.554 55.9303 256.38 56.877 256.38C57.6236 256.38 58.2836 256.547 58.857 256.88C59.4436 257.214 59.9036 257.687 60.237 258.3C60.5703 258.9 60.737 259.627 60.737 260.48V266.4H58.677V260.64C58.677 259.787 58.4636 259.16 58.037 258.76C57.6103 258.347 57.0236 258.14 56.277 258.14C55.4236 258.14 54.737 258.42 54.217 258.98C53.7103 259.54 53.457 260.354 53.457 261.42V266.4H51.397ZM68.7993 266.4V256.54H70.8593V266.4H68.7993ZM69.8393 255.2C69.4393 255.2 69.0993 255.074 68.8193 254.82C68.5526 254.554 68.4193 254.214 68.4193 253.8C68.4193 253.387 68.5526 253.054 68.8193 252.8C69.0993 252.534 69.4393 252.4 69.8393 252.4C70.2526 252.4 70.5926 252.534 70.8593 252.8C71.126 253.054 71.2593 253.387 71.2593 253.8C71.2593 254.214 71.126 254.554 70.8593 254.82C70.5926 255.074 70.2526 255.2 69.8393 255.2ZM73.9165 266.4V256.54H75.9365V258.02H76.2565C76.4432 257.62 76.7765 257.247 77.2565 256.9C77.7365 256.554 78.4498 256.38 79.3965 256.38C80.1432 256.38 80.8032 256.547 81.3765 256.88C81.9632 257.214 82.4232 257.687 82.7565 258.3C83.0898 258.9 83.2565 259.627 83.2565 260.48V266.4H81.1965V260.64C81.1965 259.787 80.9832 259.16 80.5565 258.76C80.1298 258.347 79.5432 258.14 78.7965 258.14C77.9432 258.14 77.2565 258.42 76.7365 258.98C76.2298 259.54 75.9765 260.354 75.9765 261.42V266.4H73.9165ZM92.3988 266.4L90.7188 256.54H92.7788L94.0188 265.02H94.3388L96.0588 256.54H99.3988L101.099 265.02H101.419L102.659 256.54H104.719L103.039 266.4H99.5788L97.8788 257.94H97.5588L95.8588 266.4H92.3988ZM107.159 266.4V256.54H109.219V266.4H107.159ZM108.199 255.2C107.799 255.2 107.459 255.074 107.179 254.82C106.912 254.554 106.779 254.214 106.779 253.8C106.779 253.387 106.912 253.054 107.179 252.8C107.459 252.534 107.799 252.4 108.199 252.4C108.612 252.4 108.952 252.534 109.219 252.8C109.485 253.054 109.619 253.387 109.619 253.8C109.619 254.214 109.485 254.554 109.219 254.82C108.952 255.074 108.612 255.2 108.199 255.2ZM115.976 266.4C115.376 266.4 114.896 266.22 114.536 265.86C114.189 265.5 114.016 265.02 114.016 264.42V258.28H111.296V256.54H114.016V253.28H116.076V256.54H119.016V258.28H116.076V264.06C116.076 264.46 116.263 264.66 116.636 264.66H118.696V266.4H115.976ZM121.436 266.4V252.4H123.496V257.94H123.816C123.949 257.687 124.136 257.44 124.376 257.2C124.629 256.96 124.956 256.767 125.356 256.62C125.769 256.46 126.289 256.38 126.916 256.38C127.663 256.38 128.323 256.547 128.896 256.88C129.483 257.214 129.943 257.687 130.276 258.3C130.609 258.9 130.776 259.627 130.776 260.48V266.4H128.716V260.64C128.716 259.787 128.503 259.16 128.076 258.76C127.649 258.347 127.063 258.14 126.316 258.14C125.463 258.14 124.776 258.42 124.256 258.98C123.749 259.54 123.496 260.354 123.496 261.42V266.4H121.436ZM31.3832 290.4L29.7032 280.54H31.7632L33.0032 289.02H33.3232L35.0432 280.54H38.3832L40.0832 289.02H40.4032L41.6432 280.54H43.7032L42.0232 290.4H38.5632L36.8632 281.94H36.5432L34.8432 290.4H31.3832ZM50.5459 290.68C49.5459 290.68 48.6725 290.474 47.9259 290.06C47.1792 289.634 46.5925 289.04 46.1659 288.28C45.7525 287.507 45.5459 286.614 45.5459 285.6V285.36C45.5459 284.334 45.7525 283.44 46.1659 282.68C46.5792 281.907 47.1525 281.314 47.8859 280.9C48.6325 280.474 49.4925 280.26 50.4659 280.26C51.4125 280.26 52.2392 280.474 52.9459 280.9C53.6659 281.314 54.2259 281.894 54.6259 282.64C55.0259 283.387 55.2259 284.26 55.2259 285.26V286.04H47.6459C47.6725 286.907 47.9592 287.6 48.5059 288.12C49.0659 288.627 49.7592 288.88 50.5859 288.88C51.3592 288.88 51.9392 288.707 52.3259 288.36C52.7259 288.014 53.0325 287.614 53.2459 287.16L54.9459 288.04C54.7592 288.414 54.4859 288.807 54.1259 289.22C53.7792 289.634 53.3192 289.98 52.7459 290.26C52.1725 290.54 51.4392 290.68 50.5459 290.68ZM47.6659 284.46H53.1259C53.0725 283.714 52.8059 283.134 52.3259 282.72C51.8459 282.294 51.2192 282.08 50.4459 282.08C49.6725 282.08 49.0392 282.294 48.5459 282.72C48.0659 283.134 47.7725 283.714 47.6659 284.46ZM63.4055 290.68C62.4455 290.68 61.7055 290.507 61.1855 290.16C60.6789 289.814 60.2989 289.427 60.0455 289H59.7255V290.4H57.7055V276.4H59.7655V281.88H60.0855C60.2455 281.614 60.4589 281.36 60.7255 281.12C60.9922 280.867 61.3455 280.66 61.7855 280.5C62.2255 280.34 62.7655 280.26 63.4055 280.26C64.2322 280.26 64.9922 280.46 65.6855 280.86C66.3789 281.26 66.9322 281.84 67.3455 282.6C67.7589 283.36 67.9655 284.267 67.9655 285.32V285.62C67.9655 286.687 67.7522 287.6 67.3255 288.36C66.9122 289.107 66.3589 289.68 65.6655 290.08C64.9855 290.48 64.2322 290.68 63.4055 290.68ZM62.8055 288.88C63.6989 288.88 64.4322 288.594 65.0055 288.02C65.5922 287.447 65.8855 286.627 65.8855 285.56V285.38C65.8855 284.327 65.5989 283.514 65.0255 282.94C64.4522 282.367 63.7122 282.08 62.8055 282.08C61.9255 282.08 61.1922 282.367 60.6055 282.94C60.0322 283.514 59.7455 284.327 59.7455 285.38V285.56C59.7455 286.627 60.0322 287.447 60.6055 288.02C61.1922 288.594 61.9255 288.88 62.8055 288.88ZM69.958 290.4V288.82C69.958 287.847 70.1247 287.047 70.458 286.42C70.7914 285.794 71.2647 285.287 71.878 284.9C72.5047 284.5 73.258 284.167 74.138 283.9L75.358 283.52C75.9047 283.347 76.3714 283.134 76.758 282.88C77.158 282.627 77.4647 282.314 77.678 281.94C77.8914 281.554 77.998 281.107 77.998 280.6V280.52C77.998 279.734 77.7314 279.12 77.198 278.68C76.6647 278.227 75.9647 278 75.098 278C74.2047 278 73.478 278.24 72.918 278.72C72.3714 279.2 72.098 279.907 72.098 280.84V281.16H70.018V280.86C70.018 279.847 70.238 278.994 70.678 278.3C71.118 277.594 71.7247 277.054 72.498 276.68C73.2714 276.307 74.138 276.12 75.098 276.12C76.058 276.12 76.9114 276.3 77.658 276.66C78.418 277.02 79.0114 277.527 79.438 278.18C79.878 278.834 80.098 279.6 80.098 280.48V280.66C80.098 281.567 79.918 282.32 79.558 282.92C79.198 283.52 78.698 284.014 78.058 284.4C77.4314 284.787 76.7047 285.114 75.878 285.38L74.698 285.74C74.0714 285.927 73.5647 286.134 73.178 286.36C72.8047 286.574 72.5247 286.834 72.338 287.14C72.1647 287.447 72.078 287.84 72.078 288.32V288.52H79.978V290.4H69.958ZM90.6288 290.68C89.9222 290.68 89.2888 290.56 88.7288 290.32C88.1822 290.08 87.7422 289.727 87.4088 289.26C87.0888 288.794 86.9288 288.227 86.9288 287.56C86.9288 286.88 87.0888 286.32 87.4088 285.88C87.7422 285.427 88.1888 285.087 88.7488 284.86C89.3222 284.634 89.9688 284.52 90.6888 284.52H93.6888V283.88C93.6888 283.307 93.5155 282.847 93.1688 282.5C92.8222 282.154 92.2888 281.98 91.5688 281.98C90.8622 281.98 90.3222 282.147 89.9488 282.48C89.5755 282.814 89.3288 283.247 89.2088 283.78L87.2888 283.16C87.4488 282.627 87.7022 282.147 88.0488 281.72C88.4088 281.28 88.8822 280.927 89.4688 280.66C90.0555 280.394 90.7622 280.26 91.5888 280.26C92.8688 280.26 93.8755 280.587 94.6088 281.24C95.3422 281.894 95.7088 282.82 95.7088 284.02V288.08C95.7088 288.48 95.8955 288.68 96.2688 288.68H97.1088V290.4H95.5688C95.1022 290.4 94.7222 290.28 94.4288 290.04C94.1355 289.8 93.9888 289.474 93.9888 289.06V289H93.6888C93.5822 289.2 93.4222 289.434 93.2088 289.7C92.9955 289.967 92.6822 290.2 92.2688 290.4C91.8555 290.587 91.3088 290.68 90.6288 290.68ZM90.9288 288.98C91.7555 288.98 92.4222 288.747 92.9288 288.28C93.4355 287.8 93.6888 287.147 93.6888 286.32V286.12H90.8088C90.2622 286.12 89.8222 286.24 89.4888 286.48C89.1555 286.707 88.9888 287.047 88.9888 287.5C88.9888 287.954 89.1622 288.314 89.5088 288.58C89.8555 288.847 90.3288 288.98 90.9288 288.98ZM99.1118 294.4V280.54H101.132V281.96H101.452C101.705 281.52 102.085 281.127 102.592 280.78C103.112 280.434 103.852 280.26 104.812 280.26C105.638 280.26 106.392 280.46 107.072 280.86C107.765 281.26 108.318 281.84 108.732 282.6C109.158 283.347 109.372 284.254 109.372 285.32V285.62C109.372 286.687 109.165 287.6 108.752 288.36C108.338 289.107 107.785 289.68 107.092 290.08C106.398 290.48 105.638 290.68 104.812 290.68C104.172 290.68 103.632 290.6 103.192 290.44C102.752 290.28 102.398 290.08 102.132 289.84C101.865 289.587 101.652 289.327 101.492 289.06H101.172V294.4H99.1118ZM104.212 288.88C105.118 288.88 105.858 288.594 106.432 288.02C107.005 287.447 107.292 286.627 107.292 285.56V285.38C107.292 284.327 106.998 283.514 106.412 282.94C105.838 282.367 105.105 282.08 104.212 282.08C103.332 282.08 102.598 282.367 102.012 282.94C101.438 283.514 101.152 284.327 101.152 285.38V285.56C101.152 286.627 101.438 287.447 102.012 288.02C102.598 288.594 103.332 288.88 104.212 288.88ZM111.924 294.4V280.54H113.944V281.96H114.264C114.518 281.52 114.898 281.127 115.404 280.78C115.924 280.434 116.664 280.26 117.624 280.26C118.451 280.26 119.204 280.46 119.884 280.86C120.578 281.26 121.131 281.84 121.544 282.6C121.971 283.347 122.184 284.254 122.184 285.32V285.62C122.184 286.687 121.978 287.6 121.564 288.36C121.151 289.107 120.598 289.68 119.904 290.08C119.211 290.48 118.451 290.68 117.624 290.68C116.984 290.68 116.444 290.6 116.004 290.44C115.564 290.28 115.211 290.08 114.944 289.84C114.678 289.587 114.464 289.327 114.304 289.06H113.984V294.4H111.924ZM117.024 288.88C117.931 288.88 118.671 288.594 119.244 288.02C119.818 287.447 120.104 286.627 120.104 285.56V285.38C120.104 284.327 119.811 283.514 119.224 282.94C118.651 282.367 117.918 282.08 117.024 282.08C116.144 282.08 115.411 282.367 114.824 282.94C114.251 283.514 113.964 284.327 113.964 285.38V285.56C113.964 286.627 114.251 287.447 114.824 288.02C115.411 288.594 116.144 288.88 117.024 288.88Z" fill="#2375EF"/>
<path d="M646 264.5C645.172 264.5 644.5 265.172 644.5 266C644.5 266.828 645.172 267.5 646 267.5V264.5ZM772.261 169.261C772.847 168.675 772.847 167.726 772.261 167.14L762.715 157.594C762.129 157.008 761.179 157.008 760.594 157.594C760.008 158.18 760.008 159.129 760.594 159.715L769.079 168.201L760.594 176.686C760.008 177.272 760.008 178.221 760.594 178.807C761.179 179.393 762.129 179.393 762.715 178.807L772.261 169.261ZM646 267.5H684.6V264.5H646V267.5ZM710.1 242V192.2H707.1V242H710.1ZM732.6 169.701H771.2V166.701H732.6V169.701ZM710.1 192.2C710.1 179.774 720.174 169.701 732.6 169.701V166.701C718.517 166.701 707.1 178.117 707.1 192.2H710.1ZM684.6 267.5C698.683 267.5 710.1 256.083 710.1 242H707.1C707.1 254.426 697.027 264.5 684.6 264.5V267.5Z" fill="#2375EF"/>
<path d="M393.333 165.9C392.505 165.9 391.833 166.572 391.833 167.4C391.833 168.229 392.505 168.9 393.333 168.9V165.9ZM519.061 61.0607C519.646 60.4749 519.646 59.5251 519.061 58.9393L509.515 49.3934C508.929 48.8076 507.979 48.8076 507.393 49.3934C506.808 49.9792 506.808 50.9289 507.393 51.5147L515.879 60L507.393 68.4853C506.808 69.0711 506.808 70.0208 507.393 70.6066C507.979 71.1924 508.929 71.1924 509.515 70.6066L519.061 61.0607ZM393.333 168.9H431.667V165.9H393.333V168.9ZM457.167 143.4V84H454.167V143.4H457.167ZM479.667 61.5H518V58.5H479.667V61.5ZM457.167 84C457.167 71.5736 467.24 61.5 479.667 61.5V58.5C465.583 58.5 454.167 69.9167 454.167 84H457.167ZM431.667 168.9C445.75 168.9 457.167 157.484 457.167 143.4H454.167C454.167 155.827 444.093 165.9 431.667 165.9V168.9Z" fill="#2375EF"/>
<path d="M140 165.9C139.172 165.9 138.5 166.572 138.5 167.4C138.5 168.229 139.172 168.9 140 168.9V165.9ZM266.394 168.461C266.98 167.875 266.98 166.926 266.394 166.34L256.848 156.794C256.262 156.208 255.313 156.208 254.727 156.794C254.141 157.38 254.141 158.329 254.727 158.915L263.212 167.4L254.727 175.886C254.141 176.471 254.141 177.421 254.727 178.007C255.313 178.593 256.262 178.593 256.848 178.007L266.394 168.461ZM140 168.9H265.333V165.9H140V168.9Z" fill="#2375EF"/>
<path d="M646 58.5C645.172 58.5 644.5 59.1715 644.5 60C644.5 60.8284 645.172 61.5 646 61.5V58.5ZM772.261 169.261C772.847 168.675 772.847 167.726 772.261 167.14L762.715 157.594C762.129 157.008 761.179 157.008 760.594 157.594C760.008 158.18 760.008 159.129 760.594 159.715L769.079 168.2L760.594 176.686C760.008 177.272 760.008 178.221 760.594 178.807C761.179 179.393 762.129 179.393 762.715 178.807L772.261 169.261ZM646 61.5H684.6V58.5H646V61.5ZM707.1 84V144.2H710.1V84H707.1ZM732.6 169.7H771.2V166.7H732.6V169.7ZM707.1 144.2C707.1 158.284 718.517 169.7 732.6 169.7V166.7C720.174 166.7 710.1 156.627 710.1 144.2H707.1ZM684.6 61.5C697.027 61.5 707.1 71.5736 707.1 84H710.1C710.1 69.9167 698.683 58.5 684.6 58.5V61.5Z" fill="#2375EF"/>
<path d="M646 58.5C645.172 58.5 644.5 59.1715 644.5 60C644.5 60.8284 645.172 61.5 646 61.5V58.5ZM772.261 169.261C772.847 168.675 772.847 167.726 772.261 167.14L762.715 157.594C762.129 157.008 761.179 157.008 760.594 157.594C760.008 158.18 760.008 159.129 760.594 159.715L769.079 168.2L760.594 176.686C760.008 177.272 760.008 178.221 760.594 178.807C761.179 179.393 762.129 179.393 762.715 178.807L772.261 169.261ZM646 61.5H684.6V58.5H646V61.5ZM707.1 84V144.2H710.1V84H707.1ZM732.6 169.7H771.2V166.7H732.6V169.7ZM707.1 144.2C707.1 158.284 718.517 169.7 732.6 169.7V166.7C720.174 166.7 710.1 156.627 710.1 144.2H707.1ZM684.6 61.5C697.027 61.5 707.1 71.5736 707.1 84H710.1C710.1 69.9167 698.683 58.5 684.6 58.5V61.5Z" fill="#2375EF"/>
<path d="M393.333 165.9C392.505 165.9 391.833 166.572 391.833 167.4C391.833 168.229 392.505 168.9 393.333 168.9V165.9ZM519.061 267.061C519.646 266.475 519.646 265.525 519.061 264.939L509.515 255.393C508.929 254.808 507.979 254.808 507.393 255.393C506.808 255.979 506.808 256.929 507.393 257.515L515.879 266L507.393 274.485C506.808 275.071 506.808 276.021 507.393 276.607C507.979 277.192 508.929 277.192 509.515 276.607L519.061 267.061ZM393.333 168.9H431.667V165.9H393.333V168.9ZM454.167 191.4V242H457.167V191.4H454.167ZM479.667 267.5H518V264.5H479.667V267.5ZM454.167 242C454.167 256.083 465.583 267.5 479.667 267.5V264.5C467.24 264.5 457.167 254.426 457.167 242H454.167ZM431.667 168.9C444.093 168.9 454.167 178.974 454.167 191.4H457.167C457.167 177.317 445.75 165.9 431.667 165.9V168.9Z" fill="#2375EF"/>
<defs>
<filter id="filter0_b_118_2976" x="724.534" y="56.7338" width="222.933" height="222.933" filterUnits="userSpaceOnUse" color-interpolation-filters="sRGB">
<feFlood flood-opacity="0" result="BackgroundImageFix"/>
<feGaussianBlur in="BackgroundImageFix" stdDeviation="25.3333"/>
<feComposite in2="SourceAlpha" operator="in" result="effect1_backgroundBlur_118_2976"/>
<feBlend mode="normal" in="SourceGraphic" in2="effect1_backgroundBlur_118_2976" result="shape"/>
</filter>
<filter id="filter1_b_118_2976" x="471.333" y="-50.6667" width="221.333" height="221.333" filterUnits="userSpaceOnUse" color-interpolation-filters="sRGB">
<feFlood flood-opacity="0" result="BackgroundImageFix"/>
<feGaussianBlur in="BackgroundImageFix" stdDeviation="25.3333"/>
<feComposite in2="SourceAlpha" operator="in" result="effect1_backgroundBlur_118_2976"/>
<feBlend mode="normal" in="SourceGraphic" in2="effect1_backgroundBlur_118_2976" result="shape"/>
</filter>
<filter id="filter2_b_118_2976" x="471.333" y="155.333" width="221.333" height="221.333" filterUnits="userSpaceOnUse" color-interpolation-filters="sRGB">
<feFlood flood-opacity="0" result="BackgroundImageFix"/>
<feGaussianBlur in="BackgroundImageFix" stdDeviation="25.3333"/>
<feComposite in2="SourceAlpha" operator="in" result="effect1_backgroundBlur_118_2976"/>
<feBlend mode="normal" in="SourceGraphic" in2="effect1_backgroundBlur_118_2976" result="shape"/>
</filter>
<filter id="filter3_b_118_2976" x="218.667" y="56.7337" width="221.333" height="221.333" filterUnits="userSpaceOnUse" color-interpolation-filters="sRGB">
<feFlood flood-opacity="0" result="BackgroundImageFix"/>
<feGaussianBlur in="BackgroundImageFix" stdDeviation="25.3333"/>
<feComposite in2="SourceAlpha" operator="in" result="effect1_backgroundBlur_118_2976"/>
<feBlend mode="normal" in="SourceGraphic" in2="effect1_backgroundBlur_118_2976" result="shape"/>
</filter>
<filter id="filter4_b_118_2976" x="-34.6667" y="56.7337" width="221.333" height="221.333" filterUnits="userSpaceOnUse" color-interpolation-filters="sRGB">
<feFlood flood-opacity="0" result="BackgroundImageFix"/>
<feGaussianBlur in="BackgroundImageFix" stdDeviation="25.3333"/>
<feComposite in2="SourceAlpha" operator="in" result="effect1_backgroundBlur_118_2976"/>
<feBlend mode="normal" in="SourceGraphic" in2="effect1_backgroundBlur_118_2976" result="shape"/>
</filter>
</defs>
</svg>
