<svg width="259" height="194" viewBox="0 0 259 194" fill="none" xmlns="http://www.w3.org/2000/svg">
<path d="M56.2293 129.291H73.3734C77.6562 129.291 81.1134 126.478 81.1134 123.016C81.1134 119.799 78.14 117.167 74.3087 116.787C74.4104 116.366 74.4623 115.934 74.4635 115.5C74.4635 111.858 70.8192 108.911 66.3236 108.911C65.122 108.907 63.9301 109.125 62.8083 109.555C62.8083 109.484 62.8083 109.407 62.8083 109.336C62.8083 105.694 59.1641 102.746 54.6684 102.746C51.3338 102.746 48.47 104.368 47.2122 106.691C46.3229 106.548 45.4234 106.477 44.5226 106.479C37.3437 106.479 31.4742 110.983 31.0227 116.723C26.7915 116.768 23.373 119.554 23.373 122.997C23.373 126.44 26.8496 129.271 31.113 129.271" fill="white"/>
<path d="M73.3735 129.612H56.2294C56.1438 129.612 56.0618 129.578 56.0013 129.518C55.9409 129.458 55.9069 129.376 55.9069 129.291C55.9069 129.205 55.9409 129.123 56.0013 129.063C56.0618 129.003 56.1438 128.969 56.2294 128.969H73.3735C77.4692 128.969 80.8039 126.298 80.8039 123.017C80.8039 120.018 78.0046 117.476 74.2894 117.109C74.2429 117.106 74.1977 117.092 74.1574 117.069C74.1172 117.045 74.0829 117.013 74.0572 116.974C74.0316 116.937 74.0139 116.895 74.005 116.851C73.9962 116.806 73.9963 116.761 74.0056 116.717C74.1017 116.323 74.1515 115.919 74.1539 115.513C74.1539 112.058 70.6451 109.246 66.3365 109.246C65.1732 109.247 64.0203 109.465 62.9374 109.889C62.8877 109.909 62.8338 109.916 62.7808 109.909C62.7278 109.902 62.6774 109.882 62.6342 109.851C62.5911 109.819 62.5563 109.777 62.5327 109.729C62.5091 109.681 62.4975 109.627 62.4988 109.574V109.471C62.5018 109.437 62.5018 109.402 62.4988 109.368C62.4988 105.912 58.9964 103.1 54.6814 103.1C51.566 103.1 48.7538 104.58 47.509 106.878C47.4775 106.937 47.4283 106.985 47.3682 107.015C47.308 107.045 47.24 107.055 47.1736 107.045C46.3014 106.903 45.4192 106.832 44.5355 106.833C37.5824 106.833 31.7968 111.202 31.3582 116.781C31.3532 116.861 31.3178 116.937 31.259 116.992C31.2003 117.047 31.1227 117.077 31.0421 117.077C26.998 117.122 23.7085 119.793 23.7085 123.029C23.7085 126.266 27.0431 128.982 31.1453 128.982C31.2309 128.982 31.3129 129.016 31.3734 129.076C31.4338 129.136 31.4678 129.218 31.4678 129.303C31.4678 129.389 31.4338 129.471 31.3734 129.531C31.3129 129.591 31.2309 129.625 31.1453 129.625C26.6884 129.625 23.0635 126.665 23.0635 123.029C23.0635 119.516 26.482 116.594 30.7454 116.44C31.3904 110.649 37.3696 106.189 44.5355 106.189C45.3797 106.187 46.2229 106.249 47.0575 106.376C48.4636 103.988 51.4241 102.457 54.6814 102.457C59.2544 102.457 62.989 105.43 63.1438 109.123C64.1697 108.785 65.2432 108.614 66.3236 108.615C70.987 108.615 74.786 111.717 74.786 115.526C74.7845 115.861 74.7543 116.194 74.6957 116.524C78.5657 117.051 81.436 119.793 81.436 123.029C81.4489 126.652 77.824 129.612 73.3735 129.612Z" fill="#D1D3D4"/>
<path d="M127.876 167.707C164.905 167.707 194.924 137.759 194.924 100.816C194.924 63.8728 164.905 33.9244 127.876 33.9244C90.8464 33.9244 60.8281 63.8728 60.8281 100.816C60.8281 137.759 90.8464 167.707 127.876 167.707Z" fill="white"/>
<path d="M127.876 33.9373C141.145 33.9309 154.117 37.8505 165.152 45.2003C176.188 52.5501 184.791 62.9999 189.873 75.2281C194.955 87.4562 196.288 100.913 193.703 113.897C191.119 126.881 184.732 138.809 175.352 148.172C165.972 157.534 154.02 163.911 141.007 166.496C127.994 169.081 114.504 167.758 102.245 162.693C89.9862 157.629 79.5078 149.051 72.1356 138.045C64.7633 127.039 60.8283 114.099 60.8283 100.861C60.8283 83.1117 67.8956 66.0894 80.4756 53.5388C93.0555 40.9881 110.118 33.9373 127.908 33.9373M127.908 33.3517C114.528 33.3453 101.446 37.2983 90.3181 44.7104C79.1899 52.1226 70.5152 62.661 65.3912 74.9925C60.2672 87.3241 58.9242 100.895 61.5321 113.988C64.14 127.081 70.5815 139.109 80.042 148.549C89.5024 157.989 101.557 164.418 114.68 167.022C127.803 169.626 141.406 168.289 153.767 163.179C166.128 158.07 176.693 149.417 184.125 138.316C191.556 127.215 195.521 114.165 195.517 100.816C195.495 82.925 188.361 65.7731 175.681 53.1223C163.001 40.4715 145.809 33.3545 127.876 33.3324L127.908 33.3517Z" fill="#231F20"/>
<path d="M178.154 56.5561C177.662 56.7446 177.124 56.7783 176.612 56.6527L177.509 55.8161C176.296 54.4841 175.019 53.2035 173.703 51.9551C173.739 52.4487 173.896 52.9258 174.16 53.3445C174.424 53.7631 174.788 54.1103 175.219 54.3554C173.8 54.439 172.697 53.5961 171.459 53.2228C169.981 52.8619 168.484 52.5826 166.976 52.3863L169.201 53.9757C168.779 54.1358 168.349 54.2712 167.911 54.3811C167.498 53.4867 166.956 54.2138 166.473 54.1881C165.376 54.1237 164.176 55.4043 163.344 54.0787C162.953 54.1274 162.566 54.2114 162.19 54.3296C161.16 54.6539 160.177 55.1127 159.268 55.6939C158.262 56.5047 157.946 56.5948 157.165 55.4043L158.191 55.0504V54.6321L156.108 54.1881C156.025 54.679 155.995 55.1773 156.017 55.6746C156.106 55.99 156.248 56.2881 156.436 56.5561C155.823 56.6095 155.213 56.702 154.611 56.8328C154.037 57.0349 153.475 57.2691 152.928 57.5343L153.431 58.5703L150.651 58.1198L150.619 58.3901L151.689 59.0851C150.09 59.5613 149.109 58.7312 149.109 57.1031L147.748 56.376C148.235 56.333 148.725 56.3922 149.187 56.5497C150.69 56.8843 152.212 57.2576 153.702 56.5047C154.463 56.1186 154.424 55.5716 153.702 55.2177C152.81 54.7301 151.872 54.3313 150.902 54.0272C149.206 53.5446 147.471 53.21 145.742 52.811C145.826 52.6823 145.923 52.5214 146.026 52.367C145.229 52.1395 144.416 51.9675 143.595 51.8522C143.096 51.9213 142.613 52.0781 142.169 52.3155C142.311 52.0195 142.395 51.8264 142.595 51.4017C141.782 51.7814 141.131 52.3734 140.66 52.264C139.583 52.0195 138.725 52.856 137.648 52.6372C137.003 52.515 136.177 53.4545 135.713 53.7505C135.202 53.8119 134.698 53.924 134.21 54.0851C133.752 54.3748 133.32 54.7042 132.92 55.0697L134.623 54.6578C133.855 55.6102 133.029 56.7299 132.101 57.753C131.456 58.4609 130.772 59.3747 129.94 59.5999C128.804 59.9406 127.761 60.5348 126.889 61.3373C126.723 61.5177 126.596 61.7302 126.517 61.9616C126.437 62.1929 126.405 62.4383 126.425 62.6822C126.537 63.3938 126.734 64.0895 127.012 64.7543C127.165 65.1154 127.45 65.4048 127.81 65.5637C128.169 65.7227 128.575 65.7393 128.947 65.6101C129.592 65.282 130.456 64.4776 130.882 64.6642C131.481 64.9409 131.772 65.9062 132.172 66.5947C132.255 66.7363 132.326 66.8843 132.397 67.0258C132.778 67.8173 132.733 69.677 134.216 67.7594C135.416 68.0168 135.422 67.0387 135.506 66.3695C135.509 66.0424 135.595 65.7214 135.757 65.4366C135.918 65.1518 136.149 64.9126 136.429 64.7414C136.601 64.6817 136.753 64.5724 136.864 64.4271C136.974 64.2819 137.04 64.1073 137.051 63.9251C137.063 63.743 137.021 63.5615 136.929 63.4033C136.838 63.2452 136.702 63.1174 136.538 63.0362C135.616 62.3927 135.513 61.7492 136.306 60.9191C136.732 60.4686 137.37 60.2241 137.835 59.7994C138.299 59.3747 138.551 58.8084 139.015 58.4416C139.543 57.9861 140.157 57.6405 140.821 57.4249C141.202 57.3219 141.705 57.6758 142.259 57.856C141.163 58.7183 140.324 59.3554 139.531 60.0053C139.08 60.3656 138.544 62.5793 138.957 62.8045C139.716 63.2614 140.57 63.5387 141.453 63.6153C142.227 63.6603 143.02 63.2292 143.814 63.1198C144.209 63.1334 144.599 63.2116 144.968 63.3515V63.8405C144.272 63.9049 143.582 63.9628 142.891 64.0336C142.344 64.0618 141.799 64.1263 141.26 64.2266C140.518 64.3875 140.421 64.8701 140.937 65.3527C141.582 65.9962 141.402 66.4145 140.847 66.9036C139.447 65.7646 139.138 65.8804 138.809 67.6436C138.77 68.0524 138.77 68.4639 138.809 68.8727C138.241 69.1172 137.519 69.6835 137.19 69.5162C135.726 68.8148 134.752 70.1146 133.455 70.2111C133.062 69.1944 132.326 69.8186 131.656 69.8315C131.204 69.776 130.783 69.5749 130.456 69.2588C130.275 69.1043 130.153 68.5509 130.269 68.4287C130.55 68.1352 130.736 67.7639 130.803 67.3633C130.87 66.9627 130.814 66.5513 130.643 66.1829C128.876 67.1481 128.889 67.1481 129.301 68.9499C129.367 69.3193 129.39 69.6949 129.372 70.0696L126.754 71.112C125.915 71.9422 125.315 72.5406 124.709 73.1262C124.496 73.3385 124.174 73.4737 124.064 73.7182C123.964 73.9598 123.816 74.1786 123.629 74.3614C123.441 74.5442 123.219 74.6871 122.975 74.7816C122.73 74.8761 122.47 74.9201 122.208 74.9109C121.946 74.9018 121.689 74.8397 121.452 74.7285C121.497 75.0889 121.542 75.4363 121.587 75.8224L119.265 75.7195C119.932 76.5634 120.659 77.359 121.439 78.1004C122.368 79.1622 121.606 80.2947 121.439 81.3758C119.504 81.5303 117.53 80.6294 115.634 81.7683C116.704 83.9434 114.911 86.202 116.201 88.332L117.491 88.1776C117.814 88.6023 118.098 88.9755 118.252 89.1879C120.187 88.731 122.122 88.4543 122.684 86.7683C122.684 86.1248 122.535 85.6358 122.684 85.3912C123.135 84.7477 123.741 84.2651 124.245 83.686C124.586 83.2934 125.148 82.843 125.128 82.444C125.064 81.1892 125.818 81.26 126.508 81.5367C126.802 81.6952 127.14 81.7497 127.468 81.6912C127.796 81.6328 128.095 81.4648 128.314 81.2149C128.751 80.8688 129.212 80.5548 129.695 80.2754C130.024 80.6937 130.34 81.1442 130.714 81.5624C131.282 82.3244 131.931 83.0234 132.649 83.6474C133.939 84.5676 135.422 85.2432 134.881 87.296L135.784 86.0605L135.364 84.5933L136.816 85.2368C136.77 84.9987 136.816 84.8314 136.725 84.7928C135.867 84.2265 135.351 83.2098 134.236 82.9653C133.903 82.8194 133.623 82.5744 133.436 82.2638C133.107 81.8327 132.894 81.3115 132.552 80.8932C131.694 79.8572 131.849 79.3038 133.023 78.9627C133.125 79.2272 133.259 79.4779 133.423 79.7092C133.552 79.8507 133.952 79.8379 133.984 79.9601C134.294 81.1248 135.274 81.4723 136.19 82.0129C136.745 82.3539 137.48 83.0103 137.48 83.5251C137.48 85.8803 139.17 87.3217 139.995 89.1879C140.36 88.6598 140.679 88.1023 140.95 87.5212C141.043 87.148 141.002 86.754 140.834 86.408C140.553 85.8785 140.237 85.3689 139.886 84.8829C140.421 84.915 140.911 85.0888 141.098 84.9279C142.014 84.1042 141.988 84.0785 142.782 84.5354C142.717 85.3977 142.659 86.1248 142.614 86.7683C142.969 87.296 143.259 88.1004 143.749 88.3384C144.394 88.628 144.917 89.7348 146.013 88.7696C146.355 88.4672 147.51 89.0785 148.29 89.2651C148.331 89.2657 148.371 89.2546 148.406 89.2329L150.393 88.3256C149.98 90.1402 149.658 91.5817 149.329 93.0231C149.116 93.9497 148.761 94.6447 147.594 94.6769C147.142 94.6769 146.703 95.1724 146.478 95.3204L148.297 97.2509L147.394 97.9201C147.432 98.0424 147.471 98.1582 147.516 98.274L149.264 97.7464C149.503 98.1711 149.838 98.6987 150.115 99.2586C150.586 100.205 151.031 101.189 151.457 102.135C151.799 102.914 152.102 103.705 152.418 104.503C152.637 105.082 152.728 105.713 152.999 106.26C153.345 106.883 153.733 107.483 154.16 108.055C155.359 109.793 155.327 111.845 155.675 113.802C155.798 114.49 156.095 114.748 156.733 114.445C157.884 113.914 159.003 113.319 160.087 112.663C161.229 111.916 162.19 110.899 163.364 110.211C164.453 109.663 165.412 108.888 166.176 107.939C166.376 107.656 166.531 107.341 166.718 107.045C166.876 106.726 167.066 106.424 167.285 106.144C168.633 104.664 168.356 103.358 166.557 102.476C166.193 102.251 165.921 101.904 165.789 101.498C165.677 100.978 165.619 100.447 165.615 99.915C165.106 100.453 164.65 101.039 164.254 101.665C163.738 102.688 162.912 102.064 162.229 102.199C162.158 101.775 162.093 101.344 162.009 100.912C161.958 100.636 161.893 100.359 161.751 99.7477L161.28 100.861L159.216 96.4594C160.319 95.2303 160.552 95.256 161.326 96.749C161.436 96.9572 161.533 97.1721 161.616 97.3925C161.757 97.8073 161.986 98.1867 162.288 98.5048C162.59 98.8229 162.957 99.0721 163.365 99.2353C163.772 99.3985 164.21 99.4719 164.649 99.4503C165.087 99.4288 165.516 99.3129 165.905 99.1106C166.479 100.533 166.595 100.713 168.227 100.816C169.859 100.919 171.568 100.816 173.058 100.816L175.793 103.918L175.013 104.239L176.812 105.797L177.741 104.67C178.16 106.929 178.515 109.548 179.166 112.103C179.732 114.692 180.555 117.219 181.624 119.645C183.182 117.827 183.965 115.473 183.804 113.087C183.71 112.499 183.786 111.896 184.023 111.35C184.604 110.494 185.552 109.889 186.106 109.027C186.964 107.688 188.687 107.006 188.983 105.256C189.022 105.031 189.506 104.812 189.822 104.735C190.692 104.51 191.589 104.355 192.505 104.168C192.616 104.842 192.834 105.494 193.15 106.099C193.691 106.812 194.144 107.587 194.498 108.409C195.561 99.1063 194.656 89.6844 191.84 80.7526C189.025 71.8207 184.362 63.5776 178.154 56.5561Z" fill="#2375EF"/>
<path d="M85.2223 152.424C85.4266 152.001 85.5574 151.546 85.6094 151.079C85.6932 149.947 86.0673 149.188 87.009 148.756C88.112 148.255 89.2858 147.92 90.421 147.469C90.686 147.399 90.9226 147.248 91.0983 147.038C91.6806 146.116 92.1423 145.124 92.4722 144.085C92.731 142.638 92.899 141.176 92.9753 139.709C92.9716 139.547 93.0047 139.386 93.072 139.239C93.6525 138.486 94.3233 137.791 94.8393 136.993C95.3553 136.195 96.2196 135.153 96.2712 134.194C96.3052 133.914 96.2812 133.631 96.2009 133.361C96.1206 133.091 95.9855 132.84 95.8042 132.624C95.6228 132.408 95.3989 132.231 95.1464 132.105C94.8939 131.979 94.6182 131.906 94.3362 131.89C94.1409 131.834 93.9733 131.708 93.8653 131.536C92.5753 129.773 90.6403 130.166 88.8279 130.134C88.9891 129.374 88.6021 129.13 87.8088 128.95C85.9641 128.525 84.487 127.663 83.9388 125.584C83.3776 123.39 82.2941 122.778 79.9979 122.65C79.3091 122.509 78.6663 122.199 78.1273 121.749C77.6882 121.391 77.2862 120.99 76.9276 120.552C76.7525 120.318 76.5537 120.102 76.3343 119.908C75.6893 119.471 75.2442 118.531 74.3993 118.712C73.5543 118.892 72.6062 119.13 71.7096 118.712C70.8131 118.293 70.0907 117.952 69.1296 117.495L68.233 119.941C67.588 118.982 68.2331 118.042 68.3879 117.045C66.6012 118.145 64.5179 118.769 64.1244 121.202L64.0083 121.131C67.9206 133.378 75.2855 144.242 85.2223 152.424Z" fill="#2375EF"/>
<path d="M71.7676 79.0528C74.0187 79.5676 75.6957 78.4093 77.4952 77.5663C77.6632 77.4851 77.8094 77.3651 77.9215 77.2163C78.0337 77.0674 78.1087 76.894 78.1402 76.7105C78.1125 76.4932 78.041 76.2838 77.9302 76.0947C77.8194 75.9056 77.6714 75.7408 77.4952 75.6101C76.9906 75.4041 76.458 75.274 75.915 75.224C76.1859 75.0503 76.4955 74.8443 76.618 74.7736C75.7078 74.3221 74.8437 73.7833 74.038 73.1648C73.6446 72.8109 73.7736 71.9486 73.4704 71.4274C72.9164 70.5384 72.3157 69.6792 71.6709 68.8534C71.0646 69.6964 70.9033 71.2215 69.4327 70.8547C68.9786 70.7618 68.5798 70.4935 68.3234 70.1082C64.1863 78.0865 61.7134 86.8187 61.0542 95.7773C61.2852 95.5299 61.5476 95.3136 61.8346 95.1338C63.6664 94.0849 63.7696 93.7567 63.3052 91.646C63.2358 90.9592 63.2358 90.2672 63.3052 89.5804C63.4987 90.2947 63.6342 90.8159 63.7696 91.3436C64.2082 90.5778 64.8339 89.9472 64.8919 89.2715C65.0016 88.0682 65.6014 87.7979 66.6205 87.7786C67.024 87.7337 67.4217 87.6474 67.8073 87.5212L67.4655 87.3668C67.53 86.7683 67.3752 85.8546 67.6977 85.6422C68.9772 84.8768 70.3019 84.1891 71.6644 83.583L70.8001 85.4427L71.1033 85.5135L75.3087 83.2742C75.2442 83.1648 75.1861 83.0554 75.1216 82.9524L74.5992 83.2484L74.8894 82.2639C74.7972 82.2663 74.7072 82.2924 74.6281 82.3398C74.549 82.3871 74.4835 82.4541 74.4379 82.5341C73.6768 83.6602 73.2705 83.7503 72.1353 82.9395C71.2903 82.3346 70.9807 81.6525 71.8837 80.7838C71.9676 80.7066 71.7483 80.0953 71.6387 80.0824C71.1651 80.0318 70.6862 80.0689 70.2261 80.1918C69.6124 80.4035 69.0115 80.6506 68.4265 80.9318C69.3489 80.0309 70.3228 78.7246 71.7676 79.0528Z" fill="#2375EF"/>
<path d="M129.746 124.529C130.063 125.049 130.175 125.668 130.062 126.266C129.54 128.042 129.527 129.529 130.978 131.015C131.59 131.667 132.06 132.44 132.356 133.283C132.653 134.126 132.77 135.021 132.7 135.912C132.684 136.156 132.745 136.399 132.875 136.607C133.468 137.399 133.107 137.971 132.713 138.776C131.849 140.552 131.017 142.373 132.242 144.458C132.965 145.687 133.758 146.91 133.816 148.538C133.779 150.092 134.33 151.603 135.358 152.772C136.003 153.467 136.648 154.599 136.557 155.462C136.483 155.901 136.554 156.354 136.76 156.749C136.966 157.145 137.296 157.464 137.699 157.656C138.068 157.492 138.453 157.364 138.847 157.276C139.953 157.246 141.055 157.13 142.143 156.929C144.872 156.144 146.213 153.808 147.6 151.607C147.858 151.202 147.69 150.532 147.735 149.754C147.897 149.664 148.271 149.432 148.664 149.245C148.903 149.169 149.123 149.043 149.311 148.877C149.498 148.711 149.648 148.507 149.752 148.279C149.856 148.051 149.911 147.804 149.914 147.554C149.916 147.304 149.866 147.056 149.767 146.826C149.645 146.401 149.438 145.996 149.335 145.539C149.277 145.301 149.245 144.895 149.374 144.799C150.283 143.969 151.309 143.229 152.173 142.386C152.753 141.832 153.521 141.221 153.669 140.526C153.811 139.453 153.756 138.363 153.508 137.309C153.392 136.594 152.915 135.938 152.786 135.217C152.657 134.497 153.166 133.525 152.328 132.83C152.225 132.746 152.276 132.315 152.399 132.148C153.76 130.275 154.856 128.062 156.598 126.652C158.907 124.786 160.061 122.334 161.332 119.876C161.592 119.134 161.747 118.358 161.79 117.573C160.029 118.017 158.468 118.448 156.888 118.795C156.719 118.801 156.551 118.766 156.398 118.693C156.245 118.62 156.112 118.512 156.011 118.377C155.746 117.933 155.785 117.283 155.469 116.903C154.895 116.202 154.127 115.655 153.489 114.973C153.12 114.631 152.83 114.214 152.637 113.75C152.115 112.154 150.922 110.887 150.735 109.078C150.618 107.965 149.593 106.968 149.083 105.861C148.438 104.494 147.871 103.091 147.387 101.659C147.032 100.61 146.439 100.7 145.6 100.925C144.978 101.136 144.312 101.184 143.665 101.067C142.413 100.705 141.182 100.275 139.976 99.7799C138.892 99.368 138.041 99.8378 137.925 100.932C137.854 101.723 137.512 102.154 136.751 101.575C135.99 100.996 134.5 101.318 134.229 99.9021C134.229 99.8506 133.939 99.9021 133.81 99.8313C132.662 99.3358 131.101 99.9665 130.456 98.7503C130.772 97.8301 131.03 97.0579 131.314 96.2149C130.789 96.0988 130.257 96.0256 129.72 95.9961C128.327 96.0476 126.934 96.0926 125.56 96.2792C124.573 96.4091 123.606 96.6643 122.684 97.0386C121.219 97.637 119.807 98.1711 118.491 97.1158C117.846 97.8236 117.33 98.6473 116.601 99.0463C116.185 99.2525 115.836 99.5713 115.593 99.9661C115.35 100.361 115.223 100.816 115.227 101.279C115.227 102.753 114.453 103.268 113.292 103.628C112.995 103.713 112.734 103.894 112.551 104.143C111.86 105.262 111.17 106.389 110.577 107.566C110.164 108.39 109.403 109.091 110.164 110.301C110.609 110.996 110.532 112.232 110.248 113.113C109.888 114.358 109.798 115.666 109.983 116.948C110.067 117.24 110.23 117.503 110.454 117.708C110.628 117.914 110.899 118.049 111.048 118.261C111.683 119.319 112.385 120.336 113.15 121.305C114.033 122.138 114.964 122.92 115.937 123.647C116.192 123.866 116.506 124.008 116.84 124.055C117.174 124.101 117.514 124.052 117.82 123.911C118.822 123.721 119.839 123.622 120.858 123.615C121.252 123.6 121.644 123.541 122.026 123.441C122.8 123.12 123.59 122.839 124.393 122.598C125.199 122.425 126.328 121.916 126.683 123.126C127.024 124.22 127.644 124.181 128.521 124.098C128.744 124.076 128.97 124.104 129.181 124.178C129.393 124.253 129.586 124.372 129.746 124.529Z" fill="#2375EF"/>
<path d="M79.0237 55.0182C79.25 54.9404 79.4664 54.8367 79.6687 54.7093L81.6037 56.0799L79.0882 55.7196L79.0302 56.0928L81.436 56.9937V58.1777L78.6045 59.6771L79.9267 60.7195C79.8605 61.0682 79.8605 61.4262 79.9267 61.7749C80.8362 63.641 81.765 65.5007 82.7518 67.3218C83.0309 67.788 83.4265 68.1738 83.8999 68.4415C84.582 68.795 85.2841 69.1087 86.0026 69.381C86.5444 69.6191 87.0475 69.8894 87.2088 68.9499C87.37 68.0104 87.6087 67.1803 87.8215 66.2987C87.8602 66.1378 87.9183 65.9126 88.0408 65.8546C89.0341 65.3398 89.2147 64.5033 89.2083 63.4737C89.2083 63.1391 89.7888 62.4892 90.0532 62.5149C91.9882 62.6951 93.2331 61.7041 94.2844 60.2498C94.5747 59.8444 95.0649 59.3489 95.4906 59.3167C98.0706 59.1623 100.206 58.0297 102.482 56.7427L99.4186 56.421L100.244 55.43L102.676 56.4467C102.856 55.1597 102.405 54.5935 101.47 54.2267C100.425 53.8213 100.322 53.2614 100.863 52.5343H103.669L102.889 51.569L104.688 51.3116L103.895 50.4879C105.295 49.5356 103.456 49.0594 103.566 48.3387L105.314 48.2293C104.991 47.7466 104.817 47.1675 104.456 47.0066C103.886 46.8726 103.298 46.8292 102.715 46.8779C104.334 44.4648 107.081 43.6604 109.603 42.4893C108.927 42.1254 108.179 41.9118 107.412 41.8629C106.645 41.814 105.877 41.9311 105.159 42.2061C103.857 42.5626 102.532 42.8271 101.192 42.9976L101.837 42.0131C101.321 42.071 100.805 42.1354 100.283 42.1804C99.9991 42.1804 99.7089 42.1804 99.4186 42.1804L99.3799 41.6849L102.534 41.1572C101.463 40.8677 100.438 40.4623 99.4057 40.2563C91.7415 43.854 84.8265 48.8622 79.0237 55.0182Z" fill="#2375EF"/>
<path d="M70.4841 66.2086C70.3551 66.421 70.2325 66.6398 70.1035 66.8521C70.3615 66.9358 70.6195 67.0259 70.8775 67.1288L70.4841 66.2086Z" fill="#2375EF"/>
<path d="M74.1476 60.8676H74.1089C73.909 61.1314 73.7155 61.3952 73.522 61.6655C73.7348 61.3888 73.9412 61.125 74.1476 60.8676Z" fill="#2375EF"/>
<path d="M71.6578 65.8483C71.7503 65.3902 71.7237 64.9161 71.5804 64.4712C71.303 64.9023 71.0321 65.327 70.7612 65.7582L71.6578 65.8483Z" fill="#2375EF"/>
<path d="M156.005 146.021C155.579 146.935 155.701 148.692 156.437 149.316C156.603 149.466 156.803 149.572 157.02 149.625C157.237 149.678 157.464 149.677 157.681 149.622C157.897 149.566 158.096 149.458 158.261 149.307C158.425 149.156 158.55 148.967 158.623 148.756C159.32 146.453 159.913 144.13 160.558 141.813C160.61 141.639 160.558 141.414 160.681 141.279C160.962 140.855 161.079 140.344 161.01 139.841C160.941 139.338 160.691 138.877 160.307 138.544C158.959 139.548 158.817 141.762 156.392 141.652C156.392 142.437 156.443 143.164 156.392 143.885C156.383 144.614 156.252 145.336 156.005 146.021Z" fill="#2375EF"/>
<path d="M123.638 72.2832C123.748 71.9872 124.032 71.5625 123.929 71.4338C123.749 71.2714 123.524 71.1681 123.284 71.1378C122.342 69.8508 121.529 68.7247 120.658 67.5278C121.368 66.2408 121.336 65.8032 120.387 65.1919C119.801 64.8058 118.452 65.3399 117.866 66.1957C117.588 66.5883 117.995 67.3347 119.039 68.3257L118.891 69.0786C119.097 69.0786 119.246 69.0786 119.33 69.1365C119.704 69.4197 120.258 69.6642 120.368 70.0374C120.478 70.4106 120.136 70.8675 119.517 70.6101C119.372 70.7228 119.265 70.8781 119.214 71.0541C119.168 71.4982 119.214 71.9422 119.214 72.4956L120.22 72.798L118.44 74.1558L123.245 73.39C123.451 72.798 123.529 72.5471 123.638 72.2832Z" fill="#2375EF"/>
<path d="M164.628 48.1585C163.723 49.1341 162.754 50.0478 161.726 50.8934C163.016 52.1354 164.641 52.3027 166.64 52.2254C166.092 51.8393 165.634 51.6656 165.428 51.331C165.221 50.9964 165.054 50.3464 165.228 50.1212C166.124 49.0546 167.239 48.1922 168.498 47.5923C168.072 47.2705 167.647 46.9488 167.208 46.6399C166.207 46.8559 165.302 47.3885 164.628 48.1585Z" fill="#2375EF"/>
<path d="M104.062 65.8612C104.535 65.9771 105.028 65.9771 105.501 65.8612C106.249 65.6691 106.954 65.3372 107.578 64.8831C108.042 64.497 109.106 64.1817 108.597 63.3065C108.1 62.6702 107.516 62.1069 106.862 61.6334L106.765 62.0324L103.095 62.8947L102.205 61.7042L102.34 62.1032L100.741 63.0234L100.908 63.2293H102.631L101.07 64.0465L102.798 64.542L101.928 65.1855C102.65 65.4687 103.347 65.7068 104.062 65.8612Z" fill="#2375EF"/>
<path d="M135.513 45.6617C136.3 45.0182 136.945 44.4777 137.641 44.0015C137.769 43.9381 137.909 43.9051 138.051 43.9051C138.193 43.9051 138.333 43.9381 138.461 44.0015C138.661 44.1367 138.706 44.5035 138.848 44.8381H141.195C141.195 44.6901 141.195 44.5421 141.241 44.4005L134.649 41.775C134.926 42.4185 135.029 42.618 135.049 42.6695L131.127 42.3284L131.037 42.7338C131.531 43.2083 132.105 43.5918 132.733 43.8664C133.307 44.0144 134.023 43.7184 134.668 43.6154L134.707 43.9179L133.217 44.452L133.268 44.6579L134.442 44.7673L133.649 45.1727L135.513 45.6617Z" fill="#2375EF"/>
<path d="M118.078 70.0825C118.639 69.7479 118.723 69.2653 118.169 68.995C117.614 68.7247 116.975 68.2292 116.337 68.995C115.989 69.3875 115.576 69.7157 115.098 70.1597V72.0902L114.711 72.2768C114.924 72.4506 115.182 72.798 115.356 72.7594C116.234 72.5506 117.084 72.2418 117.891 71.8392C118.091 71.7234 117.943 70.9834 117.969 70.5522C117.956 70.3399 117.988 70.1404 118.078 70.0825Z" fill="#2375EF"/>
<path d="M61.7377 108.268C61.5729 108.189 61.3999 108.128 61.2217 108.087L61.3184 108.93C61.8032 109.095 62.2753 109.295 62.731 109.529C63.2083 109.767 63.505 110.365 64.021 110.938L66.2333 110.687C64.6015 109.812 63.1954 108.995 61.7377 108.268Z" fill="#2375EF"/>
<path d="M70.4643 112.328C70.5611 111.247 68.6261 110.565 66.8717 111.041L67.8004 112.103L65.9751 111.942C67.4134 112.939 68.9679 112.206 70.4643 112.328Z" fill="#2375EF"/>
<path d="M143.169 41.8523H136.977C137.785 42.2735 138.656 42.5604 139.557 42.7017C140.761 42.7229 141.966 42.667 143.163 42.5344C143.169 42.3027 143.169 42.0775 143.169 41.8523Z" fill="#2375EF"/>
<path d="M184.398 122.637C184.746 122.502 185.217 121.839 185.126 121.594C184.784 120.827 184.372 120.092 183.894 119.4L183.533 119.567C183.533 120.307 183.533 121.047 183.533 121.781C183.533 122.515 183.727 122.901 184.398 122.637Z" fill="#2375EF"/>
<path d="M129.927 83.879L129.127 84.2072V86.2728C130.501 86.2021 129.876 85.0952 130.153 84.5032C130.217 84.3681 130.018 84.13 129.927 83.879Z" fill="#2375EF"/>
<path d="M134.378 87.2445H132.191L132.126 87.5019L134.126 88.7117C134.216 88.1647 134.307 87.6756 134.378 87.2445Z" fill="#2375EF"/>
<path d="M126.586 111.993L124.303 107.392C121.878 102.502 119.485 97.5985 117.021 92.7272C116.075 90.9854 115.572 89.0388 115.557 87.058C115.597 84.39 116.607 81.8273 118.398 79.8458C120.189 77.8643 122.64 76.5988 125.296 76.2843C127.952 75.9698 130.632 76.6277 132.839 78.1358C135.045 79.6438 136.628 81.8995 137.293 84.484C137.967 87.0455 137.671 89.765 136.461 92.1223C134.427 96.2149 132.393 100.305 130.359 104.394C129.164 106.792 127.973 109.192 126.786 111.595L126.586 111.993ZM126.586 92.6886C127.679 92.6924 128.748 92.3726 129.659 91.7696C130.569 91.1667 131.28 90.3078 131.701 89.3016C132.122 88.2954 132.234 87.1873 132.023 86.1175C131.812 85.0477 131.288 84.0644 130.516 83.2921C129.745 82.5198 128.761 81.9933 127.69 81.7792C126.618 81.5651 125.507 81.673 124.497 82.0894C123.487 82.5057 122.624 83.2117 122.016 84.118C121.409 85.0242 121.084 86.09 121.084 87.1802C121.079 88.6401 121.654 90.0426 122.682 91.0809C123.711 92.1193 125.11 92.7088 126.573 92.7208L126.586 92.6886Z" fill="#231F20"/>
<path d="M188.028 90.5971C187.338 89.1943 186.668 87.8558 186.003 86.5109C183.855 82.1737 181.727 77.8301 179.553 73.5123C178.719 71.9648 178.276 70.2373 178.263 68.4801C178.299 66.1126 179.196 63.8388 180.787 62.0816C182.378 60.3244 184.554 59.2034 186.911 58.9273C189.268 58.6511 191.646 59.2385 193.601 60.5803C195.557 61.922 196.957 63.9267 197.542 66.2215C198.144 68.4911 197.882 70.9026 196.807 72.991C195.001 76.6204 193.197 80.2475 191.395 83.8726L188.222 90.2561C188.157 90.3526 188.106 90.4491 188.028 90.5971ZM188.028 73.5058C188.997 73.5084 189.945 73.2241 190.752 72.689C191.559 72.1539 192.188 71.3919 192.561 70.4997C192.933 69.6075 193.032 68.625 192.844 67.6768C192.657 66.7285 192.192 65.857 191.508 65.1727C190.823 64.4883 189.951 64.0219 189.001 63.8324C188.051 63.6429 187.066 63.7388 186.171 64.1081C185.276 64.4774 184.51 65.1034 183.972 65.9069C183.433 66.7104 183.146 67.6552 183.146 68.6217C183.149 69.9138 183.664 71.1522 184.579 72.067C185.493 72.9819 186.733 73.4991 188.028 73.5058Z" fill="#231F20"/>
<path d="M90.7044 52.8947C90.1239 51.7235 89.5627 50.5974 89.008 49.4713C87.202 45.8355 85.4219 42.1933 83.5901 38.5704C82.8883 37.2749 82.5141 35.8281 82.5 34.3555C82.5342 32.3728 83.2881 30.4697 84.6219 28.9994C85.9557 27.5291 87.7788 26.5914 89.7529 26.3604C91.7271 26.1293 93.7182 26.6206 95.3569 27.7429C96.9955 28.8653 98.1705 30.5426 98.6637 32.4637C99.1593 34.37 98.9295 36.392 98.0187 38.1393L93.5037 47.2576L90.8527 52.5987L90.7044 52.8947ZM90.7044 38.5704C91.5178 38.573 92.3137 38.3346 92.9912 37.8854C93.6687 37.4363 94.1973 36.7966 94.5101 36.0475C94.8229 35.2983 94.9057 34.4734 94.7481 33.6772C94.5905 32.8811 94.1996 32.1495 93.6248 31.5752C93.0501 31.0009 92.3174 30.6097 91.5197 30.4512C90.7219 30.2928 89.8949 30.3741 89.1435 30.6849C88.3921 30.9958 87.7501 31.5222 87.2989 32.1974C86.8476 32.8726 86.6074 33.6663 86.6086 34.4778C86.6137 35.5595 87.0458 36.5956 87.8112 37.3616C88.5766 38.1277 89.6138 38.562 90.698 38.5704H90.7044Z" fill="#231F20"/>
<path d="M82.4939 130.352C81.907 129.181 81.3523 128.055 80.7911 126.929C78.9916 123.293 77.2114 119.651 75.3796 116.035C74.6754 114.738 74.3011 113.288 74.2896 111.813C74.3237 109.83 75.0776 107.927 76.4114 106.457C77.7452 104.987 79.5683 104.049 81.5425 103.818C83.5166 103.587 85.5077 104.078 87.1464 105.201C88.7851 106.323 89.96 108 90.4533 109.921C90.9421 111.828 90.7126 113.848 89.8083 115.597L85.2933 124.722C84.4074 126.502 83.5216 128.285 82.6358 130.069C82.5971 130.153 82.552 130.236 82.4939 130.352ZM82.4939 116.028C83.3076 116.032 84.1042 115.795 84.7825 115.346C85.4609 114.898 85.9905 114.259 86.3042 113.51C86.618 112.761 86.7017 111.935 86.5449 111.139C86.388 110.342 85.9976 109.61 85.4231 109.035C84.8486 108.46 84.116 108.068 83.318 107.909C82.5201 107.75 81.6928 107.831 80.941 108.142C80.1892 108.453 79.5469 108.979 79.0953 109.654C78.6438 110.33 78.4034 111.124 78.4046 111.935C78.4063 113.016 78.8355 114.052 79.5989 114.818C80.3623 115.585 81.3981 116.02 82.481 116.028H82.4939Z" fill="#231F20"/>
<path d="M134.339 107.508H134.274C134.233 107.5 134.193 107.483 134.158 107.46C134.123 107.436 134.093 107.406 134.07 107.37C134.046 107.335 134.03 107.296 134.022 107.254C134.014 107.213 134.014 107.17 134.023 107.129C134.061 106.948 138.035 88.7697 158.107 79.8959C164.738 76.9679 170.568 76.5561 175.432 78.6732C182.236 81.6333 184.72 88.6345 184.745 88.7053C184.772 88.7864 184.767 88.8748 184.729 88.9517C184.692 89.0287 184.626 89.088 184.545 89.1172C184.464 89.1441 184.376 89.1383 184.299 89.101C184.221 89.0638 184.162 88.998 184.133 88.9177C184.133 88.8469 181.714 82.1031 175.167 79.2652C170.472 77.2318 164.847 77.6436 158.397 80.4943C138.634 89.2266 134.719 107.084 134.681 107.264C134.664 107.339 134.619 107.406 134.556 107.451C134.493 107.496 134.416 107.516 134.339 107.508Z" fill="#231F20"/>
<path d="M85.9705 129.735C85.9194 129.734 85.869 129.723 85.8222 129.702C85.7843 129.683 85.7507 129.656 85.7233 129.623C85.696 129.59 85.6754 129.553 85.6628 129.512C85.6502 129.471 85.6458 129.428 85.6499 129.386C85.654 129.344 85.6666 129.302 85.6867 129.265C99.3801 102.933 122.452 111.607 122.652 111.697C122.694 111.71 122.733 111.732 122.767 111.761C122.801 111.789 122.828 111.825 122.848 111.864C122.867 111.904 122.878 111.948 122.88 111.992C122.882 112.036 122.875 112.08 122.859 112.121C122.843 112.163 122.818 112.2 122.787 112.232C122.756 112.263 122.718 112.288 122.677 112.304C122.636 112.321 122.592 112.328 122.547 112.327C122.503 112.325 122.46 112.315 122.419 112.296C122.194 112.206 99.6768 103.757 86.2543 129.561C86.2274 129.613 86.1867 129.657 86.1367 129.687C86.0866 129.718 86.0292 129.734 85.9705 129.735Z" fill="#231F20"/>
<path d="M121.381 75.0503C121.315 75.0503 121.25 75.0299 121.196 74.9919C121.142 74.9539 121.1 74.9002 121.078 74.838C121.007 74.6449 113.66 55.5331 95.4326 53.2165C95.3471 53.2062 95.2691 53.1625 95.2159 53.0949C95.1627 53.0274 95.1385 52.9415 95.1488 52.8561C95.1591 52.7708 95.2029 52.693 95.2706 52.6399C95.3384 52.5868 95.4245 52.5627 95.51 52.573C114.131 54.9475 121.613 74.4133 121.684 74.6063C121.7 74.646 121.707 74.6884 121.706 74.731C121.705 74.7736 121.696 74.8156 121.678 74.8545C121.661 74.8934 121.636 74.9285 121.605 74.9577C121.574 74.9869 121.537 75.0096 121.497 75.0246C121.46 75.0394 121.421 75.0481 121.381 75.0503Z" fill="#231F20"/>
<path d="M218.073 42.3028C218.14 42.0158 218.175 41.7223 218.176 41.4276C218.176 38.9308 215.673 36.9231 212.59 36.9231C211.768 36.9208 210.952 37.0714 210.184 37.3671C210.184 37.3157 210.184 37.2642 210.184 37.2127C210.184 34.7224 207.682 32.7082 204.599 32.7082C203.582 32.667 202.573 32.8961 201.674 33.3722C200.775 33.8482 200.019 34.554 199.484 35.4173C198.874 35.3186 198.257 35.2691 197.639 35.2693C192.718 35.2243 188.674 38.3517 188.383 42.3028C185.481 42.3028 183.14 44.2332 183.14 46.6077C183.14 48.9823 185.52 50.9127 188.461 50.9127H203.734" fill="white"/>
<path d="M203.734 51.2023H188.461C185.345 51.2023 182.817 49.1238 182.817 46.5756C182.817 44.1367 185.158 42.1161 188.093 41.9617C188.583 37.9913 192.711 34.9218 197.645 34.9218C198.206 34.9218 198.767 34.9605 199.322 35.0377C199.905 34.1831 200.695 33.4896 201.619 33.0215C202.542 32.5534 203.57 32.3261 204.605 32.3607C207.74 32.3607 210.313 34.3749 210.5 36.9038C211.177 36.6922 211.881 36.5858 212.59 36.5885C215.847 36.5885 218.498 38.7571 218.498 41.4276C218.498 41.7485 218.459 42.0683 218.382 42.38C218.362 42.4626 218.31 42.534 218.238 42.5786C218.165 42.6232 218.078 42.6374 217.995 42.6181C217.953 42.6083 217.914 42.5903 217.879 42.5652C217.845 42.54 217.816 42.5083 217.793 42.4717C217.771 42.4352 217.756 42.3946 217.75 42.3523C217.744 42.3101 217.746 42.267 217.757 42.2255C217.82 41.9643 217.853 41.6965 217.853 41.4276C217.853 39.111 215.493 37.232 212.59 37.232C211.807 37.229 211.03 37.3731 210.3 37.6567C210.244 37.6733 210.184 37.6751 210.127 37.662C210.07 37.6488 210.017 37.6212 209.974 37.5818C209.93 37.5423 209.898 37.4924 209.879 37.4367C209.861 37.3811 209.857 37.3217 209.868 37.2642C209.868 34.8897 207.507 33.0042 204.605 33.0042C203.643 32.9684 202.69 33.1879 201.841 33.6401C200.992 34.0923 200.279 34.7611 199.774 35.5782C199.743 35.6377 199.694 35.6855 199.633 35.7145C199.573 35.7436 199.504 35.7522 199.439 35.7391C198.846 35.6435 198.246 35.5962 197.645 35.5975C192.93 35.5975 189.002 38.5512 188.706 42.3285C188.701 42.4087 188.665 42.4841 188.607 42.5391C188.548 42.5941 188.47 42.6247 188.39 42.6245C185.674 42.6245 183.462 44.4392 183.462 46.6078C183.462 48.7763 185.7 50.591 188.461 50.591H203.734C203.82 50.591 203.902 50.6249 203.962 50.6852C204.023 50.7456 204.057 50.8274 204.057 50.9127C204.057 50.9981 204.023 51.0799 203.962 51.1403C203.902 51.2006 203.82 51.2345 203.734 51.2345V51.2023Z" fill="#D1D3D4"/>
<path d="M220.279 158.132C220.279 153.949 216.118 150.552 210.965 150.494C210.423 143.538 203.276 138.029 194.543 138.029C193.446 138.028 192.35 138.116 191.266 138.293C189.738 135.462 186.248 133.486 182.191 133.486C176.722 133.486 172.284 137.077 172.284 141.504C172.284 141.594 172.284 141.684 172.284 141.774C170.92 141.249 169.47 140.98 168.008 140.983C162.532 140.983 158.101 144.574 158.101 149.001C158.1 149.523 158.163 150.044 158.288 150.552C153.624 151.015 150.006 154.226 150.006 158.132C150.006 162.347 154.231 165.77 159.442 165.77" fill="white"/>
<path d="M159.449 166.118C154.069 166.118 149.69 162.547 149.69 158.158C149.69 154.239 153.199 150.912 157.907 150.301C157.824 149.877 157.783 149.446 157.785 149.014C157.785 144.413 162.371 140.648 168.014 140.648C169.353 140.644 170.682 140.861 171.949 141.292C172.078 136.787 176.619 133.145 182.179 133.145C186.139 133.145 189.738 135.011 191.428 137.92C192.455 137.765 193.492 137.687 194.53 137.688C203.238 137.688 210.52 143.145 211.249 150.166C216.409 150.346 220.588 153.866 220.588 158.113C220.588 158.198 220.554 158.28 220.494 158.34C220.433 158.401 220.351 158.435 220.266 158.435C220.18 158.435 220.098 158.401 220.038 158.34C219.977 158.28 219.943 158.198 219.943 158.113C219.943 154.136 215.912 150.854 210.952 150.796C210.871 150.796 210.794 150.766 210.735 150.711C210.676 150.656 210.641 150.58 210.636 150.5C210.101 143.679 203.025 138.332 194.511 138.332C193.431 138.33 192.352 138.416 191.286 138.589C191.219 138.601 191.151 138.591 191.091 138.56C191.03 138.53 190.981 138.482 190.951 138.422C189.428 135.61 185.978 133.789 182.159 133.789C176.877 133.789 172.575 137.238 172.575 141.511C172.575 141.556 172.575 141.601 172.575 141.639V141.768C172.574 141.821 172.562 141.874 172.539 141.922C172.515 141.97 172.481 142.012 172.439 142.045C172.395 142.076 172.343 142.096 172.289 142.103C172.235 142.11 172.18 142.103 172.129 142.083C170.806 141.568 169.397 141.306 167.976 141.311C162.687 141.311 158.391 144.76 158.391 149.033C158.391 149.532 158.452 150.029 158.572 150.513C158.581 150.557 158.582 150.603 158.573 150.647C158.564 150.691 158.546 150.733 158.52 150.771C158.494 150.809 158.46 150.842 158.42 150.865C158.379 150.889 158.334 150.902 158.288 150.906C153.734 151.356 150.296 154.477 150.296 158.164C150.296 162.199 154.386 165.481 159.41 165.481C159.496 165.481 159.578 165.515 159.638 165.575C159.699 165.635 159.733 165.717 159.733 165.803C159.733 165.888 159.699 165.97 159.638 166.03C159.578 166.09 159.496 166.124 159.41 166.124L159.449 166.118Z" fill="#D1D3D4"/>
</svg>
