<svg width="24" height="24" viewBox="0 0 24 24" fill="none" xmlns="http://www.w3.org/2000/svg">
<circle cx="12" cy="12" r="12" fill="white"/>
<path d="M20.4001 12.1907C20.4001 11.595 20.3455 11.0223 20.2442 10.4724H12.1709V13.7257H16.7842C16.5816 14.772 15.9738 15.6579 15.062 16.2536V18.369H17.8441C19.465 16.9027 20.4001 14.7491 20.4001 12.1907V12.1907Z" fill="#4285F4"/>
<path d="M12.1721 20.4007C14.4865 20.4007 16.4269 19.6523 17.8452 18.3693L15.0632 16.2539C14.2995 16.7579 13.3254 17.0634 12.1721 17.0634C9.94332 17.0634 8.04967 15.5895 7.3717 13.6039H4.51953V15.7728C5.93003 18.5144 8.82116 20.4007 12.1721 20.4007Z" fill="#34A853"/>
<path d="M7.37132 13.5962C7.19988 13.0921 7.09858 12.5575 7.09858 12C7.09858 11.4425 7.19988 10.908 7.37132 10.4039V8.23505H4.51916C3.9347 9.36531 3.59961 10.6407 3.59961 12C3.59961 13.3594 3.9347 14.6348 4.51916 15.765L6.74011 14.0696L7.37132 13.5962Z" fill="#FBBC05"/>
<path d="M12.1721 6.94433C13.4345 6.94433 14.5567 7.372 15.4528 8.19678L17.9076 5.79116C16.4191 4.43179 14.4865 3.59937 12.1721 3.59937C8.82115 3.59937 5.93003 5.48568 4.51953 8.23497L7.3717 10.4039C8.04967 8.41825 9.94332 6.94433 12.1721 6.94433Z" fill="#EA4335"/>
</svg>
