<svg width="32" height="32" viewBox="0 0 32 32" fill="none" xmlns="http://www.w3.org/2000/svg">
<path d="M25.2815 12.6901L18.5151 22.8786C18.4848 22.9247 18.4686 22.9787 18.4686 23.0339C18.4686 23.0891 18.4848 23.1431 18.5151 23.1892L21.6199 27.8749C21.6451 27.9133 21.6794 27.9449 21.7197 27.9667C21.76 27.9886 21.8051 28 21.8509 28C21.8968 28 21.9419 27.9886 21.9822 27.9667C22.0225 27.9449 22.0568 27.9133 22.082 27.8749L31.9531 13.0103C31.9811 12.9682 31.9972 12.9192 31.9997 12.8686C32.0021 12.818 31.9908 12.7677 31.967 12.7231C31.9432 12.6784 31.9077 12.6411 31.8644 12.6151C31.8211 12.5891 31.7716 12.5755 31.7211 12.5755H25.5193C25.4733 12.5736 25.4276 12.583 25.3861 12.603C25.3447 12.6229 25.3087 12.6529 25.2815 12.6901ZM29.0822 4H2.91971C2.87387 4.00009 2.82875 4.01145 2.78831 4.03311C2.74786 4.05477 2.71332 4.08606 2.68772 4.12423L0.0469142 8.09949C0.018883 8.14162 0.00278072 8.19059 0.000328926 8.24119C-0.00212287 8.29179 0.00916802 8.34211 0.0329944 8.38677C0.0568208 8.43142 0.0922868 8.46874 0.135601 8.49472C0.178914 8.52071 0.228447 8.53438 0.278903 8.53429H16.3383L6.81325 22.8786C6.7829 22.9247 6.76672 22.9787 6.76672 23.0339C6.76672 23.0891 6.7829 23.1431 6.81325 23.1892L9.90643 27.8652C9.93183 27.9036 9.9663 27.9351 10.0068 27.957C10.0473 27.9788 10.0925 27.9902 10.1384 27.9902C10.1844 27.9902 10.2296 27.9788 10.2701 27.957C10.3105 27.9351 10.345 27.9036 10.3704 27.8652L23.2052 8.53429H31.7114C31.7619 8.53438 31.8114 8.52071 31.8547 8.49472C31.898 8.46874 31.9335 8.43142 31.9573 8.38677C31.9812 8.34211 31.9925 8.29179 31.99 8.24119C31.9876 8.19059 31.9714 8.14162 31.9434 8.09949L29.3123 4.12423C29.2872 4.08596 29.2531 4.05457 29.2129 4.03288C29.1727 4.01119 29.1278 3.99989 29.0822 4ZM0.0469142 13.0006L4.06032 19.0528C4.08548 19.0913 4.11977 19.1228 4.1601 19.1447C4.20042 19.1665 4.24552 19.1779 4.29134 19.1779C4.33716 19.1779 4.38226 19.1665 4.42258 19.1447C4.46291 19.1228 4.4972 19.0913 4.52236 19.0528L8.54736 13.0006C8.57549 12.9584 8.59161 12.9092 8.59398 12.8584C8.59635 12.8077 8.58489 12.7572 8.56083 12.7125C8.53677 12.6678 8.50103 12.6305 8.45744 12.6047C8.41385 12.5788 8.36406 12.5654 8.31344 12.5658H0.278903C0.228447 12.5657 0.178914 12.5794 0.135601 12.6054C0.0922868 12.6314 0.0568208 12.6687 0.0329944 12.7134C0.00916802 12.758 -0.00212287 12.8083 0.000328926 12.8589C0.00278072 12.9095 0.018883 12.9585 0.0469142 13.0006Z" fill="#2375EF"/>
</svg>
